<?xml version="1.0" encoding="UTF-8"?>
<svg id="Calque_2" data-name="Calque 2" xmlns="http://www.w3.org/2000/svg" viewBox="0 0 64.28 67.8">
  <defs>
    <style>
      .cls-1 {
        fill: #a3191c;
      }

      .cls-2 {
        fill: #fff;
      }

      .cls-3 {
        fill: none;
        stroke: #fff;
        stroke-width: 6px;
      }

      .cls-4 {
        fill: #e6c9c1;
      }

      .cls-5 {
        fill: #4f1b11;
      }
    </style>
  </defs>
  <g id="Calque_2-2" data-name="Calque 2">
    <g>
      <g>
        <g>
          <path class="cls-2" d="M46.78,46.45c-.05,0-.1,0-.16,0-6.82-.43-12.27-6.11-12.39-12.95-.09-5.12,2.71-9.56,6.85-11.85.8-.44.84-1.59.07-2.09-4.06-2.64-8.9-4.18-14.12-4.21C12.66,15.27.79,26.98.67,41.35c-.12,14.29,11.24,26.09,25.59,26.44,10.71.26,20.08-5.94,24.37-15.05,1.56-3.3-.19-6.11-3.84-6.3ZM39.48,60.63c-2.86-.07-5.12-2.45-5.05-5.31s2.45-5.12,5.31-5.05,5.12,2.45,5.05,5.31-2.45,5.12-5.31,5.05Z"/>
          <circle class="cls-2" cx="27.78" cy="23.28" r="3.85"/>
          <circle class="cls-2" cx="14.47" cy="28.13" r="3.85"/>
          <circle class="cls-2" cx="8.96" cy="41.37" r="3.85"/>
          <circle class="cls-2" cx="13.83" cy="53.94" r="3.85"/>
          <circle class="cls-2" cx="26.87" cy="60.32" r="3.85"/>
        </g>
        <g>
          <path class="cls-2" d="M60.96,10.13l2.64,2.11c.8.64.92,1.82.25,2.6l-24.76,29.21-4-3.19,23.28-30.41c.62-.81,1.79-.95,2.58-.32Z"/>
          <rect class="cls-2" x="35.61" y="38.09" width="3.27" height="8.97" rx="1.64" ry="1.64" transform="translate(-19.26 45.14) rotate(-51.43)"/>
          <path class="cls-2" d="M28.72,44.62s-.05.06-.08.09c-.36.45-.63.94-.82,1.44-.03.07-.05.13-.07.2-.3.91-1.19,3.91-1.69,4.7-.5.8-1.54,1.28-1.54,1.28.11.24,1.23.87,5.67,1.28,1.54.14,2.77.01,3.75-.25.93-.19,1.81-.63,2.55-1.29.51-.44.76-.83.82-.93,1.6-2.31,1.16-5.5-1.07-7.28s-5.42-1.5-7.32.55h-.02s-.07.07-.17.21Z"/>
        </g>
        <path class="cls-2" d="M51.51.37l.61,2.04c.12.4.43.71.83.83l2.04.61c.31.09.31.54,0,.63l-2.04.61c-.4.12-.71.43-.83.83l-.61,2.04c-.09.31-.54.31-.63,0l-.61-2.04c-.12-.4-.43-.71-.83-.83l-2.04-.61c-.31-.09-.31-.54,0-.63l2.04-.61c.4-.12.71-.43.83-.83l.61-2.04c.09-.31.54-.31.63,0Z"/>
        <path class="cls-2" d="M19.26.24l.61,2.04c.12.4.43.71.83.83l2.04.61c.31.09.31.54,0,.63l-2.04.61c-.4.12-.71.43-.83.83l-.61,2.04c-.09.31-.54.31-.63,0l-.61-2.04c-.12-.4-.43-.71-.83-.83l-2.04-.61c-.31-.09-.31-.54,0-.63l2.04-.61c.4-.12.71-.43.83-.83l.61-2.04c.09-.31.54-.31.63,0Z"/>
        <path class="cls-2" d="M4.41,16.87l.23.77c.12.4.43.71.83.83l.77.23c.31.09.31.54,0,.63l-.77.23c-.4.12-.71.43-.83.83l-.23.77c-.09.31-.54.31-.63,0l-.23-.77c-.12-.4-.43-.71-.83-.83l-.77-.23c-.31-.09-.31-.54,0-.63l.77-.23c.4-.12.71-.43.83-.83l.23-.77c.09-.31.54-.31.63,0Z"/>
        <path class="cls-2" d="M31.95,9.02l.23.77c.12.4.43.71.83.83l.77.23c.31.09.31.54,0,.63l-.77.23c-.4.12-.71.43-.83.83l-.23.77c-.09.31-.54.31-.63,0l-.23-.77c-.12-.4-.43-.71-.83-.83l-.77-.23c-.31-.09-.31-.54,0-.63l.77-.23c.4-.12.71-.43.83-.83l.23-.77c.09-.31.54-.31.63,0Z"/>
        <circle class="cls-2" cx="46.33" cy="10.24" r="2.13"/>
        <circle class="cls-2" cx="23.36" cy="5.98" r=".91"/>
        <circle class="cls-2" cx=".89" cy="8.89" r=".89"/>
        <circle class="cls-2" cx="8.96" cy="13.55" r=".62"/>
      </g>
      <g>
        <g>
          <path class="cls-3" d="M46.78,46.45c-.05,0-.1,0-.16,0-6.82-.43-12.27-6.11-12.39-12.95-.09-5.12,2.71-9.56,6.85-11.85.8-.44.84-1.59.07-2.09-4.06-2.64-8.9-4.18-14.12-4.21C12.66,15.27.79,26.98.67,41.35c-.12,14.29,11.24,26.09,25.59,26.44,10.71.26,20.08-5.94,24.37-15.05,1.56-3.3-.19-6.11-3.84-6.3ZM39.48,60.63c-2.86-.07-5.12-2.45-5.05-5.31s2.45-5.12,5.31-5.05,5.12,2.45,5.05,5.31-2.45,5.12-5.31,5.05Z"/>
          <circle class="cls-3" cx="27.78" cy="23.28" r="3.85"/>
          <circle class="cls-3" cx="14.47" cy="28.13" r="3.85"/>
          <circle class="cls-3" cx="8.96" cy="41.37" r="3.85"/>
          <circle class="cls-3" cx="13.83" cy="53.94" r="3.85"/>
          <circle class="cls-3" cx="26.87" cy="60.32" r="3.85"/>
        </g>
        <g>
          <path class="cls-3" d="M60.96,10.13l2.64,2.11c.8.64.92,1.82.25,2.6l-24.76,29.21-4-3.19,23.28-30.41c.62-.81,1.79-.95,2.58-.32Z"/>
          <rect class="cls-3" x="35.61" y="38.09" width="3.27" height="8.97" rx="1.64" ry="1.64" transform="translate(-19.26 45.14) rotate(-51.43)"/>
          <path class="cls-3" d="M28.72,44.62s-.05.06-.08.09c-.36.45-.63.94-.82,1.44-.03.07-.05.13-.07.2-.3.91-1.19,3.91-1.69,4.7-.5.8-1.54,1.28-1.54,1.28.11.24,1.23.87,5.67,1.28,1.54.14,2.77.01,3.75-.25.93-.19,1.81-.63,2.55-1.29.51-.44.76-.83.82-.93,1.6-2.31,1.16-5.5-1.07-7.28s-5.42-1.5-7.32.55h-.02s-.07.07-.17.21Z"/>
        </g>
        <path class="cls-3" d="M51.51.37l.61,2.04c.12.4.43.71.83.83l2.04.61c.31.09.31.54,0,.63l-2.04.61c-.4.12-.71.43-.83.83l-.61,2.04c-.09.31-.54.31-.63,0l-.61-2.04c-.12-.4-.43-.71-.83-.83l-2.04-.61c-.31-.09-.31-.54,0-.63l2.04-.61c.4-.12.71-.43.83-.83l.61-2.04c.09-.31.54-.31.63,0Z"/>
        <path class="cls-3" d="M19.26.24l.61,2.04c.12.4.43.71.83.83l2.04.61c.31.09.31.54,0,.63l-2.04.61c-.4.12-.71.43-.83.83l-.61,2.04c-.09.31-.54.31-.63,0l-.61-2.04c-.12-.4-.43-.71-.83-.83l-2.04-.61c-.31-.09-.31-.54,0-.63l2.04-.61c.4-.12.71-.43.83-.83l.61-2.04c.09-.31.54-.31.63,0Z"/>
        <path class="cls-3" d="M4.41,16.87l.23.77c.12.4.43.71.83.83l.77.23c.31.09.31.54,0,.63l-.77.23c-.4.12-.71.43-.83.83l-.23.77c-.09.31-.54.31-.63,0l-.23-.77c-.12-.4-.43-.71-.83-.83l-.77-.23c-.31-.09-.31-.54,0-.63l.77-.23c.4-.12.71-.43.83-.83l.23-.77c.09-.31.54-.31.63,0Z"/>
        <path class="cls-3" d="M31.95,9.02l.23.77c.12.4.43.71.83.83l.77.23c.31.09.31.54,0,.63l-.77.23c-.4.12-.71.43-.83.83l-.23.77c-.09.31-.54.31-.63,0l-.23-.77c-.12-.4-.43-.71-.83-.83l-.77-.23c-.31-.09-.31-.54,0-.63l.77-.23c.4-.12.71-.43.83-.83l.23-.77c.09-.31.54-.31.63,0Z"/>
        <circle class="cls-3" cx="46.33" cy="10.24" r="2.13"/>
        <circle class="cls-3" cx="23.36" cy="5.98" r=".91"/>
        <circle class="cls-3" cx=".89" cy="8.89" r=".89"/>
        <circle class="cls-3" cx="8.96" cy="13.55" r=".62"/>
      </g>
      <g>
        <g>
          <path class="cls-5" d="M46.78,46.45c-.05,0-.1,0-.16,0-6.82-.43-12.27-6.11-12.39-12.95-.09-5.12,2.71-9.56,6.85-11.85.8-.44.84-1.59.07-2.09-4.06-2.64-8.9-4.18-14.12-4.21C12.66,15.27.79,26.98.67,41.35c-.12,14.29,11.24,26.09,25.59,26.44,10.71.26,20.08-5.94,24.37-15.05,1.56-3.3-.19-6.11-3.84-6.3ZM39.48,60.63c-2.86-.07-5.12-2.45-5.05-5.31s2.45-5.12,5.31-5.05,5.12,2.45,5.05,5.31-2.45,5.12-5.31,5.05Z"/>
          <circle class="cls-1" cx="27.78" cy="23.28" r="3.85"/>
          <circle class="cls-1" cx="14.47" cy="28.13" r="3.85"/>
          <circle class="cls-1" cx="8.96" cy="41.37" r="3.85"/>
          <circle class="cls-1" cx="13.83" cy="53.94" r="3.85"/>
          <circle class="cls-1" cx="26.87" cy="60.32" r="3.85"/>
        </g>
        <g>
          <path class="cls-5" d="M60.96,10.13l2.64,2.11c.8.64.92,1.82.25,2.6l-24.76,29.21-4-3.19,23.28-30.41c.62-.81,1.79-.95,2.58-.32Z"/>
          <rect class="cls-4" x="35.61" y="38.09" width="3.27" height="8.97" rx="1.64" ry="1.64" transform="translate(-19.26 45.14) rotate(-51.43)"/>
          <path class="cls-1" d="M28.72,44.62s-.05.06-.08.09c-.36.45-.63.94-.82,1.44-.03.07-.05.13-.07.2-.3.91-1.19,3.91-1.69,4.7-.5.8-1.54,1.28-1.54,1.28.11.24,1.23.87,5.67,1.28,1.54.14,2.77.01,3.75-.25.93-.19,1.81-.63,2.55-1.29.51-.44.76-.83.82-.93,1.6-2.31,1.16-5.5-1.07-7.28s-5.42-1.5-7.32.55h-.02s-.07.07-.17.21Z"/>
        </g>
        <path class="cls-1" d="M51.51.37l.61,2.04c.12.4.43.71.83.83l2.04.61c.31.09.31.54,0,.63l-2.04.61c-.4.12-.71.43-.83.83l-.61,2.04c-.09.31-.54.31-.63,0l-.61-2.04c-.12-.4-.43-.71-.83-.83l-2.04-.61c-.31-.09-.31-.54,0-.63l2.04-.61c.4-.12.71-.43.83-.83l.61-2.04c.09-.31.54-.31.63,0Z"/>
        <path class="cls-1" d="M19.26.24l.61,2.04c.12.4.43.71.83.83l2.04.61c.31.09.31.54,0,.63l-2.04.61c-.4.12-.71.43-.83.83l-.61,2.04c-.09.31-.54.31-.63,0l-.61-2.04c-.12-.4-.43-.71-.83-.83l-2.04-.61c-.31-.09-.31-.54,0-.63l2.04-.61c.4-.12.71-.43.83-.83l.61-2.04c.09-.31.54-.31.63,0Z"/>
        <path class="cls-1" d="M4.41,16.87l.23.77c.12.4.43.71.83.83l.77.23c.31.09.31.54,0,.63l-.77.23c-.4.12-.71.43-.83.83l-.23.77c-.09.31-.54.31-.63,0l-.23-.77c-.12-.4-.43-.71-.83-.83l-.77-.23c-.31-.09-.31-.54,0-.63l.77-.23c.4-.12.71-.43.83-.83l.23-.77c.09-.31.54-.31.63,0Z"/>
        <path class="cls-1" d="M31.95,9.02l.23.77c.12.4.43.71.83.83l.77.23c.31.09.31.54,0,.63l-.77.23c-.4.12-.71.43-.83.83l-.23.77c-.09.31-.54.31-.63,0l-.23-.77c-.12-.4-.43-.71-.83-.83l-.77-.23c-.31-.09-.31-.54,0-.63l.77-.23c.4-.12.71-.43.83-.83l.23-.77c.09-.31.54-.31.63,0Z"/>
        <circle class="cls-1" cx="46.33" cy="10.24" r="2.13"/>
        <circle class="cls-1" cx="23.36" cy="5.98" r=".91"/>
        <circle class="cls-1" cx=".89" cy="8.89" r=".89"/>
        <circle class="cls-1" cx="8.96" cy="13.55" r=".62"/>
      </g>
    </g>
  </g>
</svg>