<?xml version="1.0" encoding="UTF-8"?>
<svg id="Calque_2" data-name="Calque 2" xmlns="http://www.w3.org/2000/svg" viewBox="0 0 92.53 97.96">
  <defs>
    <style>
      .cls-1 {
        fill: #56423e;
      }

      .cls-2 {
        fill: #fff;
      }

      .cls-3 {
        fill: none;
        stroke: #fff;
        stroke-width: 6px;
      }

      .cls-4 {
        fill: #e44134;
      }

      .cls-5 {
        fill: #bea6a1;
      }
    </style>
  </defs>
  <g id="Calque_2-2" data-name="Calque 2">
    <g>
      <g>
        <g>
          <path class="cls-2" d="M67.34,67.23c-.07,0-.15,0-.22-.01-9.82-.61-17.66-8.8-17.84-18.64-.14-7.37,3.89-13.77,9.85-17.06,1.16-.64,1.21-2.29.1-3.01-5.84-3.79-12.81-6.02-20.32-6.06C18.22,22.34,1.14,39.2.96,59.89c-.18,20.57,16.19,37.55,36.83,38.06,15.42.38,28.9-8.55,35.08-21.66,2.24-4.76-.28-8.8-5.53-9.07ZM56.83,87.64c-4.12-.1-7.37-3.52-7.27-7.64s3.52-7.37,7.64-7.27,7.37,3.52,7.27,7.64-3.52,7.37-7.64,7.27Z"/>
          <circle class="cls-2" cx="39.99" cy="33.87" r="5.54"/>
          <circle class="cls-2" cx="20.82" cy="40.86" r="5.54"/>
          <circle class="cls-2" cx="12.9" cy="59.91" r="5.54"/>
          <circle class="cls-2" cx="19.91" cy="78" r="5.54"/>
          <circle class="cls-2" cx="38.68" cy="87.19" r="5.54"/>
        </g>
        <g>
          <path class="cls-2" d="M87.74,14.95l3.8,3.03c1.16.92,1.32,2.62.37,3.75l-35.64,42.04-5.75-4.59L84.02,15.4c.89-1.17,2.57-1.37,3.72-.46Z"/>
          <rect class="cls-2" x="51.25" y="55.19" width="4.71" height="12.91" rx="2.36" ry="2.36" transform="translate(-28.01 65.12) rotate(-51.43)"/>
          <path class="cls-2" d="M41.33,64.59s-.07.08-.11.12c-.51.65-.91,1.35-1.19,2.08-.04.09-.07.19-.1.28-.43,1.3-1.71,5.62-2.43,6.77-.73,1.15-2.22,1.84-2.22,1.84.16.35,1.76,1.25,8.17,1.84,2.21.21,3.98.02,5.39-.35,1.34-.27,2.61-.9,3.66-1.86.74-.64,1.09-1.19,1.17-1.34,2.3-3.33,1.67-7.92-1.54-10.48-3.2-2.55-7.8-2.16-10.53.8l-.02-.02s-.1.12-.25.33Z"/>
        </g>
        <path class="cls-2" d="M74.01.43l1.1,3.69c.12.4.43.71.83.83l3.69,1.1c.31.09.31.54,0,.63l-3.69,1.1c-.4.12-.71.43-.83.83l-1.1,3.69c-.09.31-.54.31-.63,0l-1.1-3.69c-.12-.4-.43-.71-.83-.83l-3.69-1.1c-.31-.09-.31-.54,0-.63l3.69-1.1c.4-.12.71-.43.83-.83l1.1-3.69c.09-.31.54-.31.63,0Z"/>
        <path class="cls-2" d="M27.58.24l1.1,3.69c.12.4.43.71.83.83l3.69,1.1c.31.09.31.54,0,.63l-3.69,1.1c-.4.12-.71.43-.83.83l-1.1,3.69c-.09.31-.54.31-.63,0l-1.1-3.69c-.12-.4-.43-.71-.83-.83l-3.69-1.1c-.31-.09-.31-.54,0-.63l3.69-1.1c.4-.12.71-.43.83-.83l1.1-3.69c.09-.31.54-.31.63,0Z"/>
        <path class="cls-2" d="M6.21,24.17l.55,1.86c.12.4.43.71.83.83l1.86.55c.31.09.31.54,0,.63l-1.86.55c-.4.12-.71.43-.83.83l-.55,1.86c-.09.31-.54.31-.63,0l-.55-1.86c-.12-.4-.43-.71-.83-.83l-1.86-.55c-.31-.09-.31-.54,0-.63l1.86-.55c.4-.12.71-.43.83-.83l.55-1.86c.09-.31.54-.31.63,0Z"/>
        <path class="cls-2" d="M45.85,12.88l.55,1.86c.12.4.43.71.83.83l1.86.55c.31.09.31.54,0,.63l-1.86.55c-.4.12-.71.43-.83.83l-.55,1.86c-.09.31-.54.31-.63,0l-.55-1.86c-.12-.4-.43-.71-.83-.83l-1.86-.55c-.31-.09-.31-.54,0-.63l1.86-.55c.4-.12.71-.43.83-.83l.55-1.86c.09-.31.54-.31.63,0Z"/>
        <circle class="cls-2" cx="66.69" cy="15.1" r="3.06"/>
        <circle class="cls-2" cx="33.63" cy="8.98" r="1.31"/>
        <circle class="cls-2" cx="1.28" cy="13.17" r="1.28"/>
        <circle class="cls-2" cx="12.9" cy="19.86" r=".89"/>
      </g>
      <g>
        <g>
          <path class="cls-3" d="M67.34,67.23c-.07,0-.15,0-.22-.01-9.82-.61-17.66-8.8-17.84-18.64-.14-7.37,3.89-13.77,9.85-17.06,1.16-.64,1.21-2.29.1-3.01-5.84-3.79-12.81-6.02-20.32-6.06C18.22,22.34,1.14,39.2.96,59.89c-.18,20.57,16.19,37.55,36.83,38.06,15.42.38,28.9-8.55,35.08-21.66,2.24-4.76-.28-8.8-5.53-9.07ZM56.83,87.64c-4.12-.1-7.37-3.52-7.27-7.64s3.52-7.37,7.64-7.27,7.37,3.52,7.27,7.64-3.52,7.37-7.64,7.27Z"/>
          <circle class="cls-3" cx="39.99" cy="33.87" r="5.54"/>
          <circle class="cls-3" cx="20.82" cy="40.86" r="5.54"/>
          <circle class="cls-3" cx="12.9" cy="59.91" r="5.54"/>
          <circle class="cls-3" cx="19.91" cy="78" r="5.54"/>
          <circle class="cls-3" cx="38.68" cy="87.19" r="5.54"/>
        </g>
        <g>
          <path class="cls-3" d="M87.74,14.95l3.8,3.03c1.16.92,1.32,2.62.37,3.75l-35.64,42.04-5.75-4.59L84.02,15.4c.89-1.17,2.57-1.37,3.72-.46Z"/>
          <rect class="cls-3" x="51.25" y="55.19" width="4.71" height="12.91" rx="2.36" ry="2.36" transform="translate(-28.01 65.12) rotate(-51.43)"/>
          <path class="cls-3" d="M41.33,64.59s-.07.08-.11.12c-.51.65-.91,1.35-1.19,2.08-.04.09-.07.19-.1.28-.43,1.3-1.71,5.62-2.43,6.77-.73,1.15-2.22,1.84-2.22,1.84.16.35,1.76,1.25,8.17,1.84,2.21.21,3.98.02,5.39-.35,1.34-.27,2.61-.9,3.66-1.86.74-.64,1.09-1.19,1.17-1.34,2.3-3.33,1.67-7.92-1.54-10.48-3.2-2.55-7.8-2.16-10.53.8l-.02-.02s-.1.12-.25.33Z"/>
        </g>
        <path class="cls-3" d="M74.01.43l1.1,3.69c.12.4.43.71.83.83l3.69,1.1c.31.09.31.54,0,.63l-3.69,1.1c-.4.12-.71.43-.83.83l-1.1,3.69c-.09.31-.54.31-.63,0l-1.1-3.69c-.12-.4-.43-.71-.83-.83l-3.69-1.1c-.31-.09-.31-.54,0-.63l3.69-1.1c.4-.12.71-.43.83-.83l1.1-3.69c.09-.31.54-.31.63,0Z"/>
        <path class="cls-3" d="M27.58.24l1.1,3.69c.12.4.43.71.83.83l3.69,1.1c.31.09.31.54,0,.63l-3.69,1.1c-.4.12-.71.43-.83.83l-1.1,3.69c-.09.31-.54.31-.63,0l-1.1-3.69c-.12-.4-.43-.71-.83-.83l-3.69-1.1c-.31-.09-.31-.54,0-.63l3.69-1.1c.4-.12.71-.43.83-.83l1.1-3.69c.09-.31.54-.31.63,0Z"/>
        <path class="cls-3" d="M6.21,24.17l.55,1.86c.12.4.43.71.83.83l1.86.55c.31.09.31.54,0,.63l-1.86.55c-.4.12-.71.43-.83.83l-.55,1.86c-.09.31-.54.31-.63,0l-.55-1.86c-.12-.4-.43-.71-.83-.83l-1.86-.55c-.31-.09-.31-.54,0-.63l1.86-.55c.4-.12.71-.43.83-.83l.55-1.86c.09-.31.54-.31.63,0Z"/>
        <path class="cls-3" d="M45.85,12.88l.55,1.86c.12.4.43.71.83.83l1.86.55c.31.09.31.54,0,.63l-1.86.55c-.4.12-.71.43-.83.83l-.55,1.86c-.09.31-.54.31-.63,0l-.55-1.86c-.12-.4-.43-.71-.83-.83l-1.86-.55c-.31-.09-.31-.54,0-.63l1.86-.55c.4-.12.71-.43.83-.83l.55-1.86c.09-.31.54-.31.63,0Z"/>
        <circle class="cls-3" cx="66.69" cy="15.1" r="3.06"/>
        <circle class="cls-3" cx="33.63" cy="8.98" r="1.31"/>
        <circle class="cls-3" cx="1.28" cy="13.17" r="1.28"/>
        <circle class="cls-3" cx="12.9" cy="19.86" r=".89"/>
      </g>
      <g>
        <g>
          <path class="cls-1" d="M67.34,67.23c-.07,0-.15,0-.22-.01-9.82-.61-17.66-8.8-17.84-18.64-.14-7.37,3.89-13.77,9.85-17.06,1.16-.64,1.21-2.29.1-3.01-5.84-3.79-12.81-6.02-20.32-6.06C18.22,22.34,1.14,39.2.96,59.89c-.18,20.57,16.19,37.55,36.83,38.06,15.42.38,28.9-8.55,35.08-21.66,2.24-4.76-.28-8.8-5.53-9.07ZM56.83,87.64c-4.12-.1-7.37-3.52-7.27-7.64s3.52-7.37,7.64-7.27,7.37,3.52,7.27,7.64-3.52,7.37-7.64,7.27Z"/>
          <circle class="cls-4" cx="39.99" cy="33.87" r="5.54"/>
          <circle class="cls-4" cx="20.82" cy="40.86" r="5.54"/>
          <circle class="cls-4" cx="12.9" cy="59.91" r="5.54"/>
          <circle class="cls-4" cx="19.91" cy="78" r="5.54"/>
          <circle class="cls-4" cx="38.68" cy="87.19" r="5.54"/>
        </g>
        <g>
          <path class="cls-1" d="M87.74,14.95l3.8,3.03c1.16.92,1.32,2.62.37,3.75l-35.64,42.04-5.75-4.59L84.02,15.4c.89-1.17,2.57-1.37,3.72-.46Z"/>
          <rect class="cls-5" x="51.25" y="55.19" width="4.71" height="12.91" rx="2.36" ry="2.36" transform="translate(-28.01 65.12) rotate(-51.43)"/>
          <path class="cls-4" d="M41.33,64.59s-.07.08-.11.12c-.51.65-.91,1.35-1.19,2.08-.04.09-.07.19-.1.28-.43,1.3-1.71,5.62-2.43,6.77-.73,1.15-2.22,1.84-2.22,1.84.16.35,1.76,1.25,8.17,1.84,2.21.21,3.98.02,5.39-.35,1.34-.27,2.61-.9,3.66-1.86.74-.64,1.09-1.19,1.17-1.34,2.3-3.33,1.67-7.92-1.54-10.48-3.2-2.55-7.8-2.16-10.53.8l-.02-.02s-.1.12-.25.33Z"/>
        </g>
        <path class="cls-4" d="M74.01.43l1.1,3.69c.12.4.43.71.83.83l3.69,1.1c.31.09.31.54,0,.63l-3.69,1.1c-.4.12-.71.43-.83.83l-1.1,3.69c-.09.31-.54.31-.63,0l-1.1-3.69c-.12-.4-.43-.71-.83-.83l-3.69-1.1c-.31-.09-.31-.54,0-.63l3.69-1.1c.4-.12.71-.43.83-.83l1.1-3.69c.09-.31.54-.31.63,0Z"/>
        <path class="cls-4" d="M27.58.24l1.1,3.69c.12.4.43.71.83.83l3.69,1.1c.31.09.31.54,0,.63l-3.69,1.1c-.4.12-.71.43-.83.83l-1.1,3.69c-.09.31-.54.31-.63,0l-1.1-3.69c-.12-.4-.43-.71-.83-.83l-3.69-1.1c-.31-.09-.31-.54,0-.63l3.69-1.1c.4-.12.71-.43.83-.83l1.1-3.69c.09-.31.54-.31.63,0Z"/>
        <path class="cls-4" d="M6.21,24.17l.55,1.86c.12.4.43.71.83.83l1.86.55c.31.09.31.54,0,.63l-1.86.55c-.4.12-.71.43-.83.83l-.55,1.86c-.09.31-.54.31-.63,0l-.55-1.86c-.12-.4-.43-.71-.83-.83l-1.86-.55c-.31-.09-.31-.54,0-.63l1.86-.55c.4-.12.71-.43.83-.83l.55-1.86c.09-.31.54-.31.63,0Z"/>
        <path class="cls-4" d="M45.85,12.88l.55,1.86c.12.4.43.71.83.83l1.86.55c.31.09.31.54,0,.63l-1.86.55c-.4.12-.71.43-.83.83l-.55,1.86c-.09.31-.54.31-.63,0l-.55-1.86c-.12-.4-.43-.71-.83-.83l-1.86-.55c-.31-.09-.31-.54,0-.63l1.86-.55c.4-.12.71-.43.83-.83l.55-1.86c.09-.31.54-.31.63,0Z"/>
        <circle class="cls-4" cx="66.69" cy="15.1" r="3.06"/>
        <circle class="cls-4" cx="33.63" cy="8.98" r="1.31"/>
        <circle class="cls-4" cx="1.28" cy="13.17" r="1.28"/>
        <circle class="cls-4" cx="12.9" cy="19.86" r=".89"/>
      </g>
    </g>
  </g>
</svg>