<?xml version="1.0" encoding="UTF-8"?>
<svg id="Calque_2" data-name="Calque 2" xmlns="http://www.w3.org/2000/svg" viewBox="0 0 202.97 315.64">
  <defs>
    <style>
      .cls-1 {
        fill: #201510;
      }

      .cls-2 {
        fill: #a3191c;
      }

      .cls-3 {
        fill: #1d1d1b;
      }

      .cls-4 {
        fill: #3d3d3c;
      }

      .cls-5 {
        fill: #fff;
      }

      .cls-6 {
        fill: #362824;
      }

      .cls-7 {
        fill: #282726;
      }

      .cls-8 {
        fill: #dda19c;
      }

      .cls-9 {
        fill: #f5d5cb;
      }
    </style>
  </defs>
  <g id="Calque_2-2" data-name="Calque 2">
    <g id="audiovisuel">
      <g>
        <path class="cls-6" d="M132.69,169.63c.34-.13.69-.27,1.03-.4,5.83-2.27,10.5-6.61,12.42-12.11,5.34-15.33-13.68-24.88-14.68-40.33-1.19-18.35-1.26-59.03-1.26-59.03h-56.66s-56.66,0-56.66,0c0,0-.07,40.68-1.26,59.03-1,15.46-20.03,25-14.68,40.33,1.92,5.5,6.59,9.83,12.42,12.11.35.13.69.27,1.03.4,37.81,14.58,80.48,14.58,118.29,0Z"/>
        <path class="cls-6" d="M47.44,33.95S61.47,0,74.67,0s23.11,33.95,23.11,33.95h-50.34Z"/>
      </g>
      <g>
        <rect class="cls-4" x="122.12" y="174.01" width="73.49" height="50.19" transform="translate(-92.39 157.26) rotate(-41.96)"/>
        <polygon class="cls-5" points="130.21 191.13 131.44 203.67 124.68 209.75 123.45 197.21 130.21 191.13"/>
        <polygon class="cls-5" points="142.65 179.95 143.88 192.49 137.12 198.57 135.89 186.03 142.65 179.95"/>
        <polygon class="cls-5" points="155.08 168.77 156.31 181.31 149.54 187.4 148.31 174.85 155.08 168.77"/>
        <polygon class="cls-5" points="167.52 157.58 168.75 170.13 161.98 176.21 160.75 163.67 167.52 157.58"/>
        <path class="cls-5" d="M175.03,199.83l-11.07-12.31,12.32-11.07-1.34-1.49-42.34,38.07,1.34,1.49,12.04-10.83,11.07,12.31-11.77,10.58,1.34,1.49,42.34-38.07-1.34-1.49-12.59,11.32ZM147.47,202.35l15.01-13.49,11.07,12.31-15.01,13.49-11.07-12.31Z"/>
      </g>
      <g>
        <g>
          <path class="cls-9" d="M41.74,170.54s-16.64,17.42-20.09,18.8-11.64-.58-13.6,0-2.77,10.15.46,12.69c3.23,2.54,11.3,3.23,16.03-1.04,5.77-1.96,23.76-11.3,28.03-19.61-4.73-5.88-10.84-10.84-10.84-10.84Z"/>
          <path class="cls-3" d="M18.67,199.65c-2.05.23-4.31-.09-5.9-1.58-1.21-1.66-2.2-3.24-4.25-3.96,2.14-.04,3.79,1.73,4.89,3.32,1.37,1.31,3.42,1.77,5.26,2.21h0Z"/>
        </g>
        <path class="cls-9" d="M104.26,169.15s10.5,7.15,13.61,8.77c3.11,1.61,11.3,2.08,12.34.69s7.15-6.92,8.42-6.92,3.81,2.42,3.35,3.81-6.34,7.61-6.23,9,3.92,3.46,2.42,4.73-9.92-.12-12.34,0-13.27,1.89-15.92.54-15.57-8.15-15.57-8.15l9.92-12.46Z"/>
        <rect class="cls-9" x="66.43" y="140.89" width="16.84" height="17.69"/>
        <path class="cls-2" d="M75.66,155.7c4.38,0,7.61-3.69,7.61-3.69,0,0,4.46.92,7.46,2.54,3,1.61,13.15,12.69,17.99,14.07-7.84,7.84-13.84,15.46-13.84,15.46-1.61-.92-1.03,3.63,1.46,6.24-6.69.23-22.91-.01-22.91-.01,0,0-16.44.33-23.13.1,3.13-2.55,3.29-7.25,1.68-6.33,0,0-6-7.61-13.84-15.46,4.84-1.38,15-12.46,17.99-14.07,3-1.61,9.69-2.54,9.69-2.54,0,0,5.46,3.69,9.84,3.69Z"/>
        <path class="cls-7" d="M25.04,270.86s-3.38,10.69-3.38,14.19,1.23,18.88,12.15,19.65,10-13.38,10.46-18.76.94-10.68.94-10.68l-20.17-4.4Z"/>
        <path class="cls-7" d="M73.64,280.24c-.46.62-3.69,10.92-7.23,15.53-3.54,4.61-5.69,14.76,0,18.15,5.69,3.38,17.23,2,22.3-6.15,5.08-8.15,7.69-25.99,7.69-25.99l-22.76-1.54Z"/>
        <g>
          <path class="cls-4" d="M51.98,188.37s-8.26,8.54-9.19,17.92c-.92,9.38,2.31,23.84,2.31,23.84-4.77.31-18.15,17.69-20.3,32.45-.46,5.38-1.69,10.3-1.69,10.3,4.46.92,21.53,4.61,21.53,4.61,1.38-6.15,4.37-12.77,7.34-15.53s19.73-23.69,19.73-25.53c.15,7.54,2.92,16.76,3.38,17.53s-1.85,22.92-4,28.3c7.23,1.08,25.07,2.77,25.07,2.77,4.61-8.46,6.46-30.15,2.92-45.22,3.85-5.23,8.7-34.62-4.11-51.45h-43Z"/>
          <path class="cls-5" d="M71.57,237.4c1.97-4.42,3.8-9.13,3.88-13.99-.05-4.92,0-9.84.15-14.76,0,0,0-.28,0-.28,0,0,.26,0,.26,0,1.97,0,3.86-1.14,5.38-2.5-.67.79-1.47,1.47-2.36,2.04-.89.56-1.92.97-3.02,1l.27-.27c.15,4.92.2,9.85.15,14.77-.14,5.02-2.2,9.74-4.73,13.98h0Z"/>
        </g>
        <path class="cls-9" d="M75.08,146.66s13.96-.69,19.96-3.23c6-2.54,24.92-12,34.37-44.76,9.46-32.76,1.38-76.59-54.45-76.59-55.83,0-63.9,43.83-54.45,76.59s28.38,42.22,34.37,44.76,19.96,3.23,19.96,3.23"/>
        <path class="cls-6" d="M76.93,22.08c-2.17-1.8-24.68-3.01-35.04,4.03-10.36,7.04-14.39,16.44-15.16,18.24-.77,1.8-28.02,27-2.88,65.39,3.65-7.4,25.69-51.27,51.54-54.52,24.92,3.25,48.41,47.12,51.92,54.52,24.24-38.4-2.04-63.59-2.78-65.39s-4.63-11.2-14.62-18.24c-9.99-7.04-30.9-5.83-32.99-4.03Z"/>
        <path class="cls-9" d="M24.84,98.44s-12.92,3.46-14.07,11.77c-1.15,8.31,6.23,31.61,27.68,17.07-5.77-14.07-13.61-28.84-13.61-28.84Z"/>
        <path class="cls-9" d="M125.08,98.44s12.92,3.46,14.07,11.77c1.15,8.31-6.23,31.61-27.68,17.07,5.77-14.07,13.61-28.84,13.61-28.84Z"/>
        <path class="cls-6" d="M91.53,52.1s20.31,24.69,25.9,41.15c5.6,16.45,6.03,52.76-19.44,53.93,11.46.79,16.53-4.19,19.44-7.06.24,1.72-1.94,4.45-4.1,5.86,9.7-2.61,18.55-12.35,19.19-28.43s-3.04-64.87-41-65.45Z"/>
        <path class="cls-6" d="M59.25,52.88s-20.31,23.12-25.9,39.57c-5.6,16.45-6.03,52.76,19.44,53.93-11.46.79-16.53-4.19-19.44-7.06-.24,1.72,1.94,4.45,4.1,5.86-9.7-2.61-18.55-12.35-19.19-28.43-.65-16.08,3.04-63.3,41-63.87Z"/>
        <circle class="cls-8" cx="39.13" cy="120.28" r="8.23"/>
        <circle class="cls-8" cx="110.57" cy="120.28" r="8.23"/>
        <path class="cls-3" d="M75.39,127.12c-3.77,0-7.06-.47-8.96-1.18.7,1.22,4.43,2.16,8.96,2.16s8.26-.93,8.96-2.16c-1.9.71-5.19,1.18-8.96,1.18Z"/>
        <g>
          <ellipse class="cls-1" cx="52.82" cy="109.53" rx="8.47" ry="10.72"/>
          <ellipse class="cls-5" cx="55.71" cy="105.28" rx="1.95" ry="2.46"/>
          <path class="cls-3" d="M43.94,103.86c1.21-.95,2.41-1.93,3.76-2.51,1.89-.81,4.03-1.35,6.07-.9,4.11.9,10.38,5.63,11.95,8.31,0,0-5.47-9.78-11.95-10.32-4.74-.4-7.45.91-9.43,2.33-1.36.98-3.37,2.99-4.48,4.39-1.3,1.63-2.5,3.34-4.4,5.93-.2.27-.26.68-.12.99,1.18,2.62,4.16,5.31,4.16,5.31-1.78-2.46-2.51-4.72-2.19-6.15s4.79-5.96,6.63-7.39Z"/>
        </g>
        <g>
          <ellipse class="cls-1" cx="97.54" cy="109.75" rx="8.47" ry="10.72"/>
          <ellipse class="cls-5" cx="100.43" cy="105.5" rx="1.95" ry="2.46"/>
          <path class="cls-3" d="M106.42,104.08c-1.21-.95-2.41-1.93-3.76-2.51-1.89-.81-4.03-1.35-6.07-.9-4.11.9-10.38,5.63-11.95,8.31,0,0,5.47-9.78,11.95-10.32,4.74-.4,7.45.91,9.43,2.33,1.36.98,3.37,2.99,4.48,4.39,1.3,1.63,2.5,3.34,4.4,5.93.2.27.26.68.12.99-1.18,2.62-4.16,5.31-4.16,5.31,1.78-2.46,2.51-4.72,2.19-6.15s-4.79-5.96-6.63-7.39Z"/>
        </g>
        <path class="cls-3" d="M63.02,92.55c-6.61.83-12.93.74-19.41,2-3.78.99-7.32,2.79-10.49,5.12,0,0-.22-.23-.22-.23,5.6-6.1,14-9.01,22.15-9.31,2.77.1,5.6.66,8.03,2.1l-.07.31h0Z"/>
        <path class="cls-3" d="M87.76,92.55c6.61.83,12.93.74,19.41,2,3.78.99,7.32,2.79,10.49,5.12,0,0,.22-.23.22-.23-5.6-6.1-14-9.01-22.15-9.31-2.77.1-5.6.66-8.03,2.1l.07.31h0Z"/>
        <path class="cls-3" d="M67.96,146.05c4.68.24,9.34.44,14.01,0-4.57,1.12-9.42.92-14.01,0h0Z"/>
      </g>
      <g>
        <rect class="cls-4" x="89.51" y="164.58" width="73.49" height="10.15" transform="translate(-81.6 208.59) rotate(-63.95)"/>
        <polygon class="cls-5" points="107.58 196.43 119.96 194.1 123.91 185.9 111.52 188.23 107.58 196.43"/>
        <polygon class="cls-5" points="129.58 151.3 141.97 149.04 145.96 140.88 133.57 143.13 129.58 151.3"/>
        <polygon class="cls-5" points="122.24 166.32 134.63 164.07 138.63 155.89 126.23 158.15 122.24 166.32"/>
        <polygon class="cls-5" points="114.89 181.35 127.29 179.1 131.29 170.92 118.89 173.17 114.89 181.35"/>
      </g>
      <circle class="cls-2" cx="12.62" cy="215.36" r="6.28"/>
      <circle class="cls-2" cx="12.62" cy="228.65" r="6.28"/>
      <ellipse class="cls-2" cx="12.62" cy="247.77" rx="6.28" ry="7.22"/>
      <ellipse class="cls-2" cx="12.62" cy="268.55" rx="6.28" ry="8.86"/>
      <ellipse class="cls-2" cx="12.62" cy="293.42" rx="6.28" ry="9.63"/>
      <ellipse class="cls-2" cx="12.62" cy="310.79" rx="6.28" ry="3.34"/>
    </g>
  </g>
</svg>