<?xml version="1.0" encoding="UTF-8"?>
<svg id="Calque_2" data-name="Calque 2" xmlns="http://www.w3.org/2000/svg" viewBox="0 0 79.01 79.01">
  <defs>
    <style>
      .cls-1 {
        fill: #a3191c;
      }

      .cls-2 {
        fill: #fff6f1;
      }

      .cls-3 {
        fill: #4f1b11;
      }
    </style>
  </defs>
  <g id="Calque_2-2" data-name="Calque 2">
    <g id="audiovisuel">
      <rect class="cls-2" width="79.01" height="79.01"/>
      <g>
        <path class="cls-3" d="M37.51,34.71H6.37c-.33,0-.59-.27-.59-.59v-17.81c0-.33.27-.59.59-.59h31.14c.33,0,.59.27.59.59v17.81c0,.33-.27.59-.59.59ZM6.37,16.18c-.07,0-.13.06-.13.13v17.81c0,.07.06.13.13.13h31.14c.07,0,.13-.06.13-.13v-17.81c0-.07-.06-.13-.13-.13H6.37Z"/>
        <path class="cls-3" d="M24.51,30.16c-3.26,0-5.92-2.65-5.92-5.92s2.66-5.92,5.92-5.92,5.92,2.65,5.92,5.92-2.65,5.92-5.92,5.92ZM24.51,18.79c-3.01,0-5.45,2.45-5.45,5.45s2.45,5.45,5.45,5.45,5.45-2.45,5.45-5.45-2.45-5.45-5.45-5.45Z"/>
        <rect class="cls-1" x="32.63" y="18.66" width="3.95" height=".47"/>
        <rect class="cls-1" x="31.38" y="15.89" width="3.95" height=".47" transform="translate(-1.63 28.31) rotate(-45)"/>
        <rect class="cls-1" x="30.31" y="12.99" width=".47" height="3.95"/>
        <path class="cls-3" d="M72.63,43.98h-31.14c-.33,0-.59-.27-.59-.59v-17.81c0-.33.27-.59.59-.59h31.14c.33,0,.59.27.59.59v17.81c0,.33-.27.59-.59.59ZM41.49,25.45c-.07,0-.13.06-.13.13v17.81c0,.07.06.13.13.13h31.14c.07,0,.13-.06.13-.13v-17.81c0-.07-.06-.13-.13-.13h-31.14Z"/>
        <path class="cls-1" d="M60.64,33.43l-5.64-3.26c-.81-.47-1.82.12-1.82,1.05v6.52c0,.93,1.01,1.52,1.82,1.05l5.64-3.26c.81-.47.81-1.63,0-2.1Z"/>
        <path class="cls-3" d="M38.84,66.01H7.7c-.33,0-.59-.27-.59-.59v-17.81c0-.33.27-.59.59-.59h31.14c.33,0,.59.27.59.59v17.81c0,.33-.27.59-.59.59ZM7.7,47.48c-.07,0-.13.06-.13.13v17.81c0,.07.06.13.13.13h31.14c.07,0,.13-.06.13-.13v-17.81c0-.07-.06-.13-.13-.13H7.7Z"/>
        <circle class="cls-1" cx="14.55" cy="57.61" r="2.74"/>
        <circle class="cls-3" cx="20.02" cy="57.61" r="2.74"/>
        <rect class="cls-3" x="11.81" y="60.35" width="18.51" height="3.27"/>
        <rect class="cls-1" x="22.76" y="54.88" width="5.48" height="5.48"/>
        <rect class="cls-3" x="23.33" y="50.54" width="4.34" height="4.34" rx="1.27" ry="1.27"/>
        <path class="cls-3" d="M17.44,56.61l2.07-3.59c.07-.12-.02-.27-.16-.27h-4.15c-.14,0-.23.15-.16.27l2.07,3.59c.07.12.24.12.31,0Z"/>
        <path class="cls-3" d="M64.82,58.36h-8.41c-2.32,0-3.06-2.16-3.78-4.25-.72-2.09-1.4-4.07-3.53-4.07s-2.64,1.83-3.29,3.77c-.7,2.1-1.49,4.49-4.32,4.51-3.73.1-8.39,0-8.43,0v-.47c.06,0,4.7.1,8.42,0,2.5-.02,3.17-2.04,3.89-4.19.67-2.01,1.36-4.09,3.73-4.09s3.23,2.23,3.97,4.38c.7,2.03,1.35,3.94,3.34,3.94h8.41v.47Z"/>
        <path class="cls-1" d="M46.98,58.13c0,.68-.55,1.24-1.24,1.24-.52,0-.97-.33-1.15-.79h-1.83v.68h-2.27v-2.27h2.27v.68h1.83c.18-.46.63-.79,1.15-.79.68,0,1.24.56,1.24,1.24Z"/>
        <path class="cls-1" d="M54.42,49.98c0,.68-.56,1.24-1.24,1.24-.52,0-.97-.33-1.15-.79h-1.96v.68h-2.27v-.68h-2.15c-.18.46-.63.79-1.15.79-.68,0-1.24-.56-1.24-1.24s.56-1.24,1.24-1.24c.52,0,.97.33,1.15.79h2.15v-.68h2.27v.68h1.96c.18-.46.63-.79,1.15-.79.68,0,1.24.56,1.24,1.24Z"/>
        <path class="cls-1" d="M57.59,56.96v2.27h-2.27v-.68h-2.09c-.18.46-.63.79-1.15.79-.68,0-1.24-.55-1.24-1.24s.56-1.24,1.24-1.24c.52,0,.97.32,1.15.79h2.09v-.68h2.27Z"/>
      </g>
    </g>
  </g>
</svg>