<svg width="295" height="484" viewBox="0 0 295 484" fill="none" xmlns="http://www.w3.org/2000/svg">
<g clip-path="url(#clip0_1412_6702)">
<g clip-path="url(#clip1_1412_6702)">
<path d="M190.446 282.984C190.914 282.805 191.396 282.612 191.864 282.433C199.887 279.308 206.313 273.333 208.956 265.76C216.304 244.655 190.13 231.507 188.754 210.236C187.116 184.973 187.02 128.967 187.02 128.967H109.046H31.0726C31.0726 128.967 30.9763 184.973 29.3387 210.236C27.9625 231.521 1.77409 244.655 9.13657 265.76C11.7788 273.333 18.2055 279.294 26.2285 282.433C26.7102 282.612 27.1781 282.805 27.646 282.984C79.6788 303.057 138.4 303.057 190.433 282.984H190.446Z" fill="#362824"/>
<path d="M73.1289 96.1859C73.1289 96.1859 92.4365 49.4453 110.602 49.4453C128.767 49.4453 142.405 96.1859 142.405 96.1859H73.1289Z" fill="#362824"/>
<path d="M240.984 264.037L165.779 331.686L211.96 383.068L287.165 315.42L240.984 264.037Z" fill="#3D3D3C"/>
<path d="M187.033 312.584L188.726 329.848L179.423 338.219L177.73 320.955L187.033 312.584Z" fill="white"/>
<path d="M204.154 297.191L205.847 314.456L196.544 322.826L194.852 305.562L204.154 297.191Z" fill="white"/>
<path d="M221.26 281.799L222.953 299.063L213.636 307.448L211.943 290.169L221.26 281.799Z" fill="white"/>
<path d="M238.379 266.393L240.072 283.671L230.755 292.041L229.062 274.777L238.379 266.393Z" fill="white"/>
<path d="M248.713 324.56L233.479 307.612L250.433 292.372L248.589 290.32L190.322 342.733L192.166 344.784L208.735 329.874L223.969 346.822L207.772 361.388L209.616 363.439L267.883 311.027L266.039 308.975L248.713 324.56ZM210.786 328.029L231.442 309.457L246.676 326.405L226.02 344.977L210.786 328.029Z" fill="white"/>
<path d="M65.2845 284.234C65.2845 284.234 42.3851 308.217 37.6374 310.117C32.8896 312.017 21.6188 309.319 18.9215 310.117C16.2242 310.916 15.1095 324.091 19.5545 327.588C23.9996 331.085 35.1052 332.035 41.6145 326.156C49.5549 323.458 74.3121 310.599 80.1884 299.158C73.6791 291.063 65.2707 284.234 65.2707 284.234H65.2845Z" fill="#F5D5CB"/>
<path d="M33.5364 324.312C30.7153 324.628 27.6052 324.188 25.4171 322.136C23.7519 319.851 22.3895 317.676 19.5684 316.685C22.5134 316.629 24.784 319.066 26.2978 321.255C28.1832 323.059 31.0043 323.692 33.5364 324.298V324.312Z" fill="#1D1D1B"/>
<path d="M151.323 282.32C151.323 282.32 165.773 292.164 170.053 294.394C174.333 296.611 185.604 297.258 187.035 295.344C188.466 293.431 196.875 285.817 198.622 285.817C200.37 285.817 203.865 289.149 203.232 291.063C202.599 292.976 194.507 301.54 194.659 303.453C194.81 305.367 200.053 308.217 197.989 309.965C195.925 311.714 184.338 309.8 181.007 309.965C177.677 310.131 162.746 312.567 159.099 310.709C155.452 308.85 137.672 299.488 137.672 299.488L151.323 282.334V282.32Z" fill="#F5D5CB"/>
<path d="M122.438 243.414H99.2637V267.769H122.438V243.414Z" fill="#F5D5CB"/>
<path d="M111.966 263.805C117.993 263.805 122.438 258.725 122.438 258.725C122.438 258.725 128.576 259.991 132.705 262.222C136.833 264.438 150.801 279.692 157.462 281.592C146.673 292.386 138.416 302.877 138.416 302.877C136.2 301.61 136.998 307.875 140.425 311.468C131.218 311.784 108.897 311.454 108.897 311.454C108.897 311.454 86.2727 311.908 77.0662 311.592C81.3736 308.081 81.5938 301.61 79.3782 302.877C79.3782 302.877 71.1212 292.4 60.332 281.592C66.9927 279.692 80.9745 264.438 85.0892 262.222C89.2177 260.005 98.4243 258.725 98.4243 258.725C98.4243 258.725 105.938 263.805 111.966 263.805Z" fill="#A3191C"/>
<path d="M42.3038 422.35C42.3038 422.35 37.6523 437.067 37.6523 441.886C37.6523 446.704 39.345 467.879 54.3727 468.939C69.4005 469.999 68.1344 450.518 68.7674 443.111C69.4005 435.704 70.061 428.407 70.061 428.407L42.3038 422.35Z" fill="#282726"/>
<path d="M109.184 435.264C108.551 436.117 104.106 450.298 99.2344 456.645C94.3628 462.991 91.404 476.965 99.2344 481.633C107.065 486.286 122.946 484.386 129.923 473.166C136.914 461.945 140.506 437.384 140.506 437.384L109.184 435.264Z" fill="#282726"/>
<path d="M79.3783 308.783C79.3783 308.783 68.0112 320.541 66.7314 333.455C65.4653 346.369 69.9103 366.276 69.9103 366.276C63.346 366.703 44.9329 390.631 41.9742 410.952C41.3411 418.359 39.6484 425.132 39.6484 425.132C45.7861 426.399 69.2773 431.479 69.2773 431.479C71.1764 423.012 75.2911 413.898 79.3783 410.098C83.4655 406.298 106.53 377.483 106.53 374.95C106.736 385.33 110.548 398.024 111.181 399.084C111.815 400.144 108.636 430.639 105.677 438.046C115.626 439.533 140.177 441.86 140.177 441.86C146.521 430.212 149.067 400.351 144.196 379.603C149.494 372.403 156.168 331.94 138.54 308.77H79.3646L79.3783 308.783Z" fill="#3D3D3C"/>
<path d="M106.336 376.286C109.047 370.201 111.566 363.716 111.676 357.025C111.607 350.252 111.676 343.478 111.882 336.704V336.319H112.24C114.951 336.319 117.552 334.749 119.644 332.877C118.722 333.965 117.621 334.901 116.396 335.686C115.171 336.457 113.754 337.021 112.24 337.062L112.611 336.691C112.818 343.464 112.887 350.252 112.818 357.025C112.625 363.936 109.79 370.435 106.309 376.272L106.336 376.286Z" fill="white"/>
<path d="M111.166 251.359C111.166 251.359 130.377 250.409 138.634 246.912C146.891 243.415 172.928 230.391 185.933 185.289C198.951 140.187 187.832 79.8438 111 79.8438C34.1691 79.8438 23.0635 140.187 36.0683 185.289C49.073 230.391 75.1238 243.415 83.367 246.912C91.6103 250.409 110.835 251.359 110.835 251.359" fill="#F5D5CB"/>
<path d="M113.713 79.8435C110.726 77.3654 79.749 75.6995 65.4919 85.3918C51.2349 95.0841 45.6889 108.026 44.6293 110.504C43.5696 112.982 6.06915 147.676 40.6659 200.529C45.6889 190.341 76.0196 129.943 111.593 125.469C145.888 129.943 178.214 190.341 183.044 200.529C216.402 147.662 180.237 112.982 179.218 110.504C178.2 108.026 172.847 95.0841 159.099 85.3918C145.351 75.6995 116.575 77.3654 113.699 79.8435H113.713Z" fill="#362824"/>
<path d="M42.0282 184.971C42.0282 184.971 24.2482 189.734 22.6656 201.175C21.083 212.616 31.2391 244.694 60.7578 224.676C52.8173 205.305 42.0282 184.971 42.0282 184.971Z" fill="#F5D5CB"/>
<path d="M179.974 184.971C179.974 184.971 197.754 189.734 199.336 201.175C200.919 212.616 190.763 244.694 161.244 224.676C169.185 205.305 179.974 184.971 179.974 184.971Z" fill="#F5D5CB"/>
<path d="M133.805 121.174C133.805 121.174 161.755 155.166 169.447 177.827C177.154 200.475 177.746 250.464 142.695 252.075C158.466 253.163 165.443 246.306 169.447 242.355C169.778 244.723 166.778 248.482 163.805 250.423C177.154 246.83 189.333 233.42 190.214 211.282C191.095 189.144 186.03 121.972 133.791 121.174H133.805Z" fill="#362824"/>
<path d="M89.3815 122.246C89.3815 122.246 61.4315 154.076 53.7388 176.724C46.0323 199.372 45.4405 249.361 80.4914 250.972C64.7206 252.06 57.7434 245.203 53.7388 241.252C53.4085 243.62 56.4085 247.379 59.3811 249.32C46.0323 245.727 33.8532 232.317 32.9725 210.179C32.0779 188.041 37.156 123.031 89.3952 122.246H89.3815Z" fill="#362824"/>
<path d="M61.693 226.37C67.9481 226.37 73.0189 221.297 73.0189 215.04C73.0189 208.782 67.9481 203.709 61.693 203.709C55.4379 203.709 50.3672 208.782 50.3672 215.04C50.3672 221.297 55.4379 226.37 61.693 226.37Z" fill="#DDA19C"/>
<path d="M160.007 226.37C166.263 226.37 171.333 221.297 171.333 215.04C171.333 208.782 166.263 203.709 160.007 203.709C153.752 203.709 148.682 208.782 148.682 215.04C148.682 221.297 153.752 226.37 160.007 226.37Z" fill="#DDA19C"/>
<path d="M111.594 224.457C106.406 224.457 101.878 223.81 99.2637 222.832C100.227 224.512 105.36 225.806 111.594 225.806C117.828 225.806 122.961 224.525 123.925 222.832C121.31 223.81 116.782 224.457 111.594 224.457Z" fill="#1D1D1B"/>
<path d="M80.5331 214.998C86.9706 214.998 92.1892 208.39 92.1892 200.239C92.1892 192.088 86.9706 185.48 80.5331 185.48C74.0956 185.48 68.877 192.088 68.877 200.239C68.877 208.39 74.0956 214.998 80.5331 214.998Z" fill="#201510"/>
<path d="M84.5097 197.776C85.9918 197.776 87.1932 196.259 87.1932 194.389C87.1932 192.518 85.9918 191.002 84.5097 191.002C83.0276 191.002 81.8262 192.518 81.8262 194.389C81.8262 196.259 83.0276 197.776 84.5097 197.776Z" fill="white"/>
<path d="M68.3131 192.434C69.9782 191.126 71.6296 189.776 73.4874 188.978C76.0884 187.863 79.0334 187.119 81.8408 187.739C87.4968 188.978 96.1254 195.49 98.2859 199.18C98.2859 199.18 90.7583 185.715 81.8408 184.972C75.3177 184.421 71.5883 186.224 68.8635 188.179C66.9919 189.529 64.2259 192.296 62.6983 194.223C60.9093 196.467 59.2579 198.822 56.6432 202.387C56.368 202.759 56.2854 203.324 56.478 203.75C58.1019 207.357 62.2029 211.061 62.2029 211.061C59.7533 207.674 58.7487 204.563 59.1891 202.594C59.6295 200.625 65.7809 194.389 68.3131 192.42V192.434Z" fill="#1D1D1B"/>
<path d="M142.076 215.301C148.514 215.301 153.732 208.693 153.732 200.542C153.732 192.391 148.514 185.783 142.076 185.783C135.639 185.783 130.42 192.391 130.42 200.542C130.42 208.693 135.639 215.301 142.076 215.301Z" fill="#201510"/>
<path d="M146.053 198.078C147.535 198.078 148.736 196.562 148.736 194.691C148.736 192.821 147.535 191.305 146.053 191.305C144.571 191.305 143.369 192.821 143.369 194.691C143.369 196.562 144.571 198.078 146.053 198.078Z" fill="white"/>
<path d="M154.295 192.736C152.63 191.428 150.979 190.079 149.121 189.281C146.52 188.165 143.575 187.422 140.767 188.042C135.111 189.281 126.483 195.793 124.322 199.482C124.322 199.482 131.85 186.018 140.767 185.274C147.29 184.724 151.02 186.527 153.745 188.482C155.616 189.831 158.382 192.599 159.91 194.526C161.699 196.77 163.35 199.124 165.965 202.69C166.24 203.062 166.323 203.626 166.13 204.053C164.506 207.66 160.405 211.364 160.405 211.364C162.855 207.977 163.859 204.865 163.419 202.897C162.979 200.928 156.827 194.691 154.295 192.722V192.736Z" fill="#1D1D1B"/>
<path d="M94.5712 176.863C85.4747 178.006 76.7774 177.882 67.8598 179.616C62.6579 180.979 57.7863 183.458 53.4238 186.665L53.1211 186.349C60.8276 177.951 72.3874 173.944 83.6031 173.531C87.4151 173.669 91.3097 174.44 94.6537 176.422L94.5574 176.849L94.5712 176.863Z" fill="#1D1D1B"/>
<path d="M128.616 176.863C137.712 178.006 146.41 177.882 155.327 179.616C160.529 180.979 165.401 183.458 169.763 186.665L170.066 186.349C162.359 177.951 150.8 173.944 139.584 173.531C135.772 173.669 131.877 174.44 128.533 176.422L128.63 176.849L128.616 176.863Z" fill="#1D1D1B"/>
<path d="M101.367 250.518C107.808 250.848 114.221 251.123 120.647 250.518C114.358 252.06 107.684 251.784 101.367 250.518Z" fill="#1D1D1B"/>
<path d="M197.539 234.515L153.125 325.414L165.674 331.551L210.088 240.652L197.539 234.515Z" fill="#3D3D3C"/>
<path d="M155.893 319.88L172.929 316.672L178.365 305.383L161.315 308.591L155.893 319.88Z" fill="white"/>
<path d="M186.166 257.748L203.217 254.637L208.708 243.402L191.657 246.5L186.166 257.748Z" fill="white"/>
<path d="M176.066 278.428L193.117 275.33L198.622 264.068L181.557 267.18L176.066 278.428Z" fill="white"/>
<path d="M165.951 299.119L183.016 296.022L188.52 284.76L171.456 287.857L165.951 299.119Z" fill="white"/>
<path d="M25.2107 354.589C29.9837 354.589 33.853 350.718 33.853 345.943C33.853 341.168 29.9837 337.297 25.2107 337.297C20.4377 337.297 16.5684 341.168 16.5684 345.943C16.5684 350.718 20.4377 354.589 25.2107 354.589Z" fill="#A3191C"/>
<path d="M25.2107 372.886C29.9837 372.886 33.853 369.015 33.853 364.24C33.853 359.465 29.9837 355.594 25.2107 355.594C20.4377 355.594 16.5684 359.465 16.5684 364.24C16.5684 369.015 20.4377 372.886 25.2107 372.886Z" fill="#A3191C"/>
<path d="M25.2107 400.503C29.9837 400.503 33.853 396.053 33.853 390.563C33.853 385.073 29.9837 380.623 25.2107 380.623C20.4377 380.623 16.5684 385.073 16.5684 390.563C16.5684 396.053 20.4377 400.503 25.2107 400.503Z" fill="#A3191C"/>
<path d="M25.2107 431.369C29.9837 431.369 33.853 425.907 33.853 419.171C33.853 412.434 29.9837 406.973 25.2107 406.973C20.4377 406.973 16.5684 412.434 16.5684 419.171C16.5684 425.907 20.4377 431.369 25.2107 431.369Z" fill="#A3191C"/>
<path d="M25.2107 466.668C29.9837 466.668 33.853 460.733 33.853 453.41C33.853 446.088 29.9837 440.152 25.2107 440.152C20.4377 440.152 16.5684 446.088 16.5684 453.41C16.5684 460.733 20.4377 466.668 25.2107 466.668Z" fill="#A3191C"/>
<path d="M25.2107 481.923C29.9837 481.923 33.853 479.864 33.853 477.325C33.853 474.785 29.9837 472.727 25.2107 472.727C20.4377 472.727 16.5684 474.785 16.5684 477.325C16.5684 479.864 20.4377 481.923 25.2107 481.923Z" fill="#A3191C"/>
</g>
</g>
<defs>
<clipPath id="clip0_1412_6702">
<rect width="295" height="484" fill="white"/>
</clipPath>
<clipPath id="clip1_1412_6702">
<rect width="295" height="484" fill="white"/>
</clipPath>
</defs>
</svg>
