<?xml version="1.0" encoding="UTF-8"?>
<svg id="Calque_2" data-name="Calque 2" xmlns="http://www.w3.org/2000/svg" viewBox="0 0 79.01 79.01">
  <defs>
    <style>
      .cls-1 {
        fill: #a3191c;
      }

      .cls-2 {
        fill: #fff6f1;
      }

      .cls-3 {
        fill: #fff;
      }

      .cls-4 {
        fill: #f7f6f6;
      }

      .cls-5 {
        fill: #4f1b11;
      }

      .cls-6 {
        fill: #352723;
      }
    </style>
  </defs>
  <g id="Calque_2-2" data-name="Calque 2">
    <g id="brand">
      <rect class="cls-2" width="79.01" height="79.01"/>
      <g>
        <g>
          <path class="cls-5" d="M71.67,44.06h-25.67c-.37,0-.68-.3-.68-.68V11.96c0-.37.3-.68.68-.68h25.67c.37,0,.68.3.68.68v31.42c0,.37-.3.68-.68.68ZM46,11.81c-.08,0-.15.07-.15.15v31.42c0,.08.07.15.15.15h25.67c.08,0,.15-.07.15-.15V11.96c0-.08-.07-.15-.15-.15h-25.67Z"/>
          <g>
            <rect class="cls-1" x="43.32" y="15.74" width="23.76" height="28.92" rx=".41" ry=".41"/>
            <path class="cls-1" d="M66.67,44.92h-22.94c-.37,0-.68-.3-.68-.68v-28.09c0-.37.3-.68.68-.68h22.94c.37,0,.68.3.68.68v28.09c0,.37-.3.68-.68.68ZM43.74,16c-.08,0-.15.07-.15.15v28.09c0,.08.07.15.15.15h22.94c.08,0,.15-.07.15-.15v-28.09c0-.08-.07-.15-.15-.15h-22.94Z"/>
          </g>
        </g>
        <rect class="cls-4" x="14.16" y="39.27" width=".26" height="1.47" transform="translate(-15.84 10.06) rotate(-25.52)"/>
        <polygon class="cls-4" points="15.9 40.05 15.59 39.39 15.7 39.33 16.02 39.99 15.9 40.05"/>
        <g>
          <rect class="cls-5" x="14.16" y="25.57" width="23.05" height="4.72" rx=".16" ry=".16" transform="translate(-9.53 13.8) rotate(-25.53)"/>
          <rect class="cls-4" x="20.38" y="32.08" width=".16" height=".91" transform="translate(-12.01 11.97) rotate(-25.5)"/>
          <rect class="cls-4" x="21.27" y="31.66" width=".16" height=".91" transform="translate(-11.77 12.35) rotate(-25.56)"/>
          <polygon class="cls-4" points="22.36 32.14 21.97 31.31 22.11 31.24 22.51 32.07 22.36 32.14"/>
          <rect class="cls-4" x="23.29" y="29.69" width=".32" height="1.83" transform="translate(-10.9 13.1) rotate(-25.54)"/>
          <rect class="cls-4" x="29.07" y="26.93" width=".32" height="1.83" transform="translate(-9.15 15.33) rotate(-25.54)"/>
          <rect class="cls-4" x="34.85" y="24.17" width=".32" height="1.83" transform="translate(-7.39 17.54) rotate(-25.54)"/>
          <polygon class="cls-4" points="25.36 30.71 24.96 29.88 25.11 29.81 25.5 30.64 25.36 30.71"/>
          <polygon class="cls-4" points="26.25 30.28 25.85 29.46 26 29.39 26.39 30.21 26.25 30.28"/>
          <polygon class="cls-4" points="27.14 29.86 26.75 29.03 26.89 28.96 27.29 29.79 27.14 29.86"/>
          <polygon class="cls-4" points="28.03 29.43 27.64 28.6 27.78 28.54 28.18 29.36 28.03 29.43"/>
          <polygon class="cls-4" points="31.1 27.96 30.71 27.14 30.86 27.07 31.25 27.89 31.1 27.96"/>
          <polygon class="cls-4" points="31.99 27.54 31.6 26.71 31.75 26.64 32.14 27.47 31.99 27.54"/>
          <polygon class="cls-4" points="32.89 27.11 32.49 26.29 32.64 26.22 33.03 27.04 32.89 27.11"/>
          <polygon class="cls-4" points="33.78 26.69 33.38 25.86 33.53 25.79 33.92 26.62 33.78 26.69"/>
          <path class="cls-5" d="M10.64,13.25l12.32,9.18c.1.07.12.22.05.32l-3.02,4.05c-.07.1-.21.12-.31.05l-9.24-6.87-2.31-1.73-.78-.57c-.76-.58-.92-1.67-.36-2.44l1.21-1.62c.58-.77,1.67-.93,2.44-.36Z"/>
          <polygon class="cls-3" points="19.67 26.86 25.17 27.51 22.98 22.42 19.67 26.86"/>
          <polygon class="cls-1" points="24.15 27.39 25.17 27.51 24.76 26.56 24.15 27.39"/>
          <rect class="cls-3" x="8.18" y="15.46" width="5.5" height="2.88" transform="translate(-9.15 15.57) rotate(-53.3)"/>
          <rect class="cls-6" x="16.48" y="15.54" width=".32" height="11.52" transform="translate(-10.38 21.94) rotate(-53.36)"/>
        </g>
        <g>
          <path class="cls-1" d="M17.31,55.91l1.1-.16c.38-.06.74.19.84.56l.27,1.08c.18.77,1.19.98,1.66.34l.67-.9c.23-.31.66-.39.99-.19l.95.58c.68.41,1.53-.16,1.42-.94l-.16-1.1c-.05-.38.19-.74.57-.84l1.08-.26c.77-.19.97-1.19.34-1.67l-.9-.67c-.31-.23-.39-.66-.19-.99l.58-.95c.41-.68-.15-1.53-.94-1.42l-1.1.16c-.38.06-.74-.19-.84-.56l-.27-1.09c-.19-.77-1.19-.97-1.67-.34l-.66.9c-.23.31-.66.39-.99.19l-.95-.58c-.68-.41-1.53.15-1.42.94l.16,1.1c.06.38-.19.74-.56.84l-1.09.27c-.77.19-.97,1.19-.33,1.66l.89.67c.31.23.39.66.19.99l-.58.95c-.41.68.15,1.53.94,1.42ZM19.96,49.92c1.23-.82,2.89-.48,3.71.76s.48,2.89-.75,3.71-2.89.48-3.71-.75-.48-2.89.75-3.71Z"/>
          <path class="cls-5" d="M10.38,60.41l.72.86c.25.29.23.73-.04,1l-.78.8c-.56.56-.21,1.52.58,1.6l1.12.1c.38.03.68.36.68.74v1.12c.01.79.94,1.23,1.55.72l.86-.72c.3-.25.73-.23,1.01.04l.79.79c.57.56,1.53.21,1.6-.58l.1-1.12c.03-.38.36-.68.74-.68h1.12c.79-.01,1.22-.93.72-1.55l-.72-.86c-.25-.29-.23-.73.04-1l.79-.79c.56-.57.21-1.53-.58-1.6l-1.11-.1c-.39-.04-.68-.36-.68-.74v-1.12c0-.79-.93-1.22-1.55-.72l-.85.72c-.29.25-.73.23-1-.04l-.79-.79c-.57-.56-1.53-.21-1.59.59l-.1,1.11c-.03.38-.36.68-.74.68h-1.12c-.79.01-1.22.93-.72,1.55ZM16.88,59.55c1.34.62,1.92,2.21,1.3,3.56s-2.21,1.92-3.55,1.3-1.93-2.21-1.3-3.55,2.21-1.93,3.56-1.3Z"/>
          <path class="cls-5" d="M25.7,56.02l.63.92c.22.32.16.75-.14,1l-.86.72c-.61.51-.36,1.5.42,1.64l1.1.2c.38.07.64.42.61.8l-.1,1.11c-.07.79.82,1.31,1.47.86l.92-.63c.32-.22.75-.16,1,.14l.71.86c.51.61,1.5.35,1.65-.43l.2-1.1c.07-.38.42-.64.8-.61l1.11.1c.79.07,1.31-.81.86-1.47l-.63-.92c-.22-.32-.16-.75.14-1l.86-.72c.61-.51.35-1.5-.43-1.65l-1.1-.2c-.38-.07-.64-.42-.61-.81l.1-1.11c.07-.79-.81-1.31-1.47-.86l-.92.63c-.32.22-.75.16-1-.14l-.72-.86c-.51-.61-1.5-.35-1.64.43l-.21,1.1c-.07.38-.42.64-.8.61l-1.11-.1c-.79-.07-1.31.81-.86,1.47ZM32.25,55.77c1.27.75,1.7,2.38.95,3.66s-2.38,1.7-3.66.95-1.71-2.39-.96-3.66,2.39-1.71,3.67-.96Z"/>
        </g>
        <g>
          <g>
            <path class="cls-5" d="M59.59,53.34h-21.01v-21.01h21.01v21.01ZM38.9,53.02h20.38v-20.38h-20.38v20.38Z"/>
            <path class="cls-5" d="M56.32,50.07h-1.42v-.32h1.1v-.96h.32v1.28ZM53.64,50.07h-1.26v-.32h1.26v.32ZM51.12,50.07h-1.26v-.32h1.26v.32ZM48.6,50.07h-1.26v-.32h1.26v.32ZM46.07,50.07h-1.26v-.32h1.26v.32ZM43.55,50.07h-1.26v-.32h1.26v.32ZM42.17,48.93h-.32v-1.26h.32v1.26ZM56.32,47.53h-.32v-1.26h.32v1.26ZM42.17,46.4h-.32v-1.26h.32v1.26ZM56.32,45.01h-.32v-1.26h.32v1.26ZM42.17,43.88h-.32v-1.26h.32v1.26ZM56.32,42.48h-.32v-1.26h.32v1.26ZM42.17,41.36h-.32v-1.26h.32v1.26ZM56.32,39.96h-.32v-1.26h.32v1.26ZM42.17,38.84h-.32v-1.26h.32v1.26ZM56.32,37.44h-.32v-1.26h.32v1.26ZM42.17,36.32h-.32v-.72h.86v.32h-.54v.4ZM55.32,35.91h-1.26v-.32h1.26v.32ZM52.8,35.91h-1.26v-.32h1.26v.32ZM50.28,35.91h-1.26v-.32h1.26v.32ZM47.76,35.91h-1.26v-.32h1.26v.32ZM45.23,35.91h-1.26v-.32h1.26v.32Z"/>
            <path class="cls-5" d="M49.09,50.02l-7.18-7.18,7.18-7.18,7.18,7.18-7.18,7.18ZM42.35,42.83l6.74,6.74,6.74-6.74-6.74-6.74-6.74,6.74Z"/>
            <path class="cls-5" d="M49.09,53.34c-5.79,0-10.5-4.71-10.5-10.5s4.71-10.5,10.5-10.5,10.5,4.71,10.5,10.5-4.71,10.5-10.5,10.5ZM49.09,32.64c-5.62,0-10.19,4.57-10.19,10.19s4.57,10.19,10.19,10.19,10.19-4.57,10.19-10.19-4.57-10.19-10.19-10.19Z"/>
            <g>
              <rect class="cls-5" x="62.07" y="29.4" width=".63" height=".32" transform="translate(-2.62 52.77) rotate(-45)"/>
              <path class="cls-5" d="M37.07,55.1l-.22-.22.9-.9.22.22-.9.9ZM38.87,53.3l-.22-.22.9-.9.22.22-.9.9ZM40.67,51.49l-.22-.22.9-.9.22.22-.9.9ZM42.47,49.69l-.22-.22.9-.9.22.22-.9.9ZM44.27,47.89l-.22-.22.9-.9.22.22-.9.9ZM46.07,46.09l-.22-.22.9-.9.22.22-.9.9ZM47.87,44.29l-.22-.22.9-.9.22.22-.9.9ZM49.67,42.49l-.22-.22.9-.9.22.22-.9.9ZM51.47,40.69l-.22-.22.9-.9.22.22-.9.9ZM53.27,38.89l-.22-.22.9-.9.22.22-.9.9ZM55.08,37.09l-.22-.22.9-.9.22.22-.9.9ZM56.88,35.29l-.22-.22.9-.9.22.22-.9.9ZM58.68,33.49l-.22-.22.9-.9.22.22-.9.9ZM60.48,31.69l-.22-.22.9-.9.22.22-.9.9Z"/>
              <rect class="cls-5" x="35.52" y="55.95" width=".63" height=".32" transform="translate(-29.18 41.77) rotate(-45)"/>
            </g>
            <g>
              <rect class="cls-5" x="35.67" y="29.26" width=".32" height=".63" transform="translate(-10.42 34) rotate(-45)"/>
              <path class="cls-5" d="M61.16,55.13l-.9-.9.22-.22.9.9-.22.22ZM59.36,53.33l-.9-.9.22-.22.9.9-.22.22ZM57.56,51.53l-.9-.9.22-.22.9.9-.22.22ZM55.75,49.73l-.9-.9.22-.22.9.9-.22.22ZM53.95,47.92l-.9-.9.22-.22.9.9-.22.22ZM52.15,46.12l-.9-.9.22-.22.9.9-.22.22ZM50.35,44.32l-.9-.9.22-.22.9.9-.22.22ZM48.55,42.52l-.9-.9.22-.22.9.9-.22.22ZM46.75,40.72l-.9-.9.22-.22.9.9-.22.22ZM44.95,38.92l-.9-.9.22-.22.9.9-.22.22ZM43.15,37.12l-.9-.9.22-.22.9.9-.22.22ZM41.34,35.32l-.9-.9.22-.22.9.9-.22.22ZM39.54,33.51l-.9-.9.22-.22.9.9-.22.22ZM37.74,31.71l-.9-.9.22-.22.9.9-.22.22Z"/>
              <rect class="cls-5" x="62.24" y="55.83" width=".32" height=".63" transform="translate(-21.42 60.59) rotate(-45.02)"/>
            </g>
          </g>
          <g>
            <path class="cls-1" d="M66.56,69.02l-.49-.68c-.4-.56-.5-1.29-.25-1.94l.04-.1c.15-.38.4-.7.72-.93l3.16-2.26c.34-.24.74-.38,1.16-.38.01,0,.03,0,.04,0,.66,0,1.28.32,1.67.86l.52.73-6.58,4.7ZM70.94,63.36s-.02,0-.03,0c-.29,0-.57.1-.8.27l-3.16,2.26c-.23.16-.4.38-.5.65l-.04.1c-.17.45-.11.95.17,1.34l.12.17,5.55-3.97-.16-.22c-.27-.37-.7-.6-1.16-.6Z"/>
            <g>
              <path class="cls-1" d="M61.6,55.2l.02,8.14s0,.03.02.04l4.92,2.39,3.23-2.31-.33-5.75-7.8-2.55s-.05.01-.05.04ZM66.8,62.31c-.76.54-1.82.37-2.36-.39s-.37-1.83.39-2.37,1.81-.37,2.36.4.37,1.81-.39,2.36Z"/>
              <path class="cls-1" d="M66.59,66.14l-5.27-2.56-.02-.23-.02-8.3.28-.23.19.05,8,2.62.36,6.13-3.52,2.52ZM61.93,63.17l4.6,2.24,2.93-2.1-.31-5.36-7.24-2.37.02,7.59ZM65.82,62.95c-.11,0-.22,0-.33-.03-.53-.09-1-.37-1.31-.81-.65-.9-.44-2.16.47-2.81.44-.31.97-.43,1.5-.35.53.09.99.38,1.31.82.31.44.43.97.35,1.49-.09.53-.38.99-.81,1.3-.35.25-.75.38-1.17.38ZM65.81,59.56c-.28,0-.56.09-.79.26-.62.44-.76,1.31-.32,1.93.21.3.53.49.9.55.37.06.73-.03,1.03-.24.3-.21.5-.53.56-.89.06-.36-.02-.73-.24-1.02-.22-.3-.53-.5-.9-.56-.08-.01-.15-.02-.23-.02Z"/>
            </g>
            <path class="cls-5" d="M64.97,59.85c-1.43-1.49-2.63-3.15-3.57-4.99,1.44,1.49,2.63,3.16,3.57,4.99h0Z"/>
          </g>
        </g>
      </g>
    </g>
  </g>
</svg>