<svg width="295" height="484" viewBox="0 0 295 484" fill="none" xmlns="http://www.w3.org/2000/svg">
<g clip-path="url(#clip0_1412_7854)">
<g clip-path="url(#clip1_1412_7854)">
<g clip-path="url(#clip2_1412_7854)">
<path d="M265.465 283.228C265.934 283.049 266.417 282.857 266.886 282.678C274.925 279.557 281.365 273.589 284.013 266.026C291.377 244.946 265.148 231.814 263.769 210.569C262.128 185.336 262.032 129.398 262.032 129.398H183.897H105.761C105.761 129.398 105.665 185.336 104.024 210.569C102.645 231.828 76.4022 244.946 83.7799 266.026C86.4276 273.589 92.8676 279.543 100.907 282.678C101.39 282.857 101.859 283.049 102.328 283.228C154.468 303.277 213.311 303.277 265.452 283.228H265.465Z" fill="#362824"/>
<path d="M147.904 96.6584C147.904 96.6584 167.252 49.9746 185.455 49.9746C203.658 49.9746 217.324 96.6584 217.324 96.6584H147.904Z" fill="#362824"/>
<path d="M140.044 284.479C140.044 284.479 117.097 308.432 112.339 310.33C107.582 312.228 96.2875 309.532 93.5846 310.33C90.8817 311.127 89.7647 324.287 94.219 327.78C98.6732 331.272 109.802 332.221 116.325 326.35C124.282 323.654 149.09 310.811 154.978 299.384C148.456 291.299 140.03 284.479 140.03 284.479H140.044Z" fill="#F5D5CB"/>
<path d="M108.229 324.507C105.402 324.824 102.286 324.384 100.093 322.335C98.4246 320.052 97.0594 317.88 94.2324 316.89C97.1835 316.835 99.4589 319.268 100.976 321.455C102.865 323.256 105.692 323.889 108.229 324.494V324.507Z" fill="#1D1D1B"/>
<path d="M226.26 282.566C226.26 282.566 240.74 292.398 245.028 294.626C249.317 296.84 260.611 297.486 262.045 295.575C263.48 293.663 271.905 286.059 273.657 286.059C275.408 286.059 278.911 289.387 278.276 291.298C277.642 293.209 269.533 301.762 269.685 303.674C269.837 305.585 275.091 308.432 273.022 310.178C270.954 311.924 259.343 310.013 256.005 310.178C252.668 310.343 237.706 312.777 234.051 310.92C230.397 309.064 212.58 299.714 212.58 299.714L226.26 282.58V282.566Z" fill="#F5D5CB"/>
<path d="M197.314 243.707H174.092V268.032H197.314V243.707Z" fill="#F5D5CB"/>
<path d="M186.807 264.072C192.847 264.072 197.301 258.998 197.301 258.998C197.301 258.998 203.452 260.263 207.589 262.491C211.726 264.705 225.723 279.94 232.397 281.838C221.586 292.619 213.312 303.097 213.312 303.097C211.092 301.832 211.891 308.088 215.325 311.677C206.1 311.993 183.732 311.663 183.732 311.663C183.732 311.663 161.061 312.117 151.835 311.801C156.152 308.295 156.372 301.832 154.152 303.097C154.152 303.097 145.878 292.632 135.066 281.838C141.741 279.94 155.752 264.705 159.875 262.491C164.012 260.277 173.238 258.998 173.238 258.998C173.238 258.998 180.767 264.072 186.807 264.072Z" fill="#A3191C"/>
<path d="M117.015 422.426C117.015 422.426 112.354 437.125 112.354 441.938C112.354 446.751 114.05 467.9 129.109 468.958C144.167 470.017 142.899 450.56 143.533 443.162C144.167 435.764 144.829 428.476 144.829 428.476L117.015 422.426Z" fill="#282726"/>
<path d="M184.035 435.324C183.401 436.177 178.946 450.34 174.065 456.679C169.183 463.018 166.218 476.975 174.065 481.637C181.911 486.285 197.825 484.387 204.817 473.18C211.822 461.973 215.421 437.442 215.421 437.442L184.035 435.324Z" fill="#282726"/>
<path d="M154.151 308.996C154.151 308.996 142.76 320.739 141.478 333.637C140.209 346.536 144.663 366.419 144.663 366.419C138.085 366.846 126.239 395.158 116.669 411.04C110.532 418.782 106.064 424.874 106.064 424.874C112.215 426.139 153.944 434.004 153.944 434.004C155.847 425.547 152.744 416.706 154.151 410.202C155.323 404.743 181.359 377.626 181.359 375.096C181.566 385.464 185.385 398.142 186.02 399.201C186.654 400.26 178.035 429.879 175.07 437.277C185.041 438.762 224.66 444.07 224.66 444.07C220.606 432.547 223.998 400.466 219.116 379.744C224.425 372.552 231.114 332.139 213.448 308.996H154.151Z" fill="#3D3D3C"/>
<path d="M181.166 376.417C183.883 370.339 186.407 363.862 186.517 357.179C186.448 350.414 186.517 343.649 186.724 336.883V336.498H187.082C189.799 336.498 192.405 334.931 194.501 333.061C193.577 334.147 192.474 335.082 191.247 335.866C190.02 336.636 188.599 337.2 187.082 337.241L187.455 336.87C187.661 343.635 187.73 350.414 187.661 357.179C187.468 364.082 184.628 370.573 181.139 376.403L181.166 376.417Z" fill="white"/>
<path d="M186.02 251.641C186.02 251.641 205.271 250.692 213.545 247.199C221.82 243.707 247.911 230.698 260.942 185.651C273.988 140.604 262.845 80.334 185.855 80.334C108.864 80.334 97.7356 140.604 110.767 185.651C123.799 230.698 149.904 243.707 158.164 247.199C166.424 250.692 185.689 251.641 185.689 251.641" fill="#F5D5CB"/>
<path d="M262.665 265.832C264.76 265.832 266.458 256.61 266.458 245.233C266.458 233.857 264.76 224.635 262.665 224.635C260.571 224.635 258.873 233.857 258.873 245.233C258.873 256.61 260.571 265.832 262.665 265.832Z" stroke="#D6AE25" stroke-width="0.528015" stroke-miterlimit="10"/>
<path d="M114.339 267.895C116.434 267.895 118.131 258.672 118.131 247.296C118.131 235.92 116.434 226.697 114.339 226.697C112.245 226.697 110.547 235.92 110.547 247.296C110.547 258.672 112.245 267.895 114.339 267.895Z" stroke="#D6AE25" stroke-width="0.528015" stroke-miterlimit="10"/>
<path d="M188.572 80.3353C185.58 77.8602 154.538 76.1964 140.251 85.8769C125.965 95.5574 120.407 108.483 119.346 110.958C118.284 113.433 80.7055 148.085 115.374 200.874C120.407 190.699 150.801 130.374 186.448 125.905C220.814 130.374 253.207 190.699 258.047 200.874C291.474 148.072 255.234 113.433 254.213 110.958C253.193 108.483 247.829 95.5574 234.052 85.8769C220.276 76.1964 191.441 77.8602 188.558 80.3353H188.572Z" fill="#362824"/>
<path d="M116.739 185.336C116.739 185.336 98.9217 190.094 97.3358 201.521C95.75 212.947 105.927 244.987 135.507 224.993C127.55 205.646 116.739 185.336 116.739 185.336Z" fill="#F5D5CB"/>
<path d="M254.972 185.336C254.972 185.336 272.788 190.094 274.374 201.521C275.96 212.947 265.783 244.987 236.203 224.993C244.16 205.646 254.972 185.336 254.972 185.336Z" fill="#F5D5CB"/>
<path d="M208.705 121.615C208.705 121.615 236.713 155.566 244.422 178.2C252.144 200.82 252.737 250.749 217.614 252.357C233.417 253.444 240.409 246.596 244.422 242.649C244.753 245.014 241.746 248.768 238.768 250.707C252.144 247.118 264.349 233.725 265.231 211.614C266.114 189.503 261.039 122.413 208.691 121.615H208.705Z" fill="#362824"/>
<path d="M164.176 122.688C164.176 122.688 136.168 154.479 128.46 177.099C120.737 199.719 120.144 249.648 155.268 251.257C139.464 252.343 132.473 245.495 128.46 241.549C128.129 243.914 131.135 247.668 134.114 249.607C120.737 246.018 108.533 232.625 107.65 210.514C106.754 188.402 111.843 123.471 164.19 122.688H164.176Z" fill="#362824"/>
<path d="M136.445 226.685C142.713 226.685 147.794 221.618 147.794 215.368C147.794 209.118 142.713 204.051 136.445 204.051C130.177 204.051 125.096 209.118 125.096 215.368C125.096 221.618 130.177 226.685 136.445 226.685Z" fill="#DDA19C"/>
<path d="M234.961 226.685C241.229 226.685 246.31 221.618 246.31 215.368C246.31 209.118 241.229 204.051 234.961 204.051C228.693 204.051 223.611 209.118 223.611 215.368C223.611 221.618 228.693 226.685 234.961 226.685Z" fill="#DDA19C"/>
<path d="M186.448 224.773C181.249 224.773 176.712 224.127 174.092 223.15C175.057 224.828 180.201 226.121 186.448 226.121C192.695 226.121 197.838 224.842 198.804 223.15C196.184 224.127 191.647 224.773 186.448 224.773Z" fill="#1D1D1B"/>
<path d="M155.309 215.325C161.76 215.325 166.989 208.726 166.989 200.585C166.989 192.443 161.76 185.844 155.309 185.844C148.858 185.844 143.629 192.443 143.629 200.585C143.629 208.726 148.858 215.325 155.309 215.325Z" fill="#201510"/>
<path d="M159.308 198.123C160.793 198.123 161.997 196.608 161.997 194.74C161.997 192.872 160.793 191.357 159.308 191.357C157.823 191.357 156.619 192.872 156.619 194.74C156.619 196.608 157.823 198.123 159.308 198.123Z" fill="white"/>
<path d="M143.078 192.788C144.747 191.481 146.401 190.134 148.263 189.336C150.869 188.222 153.821 187.48 156.634 188.099C162.302 189.336 170.948 195.84 173.113 199.525C173.113 199.525 165.57 186.077 156.634 185.335C150.097 184.785 146.36 186.586 143.63 188.539C141.754 189.886 138.982 192.65 137.452 194.575C135.659 196.817 134.004 199.168 131.384 202.729C131.108 203.101 131.025 203.664 131.218 204.091C132.846 207.693 136.955 211.392 136.955 211.392C134.501 208.01 133.494 204.902 133.935 202.936C134.376 200.969 140.541 194.74 143.078 192.774V192.788Z" fill="#1D1D1B"/>
<path d="M216.993 215.628C223.444 215.628 228.673 209.028 228.673 200.887C228.673 192.746 223.444 186.146 216.993 186.146C210.542 186.146 205.312 192.746 205.312 200.887C205.312 209.028 210.542 215.628 216.993 215.628Z" fill="#201510"/>
<path d="M220.978 198.426C222.463 198.426 223.667 196.911 223.667 195.043C223.667 193.175 222.463 191.66 220.978 191.66C219.493 191.66 218.289 193.175 218.289 195.043C218.289 196.911 219.493 198.426 220.978 198.426Z" fill="white"/>
<path d="M229.224 193.09C227.556 191.784 225.901 190.436 224.039 189.639C221.433 188.525 218.482 187.783 215.669 188.401C210.001 189.639 201.355 196.143 199.189 199.828C199.189 199.828 206.733 186.38 215.669 185.637C222.205 185.087 225.942 186.889 228.673 188.841C230.548 190.189 233.32 192.953 234.851 194.878C236.644 197.119 238.298 199.471 240.918 203.032C241.194 203.403 241.277 203.967 241.084 204.393C239.457 207.996 235.347 211.695 235.347 211.695C237.802 208.312 238.809 205.205 238.367 203.238C237.926 201.272 231.762 195.043 229.224 193.077V193.09Z" fill="#1D1D1B"/>
<path d="M169.376 177.236C160.261 178.377 151.545 178.253 142.609 179.986C137.396 181.347 132.515 183.822 128.143 187.026L127.84 186.71C135.562 178.322 147.146 174.321 158.385 173.908C162.205 174.046 166.108 174.816 169.459 176.796L169.362 177.222L169.376 177.236Z" fill="#1D1D1B"/>
<path d="M203.507 177.236C212.622 178.377 221.337 178.253 230.273 179.986C235.486 181.347 240.368 183.822 244.739 187.026L245.043 186.71C237.32 178.322 225.736 174.321 214.497 173.908C210.677 174.046 206.775 174.816 203.424 176.796L203.52 177.222L203.507 177.236Z" fill="#1D1D1B"/>
<path d="M176.201 250.803C182.655 251.133 189.081 251.408 195.521 250.803C189.219 252.343 182.531 252.068 176.201 250.803Z" fill="#1D1D1B"/>
<path d="M208.705 297.09C208.705 297.09 225.225 323.945 228.673 336.94C232.12 349.934 245.883 381.258 262.086 383.018C255.398 387.226 228.852 384.586 228.852 384.586C221.943 380.199 186.034 326.915 185.675 305.34C177.925 322.941 157.309 371.674 135.258 380.117C128.804 381.877 106.975 379.416 106.975 379.416C116.476 366.779 137.285 335.702 144.829 321.704C152.896 306.743 161.997 298.259 161.997 298.259L208.705 297.076V297.09Z" fill="#A3191C"/>
<path d="M132.059 392.258L130.004 390.113L147.6 373.42L149.655 375.565C153.047 379.126 152.909 384.737 149.352 388.119L144.649 392.588C141.091 395.957 135.465 395.82 132.059 392.272V392.258Z" fill="#E6C9C1"/>
<path d="M147.601 373.406L130.005 390.099L121.11 380.79L109.306 368.428L106.616 365.595L36.0384 291.644L32.977 288.426L15.3945 270.014L23.9444 261.901L24.4409 261.42L32.9908 253.32L56.3513 277.797L58.3095 279.845L103.624 327.341L106.106 329.939L138.706 364.096L147.601 373.406Z" fill="#A3191C"/>
<path d="M9.68555 246.459L15.3947 270.014L32.9909 253.307L9.68555 246.459Z" fill="#E6C9C1"/>
<path d="M9.68555 246.459L11.3542 253.376L16.5255 248.48L9.68555 246.459Z" fill="#A3191C"/>
<path d="M138.709 364.09L121.117 380.783L130.006 390.097L147.598 373.404L138.709 364.09Z" fill="#3D3D3C"/>
<path d="M24.4389 261.421L23.9395 261.895L129.661 372.673L130.161 372.199L24.4389 261.421Z" fill="#3D3D3C"/>
<path d="M130.156 157.588C130.156 157.588 191.881 174.213 241.195 157.588" stroke="#D6AE25" stroke-width="0.528015" stroke-miterlimit="10"/>
<path d="M186.42 165.796L182.572 168.588C181.386 169.454 180.89 170.98 181.345 172.369L182.82 176.879C183.275 178.282 184.585 179.217 186.047 179.217H190.805C192.28 179.217 193.577 178.268 194.032 176.879L195.507 172.369C195.962 170.966 195.466 169.44 194.28 168.588L190.432 165.796C189.247 164.93 187.633 164.93 186.433 165.796H186.42Z" fill="#D6AE25"/>
<path d="M186.806 166.952L183.703 169.207C182.738 169.908 182.338 171.132 182.71 172.26L183.896 175.903C184.268 177.031 185.316 177.787 186.502 177.787H190.336C191.522 177.787 192.57 177.031 192.942 175.903L194.128 172.26C194.501 171.132 194.087 169.894 193.135 169.207L190.033 166.952C189.067 166.25 187.771 166.25 186.806 166.952Z" fill="#A3191C"/>
<path d="M256.006 310.179L257.895 296.676" stroke="#D6AE25" stroke-width="0.528015" stroke-miterlimit="10"/>
<path d="M112.877 310.07L118.145 325.691" stroke="#D6AE25" stroke-width="0.528015" stroke-miterlimit="10"/>
<path d="M174.092 255.879C174.092 255.879 184.696 260.774 197.314 255.879" stroke="#D6AE25" stroke-width="0.528015" stroke-miterlimit="10"/>
<path d="M155.446 305.587C155.446 305.587 139.684 330.888 213.241 304.748" stroke="#D6AE25" stroke-width="0.528015" stroke-miterlimit="10"/>
<path d="M174.092 258.051C174.092 258.051 178.077 272.902 185.703 272.902C193.329 272.902 197.314 259 197.314 259" stroke="#D6AE25" stroke-width="0.528015" stroke-miterlimit="10"/>
<path d="M161.159 326.025C162.021 323.167 160.852 320.29 158.547 319.599C156.242 318.908 153.675 320.664 152.813 323.522C151.951 326.38 153.12 329.258 155.425 329.949C157.73 330.64 160.297 328.883 161.159 326.025Z" fill="#D6AE25"/>
<path d="M160.341 325.78C161.032 323.489 160.09 321.182 158.237 320.626C156.385 320.071 154.323 321.477 153.632 323.768C152.941 326.059 153.883 328.366 155.735 328.922C157.588 329.478 159.65 328.071 160.341 325.78Z" fill="#E6C9C1"/>
<path d="M158.756 320.74L159.942 316.34" stroke="#D6AE25" stroke-width="0.528015" stroke-miterlimit="10"/>
</g>
</g>
</g>
<defs>
<clipPath id="clip0_1412_7854">
<rect width="295" height="484" fill="white"/>
</clipPath>
<clipPath id="clip1_1412_7854">
<rect width="295" height="484" fill="white"/>
</clipPath>
<clipPath id="clip2_1412_7854">
<rect width="295" height="484" fill="white"/>
</clipPath>
</defs>
</svg>
