<?xml version="1.0" encoding="UTF-8"?>
<svg id="Calque_2" data-name="Calque 2" xmlns="http://www.w3.org/2000/svg" viewBox="0 0 199.87 315.64">
  <defs>
    <style>
      .cls-1 {
        fill: #201510;
      }

      .cls-2 {
        fill: #a3191c;
      }

      .cls-3 {
        fill: #1d1d1b;
      }

      .cls-4 {
        fill: #3d3d3c;
      }

      .cls-5 {
        fill: #fff;
      }

      .cls-6 {
        fill: #d6ae25;
      }

      .cls-7 {
        fill: #e6c9c1;
      }

      .cls-8 {
        fill: #362824;
      }

      .cls-9 {
        fill: #282726;
      }

      .cls-10 {
        fill: none;
        stroke: #d6ae25;
        stroke-miterlimit: 10;
      }

      .cls-11 {
        fill: #dda19c;
      }

      .cls-12 {
        fill: #f5d5cb;
      }
    </style>
  </defs>
  <g id="Calque_2-2" data-name="Calque 2">
    <g id="charadesign">
      <g>
        <path class="cls-8" d="M185.48,169.63c.34-.13.69-.27,1.03-.4,5.83-2.27,10.5-6.61,12.42-12.11,5.34-15.33-13.68-24.88-14.68-40.33-1.19-18.35-1.26-59.03-1.26-59.03h-56.66s-56.66,0-56.66,0c0,0-.07,40.68-1.26,59.03-1,15.46-20.03,25-14.68,40.33,1.92,5.5,6.59,9.83,12.42,12.11.35.13.69.27,1.03.4,37.81,14.58,80.48,14.58,118.29,0Z"/>
        <path class="cls-8" d="M100.23,33.95S114.26,0,127.46,0s23.11,33.95,23.11,33.95h-50.34Z"/>
      </g>
      <g>
        <g>
          <path class="cls-12" d="M94.53,170.54s-16.64,17.42-20.09,18.8-11.64-.58-13.6,0-2.77,10.15.46,12.69c3.23,2.54,11.3,3.23,16.03-1.04,5.77-1.96,23.76-11.3,28.03-19.61-4.73-5.88-10.84-10.84-10.84-10.84Z"/>
          <path class="cls-3" d="M71.46,199.65c-2.05.23-4.31-.09-5.9-1.58-1.21-1.66-2.2-3.24-4.25-3.96,2.14-.04,3.79,1.73,4.89,3.32,1.37,1.31,3.42,1.77,5.26,2.21h0Z"/>
        </g>
        <path class="cls-12" d="M157.05,169.15s10.5,7.15,13.61,8.77c3.11,1.61,11.3,2.08,12.34.69s7.15-6.92,8.42-6.92,3.81,2.42,3.35,3.81-6.34,7.61-6.23,9,3.92,3.46,2.42,4.73-9.92-.12-12.34,0-13.27,1.89-15.92.54-15.57-8.15-15.57-8.15l9.92-12.46Z"/>
        <rect class="cls-12" x="119.22" y="140.89" width="16.84" height="17.69"/>
        <path class="cls-2" d="M128.44,155.7c4.38,0,7.61-3.69,7.61-3.69,0,0,4.46.92,7.46,2.54,3,1.61,13.15,12.69,17.99,14.07-7.84,7.84-13.84,15.46-13.84,15.46-1.61-.92-1.03,3.63,1.46,6.24-6.69.23-22.91-.01-22.91-.01,0,0-16.44.33-23.13.1,3.13-2.55,3.29-7.25,1.68-6.33,0,0-6-7.61-13.84-15.46,4.84-1.38,15-12.46,17.99-14.07,3-1.61,9.69-2.54,9.69-2.54,0,0,5.46,3.69,9.84,3.69Z"/>
        <path class="cls-9" d="M77.83,270.86s-3.38,10.69-3.38,14.19,1.23,18.88,12.15,19.65,10-13.38,10.46-18.76.94-10.68.94-10.68l-20.17-4.4Z"/>
        <path class="cls-9" d="M126.43,280.24c-.46.62-3.69,10.92-7.23,15.53-3.54,4.61-5.69,14.76,0,18.15,5.69,3.38,17.23,2,22.3-6.15,5.08-8.15,7.69-25.99,7.69-25.99l-22.76-1.54Z"/>
        <g>
          <path class="cls-4" d="M104.76,188.37s-8.26,8.54-9.19,17.92c-.92,9.38,2.31,23.84,2.31,23.84-4.77.31-13.36,20.9-20.3,32.45-4.45,5.63-7.69,10.06-7.69,10.06,4.46.92,34.72,6.64,34.72,6.64,1.38-6.15-.87-12.58.15-17.31.85-3.97,19.73-23.69,19.73-25.53.15,7.54,2.92,16.76,3.38,17.53s-5.79,22.31-7.94,27.69c7.23,1.08,35.96,4.94,35.96,4.94-2.94-8.38-.48-31.71-4.02-46.78,3.85-5.23,8.7-34.62-4.11-51.45h-43Z"/>
          <path class="cls-5" d="M124.35,237.4c1.97-4.42,3.8-9.13,3.88-13.99-.05-4.92,0-9.84.15-14.76,0,0,0-.28,0-.28,0,0,.26,0,.26,0,1.97,0,3.86-1.14,5.38-2.5-.67.79-1.47,1.47-2.36,2.04-.89.56-1.92.97-3.02,1l.27-.27c.15,4.92.2,9.85.15,14.77-.14,5.02-2.2,9.74-4.73,13.98h0Z"/>
        </g>
        <path class="cls-12" d="M127.87,146.66s13.96-.69,19.96-3.23c6-2.54,24.92-12,34.37-44.76,9.46-32.76,1.38-76.59-54.45-76.59-55.83,0-63.9,43.83-54.45,76.59s28.38,42.22,34.37,44.76,19.96,3.23,19.96,3.23"/>
        <ellipse class="cls-10" cx="183.45" cy="142" rx="2.75" ry="14.98"/>
        <ellipse class="cls-10" cx="75.89" cy="143.5" rx="2.75" ry="14.98"/>
        <path class="cls-8" d="M129.72,22.08c-2.17-1.8-24.68-3.01-35.04,4.03-10.36,7.04-14.39,16.44-15.16,18.24-.77,1.8-28.02,27-2.88,65.39,3.65-7.4,25.69-51.27,51.54-54.52,24.92,3.25,48.41,47.12,51.92,54.52,24.24-38.4-2.04-63.59-2.78-65.39s-4.63-11.2-14.62-18.24c-9.99-7.04-30.9-5.83-32.99-4.03Z"/>
        <path class="cls-12" d="M77.63,98.44s-12.92,3.46-14.07,11.77c-1.15,8.31,6.23,31.61,27.68,17.07-5.77-14.07-13.61-28.84-13.61-28.84Z"/>
        <path class="cls-12" d="M177.87,98.44s12.92,3.46,14.07,11.77c1.15,8.31-6.23,31.61-27.68,17.07,5.77-14.07,13.61-28.84,13.61-28.84Z"/>
        <path class="cls-8" d="M144.32,52.1s20.31,24.69,25.9,41.15c5.6,16.45,6.03,52.76-19.44,53.93,11.46.79,16.53-4.19,19.44-7.06.24,1.72-1.94,4.45-4.1,5.86,9.7-2.61,18.55-12.35,19.19-28.43s-3.04-64.87-41-65.45Z"/>
        <path class="cls-8" d="M112.03,52.88s-20.31,23.12-25.9,39.57c-5.6,16.45-6.03,52.76,19.44,53.93-11.46.79-16.53-4.19-19.44-7.06-.24,1.72,1.94,4.45,4.1,5.86-9.7-2.61-18.55-12.35-19.19-28.43-.65-16.08,3.04-63.3,41-63.87Z"/>
        <circle class="cls-11" cx="91.92" cy="120.28" r="8.23"/>
        <circle class="cls-11" cx="163.36" cy="120.28" r="8.23"/>
        <path class="cls-3" d="M128.18,127.12c-3.77,0-7.06-.47-8.96-1.18.7,1.22,4.43,2.16,8.96,2.16s8.26-.93,8.96-2.16c-1.9.71-5.19,1.18-8.96,1.18Z"/>
        <g>
          <ellipse class="cls-1" cx="105.6" cy="109.53" rx="8.47" ry="10.72"/>
          <ellipse class="cls-5" cx="108.5" cy="105.28" rx="1.95" ry="2.46"/>
          <path class="cls-3" d="M96.73,103.86c1.21-.95,2.41-1.93,3.76-2.51,1.89-.81,4.03-1.35,6.07-.9,4.11.9,10.38,5.63,11.95,8.31,0,0-5.47-9.78-11.95-10.32-4.74-.4-7.45.91-9.43,2.33-1.36.98-3.37,2.99-4.48,4.39-1.3,1.63-2.5,3.34-4.4,5.93-.2.27-.26.68-.12.99,1.18,2.62,4.16,5.31,4.16,5.31-1.78-2.46-2.51-4.72-2.19-6.15s4.79-5.96,6.63-7.39Z"/>
        </g>
        <g>
          <ellipse class="cls-1" cx="150.33" cy="109.75" rx="8.47" ry="10.72"/>
          <ellipse class="cls-5" cx="153.22" cy="105.5" rx="1.95" ry="2.46"/>
          <path class="cls-3" d="M159.2,104.08c-1.21-.95-2.41-1.93-3.76-2.51-1.89-.81-4.03-1.35-6.07-.9-4.11.9-10.38,5.63-11.95,8.31,0,0,5.47-9.78,11.95-10.32,4.74-.4,7.45.91,9.43,2.33,1.36.98,3.37,2.99,4.48,4.39,1.3,1.63,2.5,3.34,4.4,5.93.2.27.26.68.12.99-1.18,2.62-4.16,5.31-4.16,5.31,1.78-2.46,2.51-4.72,2.19-6.15s-4.79-5.96-6.63-7.39Z"/>
        </g>
        <path class="cls-3" d="M115.8,92.55c-6.61.83-12.93.74-19.41,2-3.78.99-7.32,2.79-10.49,5.12,0,0-.22-.23-.22-.23,5.6-6.1,14-9.01,22.15-9.31,2.77.1,5.6.66,8.03,2.1l-.07.31h0Z"/>
        <path class="cls-3" d="M140.55,92.55c6.61.83,12.93.74,19.41,2,3.78.99,7.32,2.79,10.49,5.12,0,0,.22-.23.22-.23-5.6-6.1-14-9.01-22.15-9.31-2.77.1-5.6.66-8.03,2.1l.07.31h0Z"/>
        <path class="cls-3" d="M120.75,146.05c4.68.24,9.34.44,14.01,0-4.57,1.12-9.42.92-14.01,0h0Z"/>
      </g>
      <path class="cls-2" d="M144.32,179.71s11.98,19.53,14.48,28.98,12.48,32.23,24.23,33.51c-4.85,3.06-24.1,1.14-24.1,1.14-5.01-3.19-31.05-41.94-31.31-57.63-5.62,12.8-20.57,48.24-36.56,54.38-4.68,1.28-20.51-.51-20.51-.51,6.89-9.19,21.98-31.79,27.45-41.97,5.85-10.88,12.45-17.05,12.45-17.05l33.87-.86Z"/>
      <g>
        <path class="cls-7" d="M88.74,248.92l-1.49-1.56,12.76-12.14,1.49,1.56c2.46,2.59,2.36,6.67-.22,9.13l-3.41,3.25c-2.58,2.45-6.66,2.35-9.13-.23Z"/>
        <polygon class="cls-2" points="100.01 235.21 87.25 247.35 80.8 240.58 72.24 231.59 70.29 229.53 19.11 175.75 16.89 173.41 4.14 160.02 10.34 154.12 10.7 153.77 16.9 147.88 33.84 165.68 35.26 167.17 68.12 201.71 69.92 203.6 93.56 228.44 100.01 235.21"/>
        <polygon class="cls-7" points="0 142.89 4.14 160.02 16.9 147.87 0 142.89"/>
        <polygon class="cls-2" points="0 142.89 1.21 147.92 4.96 144.36 0 142.89"/>
        <rect class="cls-4" x="81.6" y="233.22" width="17.61" height="9.35" transform="translate(-139.08 127.88) rotate(-43.58)"/>
        <rect class="cls-4" x="48.6" y="138.62" width=".5" height="111.21" transform="translate(-120.43 87.2) rotate(-43.58)"/>
      </g>
      <path class="cls-10" d="M87.36,78.26s44.76,12.09,80.52,0"/>
      <path class="cls-6" d="M128.16,84.23l-2.79,2.03c-.86.63-1.22,1.74-.89,2.75l1.07,3.28c.33,1.02,1.28,1.7,2.34,1.7h3.45c1.07,0,2.01-.69,2.34-1.7l1.07-3.28c.33-1.02-.03-2.13-.89-2.75l-2.79-2.03c-.86-.63-2.03-.63-2.9,0Z"/>
      <path class="cls-2" d="M128.44,85.07l-2.25,1.64c-.7.51-.99,1.4-.72,2.22l.86,2.65c.27.82,1.03,1.37,1.89,1.37h2.78c.86,0,1.62-.55,1.89-1.37l.86-2.65c.27-.82-.03-1.72-.72-2.22l-2.25-1.64c-.7-.51-1.64-.51-2.34,0Z"/>
      <line class="cls-10" x1="178.62" y1="189.23" x2="179.99" y2="179.41"/>
      <line class="cls-10" x1="74.83" y1="189.15" x2="78.65" y2="200.51"/>
      <path class="cls-10" d="M119.22,149.74s7.69,3.56,16.84,0"/>
      <path class="cls-10" d="M105.7,185.89s-11.43,18.4,41.91-.61"/>
      <path class="cls-10" d="M119.22,151.32s2.89,10.8,8.42,10.8,8.42-10.11,8.42-10.11"/>
      <ellipse class="cls-6" cx="106.81" cy="199.83" rx="3.93" ry="3.16" transform="translate(-115.31 244.57) rotate(-73.26)"/>
      <ellipse class="cls-7" cx="106.81" cy="199.83" rx="3.15" ry="2.54" transform="translate(-115.31 244.57) rotate(-73.26)"/>
      <line class="cls-10" x1="108.1" y1="196.91" x2="108.96" y2="193.71"/>
    </g>
  </g>
</svg>