<?xml version="1.0" encoding="UTF-8"?>
<svg id="Calque_2" data-name="Calque 2" xmlns="http://www.w3.org/2000/svg" viewBox="0 0 119.84 186.2">
  <defs>
    <style>
      .cls-1 {
        fill: #201510;
      }

      .cls-2 {
        fill: #a3191c;
      }

      .cls-3 {
        fill: #dda09b;
      }

      .cls-4 {
        fill: #1d1d1b;
      }

      .cls-5 {
        fill: #fff;
      }

      .cls-6 {
        fill: #362824;
      }

      .cls-7 {
        fill: #3c3c3b;
      }

      .cls-8 {
        fill: #272726;
      }

      .cls-9 {
        fill: #f5d5cb;
      }
    </style>
  </defs>
  <g id="Calque_2-2" data-name="Calque 2">
    <g>
      <g>
        <path class="cls-5" d="M88.29,132.35c-8.06,0-17.22-2.15-27.54-5.38-3.18-1-6.12-1.89-9.25-2.81-10.25-3.02-19.46-7.15-27.38-12.28-5.61-3.64-7.35-7.88-8.76-14.94-1.75-8.71-.66-32.43-.62-33.44l.18-3.93,101.92,16.67-1.27,3.89c-.03.1-3.32,10.22-3.25,16.86.02,1.57.42,3.6.84,5.74,1.38,6.95,3.27,16.47-5.6,23.47-5.53,4.37-11.94,6.15-19.27,6.15ZM21.58,67.76c-.27,8.25-.46,22.3.64,27.81,1.25,6.22,2.37,8.27,5.71,10.44,7.34,4.76,15.94,8.61,25.54,11.43,3.17.93,6.14,1.83,9.36,2.84,21.09,6.6,32.41,6.72,40.39.42,5.12-4.04,4.54-9.2,3.07-16.61-.49-2.47-.95-4.81-.98-7.03-.05-5,1.38-11.24,2.45-15.21l-86.19-14.09Z"/>
        <g>
          <path class="cls-5" d="M12.53,182.31c-2.98,0-5.34-1.03-7.15-3.11-2.91-3.35-4.94-18.62-4.96-18.77-.63-5.29-1.35-11.27,4.59-12.83,4.49-1.17,7.45,2.73,9.04,4.82.26.34.61.81.75.94.3.29.66.67,1.05,1.08.94.99,2.7,2.84,3.72,3.19,1.07.37,3.81.55,8,.55h.1c2.14-.57,11.48-5.08,14.59-6.59,1.14-.55,2.01-.97,2.45-1.17,1.49-.69,6.35-3.57,9.26-5.34l3.93-2.39,9.7,34.12-4.48.14c-.32,0-31.85,1.03-46.21,4.74-1.58.41-3.04.61-4.37.61ZM10.76,174.71c.37.39,1.25,1.02,4.39.21,11.9-3.07,33.83-4.36,43.27-4.78l-4.75-16.71c-2.22,1.31-4.78,2.78-6.03,3.36-.41.19-1.24.59-2.33,1.12-12.97,6.28-15.75,7.29-17.38,7.29h-.34c-3.92,0-7.9-.1-10.3-.93-2.63-.91-4.87-3.27-6.51-4.99-.32-.34-.61-.64-.85-.88-.51-.49-.97-1.1-1.46-1.74-.35-.47-.98-1.29-1.5-1.82-.03,1.21.22,3.27.4,4.75.68,5.63,2.54,13.55,3.39,15.12ZM27.93,158.19h0,0Z"/>
          <path class="cls-5" d="M12.53,182.31c-2.98,0-5.34-1.03-7.15-3.11-2.91-3.35-4.94-18.62-4.96-18.77-.63-5.29-1.35-11.27,4.59-12.83,4.49-1.17,7.45,2.73,9.04,4.82.26.34.61.81.75.94.3.29.66.67,1.05,1.08.94.99,2.7,2.84,3.72,3.19,1.07.37,3.81.55,8,.55h.1c2.14-.57,11.48-5.08,14.59-6.59,1.14-.55,2.01-.97,2.45-1.17,1.49-.69,6.35-3.57,9.26-5.34l3.93-2.39,9.7,34.12-4.48.14c-.32,0-31.85,1.03-46.21,4.74-1.58.41-3.04.61-4.37.61ZM10.76,174.71c.37.39,1.25,1.02,4.39.21,11.9-3.07,33.83-4.36,43.27-4.78l-4.75-16.71c-2.22,1.31-4.78,2.78-6.03,3.36-.41.19-1.24.59-2.33,1.12-12.97,6.28-15.75,7.29-17.38,7.29h-.34c-3.92,0-7.9-.1-10.3-.93-2.63-.91-4.87-3.27-6.51-4.99-.32-.34-.61-.64-.85-.88-.51-.49-.97-1.1-1.46-1.74-.35-.47-.98-1.29-1.5-1.82-.03,1.21.22,3.27.4,4.75.68,5.63,2.54,13.55,3.39,15.12ZM27.93,158.19h0,0Z"/>
        </g>
        <g>
          <path class="cls-5" d="M12.38,182.33c-2.17,0-4.97-.57-7.1-3.25C2.24,175.25-.02,157.78,0,155.96v-.25c.03-2.31.07-6.61,4.88-8.06h0c4.71-1.42,7.61,2.63,9.01,4.58,2.02,2.83,4.82,5.1,5.73,5.45,1.58.27,2.24.35,2.24.35l3.03.33.09,3.05.5,18.42-2.78.65c-.58.14-5.76,1.34-7.41,1.58l-.3.05c-.6.09-1.53.24-2.62.24ZM7.02,154.81c-.01.32-.02.67-.02.96v.26c-.02,2.55,2.44,16.61,3.81,18.76.47.58,1.18.69,3.1.38l.36-.06c.65-.09,2.35-.46,4.05-.84l-.26-9.79c-3.49-.79-7.79-5.3-9.87-8.21-.51-.71-.89-1.18-1.18-1.48ZM5.9,150.99l1,3.3s.02-.02.02-.02l-1.02-3.28Z"/>
          <path class="cls-5" d="M12.38,182.33c-2.17,0-4.97-.57-7.1-3.25C2.24,175.25-.02,157.78,0,155.96v-.25c.03-2.31.07-6.61,4.88-8.06h0c4.71-1.42,7.61,2.63,9.01,4.58,2.02,2.83,4.82,5.1,5.73,5.45,1.58.27,2.24.35,2.24.35l3.03.33.09,3.05.5,18.42-2.78.65c-.58.14-5.76,1.34-7.41,1.58l-.3.05c-.6.09-1.53.24-2.62.24ZM7.02,154.81c-.01.32-.02.67-.02.96v.26c-.02,2.55,2.44,16.61,3.81,18.76.47.58,1.18.69,3.1.38l.36-.06c.65-.09,2.35-.46,4.05-.84l-.26-9.79c-3.49-.79-7.79-5.3-9.87-8.21-.51-.71-.89-1.18-1.18-1.48ZM5.9,150.99l1,3.3s.02-.02.02-.02l-1.02-3.28Z"/>
        </g>
        <g>
          <path class="cls-5" d="M55.36,184.77c-2.36,0-5.25-.71-8.62-2.85-.07-.04-.13-.09-.2-.13-3.52.72-6.5.91-8.88.57-1.32.19-2.43.38-3.35.55-2.44.43-4.25.75-5.68-.65-.23,0-.44,0-.59,0-2.82,1.09-5.85,1.16-7.94.27-4.19-.13-5.45-1.16-6.05-2.77-1-2.45.9-4.01,2.91-5.65,1.12-.92,2.55-2.04,3.76-2.99.88-.69,1.64-1.29,2.03-1.61,2.41-1.99,5.06-2.26,7.56-2.26.14-.04.48-.37.65-.65.84-2.44,2.58-17.26,3.73-27.1.76-6.47,1.47-12.58,2.01-16.25,1.67-11.42,8.28-18.57,8.56-18.87l1.04-1.1h26.92l.97.79c1.37,1.12,2.22,1.84,2.77,2.33.32.05.7.1.99.14,1.03.14,2.01.27,2.75.47,2.34.65,8.17,5.5,10.43,7.81,3.42,3.51,8.14,16.76,8.51,18.4.16.68.88,3.33,1.57,5.9,1.15,4.26,1.93,7.12,2.14,8.12.04.21.12.44.2.72.7,2.39,2.01,6.83.67,16.14-1.16,8.08-5.77,11.66-8.46,13.08-.18.1-.36.19-.55.28l-.23.09c-8.08,3.02-26.54,3.74-27.33,3.77h-.24s-.24-.02-.24-.02c-.02,0-.04,0-.06,0-1.34,0-5.62,1.82-7.47,2.61-1.13.48-2.57.86-4.29.86ZM48.58,174.13l1.39,1.42c.21.21.39.37.54.47,2.6,1.65,4.75,2.15,6.4,1.45,4.39-1.87,7.97-3.3,10.67-3.15,5.13-.2,18.95-1.15,24.8-3.27l.07-.04c1.83-.95,4.15-3.1,4.84-7.91,1.12-7.81.09-11.3-.46-13.18-.14-.48-.26-.89-.33-1.24-.19-.88-1.22-4.69-2.05-7.74-.78-2.87-1.45-5.36-1.64-6.17-.52-2.13-4.87-13.19-6.7-15.07-2.3-2.35-6.29-5.37-7.45-5.99-.38-.08-1.15-.18-1.64-.24-2.1-.28-3.56-.47-4.55-1.68-.29-.27-1.01-.88-1.78-1.52h-21.25c-1.59,2.11-4.84,7.13-5.84,13.99-.53,3.57-1.23,9.63-1.98,16.05-2.31,19.73-3.31,27.12-4.36,29.31-.77,1.6-3.21,4.63-6.97,4.63-1.93,0-2.6.24-3.1.66-.15.12-.34.28-.58.47,1.01-.17,2.82-.13,4.26-.05.06,0,.13-.01.22-.02l8.7-.97-.94,1.12c1.82.21,4.62-.1,7.79-.86l1.93-.46ZM72.57,111.87s0,0,0,0c0,0,0,0,0,0ZM77.71,107.11c.21.23.3.37.4.52-.12-.2-.26-.37-.4-.52ZM57.1,165c-.69,0-1.42-.2-2.13-.76l-.08-.06c-.06-.05-.18-.16-.36-.31-2.15-1.87-3.71-3.09-4.65-3.61-1.06-.29-3.04-1.06-3.82-1.5l-2.03-1.15.29-2.32c2.07-16.74,2.37-17.61,2.5-17.98l.04-.11.87-2.28,2.45.02c2.5.03,3.21,1.98,3.96,4.04.41,1.11.96,2.67,1.6,4.49.49,1.39,1.03,2.93,1.6,4.53,1.27,3.55,2.92,8.08,4.38,11.62l1.23,2.99-2.89,1.46c-.79.4-1.83.93-2.96.93ZM51.59,153.47s.07.02.09.03c.07.02.14.04.21.06-.08-.22-.16-.43-.24-.65-.02.19-.05.37-.07.56Z"/>
          <path class="cls-5" d="M55.36,184.77c-2.36,0-5.25-.71-8.62-2.85-.07-.04-.13-.09-.2-.13-3.52.72-6.5.91-8.88.57-1.32.19-2.43.38-3.35.55-2.44.43-4.25.75-5.68-.65-.23,0-.44,0-.59,0-2.82,1.09-5.85,1.16-7.94.27-4.19-.13-5.45-1.16-6.05-2.77-1-2.45.9-4.01,2.91-5.65,1.12-.92,2.55-2.04,3.76-2.99.88-.69,1.64-1.29,2.03-1.61,2.41-1.99,5.06-2.26,7.56-2.26.14-.04.48-.37.65-.65.84-2.44,2.58-17.26,3.73-27.1.76-6.47,1.47-12.58,2.01-16.25,1.67-11.42,8.28-18.57,8.56-18.87l1.04-1.1h26.92l.97.79c1.37,1.12,2.22,1.84,2.77,2.33.32.05.7.1.99.14,1.03.14,2.01.27,2.75.47,2.34.65,8.17,5.5,10.43,7.81,3.42,3.51,8.14,16.76,8.51,18.4.16.68.88,3.33,1.57,5.9,1.15,4.26,1.93,7.12,2.14,8.12.04.21.12.44.2.72.7,2.39,2.01,6.83.67,16.14-1.16,8.08-5.77,11.66-8.46,13.08-.18.1-.36.19-.55.28l-.23.09c-8.08,3.02-26.54,3.74-27.33,3.77h-.24s-.24-.02-.24-.02c-.02,0-.04,0-.06,0-1.34,0-5.62,1.82-7.47,2.61-1.13.48-2.57.86-4.29.86ZM48.58,174.13l1.39,1.42c.21.21.39.37.54.47,2.6,1.65,4.75,2.15,6.4,1.45,4.39-1.87,7.97-3.3,10.67-3.15,5.13-.2,18.95-1.15,24.8-3.27l.07-.04c1.83-.95,4.15-3.1,4.84-7.91,1.12-7.81.09-11.3-.46-13.18-.14-.48-.26-.89-.33-1.24-.19-.88-1.22-4.69-2.05-7.74-.78-2.87-1.45-5.36-1.64-6.17-.52-2.13-4.87-13.19-6.7-15.07-2.3-2.35-6.29-5.37-7.45-5.99-.38-.08-1.15-.18-1.64-.24-2.1-.28-3.56-.47-4.55-1.68-.29-.27-1.01-.88-1.78-1.52h-21.25c-1.59,2.11-4.84,7.13-5.84,13.99-.53,3.57-1.23,9.63-1.98,16.05-2.31,19.73-3.31,27.12-4.36,29.31-.77,1.6-3.21,4.63-6.97,4.63-1.93,0-2.6.24-3.1.66-.15.12-.34.28-.58.47,1.01-.17,2.82-.13,4.26-.05.06,0,.13-.01.22-.02l8.7-.97-.94,1.12c1.82.21,4.62-.1,7.79-.86l1.93-.46ZM72.57,111.87s0,0,0,0c0,0,0,0,0,0ZM77.71,107.11c.21.23.3.37.4.52-.12-.2-.26-.37-.4-.52ZM57.1,165c-.69,0-1.42-.2-2.13-.76l-.08-.06c-.06-.05-.18-.16-.36-.31-2.15-1.87-3.71-3.09-4.65-3.61-1.06-.29-3.04-1.06-3.82-1.5l-2.03-1.15.29-2.32c2.07-16.74,2.37-17.61,2.5-17.98l.04-.11.87-2.28,2.45.02c2.5.03,3.21,1.98,3.96,4.04.41,1.11.96,2.67,1.6,4.49.49,1.39,1.03,2.93,1.6,4.53,1.27,3.55,2.92,8.08,4.38,11.62l1.23,2.99-2.89,1.46c-.79.4-1.83.93-2.96.93ZM51.59,153.47s.07.02.09.03c.07.02.14.04.21.06-.08-.22-.16-.43-.24-.65-.02.19-.05.37-.07.56Z"/>
        </g>
        <g>
          <rect class="cls-5" x="62.44" y="143.25" width="21.64" height="7" transform="translate(-89.98 130.76) rotate(-57.88)"/>
          <rect class="cls-5" x="62.44" y="143.25" width="21.64" height="7" transform="translate(-89.98 130.76) rotate(-57.88)"/>
        </g>
        <g>
          <path class="cls-5" d="M56.62,165.73l-8.62-7.69.09-1.68c.23-4.22,13.7-36.5,13.84-36.82.05-.12,5.82-12.28,11.07-12.51l1.92-.08,14.21,20.38-18.81,31.05-13.7,7.35ZM55.47,155.32l2.15,1.92,7.7-4.13,15.46-25.52-8.3-11.91c-1.52,1.95-3.38,4.87-4.11,6.58-2.34,5.52-10.89,26.65-12.9,33.05Z"/>
          <path class="cls-5" d="M56.62,165.73l-8.62-7.69.09-1.68c.23-4.22,13.7-36.5,13.84-36.82.05-.12,5.82-12.28,11.07-12.51l1.92-.08,14.21,20.38-18.81,31.05-13.7,7.35ZM55.47,155.32l2.15,1.92,7.7-4.13,15.46-25.52-8.3-11.91c-1.52,1.95-3.38,4.87-4.11,6.58-2.34,5.52-10.89,26.65-12.9,33.05Z"/>
        </g>
        <g>
          <path class="cls-5" d="M87.23,129.88l-5.73-4.02c.66-.95,2.37-4.16,1.69-6.44-1.03-3.43-1.69-3.86-4.15-5.49l3.86-5.84c3.25,2.15,5.33,3.75,7,9.32,1.78,5.93-2.2,11.82-2.66,12.47Z"/>
          <path class="cls-5" d="M87.18,129.94l-5.88-3.77c1.54-2.77,2.08-4.94,1.66-6.63-.55-2.45-1.84-4.29-3.86-5.56l3.61-6c1.63.94,3.49,2.11,4.89,3.99,1.35,1.79,2.03,3.81,2.57,5.56l.05.18c.98,3.91-.1,8.25-3.04,12.23Z"/>
        </g>
        <g>
          <path class="cls-5" d="M14.26,182.16l-2.04-6.7c-.39.12-.62.32-.67.39.48-.58,1.13-3.09,1.31-5.07l6.97.64c-.32,3.48-1.47,9.5-5.57,10.75Z"/>
          <path class="cls-5" d="M14.36,182.13l-2.61-6.14-.33-.15c-.1.08-.15.14-.15.14,0,0,.04-.06.12-.22.53-1.21.86-2.61,1.21-4.08.11-.48.23-.96.35-1.44l6.89.88c-.05,5.91-1.99,9.82-5.48,11ZM11.53,175.76l.16.08-.06-.14s-.07.04-.1.06Z"/>
        </g>
        <g>
          <rect class="cls-5" x="37.79" y="156.08" width="7" height="3.92" transform="translate(-74.2 42.52) rotate(-30.35)"/>
          <path class="cls-5" d="M49.28,171.69l-9.48-9.48c-1.39-1.39-2.35-3.04-2.88-4.92l-3.57-12.8,9.41,9.38c1.38,1.38,2.35,3.03,2.88,4.92l3.63,12.9Z"/>
        </g>
        <g>
          <path class="cls-5" d="M34.37,180.61s.04-.09.06-.13l-6.47-2.67c.95-2.3,3.83-4.64,7.53-6.12,1.69-.67,3.07-2.6,3.46-3.29l6.12,3.4c-.26.47-2.68,4.67-6.99,6.39-2.45.98-3.55,2.15-3.71,2.41Z"/>
          <path class="cls-5" d="M34.13,181.06l-6.13-3.33c1.49-3.37,4.72-5.11,7.36-6.25,1.31-.55,2.55-1.66,3.82-3.42l5.97,3.61c-1.55,3.1-3.98,5.48-6.85,6.7-1.77.76-3.43,1.54-4.17,2.68Z"/>
        </g>
        <g>
          <rect class="cls-5" x="35.59" y="173.7" width="6.46" height="7" transform="translate(-94.13 53.79) rotate(-34.78)"/>
          <path class="cls-5" d="M37.69,182.19l-3.94-5.68c1.84-1.76,3.93-3.21,6.21-4.31l3.94,5.68c-1.83,1.75-3.92,3.21-6.21,4.31Z"/>
        </g>
        <g>
          <path class="cls-5" d="M22.98,181.74l-4.72-5.17c.74-.68,4.54-4.12,6.42-5.29,2.45-1.53,5.9-1.56,6.57-1.55l-.1,7c-.91,0-2.29.2-2.76.49-.99.62-3.76,3.02-5.41,4.53Z"/>
          <path class="cls-5" d="M22.68,181.98l-4.55-5.29.76-.77c2.89-2.97,6.85-7.02,12.81-6.16l-.09,6.94c-1.21.14-2.28.29-3,.67-1.02.71-2.02,1.52-3.07,2.38-.91.74-1.85,1.51-2.85,2.24Z"/>
        </g>
        <g>
          <path class="cls-5" d="M28.82,181.42l-5.34-4.53.14-.17c1.16-1.4,4.7-5.65,10.43-6.09l.54,6.98c-2.78.22-4.82,2.67-5.59,3.59l-.18.22Z"/>
          <path class="cls-5" d="M28.65,181.61l-5.46-4.31c2.08-3.33,6.1-6.85,11.25-6.68l.53,6.94c-1.99.37-3.88,1.58-6.31,4.05Z"/>
        </g>
        <g>
          <path class="cls-5" d="M19.57,181.1l-4.49-5.37c1.57-1.32,6.8-5.68,7.97-6.45.16-.1.33-.21.51-.32,1.93-1.18,4.08-1.81,6.23-1.83h.13c.71-.05,1.32-.68,1.42-1.47.56-4.13,1.2-9.33,1.2-9.33l6.95.86s-.65,5.24-1.21,9.41c-.55,4.07-3.85,7.23-7.86,7.51-.19.01-.38.02-.56.02-.88,0-1.8.29-2.65.81-.11.07-.21.13-.3.19-.63.43-4.3,3.44-7.34,5.98Z"/>
          <path class="cls-5" d="M19.45,181.19l-4.34-5.49c.86-.7,1.69-1.46,2.58-2.27,2.22-2.03,4.52-4.13,7.51-5.56,1.62-.75,3.24-.89,4.54-1.01l.39-.04c.27-.07.54-.27.71-.51l.09-.12c.17-.23.27-1,.36-1.62l.06-.46c.36-2.55.76-5.14,1.22-7.93l6.94.89c-.25,2.68-.52,5.31-.81,7.81-.09,4.09-2.62,8.57-7.38,9.35l-.41.04c-1.85.09-2.9.35-3.73.93-.72.48-3.73,2.86-5.53,4.27-.99.78-1.81,1.43-2.19,1.72Z"/>
        </g>
        <g>
          <path class="cls-5" d="M18.37,74.79c-.07,0-.15,0-.22,0l.17-6.54,6.4,2.54c-.6,1.5-2.6,4.01-6.35,4.01ZM18.32,67.96v-.17c.14,0,.19-.01.19-.01-.08.02-.14.09-.19.18Z"/>
          <path class="cls-5" d="M19.15,74.99c-.86,0-1.71-.19-2.47-.57l-6.99-3.48,7.25-2.9c1.28-.51,1.63-.66,2.22-1.18l6.05-5.29-.25,8.03c-.06,1.85-1.08,3.54-2.74,4.54-.95.56-2.02.85-3.07.85ZM19.14,67.99c-.17,0-.35.04-.52.14-.38.23-.65.73-.66,1.26l1.2.04.63-1.27c-.1-.05-.36-.16-.66-.16Z"/>
        </g>
        <g>
          <path class="cls-5" d="M59.84,161.4l16.16-25.33-11.5-4.26-10.07,25.61-3.49-7.15c-.22-.46-4.95-10.23-6.18-19.1-3.1-.37-5.82-1.15-5.97-1.19l-2.81-.81.29-2.91c.02-.15.39-3.73,1.81-8.97,1.39-5.14,6.42-12.92,8-13.97l4.47-2.98.87,5.01c.1.09.24.2.38.29,1.23.36,2.62,1.25,3.5,2.93.79,1.5.73,2.7.5,3.6.26.16,1.08.6,3.1.84,4.79.58,7.03-.51,7.54-1.16l.12-.15c1.15-1.46,1.84-2.35,3.52-3.54,1.35-.95,3.77-2.13,4.24-2.36l1.25-.6,1.32.41c.44.14,10.84,3.46,15.38,10.62,4.29,6.75,8.4,18.06,10.75,29.57.79,2.23,1.35,5.38,1.47,6.25l.43,3.4-3.39.51c-25.14,3.78-34.14,4.69-34.52,4.73l-7.17.71ZM60.49,122.86l26.07,9.65-12.97,20.33c4.86-.63,12.38-1.65,23.24-3.26-.15-.6-.32-1.16-.49-1.61l-.15-.53c-2.15-10.65-6.02-21.43-9.85-27.46-2.24-3.52-7.37-6.09-10.28-7.23-.76.4-1.55.84-1.95,1.12-.84.6-1.03.83-2.05,2.14l-.12.15c-2.53,3.23-7.46,4.57-13.9,3.79-5.53-.67-8.56-2.91-9.29-6.83-.08-.44-.1-.84-.08-1.2-.09-.05-.18-.1-.28-.16-1.37,2.19-2.95,5.1-3.56,7.36-.51,1.88-.87,3.52-1.12,4.81,1.3.24,2.83.46,4.21.43l3.43-.04.1,3.43c.11,3.63,1.29,7.93,2.55,11.56l6.47-16.46Z"/>
          <path class="cls-5" d="M59.84,161.4l16.16-25.33-11.5-4.26-10.07,25.61-3.49-7.15c-.22-.46-4.95-10.23-6.18-19.1-3.1-.37-5.82-1.15-5.97-1.19l-2.81-.81.29-2.91c.02-.15.39-3.73,1.81-8.97,1.39-5.14,6.42-12.92,8-13.97l4.47-2.98.87,5.01c.1.09.24.2.38.29,1.23.36,2.62,1.25,3.5,2.93.79,1.5.73,2.7.5,3.6.26.16,1.08.6,3.1.84,4.79.58,7.03-.51,7.54-1.16l.12-.15c1.15-1.46,1.84-2.35,3.52-3.54,1.35-.95,3.77-2.13,4.24-2.36l1.25-.6,1.32.41c.44.14,10.84,3.46,15.38,10.62,4.29,6.75,8.4,18.06,10.75,29.57.79,2.23,1.35,5.38,1.47,6.25l.43,3.4-3.39.51c-25.14,3.78-34.14,4.69-34.52,4.73l-7.17.71ZM60.49,122.86l26.07,9.65-12.97,20.33c4.86-.63,12.38-1.65,23.24-3.26-.15-.6-.32-1.16-.49-1.61l-.15-.53c-2.15-10.65-6.02-21.43-9.85-27.46-2.24-3.52-7.37-6.09-10.28-7.23-.76.4-1.55.84-1.95,1.12-.84.6-1.03.83-2.05,2.14l-.12.15c-2.53,3.23-7.46,4.57-13.9,3.79-5.53-.67-8.56-2.91-9.29-6.83-.08-.44-.1-.84-.08-1.2-.09-.05-.18-.1-.28-.16-1.37,2.19-2.95,5.1-3.56,7.36-.51,1.88-.87,3.52-1.12,4.81,1.3.24,2.83.46,4.21.43l3.43-.04.1,3.43c.11,3.63,1.29,7.93,2.55,11.56l6.47-16.46Z"/>
        </g>
        <g>
          <g>
            <path class="cls-5" d="M61,113.01c-17.34,0-32.66-5.59-37.76-9.2-3.33-2.35-8.93-7.53-9.09-15.77-.05-2.71.42-5.18,1.41-7.33-1.72-4.66-2.6-9.53-2.6-14.49,0-25.51,23.31-46.27,51.96-46.27s51.96,20.75,51.96,46.27c0,16.58-10.16,31.88-25.96,40.05l.79.36-8.57,2.93c-.38.13-.68.22-.98.31-7.02,2.25-14.25,3.13-21.14,3.13ZM64.91,26.96c-24.79,0-44.96,17.61-44.96,39.27,0,4.2.76,8.34,2.25,12.29.62,1.64.54,3.43-.2,4.93-.61,1.22-.9,2.72-.86,4.46.1,5.16,3.89,8.6,6.14,10.19,6.09,4.31,30.72,12.15,52.75,5.11.19-.06.38-.12.56-.18l.54-.18c17.19-5.82,28.74-20.53,28.74-36.62,0-21.65-20.17-39.27-44.96-39.27Z"/>
            <path class="cls-5" d="M61,113.01c-17.34,0-32.66-5.59-37.76-9.2-3.33-2.35-8.93-7.53-9.09-15.77-.05-2.71.42-5.18,1.41-7.33-1.72-4.66-2.6-9.53-2.6-14.49,0-25.51,23.31-46.27,51.96-46.27s51.96,20.75,51.96,46.27c0,16.58-10.16,31.88-25.96,40.05l.79.36-8.57,2.93c-.38.13-.68.22-.98.31-7.02,2.25-14.25,3.13-21.14,3.13ZM64.91,26.96c-24.79,0-44.96,17.61-44.96,39.27,0,4.2.76,8.34,2.25,12.29.62,1.64.54,3.43-.2,4.93-.61,1.22-.9,2.72-.86,4.46.1,5.16,3.89,8.6,6.14,10.19,6.09,4.31,30.72,12.15,52.75,5.11.19-.06.38-.12.56-.18l.54-.18c17.19-5.82,28.74-20.53,28.74-36.62,0-21.65-20.17-39.27-44.96-39.27Z"/>
          </g>
          <g>
            <path class="cls-5" d="M100.66,104.11c-4.25,0-10.22-3.12-11.37-3.74l3.33-6.16c2.23,1.2,6.19,2.9,8.04,2.9,2.63,0,5.52-1.56,8.31-3.07l.15-.08c2.07-1.12,3.9-3.89,3.32-5.03-.32-.63-2.91-1.3-5.36-1.17l-.42-6.99c1.53-.1,9.32-.3,12.01,4.96,2.88,5.63-1.76,11.97-6.22,14.38l-.15.08c-3.39,1.83-7.24,3.91-11.64,3.91Z"/>
            <path class="cls-5" d="M100.66,104.11c-4.25,0-10.22-3.12-11.37-3.74l3.33-6.16c2.23,1.2,6.19,2.9,8.04,2.9,2.63,0,5.52-1.56,8.31-3.07l.15-.08c2.07-1.12,3.9-3.89,3.32-5.03-.32-.63-2.91-1.3-5.36-1.17l-.42-6.99c1.53-.1,9.32-.3,12.01,4.96,2.88,5.63-1.76,11.97-6.22,14.38l-.15.08c-3.39,1.83-7.24,3.91-11.64,3.91Z"/>
          </g>
          <g>
            <path class="cls-5" d="M106.38,99.19l-1.97-6.72c1.42-.42,3.03-1.14,3.94-1.71l-.16-5.25c1-.03,4.4.03,6.32,2.24,1.01,1.16,1.43,2.67,1.16,4.25-.7,4.09-6.12,6.26-9.29,7.19Z"/>
            <path class="cls-5" d="M106.21,99.24l-2.19-6.62.48-.2c1.32-.56,2.59-1.1,3.59-1.77l-.27-5.09c2.72-.39,6.12.43,7.57,3.13.41.77,1.55,3.5-1.15,6.56l-.26.26c-2.44,2.24-5.44,3.17-7.77,3.73Z"/>
          </g>
          <g>
            <path class="cls-5" d="M24.26,95.2c-5.09,0-9.23-4.14-9.23-9.23s4.14-9.23,9.23-9.23,9.23,4.14,9.23,9.23-4.14,9.23-9.23,9.23ZM24.26,83.73c-1.23,0-2.23,1-2.23,2.23s1,2.23,2.23,2.23,2.23-1,2.23-2.23-1-2.23-2.23-2.23Z"/>
            <path class="cls-5" d="M24.26,95.2c-5.09,0-9.23-4.14-9.23-9.23s4.14-9.23,9.23-9.23,9.23,4.14,9.23,9.23-4.14,9.23-9.23,9.23ZM24.26,83.73c-1.23,0-2.23,1-2.23,2.23s1,2.23,2.23,2.23,2.23-1,2.23-2.23-1-2.23-2.23-2.23Z"/>
          </g>
          <g>
            <path class="cls-5" d="M77.54,99.24c-5.09,0-9.23-4.14-9.23-9.23s4.14-9.23,9.23-9.23,9.23,4.14,9.23,9.23-4.14,9.23-9.23,9.23ZM77.54,87.77c-1.23,0-2.23,1-2.23,2.23s1,2.23,2.23,2.23,2.23-1,2.23-2.23-1-2.23-2.23-2.23Z"/>
            <path class="cls-5" d="M77.54,99.24c-5.09,0-9.23-4.14-9.23-9.23s4.14-9.23,9.23-9.23,9.23,4.14,9.23,9.23-4.14,9.23-9.23,9.23ZM77.54,87.77c-1.23,0-2.23,1-2.23,2.23s1,2.23,2.23,2.23,2.23-1,2.23-2.23-1-2.23-2.23-2.23Z"/>
          </g>
          <path class="cls-5" d="M70.47,89.47c-4.51,0-9.41-3.82-9.5-12.22-.07-6.65,3.56-11.65,3.71-11.86l1.81-2.45,2.67,1.45c.25.13,6.06,3.31,12.21,9.96l1.01,1.09-.09,1.49c-.46,7.75-6.5,12.55-11.83,12.55ZM68.83,72.5c-.48,1.29-.88,2.9-.86,4.67.03,3.07,1.09,5.3,2.5,5.3s3.89-1.36,4.64-4.55c-2.36-2.39-4.6-4.19-6.29-5.41Z"/>
          <path class="cls-5" d="M32.4,87c-.1,0-.2,0-.3,0-5.18-.24-8.53-5.28-8.53-12.86,0-4.3,2.02-8.8,4.81-10.71,1.61-1.1,3.48-1.36,5.14-.72,8.11,3.14,8.09,8.43,8.09,10.98,0,.28,0,.55.01.8.2,2.74-1.34,7.45-3.93,10.11-1.91,1.96-3.88,2.41-5.29,2.41ZM31.94,69.63c-.59.81-1.37,2.54-1.37,4.51,0,3.48,1.02,5.7,1.78,5.86.96-.47,2.35-3.71,2.29-5.02-.03-.41-.03-.85-.03-1.32,0-1.76,0-2.81-2.67-4.04Z"/>
          <path class="cls-5" d="M74.94,81.49c-3.36,0-6.09-2.73-6.09-6.09s2.73-6.09,6.09-6.09,6.09,2.73,6.09,6.09-2.73,6.09-6.09,6.09ZM74.94,74.49c-.5,0-.91.41-.91.91s.41.91.91.91.91-.41.91-.91-.41-.91-.91-.91Z"/>
          <g>
            <path class="cls-5" d="M83.28,82.77l-5.62-4.18c-.64.86-.52,1.52-.52,1.53,0-.02-.42-1.74-4.96-5.47l-.08-.07c-5.46-4.78-8.2-4.8-9.13-4.58-1.16.27-1.64,1.42-1.67,1.47l-6.56-2.44c.17-.47,1.77-4.58,6.42-5.79,4.39-1.14,9.61.9,15.5,6.04,8.98,7.39,8,11.63,6.61,13.49Z"/>
            <path class="cls-5" d="M83.27,82.78l-6.21-2.89c-.08.36-.01.64.02.72-.08-.19-.44-.63-.65-.9l-.08-.1c-1.25-1.47-3.2-3-4.93-4.36l-.18-.14c-3.54-3.02-6.73-4.64-8.55-4.37-.44.07-1.03.28-1.68,1.33l-6.33-2.82c.93-3.22,3.04-5.52,5.94-6.49,4.68-1.57,10.01.63,13.16,2.99l.4.31c3.77,2.94,8.05,6.27,9.81,11.57l.09.34c.43,1.91.16,3.54-.81,4.82Z"/>
          </g>
          <g>
            <path class="cls-5" d="M18.7,77.55c-2.14-5.78-1.65-6.85-1.22-7.79l.04-.09c3.31-7.85,8.67-8.92,11.59-8.85,7.8.17,11.31,7.27,11.93,8.69l-6.41,2.81c-.2-.45-2.04-4.42-5.68-4.5-1.86-.04-3.47,1.31-4.73,4.02.19.77.61,2.11,1.05,3.29l-6.56,2.43ZM23.9,72.54l-.05.11s.03-.08.05-.11Z"/>
            <path class="cls-5" d="M18.86,77.91l3.12-1.58-3.15,1.53c-.8-1.59-1.71-3.39-2.15-5.48l-.07-.48c-.03-.24-.11-1,.21-1.98,1.36-4.57,4.28-7.99,8.03-9.39,3.11-1.17,6.52-.9,9.59.76,3.42,1.85,5.96,5.15,6.79,8.85l-6.3,2.75c-.58-.85-3.66-5.04-7.06-3.9-.99.34-2.13,1.51-3.17,3.26.08.54.22,1.19.36,1.81.13.56.25,1.12.35,1.66l-6.57,2.2Z"/>
          </g>
          <g>
            <path class="cls-5" d="M20.95,64.44l-4.34-5.49c.46-.36,4.65-3.58,10.06-4.18,5.26-.59,9.01-.36,12.52.76l-2.12,6.67c-2.52-.8-5.4-.94-9.62-.47-3.47.39-6.47,2.7-6.5,2.72Z"/>
            <path class="cls-5" d="M18.84,65.27c-.83,0-1.91-.29-2.85-1.48l-2.02-2.56,2.41-2.2c4.23-3.86,10.43-5.88,17.04-5.53l.26.02c2.58.33,4.79,1.14,6.55,2.41l2.06,1.48-1.57,4.96-2.46.09c-1.79.07-3.52.03-5.19,0-2.35-.04-4.58-.08-6.81.14-1.87.33-3.74,1.06-5.57,2.17l-.32.19-.35.12c-.21.07-.64.19-1.16.19Z"/>
          </g>
          <g>
            <path class="cls-5" d="M73.21,68.56c-10.69-8.77-17.77-7.24-17.84-7.22l-1.82-6.76c1.04-.29,10.57-2.53,24.1,8.57l-4.44,5.41Z"/>
            <path class="cls-5" d="M76.04,70.63l-2.65-1.8c-2.28-1.55-5.69-3.74-9.14-5.01-3.04-.95-6.37-1.89-10.11-2.29l-2.36-.25-1.49-5.33,2.69-1.25c6.74-3.15,15.33-.2,24.87,8.51l2.45,2.24-4.26,5.19Z"/>
          </g>
          <path class="cls-5" d="M34.75,78.89c-3.36,0-6.09-2.73-6.09-6.09s2.73-6.09,6.09-6.09,6.09,2.73,6.09,6.09-2.73,6.09-6.09,6.09ZM34.75,71.89c-.5,0-.91.41-.91.91s.41.91.91.91.91-.41.91-.91-.41-.91-.91-.91Z"/>
          <g>
            <path class="cls-5" d="M47.01,94.72c-7.15,0-10.39-2.88-10.97-3.45l4.95-4.95s-.03-.03-.09-.09c.07.06,1.8,1.49,6.11,1.49v7Z"/>
            <path class="cls-5" d="M44.76,94.97c-3.28,0-6.81-1.16-9.02-4.05l4.3-5.28c1.62.78,3.42,1.18,5.33,1.6.83.18,1.67.37,2.51.59l-.07,6.8c-.95.22-1.99.35-3.05.35Z"/>
          </g>
        </g>
        <g>
          <path class="cls-5" d="M55.62,113.94l-6.11-2.8,3.25-5.18c2.45,1.5,4.39,4.64,2.86,7.98ZM49.29,112.12c-.04-.06-.16-.17-.25-.23l.12-.19c.02.19.07.34.13.42Z"/>
          <path class="cls-5" d="M55.15,114.7l-5.21-2.43.44-1.47-.65-.53c-.35.42-.48,1.03-.33,1.52.04.12.08.22.17.31l-.57-.26c-.02.13,0,.29.03.35-.09-.21-.55-.72-.72-.92l-8.1-9.15,11.71,3.48c1.93.57,3.57,2.2,4.17,4.15.54,1.76.2,3.57-.95,4.97Z"/>
        </g>
        <g>
          <path class="cls-5" d="M60.12,113.12c-7.65,0-12.95-1.12-14.34-1.45l1.62-6.81c1.91.45,12.14,2.59,25.85.06l1.27,6.88c-5.33.98-10.22,1.32-14.4,1.32Z"/>
          <path class="cls-5" d="M60.04,113.37c-4.96,0-9.77-.57-14.3-1.71l1.46-6.84c7.87,1.38,16.69,1.4,26.21.08l1.22,6.89c-4.91,1.06-9.82,1.59-14.59,1.59Z"/>
        </g>
        <g>
          <path class="cls-5" d="M62.32,124.07c-.75,0-1.52-.03-2.32-.08l.08-6.99c5.2-.24,9.11-2.38,11.94-6.53,6.7-9.83,5.28-27.78,2.21-36.82-4.71-13.86-22.26-35.29-22.43-35.51l-4.8-5.84,7.55.11c9.96.15,18.31,3.72,24.84,10.62,15.97,16.88,15.21,47.77,15.07,51.23-.7,17.35-11.03,26.21-19.66,28.53l-.69-1.54c-2.84,1.55-6.66,2.79-11.79,2.79ZM80.43,109.61l.25,1.83c3.6-3.63,6.46-9.32,6.78-17.43.46-11.48-1.79-34.13-13.16-46.14-3.31-3.5-7.23-5.92-11.72-7.24,5.87,7.83,14.86,20.78,18.26,30.79,2.98,8.76,5.01,25.69-.42,38.21Z"/>
          <path class="cls-5" d="M38.9,124.07c-5.14,0-8.95-1.25-11.79-2.79l-.69,1.54c-8.64-2.32-18.97-11.19-19.66-28.53-.13-3.36-.87-33.28,14.72-49.76,6.57-6.95,15.05-10.55,25.19-10.7l7.89-.12-5.2,5.93c-.18.2-17.67,20.22-22.36,34.02-3.07,9.04-4.5,26.99,2.21,36.82,2.83,4.15,6.74,6.29,11.94,6.53l.08,6.99c-.8.06-1.57.08-2.32.08ZM38.27,42.09c-4.49,1.35-8.41,3.77-11.7,7.25-13.62,14.39-12.94,41.61-12.81,44.66.33,8.11,3.18,13.81,6.78,17.43l.25-1.83c-5.43-12.52-3.4-29.45-.42-38.21,3.34-9.81,12.01-21.84,17.9-29.31Z"/>
          <path class="cls-5" d="M87.56,94.57l-.04-3.76c-.24-22.74-23.42-42.19-31.04-48.58-2.53-2.12-6.93-2.52-10.69-.96l-9.27,3.85c-2.07,1.64-14.15,12.2-14.09,34.63l-6.75,1.3c-9.76-24.68-2.78-40.12,4.8-48.74,11.02-12.53,29.62-17.4,38.87-15.61,18.99-3.76,32.81,2.34,41.08,8.16,10.1,7.11,17.22,17.61,18.58,27.42,2.37,17.13-.28,28.17-8.36,34.72-7.68,6.24-18.87,7.23-19.34,7.27l-3.75.31ZM50.58,33.29c3.89,0,7.6,1.22,10.4,3.57,7.8,6.54,30.7,25.76,33.3,49.85,3.32-.7,8.29-2.17,11.96-5.15,5.99-4.86,7.84-13.86,5.84-28.33-1.08-7.82-7.24-16.72-15.67-22.65-7.25-5.1-19.45-10.43-36.37-6.88l-.79.17-.79-.2c-5.84-1.48-22.69,1.85-32.73,13.26-5.98,6.79-8.56,15.12-7.73,24.86,4.68-15.2,14.19-22.19,14.72-22.57l.33-.23,10.06-4.17c2.44-1.01,5-1.51,7.48-1.51Z"/>
          <path class="cls-5" d="M112.43,62.37c-12.78,0-45.04-31.19-51.44-37.5l-1.78-1.76,1.08-2.25C63.28,14.66,71.07.21,78.92,0c.04,0,.08,0,.12,0,7.41,0,19.53,17.38,21.89,20.88,4.42,6.54,14.76,23.34,15.21,37.88l.11,3.41-3.41.19c-.13,0-.27.01-.41.01ZM67.72,21.66c13.03,12.65,31.65,28.6,40.91,32.71-1.47-8.1-5.99-18.23-12.83-28.58-7.95-12.01-14.88-18.15-16.84-18.78-2.17.34-7.27,7.06-11.24,14.65Z"/>
        </g>
        <g>
          <path class="cls-5" d="M55.22,186.2l-4.23-25.34,2.26-1.17c2.73-1.42,5.82-3.03,6.17-3.23.42-.24,4-2.26,5.6-3.16l5.91-9.3,30.94-3.79.62,3.21c.17.87.4,1.96.49,2.31.93,2.55,2.35,7.59,1.8,13.73-.64,7.11-1.75,13.35-8.89,17.67-4.58,2.77-13.94,3.43-23.96,3.91-2.21.11-4.5.22-5.24.35-2.45.43-6.04,2.07-7.22,2.67l-4.25,2.16ZM58.74,164.72l1.86,11.18c1.53-.59,3.28-1.15,4.88-1.43,1.17-.21,3.24-.31,6.11-.44,6.02-.29,17.24-.83,20.67-2.91,4.23-2.56,4.97-5.87,5.54-12.3.45-5-.83-9.13-1.4-10.68l-.06-.18s0-.02,0-.03l-21.27,2.61-5.08,7.99-.76.43s-5.83,3.29-6.38,3.6c-.36.2-2.41,1.27-4.12,2.16Z"/>
          <path class="cls-5" d="M55.22,186.2l-4.23-25.34,2.26-1.17c2.73-1.42,5.82-3.03,6.17-3.23.42-.24,4-2.26,5.6-3.16l5.91-9.3,30.94-3.79.62,3.21c.17.87.4,1.96.49,2.31.93,2.55,2.35,7.59,1.8,13.73-.64,7.11-1.75,13.35-8.89,17.67-4.58,2.77-13.94,3.43-23.96,3.91-2.21.11-4.5.22-5.24.35-2.45.43-6.04,2.07-7.22,2.67l-4.25,2.16ZM58.74,164.72l1.86,11.18c1.53-.59,3.28-1.15,4.88-1.43,1.17-.21,3.24-.31,6.11-.44,6.02-.29,17.24-.83,20.67-2.91,4.23-2.56,4.97-5.87,5.54-12.3.45-5-.83-9.13-1.4-10.68l-.06-.18s0-.02,0-.03l-21.27,2.61-5.08,7.99-.76.43s-5.83,3.29-6.38,3.6c-.36.2-2.41,1.27-4.12,2.16Z"/>
        </g>
        <g>
          <path class="cls-5" d="M60.07,164.07l-3.18-6.24c1.22-.62,3.27-1.79,5.26-2.92,2.25-1.28,4.58-2.61,6.05-3.33,3.67-1.83,17.72-4.48,20.51-4.99l1.27,6.88c-6.51,1.2-16.61,3.35-18.65,4.37-1.29.64-3.54,1.92-5.71,3.15-2.15,1.22-4.18,2.38-5.54,3.07Z"/>
          <path class="cls-5" d="M59.89,164.15l-3.13-6.25c1.2-.68,2.71-1.58,4.17-2.45,1.03-.62,2.04-1.22,2.9-1.72,2.53-1.52,5.31-3.08,8.48-3.83,4.82-1.27,10.24-2.37,16.48-3.33l1.32,6.87c-1.34.31-2.82.64-4.37.98-3.89.86-8.3,1.84-11.55,2.74-2.9.76-5.57,2.28-8.4,3.89-1.88,1.07-3.82,2.18-5.91,3.1Z"/>
        </g>
        <g>
          <path class="cls-5" d="M55.5,184.95c-4.3,0-8.1-1.67-10.81-4.76-3.73-4.26-8.77-13.24-9.5-15.3-2.83-7.96.86-11.06,3.31-12.21,3.73-1.74,7.25-1.73,11.75.04,4.7,1.84,6.68,3.61,7.76,4.77.86.93,3.3,3.56,4.56,7.13.84,2.38,2.64,9.6.94,14.32-1.85,5.15-5.58,5.9-7.1,5.97-.31.02-.61.02-.91.02ZM44.02,158.4c-1.07,0-1.83.29-2.56.63h0c-.72.33-.01,2.57.33,3.52.46,1.25,4.97,9.38,8.17,13.03,1.5,1.7,3.52,2.5,6.03,2.36.18,0,.58-.36.94-1.36.7-1.96.07-6.7-.96-9.63-.78-2.21-2.47-4.04-3.03-4.64-.42-.45-1.49-1.61-5.23-3.08-1.57-.62-2.74-.84-3.68-.84Z"/>
          <path class="cls-5" d="M55.5,184.95c-4.3,0-8.1-1.67-10.81-4.76-3.73-4.26-8.77-13.24-9.5-15.3-2.83-7.96.86-11.06,3.31-12.21,3.73-1.74,7.25-1.73,11.75.04,4.7,1.84,6.68,3.61,7.76,4.77.86.93,3.3,3.56,4.56,7.13.84,2.38,2.64,9.6.94,14.32-1.85,5.15-5.58,5.9-7.1,5.97-.31.02-.61.02-.91.02ZM44.02,158.4c-1.07,0-1.83.29-2.56.63h0c-.72.33-.01,2.57.33,3.52.46,1.25,4.97,9.38,8.17,13.03,1.5,1.7,3.52,2.5,6.03,2.36.18,0,.58-.36.94-1.36.7-1.96.07-6.7-.96-9.63-.78-2.21-2.47-4.04-3.03-4.64-.42-.45-1.49-1.61-5.23-3.08-1.57-.62-2.74-.84-3.68-.84Z"/>
        </g>
      </g>
      <g>
        <path class="cls-5" d="M112.24,79.04s-3.51,10.67-3.43,17.99,6.28,18.77-3.43,26.43-22.96,6.63-43.6.17c-3.74-1.17-6.78-2.08-9.3-2.83-9.31-2.74-18.31-6.57-26.46-11.86-4.56-2.96-5.94-6.21-7.24-12.69-1.68-8.39-.55-32.59-.55-32.59l94.01,15.37Z"/>
        <g>
          <path class="cls-5" d="M55.79,148.07s-7.4,4.51-9.62,5.53-16.37,8.09-18.24,8.09-7.2.06-9.5-.74-4.74-3.79-6.06-5.07-3.53-5.66-6.47-4.89-2.64,3.7-2,9.02,2.72,15.28,4.13,16.89,3.59,2.54,8,1.4c14.91-3.85,46.98-4.85,46.98-4.85l-7.21-25.38Z"/>
          <path class="cls-5" d="M55.79,148.07s-7.4,4.51-9.62,5.53-16.37,8.09-18.24,8.09-7.2.06-9.5-.74-4.74-3.79-6.06-5.07-3.53-5.66-6.47-4.89-2.64,3.7-2,9.02,2.72,15.28,4.13,16.89,3.59,2.54,8,1.4c14.91-3.85,46.98-4.85,46.98-4.85l-7.21-25.38Z"/>
        </g>
        <g>
          <path class="cls-5" d="M5.9,150.99c1.52-.46,2.83.03,5.15,3.26s6.05,6.53,7.89,6.85,2.56.39,2.56.39l.42,15.56s-5.57,1.3-7.12,1.52-4.7.93-6.77-1.68-4.55-18.48-4.52-20.91-.04-4.27,2.4-5.01Z"/>
          <path class="cls-5" d="M5.9,150.99c1.52-.46,2.83.03,5.15,3.26s6.05,6.53,7.89,6.85,2.56.39,2.56.39l.42,15.56s-5.57,1.3-7.12,1.52-4.7.93-6.77-1.68-4.55-18.48-4.52-20.91-.04-4.27,2.4-5.01Z"/>
        </g>
        <g>
          <path class="cls-5" d="M93.76,174.27c.11-.05.22-.1.32-.16,2.37-1.24,5.76-4.11,6.68-10.51,1.45-10.12-.45-13.85-.83-15.64-.38-1.78-3.32-12.31-3.7-13.97-.38-1.66-4.92-13.98-7.6-16.73-2.68-2.74-7.72-6.57-8.87-6.89-1.15-.32-4.4-.53-4.59-.84-.2-.31-3.2-2.76-3.2-2.76h-24.16s-6.12,6.51-7.65,16.98c-1.54,10.47-4.54,41.22-6.03,44.35-.27.57-1.65,2.64-3.82,2.64s-3.86.24-5.33,1.45c-1.46,1.21-7.78,6.02-7.65,6.34.12.32,2.74.51,3.7.51.64.64,3.28,1.05,6.16-.22.83-.16,3.73,0,3.73,0,0,0,.21-.01.57-.05-.26.31-.42.56-.48.73-.25.7,2.1-.07,6.7-.69,2.97.56,7.05-.17,9.76-.82.39.4.77.72,1.16.97,2.81,1.79,6.34,3.13,9.65,1.73,3.31-1.41,7.27-3.07,9.25-2.87,0,0,18.59-.69,26.23-3.55ZM57.12,161.48c-.34-.28-3.53-3.16-5.54-4.28-.26-.15-.5-.25-.71-.3-.71-.17-2.55-.89-3.08-1.19,1.28-10.37,2.16-16.77,2.33-17.26.1-.26,1.81,4.8,3.92,10.72,1.43,3.99,3.03,8.36,4.44,11.78-.77.39-1.27.6-1.36.53Z"/>
          <path class="cls-5" d="M93.76,174.27c.11-.05.22-.1.32-.16,2.37-1.24,5.76-4.11,6.68-10.51,1.45-10.12-.45-13.85-.83-15.64-.38-1.78-3.32-12.31-3.7-13.97-.38-1.66-4.92-13.98-7.6-16.73-2.68-2.74-7.72-6.57-8.87-6.89-1.15-.32-4.4-.53-4.59-.84-.2-.31-3.2-2.76-3.2-2.76h-24.16s-6.12,6.51-7.65,16.98c-1.54,10.47-4.54,41.22-6.03,44.35-.27.57-1.65,2.64-3.82,2.64s-3.86.24-5.33,1.45c-1.46,1.21-7.78,6.02-7.65,6.34.12.32,2.74.51,3.7.51.64.64,3.28,1.05,6.16-.22.83-.16,3.73,0,3.73,0,0,0,.21-.01.57-.05-.26.31-.42.56-.48.73-.25.7,2.1-.07,6.7-.69,2.97.56,7.05-.17,9.76-.82.39.4.77.72,1.16.97,2.81,1.79,6.34,3.13,9.65,1.73,3.31-1.41,7.27-3.07,9.25-2.87,0,0,18.59-.69,26.23-3.55ZM57.12,161.48c-.34-.28-3.53-3.16-5.54-4.28-.26-.15-.5-.25-.71-.3-.71-.17-2.55-.89-3.08-1.19,1.28-10.37,2.16-16.77,2.33-17.26.1-.26,1.81,4.8,3.92,10.72,1.43,3.99,3.03,8.36,4.44,11.78-.77.39-1.27.6-1.36.53Z"/>
        </g>
        <g>
          <line class="cls-5" x1="67.51" y1="155.91" x2="79.01" y2="137.59"/>
          <line class="cls-5" x1="67.51" y1="155.91" x2="79.01" y2="137.59"/>
        </g>
        <g>
          <path class="cls-5" d="M73.14,110.52c-1.96.09-6.81,7.57-8,10.38s-13.39,32.49-13.56,35.64l5.54,4.94,10.7-5.74,17.13-28.28-11.81-16.94"/>
          <path class="cls-5" d="M73.14,110.52c-1.96.09-6.81,7.57-8,10.38s-13.39,32.49-13.56,35.64l5.54,4.94,10.7-5.74,17.13-28.28-11.81-16.94"/>
        </g>
        <g>
          <path class="cls-5" d="M84.37,127.86s3.51-4.98,2.17-9.45-2.71-5.51-5.58-7.4"/>
          <path class="cls-5" d="M84.37,127.86c1.52-2.75,2.77-6.03,1.99-9.17-.72-3.24-2.57-5.91-5.4-7.68,1.4.81,2.83,1.7,3.83,3.05,1.01,1.34,1.55,2.93,2.04,4.5.82,3.28-.54,6.69-2.46,9.3h0Z"/>
        </g>
        <g>
          <path class="cls-5" d="M16.34,171.1s-.64,6.97-3.11,7.72"/>
          <path class="cls-5" d="M16.34,171.1c-.02,2.39-.49,6.83-3.11,7.72.65-.34,1.03-.95,1.33-1.57.87-1.96,1.25-4.05,1.77-6.14h0Z"/>
        </g>
        <g>
          <line class="cls-5" x1="42.28" y1="159.73" x2="40.3" y2="156.35"/>
          <path class="cls-5" d="M42.28,159.73c-.95-.95-1.62-2.09-1.98-3.39.95.95,1.62,2.09,1.98,3.39h0Z"/>
        </g>
        <g>
          <path class="cls-5" d="M31.2,179.15c.45-1.08,2.32-2.89,5.59-4.2,3.28-1.31,5.22-4.83,5.22-4.83"/>
          <path class="cls-5" d="M31.2,179.15c.99-2.24,3.39-3.52,5.55-4.45,2.18-.91,3.89-2.68,5.27-4.58-1.08,2.16-2.82,4.08-5.08,5.04-2.13.91-4.43,1.99-5.73,3.99h0Z"/>
        </g>
        <g>
          <line class="cls-5" x1="36.16" y1="179.04" x2="41.47" y2="175.35"/>
          <path class="cls-5" d="M36.16,179.04c1.57-1.51,3.34-2.74,5.31-3.69-1.57,1.51-3.35,2.74-5.31,3.69h0Z"/>
        </g>
        <g>
          <path class="cls-5" d="M20.62,179.15s4.21-3.85,5.91-4.91,4.66-1.02,4.66-1.02"/>
          <path class="cls-5" d="M20.62,179.15c2.94-2.97,5.97-6.6,10.58-5.93-1.53.18-3.1.4-4.43,1.16-2.14,1.45-4.04,3.23-6.15,4.77h0Z"/>
        </g>
        <g>
          <path class="cls-5" d="M26.15,179.15c.81-.95,3.65-4.69,8.17-5.04"/>
          <path class="cls-5" d="M26.15,179.15c1.73-2.77,4.76-5.14,8.17-5.04-3.28.61-5.89,2.72-8.17,5.04h0Z"/>
        </g>
        <g>
          <path class="cls-5" d="M17.33,178.41s6.56-5.49,7.65-6.22c.12-.08.26-.17.4-.26,1.34-.82,2.88-1.31,4.44-1.32.11,0,.23,0,.35-.01,2.4-.17,4.31-2.1,4.64-4.49.56-4.15,1.2-9.37,1.2-9.37"/>
          <path class="cls-5" d="M17.33,178.41c3.08-2.51,5.77-5.65,9.39-7.39,1.21-.56,2.68-.61,3.93-.73,1.24-.22,2.38-.96,3.09-2.01.79-1.07.89-2.38,1.07-3.67.37-2.62.77-5.24,1.2-7.86-.25,2.64-.52,5.28-.82,7.91,0,2.74-1.54,5.64-4.46,6.12-2.01.09-3.9.38-5.57,1.56-1.13.76-6.65,5.17-7.84,6.08h0Z"/>
        </g>
        <g>
          <path class="cls-5" d="M21.46,69.49s-.74,1.86-3.23,1.79"/>
          <path class="cls-5" d="M21.46,69.49c-.05,1.5-1.93,2.44-3.23,1.79,1.32-.53,2.15-.86,3.23-1.79h0Z"/>
        </g>
        <g>
          <path class="cls-5" d="M50.56,108.95s1.01.03,1.65,1.25-.2,1.22,0,2.29.65,3.31,6.27,3.99c5.61.68,9.21-.56,10.72-2.48,1.19-1.51,1.6-2.06,2.9-2.99,1.18-.83,3.73-2.07,3.73-2.07,0,0,9.56,3,13.47,9.16s7.99,17.09,10.33,28.64c.66,1.77,1.25,4.81,1.37,5.75-25.34,3.81-34.34,4.7-34.34,4.7l14.62-22.91-18.78-6.95-8.41,21.39s-5.84-11.97-6.11-20.87c-3.72.04-8.22-1.25-8.22-1.25,0,0,.34-3.39,1.71-8.4s6.18-11.72,6.56-11.97c.29,1.66,2.53,2.71,2.53,2.71Z"/>
          <path class="cls-5" d="M50.56,108.95s1.01.03,1.65,1.25-.2,1.22,0,2.29.65,3.31,6.27,3.99c5.61.68,9.21-.56,10.72-2.48,1.19-1.51,1.6-2.06,2.9-2.99,1.18-.83,3.73-2.07,3.73-2.07,0,0,9.56,3,13.47,9.16s7.99,17.09,10.33,28.64c.66,1.77,1.25,4.81,1.37,5.75-25.34,3.81-34.34,4.7-34.34,4.7l14.62-22.91-18.78-6.95-8.41,21.39s-5.84-11.97-6.11-20.87c-3.72.04-8.22-1.25-8.22-1.25,0,0,.34-3.39,1.71-8.4s6.18-11.72,6.56-11.97c.29,1.66,2.53,2.71,2.53,2.71Z"/>
        </g>
        <g>
          <g>
            <path class="cls-5" d="M113.36,66.22c0-23.62-21.69-42.77-48.46-42.77s-48.46,19.15-48.46,42.77c0,4.73.87,9.27,2.47,13.52.26.7.27,1.47-.06,2.14-.69,1.4-1.28,3.38-1.22,6.08.13,6.38,4.38,10.68,7.62,12.98,6.45,4.56,32.17,13.15,55.84,5.59.28-.09.56-.18.84-.27.11-.04.22-.07.32-.1h-.01c18.19-6.16,31.11-21.72,31.11-39.94Z"/>
            <path class="cls-5" d="M113.36,66.22c0-23.62-21.69-42.77-48.46-42.77s-48.46,19.15-48.46,42.77c0,4.73.87,9.27,2.47,13.52.26.7.27,1.47-.06,2.14-.69,1.4-1.28,3.38-1.22,6.08.13,6.38,4.38,10.68,7.62,12.98,6.45,4.56,32.17,13.15,55.84,5.59.28-.09.56-.18.84-.27.11-.04.22-.07.32-.1h-.01c18.19-6.16,31.11-21.72,31.11-39.94Z"/>
          </g>
          <g>
            <path class="cls-5" d="M106.88,84.27s6.89-.43,8.68,3.06-1.62,8-4.77,9.7-6.55,3.57-10.13,3.57-9.7-3.32-9.7-3.32"/>
            <path class="cls-5" d="M106.88,84.27s6.89-.43,8.68,3.06-1.62,8-4.77,9.7-6.55,3.57-10.13,3.57-9.7-3.32-9.7-3.32"/>
          </g>
          <g>
            <path class="cls-5" d="M108.3,89.02s4.35-.15,3.91,2.4c-.43,2.54-6.82,4.42-6.82,4.42"/>
            <path class="cls-5" d="M108.3,89.02c2.59-.37,5.75,1.14,3.31,3.91-1.74,1.59-3.98,2.37-6.22,2.9,2.04-.87,4.23-1.74,5.86-3.25,2.21-2.39-.86-3.49-2.95-3.56h0Z"/>
          </g>
          <g>
            <circle class="cls-5" cx="24.26" cy="85.97" r="5.73"/>
            <circle class="cls-5" cx="24.26" cy="85.97" r="5.73"/>
          </g>
          <g>
            <circle class="cls-5" cx="77.54" cy="90.01" r="5.73"/>
            <circle class="cls-5" cx="77.54" cy="90.01" r="5.73"/>
          </g>
          <path class="cls-5" d="M67.5,67.46s-3.09,4.2-3.03,9.75,2.69,8.76,6,8.76,7.98-3.11,8.34-9.25c-5.83-6.29-11.31-9.25-11.31-9.25Z"/>
          <path class="cls-5" d="M32.26,65.97c-2.3-.89-5.19,3.66-5.19,8.17s1.45,9.19,5.19,9.36,6.04-6.38,5.87-8.77.94-6.13-5.87-8.77Z"/>
          <circle class="cls-5" cx="74.94" cy="75.39" r="2.59"/>
          <g>
            <path class="cls-5" d="M58.05,70.21s3.45-9.56,16.36,1.73c7.8,6.4,6.06,8.73,6.06,8.73"/>
            <path class="cls-5" d="M58.05,70.21c1.9-6.59,9.45-4.81,13.63-1.67,3.56,2.78,7.52,5.75,8.99,10.19.14.64.21,1.41-.19,1.95.28-1.23-.66-2.35-1.39-3.26-1.55-1.83-3.67-3.49-5.57-4.98-4.13-3.53-11.55-8.52-15.47-2.23h0Z"/>
          </g>
          <g>
            <path class="cls-5" d="M21.98,76.33s-1.64-4.43-1.32-5.13,2.62-7.02,8.36-6.89,8.42,5.72,8.81,6.59"/>
            <path class="cls-5" d="M21.98,76.33c-.75-1.49-1.52-3.01-1.87-4.66-.01-.18-.07-.36.05-.7.88-3.02,2.81-6.01,5.92-7.16,5.18-1.94,10.63,2.17,11.74,7.1-2.5-3.65-6.62-6.73-11.07-5.24-2.46.85-4.34,3.35-5.6,5.75-.05,1.54.53,3.31.82,4.92h0Z"/>
          </g>
          <g>
            <path class="cls-5" d="M38.14,58.86c-3.14-1-6.5-1.13-11.07-.62s-8.28,3.45-8.28,3.45"/>
            <path class="cls-5" d="M38.11,58.96c-4.21.15-8.2-.26-12.35.17-2.44.41-4.77,1.35-6.9,2.64,0,0-.12-.16-.12-.16,3.87-3.53,9.34-4.89,14.49-4.62,1.74.22,3.5.73,4.95,1.78l-.06.19h0Z"/>
          </g>
          <g>
            <path class="cls-5" d="M54.49,57.95s8.43-2.36,20.94,7.9"/>
            <path class="cls-5" d="M54.47,57.86c7.12-3.33,15.96,3.29,21.03,7.92,0,0-.13.15-.13.15-3.09-2.1-6.48-4.16-9.99-5.43-3.61-1.14-7.05-2.05-10.86-2.46,0,0-.05-.19-.05-.19h0Z"/>
          </g>
          <circle class="cls-5" cx="34.75" cy="72.8" r="2.59"/>
          <g>
            <path class="cls-5" d="M38.52,88.79s2.43,2.43,8.49,2.43"/>
            <path class="cls-5" d="M38.52,88.79c2.75,1.33,5.58,1.68,8.49,2.43-2.92.68-6.59.06-8.49-2.43h0Z"/>
          </g>
        </g>
        <g>
          <path class="cls-5" d="M50.93,108.95s2.45,1.5,1.51,3.54"/>
          <path class="cls-5" d="M50.93,108.95c1.39.41,2.56,2.26,1.51,3.54.27-1.44-.59-2.5-1.51-3.54h0Z"/>
        </g>
        <g>
          <path class="cls-5" d="M46.59,108.27c2.02.48,12.93,2.74,27.3.1"/>
          <path class="cls-5" d="M46.59,108.27c9.01,1.58,18.26,1.36,27.3.1-8.93,1.93-18.4,2.15-27.3-.1h0Z"/>
        </g>
        <g>
          <path class="cls-5" d="M54.49,35.93s18.06,21.97,23.04,36.6,5.36,46.93-17.3,47.97c10.19.7,14.7-3.72,17.3-6.28.21,1.53-1.72,3.96-3.65,5.21,8.63-2.32,16.5-10.99,17.07-25.29s-2.7-57.71-36.47-58.22Z"/>
          <path class="cls-5" d="M46.73,37.33s-18.06,20.57-23.04,35.2c-4.98,14.64-5.36,46.93,17.3,47.97-10.19.7-14.7-3.72-17.3-6.28-.21,1.53,1.72,3.96,3.65,5.21-8.63-2.32-16.5-10.99-17.07-25.29s2.7-56.31,36.47-56.82Z"/>
          <path class="cls-5" d="M91.02,90.77s10.5-.87,17.42-6.5,9.31-15.56,7.1-31.53S91.77,13.46,59.31,20.27C46.59,17.03-.24,31.31,18.92,79.75c-.07-26.29,15.83-37.69,15.83-37.69l9.69-4.02c4.62-1.92,10.45-1.71,14.28,1.51,10.38,8.71,32.04,27.97,32.29,51.23Z"/>
          <path class="cls-5" d="M63.45,22.38s9-18.71,15.56-18.88,32.95,33.28,33.63,55.36c-11.58.64-49.19-36.48-49.19-36.48Z"/>
        </g>
        <g>
          <path class="cls-5" d="M99.06,144.07s.45,2.3.6,2.74,2.24,5.63,1.64,12.31-1.45,11.5-7.22,14.98-24.47,3.19-27.99,3.8c-3.52.62-8.2,3-8.2,3l-3.02-18.13s5.73-2.98,6.28-3.28,6.37-3.6,6.37-3.6l5.49-8.65,26.06-3.19Z"/>
          <path class="cls-5" d="M99.06,144.07s.45,2.3.6,2.74,2.24,5.63,1.64,12.31-1.45,11.5-7.22,14.98-24.47,3.19-27.99,3.8c-3.52.62-8.2,3-8.2,3l-3.02-18.13s5.73-2.98,6.28-3.28,6.37-3.6,6.37-3.6l5.49-8.65,26.06-3.19Z"/>
        </g>
        <g>
          <path class="cls-5" d="M58.48,160.95c2.69-1.37,8.63-4.92,11.28-6.24,3.41-1.7,19.58-4.68,19.58-4.68"/>
          <path class="cls-5" d="M58.48,160.95c2.07-1.16,5.03-2.98,7.12-4.19,2.37-1.42,4.83-2.82,7.53-3.45,5.34-1.41,10.76-2.44,16.21-3.28-4.76,1.09-11.44,2.47-16.08,3.76-5.35,1.4-9.77,4.94-14.78,7.16h0Z"/>
        </g>
        <g>
          <path class="cls-5" d="M39.98,155.86c2.29-1.07,4.79-1.53,9,.12s5.72,3.09,6.46,3.89c.6.65,2.77,2.93,3.83,5.92s2.09,8.8.95,11.98-3.06,3.62-3.98,3.66-5.47.37-8.91-3.55-8.23-12.47-8.84-14.16-2.13-6.17,1.49-7.86Z"/>
          <path class="cls-5" d="M39.98,155.86c2.29-1.07,4.79-1.53,9,.12s5.72,3.09,6.46,3.89c.6.65,2.77,2.93,3.83,5.92s2.09,8.8.95,11.98-3.06,3.62-3.98,3.66-5.47.37-8.91-3.55-8.23-12.47-8.84-14.16-2.13-6.17,1.49-7.86Z"/>
        </g>
      </g>
      <g>
        <path class="cls-6" d="M112.24,79.04s-3.51,10.67-3.43,17.99,6.28,18.77-3.43,26.43-22.96,6.63-43.6.17c-3.74-1.17-6.78-2.08-9.3-2.83-9.31-2.74-18.31-6.57-26.46-11.86-4.56-2.96-5.94-6.21-7.24-12.69-1.68-8.39-.55-32.59-.55-32.59l94.01,15.37Z"/>
        <path class="cls-7" d="M55.79,148.07s-7.4,4.51-9.62,5.53-16.37,8.09-18.24,8.09-7.2.06-9.5-.74-4.74-3.79-6.06-5.07-3.53-5.66-6.47-4.89-2.64,3.7-2,9.02,2.72,15.28,4.13,16.89,3.59,2.54,8,1.4c14.91-3.85,46.98-4.85,46.98-4.85l-7.21-25.38Z"/>
        <path class="cls-8" d="M5.9,150.99c1.52-.46,2.83.03,5.15,3.26s6.05,6.53,7.89,6.85,2.56.39,2.56.39l.42,15.56s-5.57,1.3-7.12,1.52-4.7.93-6.77-1.68-4.55-18.48-4.52-20.91-.04-4.27,2.4-5.01Z"/>
        <path class="cls-9" d="M93.76,174.27c.11-.05.22-.1.32-.16,2.37-1.24,5.76-4.11,6.68-10.51,1.45-10.12-.45-13.85-.83-15.64-.38-1.78-3.32-12.31-3.7-13.97-.38-1.66-4.92-13.98-7.6-16.73-2.68-2.74-7.72-6.57-8.87-6.89-1.15-.32-4.4-.53-4.59-.84-.2-.31-3.2-2.76-3.2-2.76h-24.16s-6.12,6.51-7.65,16.98c-1.54,10.47-4.54,41.22-6.03,44.35-.27.57-1.65,2.64-3.82,2.64s-3.86.24-5.33,1.45c-1.46,1.21-7.78,6.02-7.65,6.34.12.32,2.74.51,3.7.51.64.64,3.28,1.05,6.16-.22.83-.16,3.73,0,3.73,0,0,0,.21-.01.57-.05-.26.31-.42.56-.48.73-.25.7,2.1-.07,6.7-.69,2.97.56,7.05-.17,9.76-.82.39.4.77.72,1.16.97,2.81,1.79,6.34,3.13,9.65,1.73,3.31-1.41,7.27-3.07,9.25-2.87,0,0,18.59-.69,26.23-3.55ZM57.12,161.48c-.34-.28-3.53-3.16-5.54-4.28-.26-.15-.5-.25-.71-.3-.71-.17-2.55-.89-3.08-1.19,1.28-10.37,2.16-16.77,2.33-17.26.1-.26,1.81,4.8,3.92,10.72,1.43,3.99,3.03,8.36,4.44,11.78-.77.39-1.27.6-1.36.53Z"/>
        <line class="cls-2" x1="67.51" y1="155.91" x2="79.01" y2="137.59"/>
        <path class="cls-9" d="M73.14,110.52c-1.96.09-6.81,7.57-8,10.38s-13.39,32.49-13.56,35.64l5.54,4.94,10.7-5.74,17.13-28.28-11.81-16.94"/>
        <path class="cls-4" d="M84.37,127.86c1.52-2.75,2.77-6.03,1.99-9.17-.72-3.24-2.57-5.91-5.4-7.68,1.4.81,2.83,1.7,3.83,3.05,1.01,1.34,1.55,2.93,2.04,4.5.82,3.28-.54,6.69-2.46,9.3h0Z"/>
        <path class="cls-4" d="M16.34,171.1c-.02,2.39-.49,6.83-3.11,7.72.65-.34,1.03-.95,1.33-1.57.87-1.96,1.25-4.05,1.77-6.14h0Z"/>
        <path class="cls-4" d="M42.28,159.73c-.95-.95-1.62-2.09-1.98-3.39.95.95,1.62,2.09,1.98,3.39h0Z"/>
        <path class="cls-4" d="M31.2,179.15c.99-2.24,3.39-3.52,5.55-4.45,2.18-.91,3.89-2.68,5.27-4.58-1.08,2.16-2.82,4.08-5.08,5.04-2.13.91-4.43,1.99-5.73,3.99h0Z"/>
        <path class="cls-4" d="M36.16,179.04c1.57-1.51,3.34-2.74,5.31-3.69-1.57,1.51-3.35,2.74-5.31,3.69h0Z"/>
        <path class="cls-4" d="M20.62,179.15c2.94-2.97,5.97-6.6,10.58-5.93-1.53.18-3.1.4-4.43,1.16-2.14,1.45-4.04,3.23-6.15,4.77h0Z"/>
        <path class="cls-4" d="M26.15,179.15c1.73-2.77,4.76-5.14,8.17-5.04-3.28.61-5.89,2.72-8.17,5.04h0Z"/>
        <path class="cls-4" d="M17.33,178.41c3.08-2.51,5.77-5.65,9.39-7.39,1.21-.56,2.68-.61,3.93-.73,1.24-.22,2.38-.96,3.09-2.01.79-1.07.89-2.38,1.07-3.67.37-2.62.77-5.24,1.2-7.86-.25,2.64-.52,5.28-.82,7.91,0,2.74-1.54,5.64-4.46,6.12-2.01.09-3.9.38-5.57,1.56-1.13.76-6.65,5.17-7.84,6.08h0Z"/>
        <path class="cls-4" d="M21.46,69.49c-.05,1.5-1.93,2.44-3.23,1.79,1.32-.53,2.15-.86,3.23-1.79h0Z"/>
        <path class="cls-2" d="M50.56,108.95s1.01.03,1.65,1.25-.2,1.22,0,2.29.65,3.31,6.27,3.99c5.61.68,9.21-.56,10.72-2.48,1.19-1.51,1.6-2.06,2.9-2.99,1.18-.83,3.73-2.07,3.73-2.07,0,0,9.56,3,13.47,9.16s7.99,17.09,10.33,28.64c.66,1.77,1.25,4.81,1.37,5.75-25.34,3.81-34.34,4.7-34.34,4.7l14.62-22.91-18.78-6.95-8.41,21.39s-5.84-11.97-6.11-20.87c-3.72.04-8.22-1.25-8.22-1.25,0,0,.34-3.39,1.71-8.4s6.18-11.72,6.56-11.97c.29,1.66,2.53,2.71,2.53,2.71Z"/>
        <g>
          <path class="cls-9" d="M113.36,66.22c0-23.62-21.69-42.77-48.46-42.77s-48.46,19.15-48.46,42.77c0,4.73.87,9.27,2.47,13.52.26.7.27,1.47-.06,2.14-.69,1.4-1.28,3.38-1.22,6.08.13,6.38,4.38,10.68,7.62,12.98,6.45,4.56,32.17,13.15,55.84,5.59.28-.09.56-.18.84-.27.11-.04.22-.07.32-.1h-.01c18.19-6.16,31.11-21.72,31.11-39.94Z"/>
          <path class="cls-9" d="M106.88,84.27s6.89-.43,8.68,3.06-1.62,8-4.77,9.7-6.55,3.57-10.13,3.57-9.7-3.32-9.7-3.32"/>
          <path class="cls-4" d="M108.3,89.02c2.59-.37,5.75,1.14,3.31,3.91-1.74,1.59-3.98,2.37-6.22,2.9,2.04-.87,4.23-1.74,5.86-3.25,2.21-2.39-.86-3.49-2.95-3.56h0Z"/>
          <circle class="cls-3" cx="24.26" cy="85.97" r="5.73"/>
          <circle class="cls-3" cx="77.54" cy="90.01" r="5.73"/>
          <path class="cls-1" d="M67.5,67.46s-3.09,4.2-3.03,9.75,2.69,8.76,6,8.76,7.98-3.11,8.34-9.25c-5.83-6.29-11.31-9.25-11.31-9.25Z"/>
          <path class="cls-1" d="M32.26,65.97c-2.3-.89-5.19,3.66-5.19,8.17s1.45,9.19,5.19,9.36,6.04-6.38,5.87-8.77.94-6.13-5.87-8.77Z"/>
          <circle class="cls-5" cx="74.94" cy="75.39" r="2.59"/>
          <path class="cls-4" d="M58.05,70.21c1.9-6.59,9.45-4.81,13.63-1.67,3.56,2.78,7.52,5.75,8.99,10.19.14.64.21,1.41-.19,1.95.28-1.23-.66-2.35-1.39-3.26-1.55-1.83-3.67-3.49-5.57-4.98-4.13-3.53-11.55-8.52-15.47-2.23h0Z"/>
          <path class="cls-4" d="M21.98,76.33c-.75-1.49-1.52-3.01-1.87-4.66-.01-.18-.07-.36.05-.7.88-3.02,2.81-6.01,5.92-7.16,5.18-1.94,10.63,2.17,11.74,7.1-2.5-3.65-6.62-6.73-11.07-5.24-2.46.85-4.34,3.35-5.6,5.75-.05,1.54.53,3.31.82,4.92h0Z"/>
          <path class="cls-4" d="M38.11,58.96c-4.21.15-8.2-.26-12.35.17-2.44.41-4.77,1.35-6.9,2.64,0,0-.12-.16-.12-.16,3.87-3.53,9.34-4.89,14.49-4.62,1.74.22,3.5.73,4.95,1.78l-.06.19h0Z"/>
          <path class="cls-4" d="M54.47,57.86c7.12-3.33,15.96,3.29,21.03,7.92,0,0-.13.15-.13.15-3.09-2.1-6.48-4.16-9.99-5.43-3.61-1.14-7.05-2.05-10.86-2.46,0,0-.05-.19-.05-.19h0Z"/>
          <circle class="cls-5" cx="34.75" cy="72.8" r="2.59"/>
          <path class="cls-4" d="M38.52,88.79c2.75,1.33,5.58,1.68,8.49,2.43-2.92.68-6.59.06-8.49-2.43h0Z"/>
        </g>
        <path class="cls-4" d="M50.93,108.95c1.39.41,2.56,2.26,1.51,3.54.27-1.44-.59-2.5-1.51-3.54h0Z"/>
        <path class="cls-4" d="M46.59,108.27c9.01,1.58,18.26,1.36,27.3.1-8.93,1.93-18.4,2.15-27.3-.1h0Z"/>
        <g>
          <path class="cls-6" d="M54.49,35.93s18.06,21.97,23.04,36.6,5.36,46.93-17.3,47.97c10.19.7,14.7-3.72,17.3-6.28.21,1.53-1.72,3.96-3.65,5.21,8.63-2.32,16.5-10.99,17.07-25.29s-2.7-57.71-36.47-58.22Z"/>
          <path class="cls-6" d="M46.73,37.33s-18.06,20.57-23.04,35.2c-4.98,14.64-5.36,46.93,17.3,47.97-10.19.7-14.7-3.72-17.3-6.28-.21,1.53,1.72,3.96,3.65,5.21-8.63-2.32-16.5-10.99-17.07-25.29s2.7-56.31,36.47-56.82Z"/>
          <path class="cls-6" d="M91.02,90.77s10.5-.87,17.42-6.5,9.31-15.56,7.1-31.53S91.77,13.46,59.31,20.27C46.59,17.03-.24,31.31,18.92,79.75c-.07-26.29,15.83-37.69,15.83-37.69l9.69-4.02c4.62-1.92,10.45-1.71,14.28,1.51,10.38,8.71,32.04,27.97,32.29,51.23Z"/>
          <path class="cls-6" d="M63.45,22.38s9-18.71,15.56-18.88,32.95,33.28,33.63,55.36c-11.58.64-49.19-36.48-49.19-36.48Z"/>
        </g>
        <path class="cls-7" d="M99.06,144.07s.45,2.3.6,2.74,2.24,5.63,1.64,12.31-1.45,11.5-7.22,14.98-24.47,3.19-27.99,3.8c-3.52.62-8.2,3-8.2,3l-3.02-18.13s5.73-2.98,6.28-3.28,6.37-3.6,6.37-3.6l5.49-8.65,26.06-3.19Z"/>
        <path class="cls-4" d="M58.48,160.95c2.07-1.16,5.03-2.98,7.12-4.19,2.37-1.42,4.83-2.82,7.53-3.45,5.34-1.41,10.76-2.44,16.21-3.28-4.76,1.09-11.44,2.47-16.08,3.76-5.35,1.4-9.77,4.94-14.78,7.16h0Z"/>
        <path class="cls-8" d="M39.98,155.86c2.29-1.07,4.79-1.53,9,.12s5.72,3.09,6.46,3.89c.6.65,2.77,2.93,3.83,5.92s2.09,8.8.95,11.98-3.06,3.62-3.98,3.66-5.47.37-8.91-3.55-8.23-12.47-8.84-14.16-2.13-6.17,1.49-7.86Z"/>
      </g>
    </g>
  </g>
</svg>