<?xml version="1.0" encoding="UTF-8"?>
<svg id="Calque_2" data-name="Calque 2" xmlns="http://www.w3.org/2000/svg" viewBox="0 0 112.86 177.96">
  <defs>
    <style>
      .cls-1 {
        fill: #201510;
      }

      .cls-2 {
        fill: none;
        stroke: #fff;
        stroke-width: 7px;
      }

      .cls-3 {
        fill: #dda09b;
      }

      .cls-4 {
        fill: #1d1d1b;
      }

      .cls-5 {
        fill: #fff;
      }

      .cls-6 {
        fill: #362824;
      }

      .cls-7 {
        fill: #3c3c3b;
      }

      .cls-8 {
        fill: #e44134;
      }

      .cls-9 {
        fill: #272726;
      }

      .cls-10 {
        fill: #f5d5cb;
      }
    </style>
  </defs>
  <g id="Calque_2-2" data-name="Calque 2">
    <g>
      <g>
        <path class="cls-2" d="M108.77,75.54s-3.51,10.67-3.43,17.99,6.28,18.77-3.43,26.43-22.96,6.63-43.6.17c-3.74-1.17-6.78-2.08-9.3-2.83-9.31-2.74-18.31-6.57-26.46-11.86-4.56-2.96-5.94-6.21-7.24-12.69-1.68-8.39-.55-32.59-.55-32.59l94.01,15.37Z"/>
        <g>
          <path class="cls-2" d="M52.32,144.58s-7.4,4.51-9.62,5.53-16.37,8.09-18.24,8.09-7.2.06-9.5-.74-4.74-3.79-6.06-5.07-3.53-5.66-6.47-4.89-2.64,3.7-2,9.02,2.72,15.28,4.13,16.89,3.59,2.54,8,1.4c14.91-3.85,46.98-4.85,46.98-4.85l-7.21-25.38Z"/>
          <path class="cls-2" d="M52.32,144.58s-7.4,4.51-9.62,5.53-16.37,8.09-18.24,8.09-7.2.06-9.5-.74-4.74-3.79-6.06-5.07-3.53-5.66-6.47-4.89-2.64,3.7-2,9.02,2.72,15.28,4.13,16.89,3.59,2.54,8,1.4c14.91-3.85,46.98-4.85,46.98-4.85l-7.21-25.38Z"/>
        </g>
        <g>
          <path class="cls-2" d="M2.42,147.49c1.52-.46,2.83.03,5.15,3.26s6.05,6.53,7.89,6.85,2.56.39,2.56.39l.42,15.56s-5.57,1.3-7.12,1.52-4.7.93-6.77-1.68S0,154.92.02,152.5s-.04-4.27,2.4-5.01Z"/>
          <path class="cls-2" d="M2.42,147.49c1.52-.46,2.83.03,5.15,3.26s6.05,6.53,7.89,6.85,2.56.39,2.56.39l.42,15.56s-5.57,1.3-7.12,1.52-4.7.93-6.77-1.68S0,154.92.02,152.5s-.04-4.27,2.4-5.01Z"/>
        </g>
        <g>
          <path class="cls-2" d="M90.28,170.77c.11-.05.22-.1.32-.16,2.37-1.24,5.76-4.11,6.68-10.51,1.45-10.12-.45-13.85-.83-15.64-.38-1.78-3.32-12.31-3.7-13.97-.38-1.66-4.92-13.98-7.6-16.73-2.68-2.74-7.72-6.57-8.87-6.89-1.15-.32-4.4-.53-4.59-.84-.2-.31-3.2-2.76-3.2-2.76h-24.16s-6.12,6.51-7.65,16.98c-1.54,10.47-4.54,41.22-6.03,44.35-.27.57-1.65,2.64-3.82,2.64s-3.86.24-5.33,1.45c-1.46,1.21-7.78,6.02-7.65,6.34.12.32,2.74.51,3.7.51.64.64,3.28,1.05,6.16-.22.83-.16,3.73,0,3.73,0,0,0,.21-.01.57-.05-.26.31-.42.56-.48.73-.25.7,2.1-.07,6.7-.69,2.97.56,7.05-.17,9.76-.82.39.4.77.72,1.16.97,2.81,1.79,6.34,3.13,9.65,1.73,3.31-1.41,7.27-3.07,9.25-2.87,0,0,18.59-.69,26.23-3.55ZM53.64,157.98c-.34-.28-3.53-3.16-5.54-4.28-.26-.15-.5-.25-.71-.3-.71-.17-2.55-.89-3.08-1.19,1.28-10.37,2.16-16.77,2.33-17.26.1-.26,1.81,4.8,3.92,10.72,1.43,3.99,3.03,8.36,4.44,11.78-.77.39-1.27.6-1.36.53Z"/>
          <path class="cls-2" d="M90.28,170.77c.11-.05.22-.1.32-.16,2.37-1.24,5.76-4.11,6.68-10.51,1.45-10.12-.45-13.85-.83-15.64-.38-1.78-3.32-12.31-3.7-13.97-.38-1.66-4.92-13.98-7.6-16.73-2.68-2.74-7.72-6.57-8.87-6.89-1.15-.32-4.4-.53-4.59-.84-.2-.31-3.2-2.76-3.2-2.76h-24.16s-6.12,6.51-7.65,16.98c-1.54,10.47-4.54,41.22-6.03,44.35-.27.57-1.65,2.64-3.82,2.64s-3.86.24-5.33,1.45c-1.46,1.21-7.78,6.02-7.65,6.34.12.32,2.74.51,3.7.51.64.64,3.28,1.05,6.16-.22.83-.16,3.73,0,3.73,0,0,0,.21-.01.57-.05-.26.31-.42.56-.48.73-.25.7,2.1-.07,6.7-.69,2.97.56,7.05-.17,9.76-.82.39.4.77.72,1.16.97,2.81,1.79,6.34,3.13,9.65,1.73,3.31-1.41,7.27-3.07,9.25-2.87,0,0,18.59-.69,26.23-3.55ZM53.64,157.98c-.34-.28-3.53-3.16-5.54-4.28-.26-.15-.5-.25-.71-.3-.71-.17-2.55-.89-3.08-1.19,1.28-10.37,2.16-16.77,2.33-17.26.1-.26,1.81,4.8,3.92,10.72,1.43,3.99,3.03,8.36,4.44,11.78-.77.39-1.27.6-1.36.53Z"/>
        </g>
        <g>
          <line class="cls-2" x1="64.03" y1="152.41" x2="75.54" y2="134.09"/>
          <line class="cls-2" x1="64.03" y1="152.41" x2="75.54" y2="134.09"/>
        </g>
        <g>
          <path class="cls-2" d="M69.67,107.02c-1.96.09-6.81,7.57-8,10.38s-13.39,32.49-13.56,35.64l5.54,4.94,10.7-5.74,17.13-28.28-11.81-16.94"/>
          <path class="cls-2" d="M69.67,107.02c-1.96.09-6.81,7.57-8,10.38s-13.39,32.49-13.56,35.64l5.54,4.94,10.7-5.74,17.13-28.28-11.81-16.94"/>
        </g>
        <g>
          <path class="cls-2" d="M80.89,124.36s3.51-4.98,2.17-9.45-2.71-5.51-5.58-7.4"/>
          <path class="cls-2" d="M80.89,124.36c1.52-2.75,2.77-6.03,1.99-9.17-.72-3.24-2.57-5.91-5.4-7.68,1.4.81,2.83,1.7,3.83,3.05,1.01,1.34,1.55,2.93,2.04,4.5.82,3.28-.54,6.69-2.46,9.3h0Z"/>
        </g>
        <g>
          <path class="cls-2" d="M12.87,167.6s-.64,6.97-3.11,7.72"/>
          <path class="cls-2" d="M12.87,167.6c-.02,2.39-.49,6.83-3.11,7.72.65-.34,1.03-.95,1.33-1.57.87-1.96,1.25-4.05,1.77-6.14h0Z"/>
        </g>
        <g>
          <line class="cls-2" x1="38.81" y1="156.23" x2="36.82" y2="152.85"/>
          <path class="cls-2" d="M38.81,156.23c-.95-.95-1.62-2.09-1.98-3.39.95.95,1.62,2.09,1.98,3.39h0Z"/>
        </g>
        <g>
          <path class="cls-2" d="M27.72,175.66c.45-1.08,2.32-2.89,5.59-4.2s5.22-4.83,5.22-4.83"/>
          <path class="cls-2" d="M27.72,175.66c.99-2.24,3.39-3.52,5.55-4.45,2.18-.91,3.89-2.68,5.27-4.58-1.08,2.16-2.82,4.08-5.08,5.04-2.13.91-4.43,1.99-5.73,3.99h0Z"/>
        </g>
        <g>
          <line class="cls-2" x1="32.69" y1="175.54" x2="38" y2="171.85"/>
          <path class="cls-2" d="M32.69,175.54c1.57-1.51,3.34-2.74,5.31-3.69-1.57,1.51-3.35,2.74-5.31,3.69h0Z"/>
        </g>
        <g>
          <path class="cls-2" d="M17.15,175.66s4.21-3.85,5.91-4.91,4.66-1.02,4.66-1.02"/>
          <path class="cls-2" d="M17.15,175.66c2.94-2.97,5.97-6.6,10.58-5.93-1.53.18-3.1.4-4.43,1.16-2.14,1.45-4.04,3.23-6.15,4.77h0Z"/>
        </g>
        <g>
          <path class="cls-2" d="M22.68,175.66c.81-.95,3.65-4.69,8.17-5.04"/>
          <path class="cls-2" d="M22.68,175.66c1.73-2.77,4.76-5.14,8.17-5.04-3.28.61-5.89,2.72-8.17,5.04h0Z"/>
        </g>
        <g>
          <path class="cls-2" d="M13.85,174.91s6.56-5.49,7.65-6.22c.12-.08.26-.17.4-.26,1.34-.82,2.88-1.31,4.44-1.32.11,0,.23,0,.35-.01,2.4-.17,4.31-2.1,4.64-4.49.56-4.15,1.2-9.37,1.2-9.37"/>
          <path class="cls-2" d="M13.85,174.91c3.08-2.51,5.77-5.65,9.39-7.39,1.21-.56,2.68-.61,3.93-.73,1.24-.22,2.38-.96,3.09-2.01.79-1.07.89-2.38,1.07-3.67.37-2.62.77-5.24,1.2-7.86-.25,2.64-.52,5.28-.82,7.91,0,2.74-1.54,5.64-4.46,6.12-2.01.09-3.9.38-5.57,1.56-1.13.76-6.65,5.17-7.84,6.08h0Z"/>
        </g>
        <g>
          <path class="cls-2" d="M17.99,65.99s-.74,1.86-3.23,1.79"/>
          <path class="cls-2" d="M17.99,65.99c-.05,1.5-1.93,2.44-3.23,1.79,1.32-.53,2.15-.86,3.23-1.79h0Z"/>
        </g>
        <g>
          <path class="cls-2" d="M47.08,105.45s1.01.03,1.65,1.25-.2,1.22,0,2.29.65,3.31,6.27,3.99,9.21-.56,10.72-2.48c1.19-1.51,1.6-2.06,2.9-2.99,1.18-.83,3.73-2.07,3.73-2.07,0,0,9.56,3,13.47,9.16s7.99,17.09,10.33,28.64c.66,1.77,1.25,4.81,1.37,5.75-25.34,3.81-34.34,4.7-34.34,4.7l14.62-22.91-18.78-6.95-8.41,21.39s-5.84-11.97-6.11-20.87c-3.72.04-8.22-1.25-8.22-1.25,0,0,.34-3.39,1.71-8.4s6.18-11.72,6.56-11.97c.29,1.66,2.53,2.71,2.53,2.71Z"/>
          <path class="cls-2" d="M47.08,105.45s1.01.03,1.65,1.25-.2,1.22,0,2.29.65,3.31,6.27,3.99,9.21-.56,10.72-2.48c1.19-1.51,1.6-2.06,2.9-2.99,1.18-.83,3.73-2.07,3.73-2.07,0,0,9.56,3,13.47,9.16s7.99,17.09,10.33,28.64c.66,1.77,1.25,4.81,1.37,5.75-25.34,3.81-34.34,4.7-34.34,4.7l14.62-22.91-18.78-6.95-8.41,21.39s-5.84-11.97-6.11-20.87c-3.72.04-8.22-1.25-8.22-1.25,0,0,.34-3.39,1.71-8.4s6.18-11.72,6.56-11.97c.29,1.66,2.53,2.71,2.53,2.71Z"/>
        </g>
        <g>
          <g>
            <path class="cls-2" d="M109.89,62.72c0-23.62-21.69-42.77-48.46-42.77S12.98,39.11,12.98,62.72c0,4.73.87,9.27,2.47,13.52.26.7.27,1.47-.06,2.14-.69,1.4-1.28,3.38-1.22,6.08.13,6.38,4.38,10.68,7.62,12.98,6.45,4.56,32.17,13.15,55.84,5.59.28-.09.56-.18.84-.27.11-.04.22-.07.32-.1h-.01c18.19-6.16,31.11-21.72,31.11-39.94Z"/>
            <path class="cls-2" d="M109.89,62.72c0-23.62-21.69-42.77-48.46-42.77S12.98,39.11,12.98,62.72c0,4.73.87,9.27,2.47,13.52.26.7.27,1.47-.06,2.14-.69,1.4-1.28,3.38-1.22,6.08.13,6.38,4.38,10.68,7.62,12.98,6.45,4.56,32.17,13.15,55.84,5.59.28-.09.56-.18.84-.27.11-.04.22-.07.32-.1h-.01c18.19-6.16,31.11-21.72,31.11-39.94Z"/>
          </g>
          <g>
            <path class="cls-2" d="M103.4,80.77s6.89-.43,8.68,3.06-1.62,8-4.77,9.7-6.55,3.57-10.13,3.57-9.7-3.32-9.7-3.32"/>
            <path class="cls-2" d="M103.4,80.77s6.89-.43,8.68,3.06-1.62,8-4.77,9.7-6.55,3.57-10.13,3.57-9.7-3.32-9.7-3.32"/>
          </g>
          <g>
            <path class="cls-2" d="M104.83,85.52s4.35-.15,3.91,2.4c-.43,2.54-6.82,4.42-6.82,4.42"/>
            <path class="cls-2" d="M104.83,85.52c2.59-.37,5.75,1.14,3.31,3.91-1.74,1.59-3.98,2.37-6.22,2.9,2.04-.87,4.23-1.74,5.86-3.25,2.21-2.39-.86-3.49-2.95-3.56h0Z"/>
          </g>
          <g>
            <circle class="cls-2" cx="20.78" cy="82.47" r="5.73"/>
            <circle class="cls-2" cx="20.78" cy="82.47" r="5.73"/>
          </g>
          <g>
            <circle class="cls-2" cx="74.06" cy="86.51" r="5.73"/>
            <circle class="cls-2" cx="74.06" cy="86.51" r="5.73"/>
          </g>
          <path class="cls-2" d="M64.03,63.96s-3.09,4.2-3.03,9.75,2.69,8.76,6,8.76,7.98-3.11,8.34-9.25c-5.83-6.29-11.31-9.25-11.31-9.25Z"/>
          <path class="cls-2" d="M28.78,62.47c-2.3-.89-5.19,3.66-5.19,8.17s1.45,9.19,5.19,9.36,6.04-6.38,5.87-8.77.94-6.13-5.87-8.77Z"/>
          <circle class="cls-2" cx="71.47" cy="71.89" r="2.59"/>
          <g>
            <path class="cls-2" d="M54.57,66.71s3.45-9.56,16.36,1.73c7.8,6.4,6.06,8.73,6.06,8.73"/>
            <path class="cls-2" d="M54.57,66.71c1.9-6.59,9.45-4.81,13.63-1.67,3.56,2.78,7.52,5.75,8.99,10.19.14.64.21,1.41-.19,1.95.28-1.23-.66-2.35-1.39-3.26-1.55-1.83-3.67-3.49-5.57-4.98-4.13-3.53-11.55-8.52-15.47-2.23h0Z"/>
          </g>
          <g>
            <path class="cls-2" d="M18.51,72.83s-1.64-4.43-1.32-5.13,2.62-7.02,8.36-6.89,8.42,5.72,8.81,6.59"/>
            <path class="cls-2" d="M18.51,72.83c-.75-1.49-1.52-3.01-1.87-4.66-.01-.18-.07-.36.05-.7.88-3.02,2.81-6.01,5.92-7.16,5.18-1.94,10.63,2.17,11.74,7.1-2.5-3.65-6.62-6.73-11.07-5.24-2.46.85-4.34,3.35-5.6,5.75-.05,1.54.53,3.31.82,4.92h0Z"/>
          </g>
          <g>
            <path class="cls-2" d="M34.67,55.36c-3.14-1-6.5-1.13-11.07-.62s-8.28,3.45-8.28,3.45"/>
            <path class="cls-2" d="M34.63,55.46c-4.21.15-8.2-.26-12.35.17-2.44.41-4.77,1.35-6.9,2.64,0,0-.12-.16-.12-.16,3.87-3.53,9.34-4.89,14.49-4.62,1.74.22,3.5.73,4.95,1.78l-.06.19h0Z"/>
          </g>
          <g>
            <path class="cls-2" d="M51.02,54.45s8.43-2.36,20.94,7.9"/>
            <path class="cls-2" d="M50.99,54.36c7.12-3.33,15.96,3.29,21.03,7.92,0,0-.13.15-.13.15-3.09-2.1-6.48-4.16-9.99-5.43-3.61-1.14-7.05-2.05-10.86-2.46,0,0-.05-.19-.05-.19h0Z"/>
          </g>
          <circle class="cls-2" cx="31.28" cy="69.3" r="2.59"/>
          <g>
            <path class="cls-2" d="M35.04,85.29s2.43,2.43,8.49,2.43"/>
            <path class="cls-2" d="M35.04,85.29c2.75,1.33,5.58,1.68,8.49,2.43-2.92.68-6.59.06-8.49-2.43h0Z"/>
          </g>
        </g>
        <g>
          <path class="cls-2" d="M47.45,105.45s2.45,1.5,1.51,3.54"/>
          <path class="cls-2" d="M47.45,105.45c1.39.41,2.56,2.26,1.51,3.54.27-1.44-.59-2.5-1.51-3.54h0Z"/>
        </g>
        <g>
          <path class="cls-2" d="M43.12,104.77c2.02.48,12.93,2.74,27.3.1"/>
          <path class="cls-2" d="M43.12,104.77c9.01,1.58,18.26,1.36,27.3.1-8.93,1.93-18.4,2.15-27.3-.1h0Z"/>
        </g>
        <g>
          <path class="cls-2" d="M51.02,32.43s18.06,21.97,23.04,36.6,5.36,46.93-17.3,47.97c10.19.7,14.7-3.72,17.3-6.28.21,1.53-1.72,3.96-3.65,5.21,8.63-2.32,16.5-10.99,17.07-25.29s-2.7-57.71-36.47-58.22Z"/>
          <path class="cls-2" d="M43.25,33.83s-18.06,20.57-23.04,35.2c-4.98,14.64-5.36,46.93,17.3,47.97-10.19.7-14.7-3.72-17.3-6.28-.21,1.53,1.72,3.96,3.65,5.21-8.63-2.32-16.5-10.99-17.07-25.29s2.7-56.31,36.47-56.82Z"/>
          <path class="cls-2" d="M87.54,87.27s10.5-.87,17.42-6.5,9.31-15.56,7.1-31.53S88.29,9.96,55.84,16.77c-12.72-3.23-59.55,11.05-40.39,59.48-.07-26.29,15.83-37.69,15.83-37.69l9.69-4.02c4.62-1.92,10.45-1.71,14.28,1.51,10.38,8.71,32.04,27.97,32.29,51.23Z"/>
          <path class="cls-2" d="M59.98,18.88S68.98.17,75.54,0s32.95,33.28,33.63,55.36c-11.58.64-49.19-36.48-49.19-36.48Z"/>
        </g>
        <g>
          <path class="cls-2" d="M95.58,140.57s.45,2.3.6,2.74,2.24,5.63,1.64,12.31-1.45,11.5-7.22,14.98-24.47,3.19-27.99,3.8-8.2,3-8.2,3l-3.02-18.13s5.73-2.98,6.28-3.28,6.37-3.6,6.37-3.6l5.49-8.65,26.06-3.19Z"/>
          <path class="cls-2" d="M95.58,140.57s.45,2.3.6,2.74,2.24,5.63,1.64,12.31-1.45,11.5-7.22,14.98-24.47,3.19-27.99,3.8-8.2,3-8.2,3l-3.02-18.13s5.73-2.98,6.28-3.28,6.37-3.6,6.37-3.6l5.49-8.65,26.06-3.19Z"/>
        </g>
        <g>
          <path class="cls-2" d="M55,157.45c2.69-1.37,8.63-4.92,11.28-6.24,3.41-1.7,19.58-4.68,19.58-4.68"/>
          <path class="cls-2" d="M55,157.45c2.07-1.16,5.03-2.98,7.12-4.19,2.37-1.42,4.83-2.82,7.53-3.45,5.34-1.41,10.76-2.44,16.21-3.28-4.76,1.09-11.44,2.47-16.08,3.76-5.35,1.4-9.77,4.94-14.78,7.16h0Z"/>
        </g>
        <g>
          <path class="cls-2" d="M36.5,152.36c2.29-1.07,4.79-1.53,9,.12s5.72,3.09,6.46,3.89c.6.65,2.77,2.93,3.83,5.92s2.09,8.8.95,11.98-3.06,3.62-3.98,3.66-5.47.37-8.91-3.55-8.23-12.47-8.84-14.16-2.13-6.17,1.49-7.86Z"/>
          <path class="cls-2" d="M36.5,152.36c2.29-1.07,4.79-1.53,9,.12s5.72,3.09,6.46,3.89c.6.65,2.77,2.93,3.83,5.92s2.09,8.8.95,11.98-3.06,3.62-3.98,3.66-5.47.37-8.91-3.55-8.23-12.47-8.84-14.16-2.13-6.17,1.49-7.86Z"/>
        </g>
      </g>
      <g>
        <path class="cls-5" d="M108.77,75.54s-3.51,10.67-3.43,17.99,6.28,18.77-3.43,26.43-22.96,6.63-43.6.17c-3.74-1.17-6.78-2.08-9.3-2.83-9.31-2.74-18.31-6.57-26.46-11.86-4.56-2.96-5.94-6.21-7.24-12.69-1.68-8.39-.55-32.59-.55-32.59l94.01,15.37Z"/>
        <g>
          <path class="cls-5" d="M52.32,144.58s-7.4,4.51-9.62,5.53-16.37,8.09-18.24,8.09-7.2.06-9.5-.74-4.74-3.79-6.06-5.07-3.53-5.66-6.47-4.89-2.64,3.7-2,9.02,2.72,15.28,4.13,16.89,3.59,2.54,8,1.4c14.91-3.85,46.98-4.85,46.98-4.85l-7.21-25.38Z"/>
          <path class="cls-5" d="M52.32,144.58s-7.4,4.51-9.62,5.53-16.37,8.09-18.24,8.09-7.2.06-9.5-.74-4.74-3.79-6.06-5.07-3.53-5.66-6.47-4.89-2.64,3.7-2,9.02,2.72,15.28,4.13,16.89,3.59,2.54,8,1.4c14.91-3.85,46.98-4.85,46.98-4.85l-7.21-25.38Z"/>
        </g>
        <g>
          <path class="cls-5" d="M2.42,147.49c1.52-.46,2.83.03,5.15,3.26s6.05,6.53,7.89,6.85,2.56.39,2.56.39l.42,15.56s-5.57,1.3-7.12,1.52-4.7.93-6.77-1.68S0,154.92.02,152.5s-.04-4.27,2.4-5.01Z"/>
          <path class="cls-5" d="M2.42,147.49c1.52-.46,2.83.03,5.15,3.26s6.05,6.53,7.89,6.85,2.56.39,2.56.39l.42,15.56s-5.57,1.3-7.12,1.52-4.7.93-6.77-1.68S0,154.92.02,152.5s-.04-4.27,2.4-5.01Z"/>
        </g>
        <g>
          <path class="cls-5" d="M90.28,170.77c.11-.05.22-.1.32-.16,2.37-1.24,5.76-4.11,6.68-10.51,1.45-10.12-.45-13.85-.83-15.64-.38-1.78-3.32-12.31-3.7-13.97-.38-1.66-4.92-13.98-7.6-16.73-2.68-2.74-7.72-6.57-8.87-6.89-1.15-.32-4.4-.53-4.59-.84-.2-.31-3.2-2.76-3.2-2.76h-24.16s-6.12,6.51-7.65,16.98c-1.54,10.47-4.54,41.22-6.03,44.35-.27.57-1.65,2.64-3.82,2.64s-3.86.24-5.33,1.45c-1.46,1.21-7.78,6.02-7.65,6.34.12.32,2.74.51,3.7.51.64.64,3.28,1.05,6.16-.22.83-.16,3.73,0,3.73,0,0,0,.21-.01.57-.05-.26.31-.42.56-.48.73-.25.7,2.1-.07,6.7-.69,2.97.56,7.05-.17,9.76-.82.39.4.77.72,1.16.97,2.81,1.79,6.34,3.13,9.65,1.73,3.31-1.41,7.27-3.07,9.25-2.87,0,0,18.59-.69,26.23-3.55ZM53.64,157.98c-.34-.28-3.53-3.16-5.54-4.28-.26-.15-.5-.25-.71-.3-.71-.17-2.55-.89-3.08-1.19,1.28-10.37,2.16-16.77,2.33-17.26.1-.26,1.81,4.8,3.92,10.72,1.43,3.99,3.03,8.36,4.44,11.78-.77.39-1.27.6-1.36.53Z"/>
          <path class="cls-5" d="M90.28,170.77c.11-.05.22-.1.32-.16,2.37-1.24,5.76-4.11,6.68-10.51,1.45-10.12-.45-13.85-.83-15.64-.38-1.78-3.32-12.31-3.7-13.97-.38-1.66-4.92-13.98-7.6-16.73-2.68-2.74-7.72-6.57-8.87-6.89-1.15-.32-4.4-.53-4.59-.84-.2-.31-3.2-2.76-3.2-2.76h-24.16s-6.12,6.51-7.65,16.98c-1.54,10.47-4.54,41.22-6.03,44.35-.27.57-1.65,2.64-3.82,2.64s-3.86.24-5.33,1.45c-1.46,1.21-7.78,6.02-7.65,6.34.12.32,2.74.51,3.7.51.64.64,3.28,1.05,6.16-.22.83-.16,3.73,0,3.73,0,0,0,.21-.01.57-.05-.26.31-.42.56-.48.73-.25.7,2.1-.07,6.7-.69,2.97.56,7.05-.17,9.76-.82.39.4.77.72,1.16.97,2.81,1.79,6.34,3.13,9.65,1.73,3.31-1.41,7.27-3.07,9.25-2.87,0,0,18.59-.69,26.23-3.55ZM53.64,157.98c-.34-.28-3.53-3.16-5.54-4.28-.26-.15-.5-.25-.71-.3-.71-.17-2.55-.89-3.08-1.19,1.28-10.37,2.16-16.77,2.33-17.26.1-.26,1.81,4.8,3.92,10.72,1.43,3.99,3.03,8.36,4.44,11.78-.77.39-1.27.6-1.36.53Z"/>
        </g>
        <g>
          <line class="cls-5" x1="64.03" y1="152.41" x2="75.54" y2="134.09"/>
          <line class="cls-5" x1="64.03" y1="152.41" x2="75.54" y2="134.09"/>
        </g>
        <g>
          <path class="cls-5" d="M69.67,107.02c-1.96.09-6.81,7.57-8,10.38s-13.39,32.49-13.56,35.64l5.54,4.94,10.7-5.74,17.13-28.28-11.81-16.94"/>
          <path class="cls-5" d="M69.67,107.02c-1.96.09-6.81,7.57-8,10.38s-13.39,32.49-13.56,35.64l5.54,4.94,10.7-5.74,17.13-28.28-11.81-16.94"/>
        </g>
        <g>
          <path class="cls-5" d="M80.89,124.36s3.51-4.98,2.17-9.45-2.71-5.51-5.58-7.4"/>
          <path class="cls-5" d="M80.89,124.36c1.52-2.75,2.77-6.03,1.99-9.17-.72-3.24-2.57-5.91-5.4-7.68,1.4.81,2.83,1.7,3.83,3.05,1.01,1.34,1.55,2.93,2.04,4.5.82,3.28-.54,6.69-2.46,9.3h0Z"/>
        </g>
        <g>
          <path class="cls-5" d="M12.87,167.6s-.64,6.97-3.11,7.72"/>
          <path class="cls-5" d="M12.87,167.6c-.02,2.39-.49,6.83-3.11,7.72.65-.34,1.03-.95,1.33-1.57.87-1.96,1.25-4.05,1.77-6.14h0Z"/>
        </g>
        <g>
          <line class="cls-5" x1="38.81" y1="156.23" x2="36.82" y2="152.85"/>
          <path class="cls-5" d="M38.81,156.23c-.95-.95-1.62-2.09-1.98-3.39.95.95,1.62,2.09,1.98,3.39h0Z"/>
        </g>
        <g>
          <path class="cls-5" d="M27.72,175.66c.45-1.08,2.32-2.89,5.59-4.2s5.22-4.83,5.22-4.83"/>
          <path class="cls-5" d="M27.72,175.66c.99-2.24,3.39-3.52,5.55-4.45,2.18-.91,3.89-2.68,5.27-4.58-1.08,2.16-2.82,4.08-5.08,5.04-2.13.91-4.43,1.99-5.73,3.99h0Z"/>
        </g>
        <g>
          <line class="cls-5" x1="32.69" y1="175.54" x2="38" y2="171.85"/>
          <path class="cls-5" d="M32.69,175.54c1.57-1.51,3.34-2.74,5.31-3.69-1.57,1.51-3.35,2.74-5.31,3.69h0Z"/>
        </g>
        <g>
          <path class="cls-5" d="M17.15,175.66s4.21-3.85,5.91-4.91,4.66-1.02,4.66-1.02"/>
          <path class="cls-5" d="M17.15,175.66c2.94-2.97,5.97-6.6,10.58-5.93-1.53.18-3.1.4-4.43,1.16-2.14,1.45-4.04,3.23-6.15,4.77h0Z"/>
        </g>
        <g>
          <path class="cls-5" d="M22.68,175.66c.81-.95,3.65-4.69,8.17-5.04"/>
          <path class="cls-5" d="M22.68,175.66c1.73-2.77,4.76-5.14,8.17-5.04-3.28.61-5.89,2.72-8.17,5.04h0Z"/>
        </g>
        <g>
          <path class="cls-5" d="M13.85,174.91s6.56-5.49,7.65-6.22c.12-.08.26-.17.4-.26,1.34-.82,2.88-1.31,4.44-1.32.11,0,.23,0,.35-.01,2.4-.17,4.31-2.1,4.64-4.49.56-4.15,1.2-9.37,1.2-9.37"/>
          <path class="cls-5" d="M13.85,174.91c3.08-2.51,5.77-5.65,9.39-7.39,1.21-.56,2.68-.61,3.93-.73,1.24-.22,2.38-.96,3.09-2.01.79-1.07.89-2.38,1.07-3.67.37-2.62.77-5.24,1.2-7.86-.25,2.64-.52,5.28-.82,7.91,0,2.74-1.54,5.64-4.46,6.12-2.01.09-3.9.38-5.57,1.56-1.13.76-6.65,5.17-7.84,6.08h0Z"/>
        </g>
        <g>
          <path class="cls-5" d="M17.99,65.99s-.74,1.86-3.23,1.79"/>
          <path class="cls-5" d="M17.99,65.99c-.05,1.5-1.93,2.44-3.23,1.79,1.32-.53,2.15-.86,3.23-1.79h0Z"/>
        </g>
        <g>
          <path class="cls-5" d="M47.08,105.45s1.01.03,1.65,1.25-.2,1.22,0,2.29.65,3.31,6.27,3.99,9.21-.56,10.72-2.48c1.19-1.51,1.6-2.06,2.9-2.99,1.18-.83,3.73-2.07,3.73-2.07,0,0,9.56,3,13.47,9.16s7.99,17.09,10.33,28.64c.66,1.77,1.25,4.81,1.37,5.75-25.34,3.81-34.34,4.7-34.34,4.7l14.62-22.91-18.78-6.95-8.41,21.39s-5.84-11.97-6.11-20.87c-3.72.04-8.22-1.25-8.22-1.25,0,0,.34-3.39,1.71-8.4s6.18-11.72,6.56-11.97c.29,1.66,2.53,2.71,2.53,2.71Z"/>
          <path class="cls-5" d="M47.08,105.45s1.01.03,1.65,1.25-.2,1.22,0,2.29.65,3.31,6.27,3.99,9.21-.56,10.72-2.48c1.19-1.51,1.6-2.06,2.9-2.99,1.18-.83,3.73-2.07,3.73-2.07,0,0,9.56,3,13.47,9.16s7.99,17.09,10.33,28.64c.66,1.77,1.25,4.81,1.37,5.75-25.34,3.81-34.34,4.7-34.34,4.7l14.62-22.91-18.78-6.95-8.41,21.39s-5.84-11.97-6.11-20.87c-3.72.04-8.22-1.25-8.22-1.25,0,0,.34-3.39,1.71-8.4s6.18-11.72,6.56-11.97c.29,1.66,2.53,2.71,2.53,2.71Z"/>
        </g>
        <g>
          <g>
            <path class="cls-5" d="M109.89,62.72c0-23.62-21.69-42.77-48.46-42.77S12.98,39.11,12.98,62.72c0,4.73.87,9.27,2.47,13.52.26.7.27,1.47-.06,2.14-.69,1.4-1.28,3.38-1.22,6.08.13,6.38,4.38,10.68,7.62,12.98,6.45,4.56,32.17,13.15,55.84,5.59.28-.09.56-.18.84-.27.11-.04.22-.07.32-.1h-.01c18.19-6.16,31.11-21.72,31.11-39.94Z"/>
            <path class="cls-5" d="M109.89,62.72c0-23.62-21.69-42.77-48.46-42.77S12.98,39.11,12.98,62.72c0,4.73.87,9.27,2.47,13.52.26.7.27,1.47-.06,2.14-.69,1.4-1.28,3.38-1.22,6.08.13,6.38,4.38,10.68,7.62,12.98,6.45,4.56,32.17,13.15,55.84,5.59.28-.09.56-.18.84-.27.11-.04.22-.07.32-.1h-.01c18.19-6.16,31.11-21.72,31.11-39.94Z"/>
          </g>
          <g>
            <path class="cls-5" d="M103.4,80.77s6.89-.43,8.68,3.06-1.62,8-4.77,9.7-6.55,3.57-10.13,3.57-9.7-3.32-9.7-3.32"/>
            <path class="cls-5" d="M103.4,80.77s6.89-.43,8.68,3.06-1.62,8-4.77,9.7-6.55,3.57-10.13,3.57-9.7-3.32-9.7-3.32"/>
          </g>
          <g>
            <path class="cls-5" d="M104.83,85.52s4.35-.15,3.91,2.4c-.43,2.54-6.82,4.42-6.82,4.42"/>
            <path class="cls-5" d="M104.83,85.52c2.59-.37,5.75,1.14,3.31,3.91-1.74,1.59-3.98,2.37-6.22,2.9,2.04-.87,4.23-1.74,5.86-3.25,2.21-2.39-.86-3.49-2.95-3.56h0Z"/>
          </g>
          <g>
            <circle class="cls-5" cx="20.78" cy="82.47" r="5.73"/>
            <circle class="cls-5" cx="20.78" cy="82.47" r="5.73"/>
          </g>
          <g>
            <circle class="cls-5" cx="74.06" cy="86.51" r="5.73"/>
            <circle class="cls-5" cx="74.06" cy="86.51" r="5.73"/>
          </g>
          <path class="cls-5" d="M64.03,63.96s-3.09,4.2-3.03,9.75,2.69,8.76,6,8.76,7.98-3.11,8.34-9.25c-5.83-6.29-11.31-9.25-11.31-9.25Z"/>
          <path class="cls-5" d="M28.78,62.47c-2.3-.89-5.19,3.66-5.19,8.17s1.45,9.19,5.19,9.36,6.04-6.38,5.87-8.77.94-6.13-5.87-8.77Z"/>
          <circle class="cls-5" cx="71.47" cy="71.89" r="2.59"/>
          <g>
            <path class="cls-5" d="M54.57,66.71s3.45-9.56,16.36,1.73c7.8,6.4,6.06,8.73,6.06,8.73"/>
            <path class="cls-5" d="M54.57,66.71c1.9-6.59,9.45-4.81,13.63-1.67,3.56,2.78,7.52,5.75,8.99,10.19.14.64.21,1.41-.19,1.95.28-1.23-.66-2.35-1.39-3.26-1.55-1.83-3.67-3.49-5.57-4.98-4.13-3.53-11.55-8.52-15.47-2.23h0Z"/>
          </g>
          <g>
            <path class="cls-5" d="M18.51,72.83s-1.64-4.43-1.32-5.13,2.62-7.02,8.36-6.89,8.42,5.72,8.81,6.59"/>
            <path class="cls-5" d="M18.51,72.83c-.75-1.49-1.52-3.01-1.87-4.66-.01-.18-.07-.36.05-.7.88-3.02,2.81-6.01,5.92-7.16,5.18-1.94,10.63,2.17,11.74,7.1-2.5-3.65-6.62-6.73-11.07-5.24-2.46.85-4.34,3.35-5.6,5.75-.05,1.54.53,3.31.82,4.92h0Z"/>
          </g>
          <g>
            <path class="cls-5" d="M34.67,55.36c-3.14-1-6.5-1.13-11.07-.62s-8.28,3.45-8.28,3.45"/>
            <path class="cls-5" d="M34.63,55.46c-4.21.15-8.2-.26-12.35.17-2.44.41-4.77,1.35-6.9,2.64,0,0-.12-.16-.12-.16,3.87-3.53,9.34-4.89,14.49-4.62,1.74.22,3.5.73,4.95,1.78l-.06.19h0Z"/>
          </g>
          <g>
            <path class="cls-5" d="M51.02,54.45s8.43-2.36,20.94,7.9"/>
            <path class="cls-5" d="M50.99,54.36c7.12-3.33,15.96,3.29,21.03,7.92,0,0-.13.15-.13.15-3.09-2.1-6.48-4.16-9.99-5.43-3.61-1.14-7.05-2.05-10.86-2.46,0,0-.05-.19-.05-.19h0Z"/>
          </g>
          <circle class="cls-5" cx="31.28" cy="69.3" r="2.59"/>
          <g>
            <path class="cls-5" d="M35.04,85.29s2.43,2.43,8.49,2.43"/>
            <path class="cls-5" d="M35.04,85.29c2.75,1.33,5.58,1.68,8.49,2.43-2.92.68-6.59.06-8.49-2.43h0Z"/>
          </g>
        </g>
        <g>
          <path class="cls-5" d="M47.45,105.45s2.45,1.5,1.51,3.54"/>
          <path class="cls-5" d="M47.45,105.45c1.39.41,2.56,2.26,1.51,3.54.27-1.44-.59-2.5-1.51-3.54h0Z"/>
        </g>
        <g>
          <path class="cls-5" d="M43.12,104.77c2.02.48,12.93,2.74,27.3.1"/>
          <path class="cls-5" d="M43.12,104.77c9.01,1.58,18.26,1.36,27.3.1-8.93,1.93-18.4,2.15-27.3-.1h0Z"/>
        </g>
        <g>
          <path class="cls-5" d="M51.02,32.43s18.06,21.97,23.04,36.6,5.36,46.93-17.3,47.97c10.19.7,14.7-3.72,17.3-6.28.21,1.53-1.72,3.96-3.65,5.21,8.63-2.32,16.5-10.99,17.07-25.29s-2.7-57.71-36.47-58.22Z"/>
          <path class="cls-5" d="M43.25,33.83s-18.06,20.57-23.04,35.2c-4.98,14.64-5.36,46.93,17.3,47.97-10.19.7-14.7-3.72-17.3-6.28-.21,1.53,1.72,3.96,3.65,5.21-8.63-2.32-16.5-10.99-17.07-25.29s2.7-56.31,36.47-56.82Z"/>
          <path class="cls-5" d="M87.54,87.27s10.5-.87,17.42-6.5,9.31-15.56,7.1-31.53S88.29,9.96,55.84,16.77c-12.72-3.23-59.55,11.05-40.39,59.48-.07-26.29,15.83-37.69,15.83-37.69l9.69-4.02c4.62-1.92,10.45-1.71,14.28,1.51,10.38,8.71,32.04,27.97,32.29,51.23Z"/>
          <path class="cls-5" d="M59.98,18.88S68.98.17,75.54,0s32.95,33.28,33.63,55.36c-11.58.64-49.19-36.48-49.19-36.48Z"/>
        </g>
        <g>
          <path class="cls-5" d="M95.58,140.57s.45,2.3.6,2.74,2.24,5.63,1.64,12.31-1.45,11.5-7.22,14.98-24.47,3.19-27.99,3.8-8.2,3-8.2,3l-3.02-18.13s5.73-2.98,6.28-3.28,6.37-3.6,6.37-3.6l5.49-8.65,26.06-3.19Z"/>
          <path class="cls-5" d="M95.58,140.57s.45,2.3.6,2.74,2.24,5.63,1.64,12.31-1.45,11.5-7.22,14.98-24.47,3.19-27.99,3.8-8.2,3-8.2,3l-3.02-18.13s5.73-2.98,6.28-3.28,6.37-3.6,6.37-3.6l5.49-8.65,26.06-3.19Z"/>
        </g>
        <g>
          <path class="cls-5" d="M55,157.45c2.69-1.37,8.63-4.92,11.28-6.24,3.41-1.7,19.58-4.68,19.58-4.68"/>
          <path class="cls-5" d="M55,157.45c2.07-1.16,5.03-2.98,7.12-4.19,2.37-1.42,4.83-2.82,7.53-3.45,5.34-1.41,10.76-2.44,16.21-3.28-4.76,1.09-11.44,2.47-16.08,3.76-5.35,1.4-9.77,4.94-14.78,7.16h0Z"/>
        </g>
        <g>
          <path class="cls-5" d="M36.5,152.36c2.29-1.07,4.79-1.53,9,.12s5.72,3.09,6.46,3.89c.6.65,2.77,2.93,3.83,5.92s2.09,8.8.95,11.98-3.06,3.62-3.98,3.66-5.47.37-8.91-3.55-8.23-12.47-8.84-14.16-2.13-6.17,1.49-7.86Z"/>
          <path class="cls-5" d="M36.5,152.36c2.29-1.07,4.79-1.53,9,.12s5.72,3.09,6.46,3.89c.6.65,2.77,2.93,3.83,5.92s2.09,8.8.95,11.98-3.06,3.62-3.98,3.66-5.47.37-8.91-3.55-8.23-12.47-8.84-14.16-2.13-6.17,1.49-7.86Z"/>
        </g>
      </g>
      <g>
        <path class="cls-6" d="M108.77,75.54s-3.51,10.67-3.43,17.99,6.28,18.77-3.43,26.43-22.96,6.63-43.6.17c-3.74-1.17-6.78-2.08-9.3-2.83-9.31-2.74-18.31-6.57-26.46-11.86-4.56-2.96-5.94-6.21-7.24-12.69-1.68-8.39-.55-32.59-.55-32.59l94.01,15.37Z"/>
        <path class="cls-7" d="M52.32,144.58s-7.4,4.51-9.62,5.53-16.37,8.09-18.24,8.09-7.2.06-9.5-.74-4.74-3.79-6.06-5.07-3.53-5.66-6.47-4.89-2.64,3.7-2,9.02,2.72,15.28,4.13,16.89,3.59,2.54,8,1.4c14.91-3.85,46.98-4.85,46.98-4.85l-7.21-25.38Z"/>
        <path class="cls-9" d="M2.42,147.49c1.52-.46,2.83.03,5.15,3.26s6.05,6.53,7.89,6.85,2.56.39,2.56.39l.42,15.56s-5.57,1.3-7.12,1.52-4.7.93-6.77-1.68S0,154.92.02,152.5s-.04-4.27,2.4-5.01Z"/>
        <path class="cls-10" d="M90.28,170.77c.11-.05.22-.1.32-.16,2.37-1.24,5.76-4.11,6.68-10.51,1.45-10.12-.45-13.85-.83-15.64-.38-1.78-3.32-12.31-3.7-13.97-.38-1.66-4.92-13.98-7.6-16.73-2.68-2.74-7.72-6.57-8.87-6.89-1.15-.32-4.4-.53-4.59-.84-.2-.31-3.2-2.76-3.2-2.76h-24.16s-6.12,6.51-7.65,16.98c-1.54,10.47-4.54,41.22-6.03,44.35-.27.57-1.65,2.64-3.82,2.64s-3.86.24-5.33,1.45c-1.46,1.21-7.78,6.02-7.65,6.34.12.32,2.74.51,3.7.51.64.64,3.28,1.05,6.16-.22.83-.16,3.73,0,3.73,0,0,0,.21-.01.57-.05-.26.31-.42.56-.48.73-.25.7,2.1-.07,6.7-.69,2.97.56,7.05-.17,9.76-.82.39.4.77.72,1.16.97,2.81,1.79,6.34,3.13,9.65,1.73,3.31-1.41,7.27-3.07,9.25-2.87,0,0,18.59-.69,26.23-3.55ZM53.64,157.98c-.34-.28-3.53-3.16-5.54-4.28-.26-.15-.5-.25-.71-.3-.71-.17-2.55-.89-3.08-1.19,1.28-10.37,2.16-16.77,2.33-17.26.1-.26,1.81,4.8,3.92,10.72,1.43,3.99,3.03,8.36,4.44,11.78-.77.39-1.27.6-1.36.53Z"/>
        <line class="cls-8" x1="64.03" y1="152.41" x2="75.54" y2="134.09"/>
        <path class="cls-10" d="M69.67,107.02c-1.96.09-6.81,7.57-8,10.38s-13.39,32.49-13.56,35.64l5.54,4.94,10.7-5.74,17.13-28.28-11.81-16.94"/>
        <path class="cls-4" d="M80.89,124.36c1.52-2.75,2.77-6.03,1.99-9.17-.72-3.24-2.57-5.91-5.4-7.68,1.4.81,2.83,1.7,3.83,3.05,1.01,1.34,1.55,2.93,2.04,4.5.82,3.28-.54,6.69-2.46,9.3h0Z"/>
        <path class="cls-4" d="M12.87,167.6c-.02,2.39-.49,6.83-3.11,7.72.65-.34,1.03-.95,1.33-1.57.87-1.96,1.25-4.05,1.77-6.14h0Z"/>
        <path class="cls-4" d="M38.81,156.23c-.95-.95-1.62-2.09-1.98-3.39.95.95,1.62,2.09,1.98,3.39h0Z"/>
        <path class="cls-4" d="M27.72,175.66c.99-2.24,3.39-3.52,5.55-4.45,2.18-.91,3.89-2.68,5.27-4.58-1.08,2.16-2.82,4.08-5.08,5.04-2.13.91-4.43,1.99-5.73,3.99h0Z"/>
        <path class="cls-4" d="M32.69,175.54c1.57-1.51,3.34-2.74,5.31-3.69-1.57,1.51-3.35,2.74-5.31,3.69h0Z"/>
        <path class="cls-4" d="M17.15,175.66c2.94-2.97,5.97-6.6,10.58-5.93-1.53.18-3.1.4-4.43,1.16-2.14,1.45-4.04,3.23-6.15,4.77h0Z"/>
        <path class="cls-4" d="M22.68,175.66c1.73-2.77,4.76-5.14,8.17-5.04-3.28.61-5.89,2.72-8.17,5.04h0Z"/>
        <path class="cls-4" d="M13.85,174.91c3.08-2.51,5.77-5.65,9.39-7.39,1.21-.56,2.68-.61,3.93-.73,1.24-.22,2.38-.96,3.09-2.01.79-1.07.89-2.38,1.07-3.67.37-2.62.77-5.24,1.2-7.86-.25,2.64-.52,5.28-.82,7.91,0,2.74-1.54,5.64-4.46,6.12-2.01.09-3.9.38-5.57,1.56-1.13.76-6.65,5.17-7.84,6.08h0Z"/>
        <path class="cls-4" d="M17.99,65.99c-.05,1.5-1.93,2.44-3.23,1.79,1.32-.53,2.15-.86,3.23-1.79h0Z"/>
        <path class="cls-8" d="M47.08,105.45s1.01.03,1.65,1.25-.2,1.22,0,2.29.65,3.31,6.27,3.99,9.21-.56,10.72-2.48c1.19-1.51,1.6-2.06,2.9-2.99,1.18-.83,3.73-2.07,3.73-2.07,0,0,9.56,3,13.47,9.16s7.99,17.09,10.33,28.64c.66,1.77,1.25,4.81,1.37,5.75-25.34,3.81-34.34,4.7-34.34,4.7l14.62-22.91-18.78-6.95-8.41,21.39s-5.84-11.97-6.11-20.87c-3.72.04-8.22-1.25-8.22-1.25,0,0,.34-3.39,1.71-8.4s6.18-11.72,6.56-11.97c.29,1.66,2.53,2.71,2.53,2.71Z"/>
        <g>
          <path class="cls-10" d="M109.89,62.72c0-23.62-21.69-42.77-48.46-42.77S12.98,39.11,12.98,62.72c0,4.73.87,9.27,2.47,13.52.26.7.27,1.47-.06,2.14-.69,1.4-1.28,3.38-1.22,6.08.13,6.38,4.38,10.68,7.62,12.98,6.45,4.56,32.17,13.15,55.84,5.59.28-.09.56-.18.84-.27.11-.04.22-.07.32-.1h-.01c18.19-6.16,31.11-21.72,31.11-39.94Z"/>
          <path class="cls-10" d="M103.4,80.77s6.89-.43,8.68,3.06-1.62,8-4.77,9.7-6.55,3.57-10.13,3.57-9.7-3.32-9.7-3.32"/>
          <path class="cls-4" d="M104.83,85.52c2.59-.37,5.75,1.14,3.31,3.91-1.74,1.59-3.98,2.37-6.22,2.9,2.04-.87,4.23-1.74,5.86-3.25,2.21-2.39-.86-3.49-2.95-3.56h0Z"/>
          <circle class="cls-3" cx="20.78" cy="82.47" r="5.73"/>
          <circle class="cls-3" cx="74.06" cy="86.51" r="5.73"/>
          <path class="cls-1" d="M64.03,63.96s-3.09,4.2-3.03,9.75,2.69,8.76,6,8.76,7.98-3.11,8.34-9.25c-5.83-6.29-11.31-9.25-11.31-9.25Z"/>
          <path class="cls-1" d="M28.78,62.47c-2.3-.89-5.19,3.66-5.19,8.17s1.45,9.19,5.19,9.36,6.04-6.38,5.87-8.77.94-6.13-5.87-8.77Z"/>
          <circle class="cls-5" cx="71.47" cy="71.89" r="2.59"/>
          <path class="cls-4" d="M54.57,66.71c1.9-6.59,9.45-4.81,13.63-1.67,3.56,2.78,7.52,5.75,8.99,10.19.14.64.21,1.41-.19,1.95.28-1.23-.66-2.35-1.39-3.26-1.55-1.83-3.67-3.49-5.57-4.98-4.13-3.53-11.55-8.52-15.47-2.23h0Z"/>
          <path class="cls-4" d="M18.51,72.83c-.75-1.49-1.52-3.01-1.87-4.66-.01-.18-.07-.36.05-.7.88-3.02,2.81-6.01,5.92-7.16,5.18-1.94,10.63,2.17,11.74,7.1-2.5-3.65-6.62-6.73-11.07-5.24-2.46.85-4.34,3.35-5.6,5.75-.05,1.54.53,3.31.82,4.92h0Z"/>
          <path class="cls-4" d="M34.63,55.46c-4.21.15-8.2-.26-12.35.17-2.44.41-4.77,1.35-6.9,2.64,0,0-.12-.16-.12-.16,3.87-3.53,9.34-4.89,14.49-4.62,1.74.22,3.5.73,4.95,1.78l-.06.19h0Z"/>
          <path class="cls-4" d="M50.99,54.36c7.12-3.33,15.96,3.29,21.03,7.92,0,0-.13.15-.13.15-3.09-2.1-6.48-4.16-9.99-5.43-3.61-1.14-7.05-2.05-10.86-2.46,0,0-.05-.19-.05-.19h0Z"/>
          <circle class="cls-5" cx="31.28" cy="69.3" r="2.59"/>
          <path class="cls-4" d="M35.04,85.29c2.75,1.33,5.58,1.68,8.49,2.43-2.92.68-6.59.06-8.49-2.43h0Z"/>
        </g>
        <path class="cls-4" d="M47.45,105.45c1.39.41,2.56,2.26,1.51,3.54.27-1.44-.59-2.5-1.51-3.54h0Z"/>
        <path class="cls-4" d="M43.12,104.77c9.01,1.58,18.26,1.36,27.3.1-8.93,1.93-18.4,2.15-27.3-.1h0Z"/>
        <g>
          <path class="cls-6" d="M51.02,32.43s18.06,21.97,23.04,36.6,5.36,46.93-17.3,47.97c10.19.7,14.7-3.72,17.3-6.28.21,1.53-1.72,3.96-3.65,5.21,8.63-2.32,16.5-10.99,17.07-25.29s-2.7-57.71-36.47-58.22Z"/>
          <path class="cls-6" d="M43.25,33.83s-18.06,20.57-23.04,35.2c-4.98,14.64-5.36,46.93,17.3,47.97-10.19.7-14.7-3.72-17.3-6.28-.21,1.53,1.72,3.96,3.65,5.21-8.63-2.32-16.5-10.99-17.07-25.29s2.7-56.31,36.47-56.82Z"/>
          <path class="cls-6" d="M87.54,87.27s10.5-.87,17.42-6.5,9.31-15.56,7.1-31.53S88.29,9.96,55.84,16.77c-12.72-3.23-59.55,11.05-40.39,59.48-.07-26.29,15.83-37.69,15.83-37.69l9.69-4.02c4.62-1.92,10.45-1.71,14.28,1.51,10.38,8.71,32.04,27.97,32.29,51.23Z"/>
          <path class="cls-6" d="M59.98,18.88S68.98.17,75.54,0s32.95,33.28,33.63,55.36c-11.58.64-49.19-36.48-49.19-36.48Z"/>
        </g>
        <path class="cls-7" d="M95.58,140.57s.45,2.3.6,2.74,2.24,5.63,1.64,12.31-1.45,11.5-7.22,14.98-24.47,3.19-27.99,3.8-8.2,3-8.2,3l-3.02-18.13s5.73-2.98,6.28-3.28,6.37-3.6,6.37-3.6l5.49-8.65,26.06-3.19Z"/>
        <path class="cls-4" d="M55,157.45c2.07-1.16,5.03-2.98,7.12-4.19,2.37-1.42,4.83-2.82,7.53-3.45,5.34-1.41,10.76-2.44,16.21-3.28-4.76,1.09-11.44,2.47-16.08,3.76-5.35,1.4-9.77,4.94-14.78,7.16h0Z"/>
        <path class="cls-9" d="M36.5,152.36c2.29-1.07,4.79-1.53,9,.12s5.72,3.09,6.46,3.89c.6.65,2.77,2.93,3.83,5.92s2.09,8.8.95,11.98-3.06,3.62-3.98,3.66-5.47.37-8.91-3.55-8.23-12.47-8.84-14.16-2.13-6.17,1.49-7.86Z"/>
      </g>
    </g>
  </g>
</svg>