<?xml version="1.0" encoding="UTF-8"?>
<svg id="Calque_2" data-name="Calque 2" xmlns="http://www.w3.org/2000/svg" viewBox="0 0 74.09 68.6">
  <defs>
    <style>
      .cls-1, .cls-2 {
        fill: #a3191c;
      }

      .cls-3 {
        fill: #fff;
      }

      .cls-4 {
        fill: none;
        stroke: #fff;
        stroke-width: 6px;
      }

      .cls-5 {
        fill: #4f1b11;
      }

      .cls-2 {
        opacity: .25;
      }
    </style>
  </defs>
  <g id="Calque_2-2" data-name="Calque 2">
    <g>
      <g>
        <g>
          <path class="cls-3" d="M40.03,38.11l.44.59c.58.78.41,1.89-.38,2.47L3.24,68.26c-.78.57-1.89.4-2.46-.38l-.44-.59c-.58-.78-.4-1.89.38-2.46l36.85-27.09c.78-.58,1.89-.41,2.46.37Z"/>
          <path class="cls-3" d="M40.03,38.11l.44.59c.58.78.41,1.89-.38,2.47l-4.32,3.18-2.52-3.43,4.32-3.18c.78-.58,1.89-.41,2.46.37Z"/>
          <path class="cls-3" d="M5,61.68l2.52,3.43-4.28,3.15c-.78.57-1.89.4-2.46-.38l-.44-.59c-.58-.78-.4-1.89.38-2.46l4.28-3.15Z"/>
        </g>
        <path class="cls-3" d="M43.7,17.94l.3,1.01c.12.4.43.71.83.83l1.01.3c.31.09.31.54,0,.63l-1.01.3c-.4.12-.71.43-.83.83l-.3,1.01c-.09.31-.54.31-.63,0l-.3-1.01c-.12-.4-.43-.71-.83-.83l-1.01-.3c-.31-.09-.31-.54,0-.63l1.01-.3c.4-.12.71-.43.83-.83l.3-1.01c.09-.31.54-.31.63,0Z"/>
        <path class="cls-3" d="M59.29,19.2l.09.3c.12.4.43.71.83.83l.3.09c.31.09.31.54,0,.63l-.3.09c-.4.12-.71.43-.83.83l-.09.3c-.09.31-.54.31-.63,0l-.09-.3c-.12-.4-.43-.71-.83-.83l-.3-.09c-.31-.09-.31-.54,0-.63l.3-.09c.4-.12.71-.43.83-.83l.09-.3c.09-.31.54-.31.63,0Z"/>
        <path class="cls-3" d="M49.42,24.95l.6,2.01c.12.4.43.71.83.83l2.01.6c.31.09.31.54,0,.63l-2.01.6c-.4.12-.71.43-.83.83l-.6,2.01c-.09.31-.54.31-.63,0l-.6-2.01c-.12-.4-.43-.71-.83-.83l-2.01-.6c-.31-.09-.31-.54,0-.63l2.01-.6c.4-.12.71-.43.83-.83l.6-2.01c.09-.31.54-.31.63,0Z"/>
        <path class="cls-3" d="M51.85,38.51l.37,1.23c.12.4.43.71.83.83l1.23.37c.31.09.31.54,0,.63l-1.23.37c-.4.12-.71.43-.83.83l-.37,1.23c-.09.31-.54.31-.63,0l-.37-1.23c-.12-.4-.43-.71-.83-.83l-1.23-.37c-.31-.09-.31-.54,0-.63l1.23-.37c.4-.12.71-.43.83-.83l.37-1.23c.09-.31.54-.31.63,0Z"/>
        <circle class="cls-3" cx="45.64" cy="13.32" r=".49"/>
        <circle class="cls-3" cx="54.84" cy="17.37" r=".49"/>
        <circle class="cls-3" cx="38.48" cy="23.89" r=".49"/>
        <circle class="cls-3" cx="50.28" cy="22.9" r=".49"/>
        <circle class="cls-3" cx="53.42" cy="34.79" r=".49"/>
        <circle class="cls-3" cx="57.19" cy="29.92" r=".49"/>
        <circle class="cls-3" cx="54.84" cy="43.35" r=".49"/>
        <path class="cls-3" d="M41.79,37.56c1.4,1.53,3.18,2.07,4.98,1.38s5.61-4.44,9.54.07,9.32,6.69,14.16,2.8,4.67-9.67.38-15.1c-4.29-5.43-12.56-12.13-6.81-16.68,2.35-1.89,4.94-.18,4.94-.18.8-8.91-10.6-12.72-17.15-7.46s-4.03,12.11,2.3,18.71c5.66,5.9,7.28,7.27,8.79,9.24s.37,3.62-.47,4.3-3.02,1.39-4.39-.32l-11.97-14.88c-1.85-2.3-5.55-2.59-8.28-.32s-1.25,5.33-.14,6.71,4.85,1.79,6.32,5.69-2.64,5.56-2.21,6.03Z"/>
      </g>
      <g>
        <g>
          <path class="cls-4" d="M40.03,38.11l.44.59c.58.78.41,1.89-.38,2.47L3.24,68.26c-.78.57-1.89.4-2.46-.38l-.44-.59c-.58-.78-.4-1.89.38-2.46l36.85-27.09c.78-.58,1.89-.41,2.46.37Z"/>
          <path class="cls-4" d="M40.03,38.11l.44.59c.58.78.41,1.89-.38,2.47l-4.32,3.18-2.52-3.43,4.32-3.18c.78-.58,1.89-.41,2.46.37Z"/>
          <path class="cls-4" d="M5,61.68l2.52,3.43-4.28,3.15c-.78.57-1.89.4-2.46-.38l-.44-.59c-.58-.78-.4-1.89.38-2.46l4.28-3.15Z"/>
        </g>
        <path class="cls-4" d="M43.7,17.94l.3,1.01c.12.4.43.71.83.83l1.01.3c.31.09.31.54,0,.63l-1.01.3c-.4.12-.71.43-.83.83l-.3,1.01c-.09.31-.54.31-.63,0l-.3-1.01c-.12-.4-.43-.71-.83-.83l-1.01-.3c-.31-.09-.31-.54,0-.63l1.01-.3c.4-.12.71-.43.83-.83l.3-1.01c.09-.31.54-.31.63,0Z"/>
        <path class="cls-4" d="M59.29,19.2l.09.3c.12.4.43.71.83.83l.3.09c.31.09.31.54,0,.63l-.3.09c-.4.12-.71.43-.83.83l-.09.3c-.09.31-.54.31-.63,0l-.09-.3c-.12-.4-.43-.71-.83-.83l-.3-.09c-.31-.09-.31-.54,0-.63l.3-.09c.4-.12.71-.43.83-.83l.09-.3c.09-.31.54-.31.63,0Z"/>
        <path class="cls-4" d="M49.42,24.95l.6,2.01c.12.4.43.71.83.83l2.01.6c.31.09.31.54,0,.63l-2.01.6c-.4.12-.71.43-.83.83l-.6,2.01c-.09.31-.54.31-.63,0l-.6-2.01c-.12-.4-.43-.71-.83-.83l-2.01-.6c-.31-.09-.31-.54,0-.63l2.01-.6c.4-.12.71-.43.83-.83l.6-2.01c.09-.31.54-.31.63,0Z"/>
        <path class="cls-4" d="M51.85,38.51l.37,1.23c.12.4.43.71.83.83l1.23.37c.31.09.31.54,0,.63l-1.23.37c-.4.12-.71.43-.83.83l-.37,1.23c-.09.31-.54.31-.63,0l-.37-1.23c-.12-.4-.43-.71-.83-.83l-1.23-.37c-.31-.09-.31-.54,0-.63l1.23-.37c.4-.12.71-.43.83-.83l.37-1.23c.09-.31.54-.31.63,0Z"/>
        <circle class="cls-4" cx="45.64" cy="13.32" r=".49"/>
        <circle class="cls-4" cx="54.84" cy="17.37" r=".49"/>
        <circle class="cls-4" cx="38.48" cy="23.89" r=".49"/>
        <circle class="cls-4" cx="50.28" cy="22.9" r=".49"/>
        <circle class="cls-4" cx="53.42" cy="34.79" r=".49"/>
        <circle class="cls-4" cx="57.19" cy="29.92" r=".49"/>
        <circle class="cls-4" cx="54.84" cy="43.35" r=".49"/>
        <path class="cls-4" d="M41.79,37.56c1.4,1.53,3.18,2.07,4.98,1.38s5.61-4.44,9.54.07,9.32,6.69,14.16,2.8,4.67-9.67.38-15.1c-4.29-5.43-12.56-12.13-6.81-16.68,2.35-1.89,4.94-.18,4.94-.18.8-8.91-10.6-12.72-17.15-7.46s-4.03,12.11,2.3,18.71c5.66,5.9,7.28,7.27,8.79,9.24s.37,3.62-.47,4.3-3.02,1.39-4.39-.32l-11.97-14.88c-1.85-2.3-5.55-2.59-8.28-.32s-1.25,5.33-.14,6.71,4.85,1.79,6.32,5.69-2.64,5.56-2.21,6.03Z"/>
      </g>
      <g>
        <g>
          <path class="cls-5" d="M40.03,38.11l.44.59c.58.78.41,1.89-.38,2.47L3.24,68.26c-.78.57-1.89.4-2.46-.38l-.44-.59c-.58-.78-.4-1.89.38-2.46l36.85-27.09c.78-.58,1.89-.41,2.46.37Z"/>
          <path class="cls-3" d="M40.03,38.11l.44.59c.58.78.41,1.89-.38,2.47l-4.32,3.18-2.52-3.43,4.32-3.18c.78-.58,1.89-.41,2.46.37Z"/>
          <path class="cls-3" d="M5,61.68l2.52,3.43-4.28,3.15c-.78.57-1.89.4-2.46-.38l-.44-.59c-.58-.78-.4-1.89.38-2.46l4.28-3.15Z"/>
        </g>
        <path class="cls-1" d="M43.7,17.94l.3,1.01c.12.4.43.71.83.83l1.01.3c.31.09.31.54,0,.63l-1.01.3c-.4.12-.71.43-.83.83l-.3,1.01c-.09.31-.54.31-.63,0l-.3-1.01c-.12-.4-.43-.71-.83-.83l-1.01-.3c-.31-.09-.31-.54,0-.63l1.01-.3c.4-.12.71-.43.83-.83l.3-1.01c.09-.31.54-.31.63,0Z"/>
        <path class="cls-1" d="M59.29,19.2l.09.3c.12.4.43.71.83.83l.3.09c.31.09.31.54,0,.63l-.3.09c-.4.12-.71.43-.83.83l-.09.3c-.09.31-.54.31-.63,0l-.09-.3c-.12-.4-.43-.71-.83-.83l-.3-.09c-.31-.09-.31-.54,0-.63l.3-.09c.4-.12.71-.43.83-.83l.09-.3c.09-.31.54-.31.63,0Z"/>
        <path class="cls-1" d="M49.42,24.95l.6,2.01c.12.4.43.71.83.83l2.01.6c.31.09.31.54,0,.63l-2.01.6c-.4.12-.71.43-.83.83l-.6,2.01c-.09.31-.54.31-.63,0l-.6-2.01c-.12-.4-.43-.71-.83-.83l-2.01-.6c-.31-.09-.31-.54,0-.63l2.01-.6c.4-.12.71-.43.83-.83l.6-2.01c.09-.31.54-.31.63,0Z"/>
        <path class="cls-1" d="M51.85,38.51l.37,1.23c.12.4.43.71.83.83l1.23.37c.31.09.31.54,0,.63l-1.23.37c-.4.12-.71.43-.83.83l-.37,1.23c-.09.31-.54.31-.63,0l-.37-1.23c-.12-.4-.43-.71-.83-.83l-1.23-.37c-.31-.09-.31-.54,0-.63l1.23-.37c.4-.12.71-.43.83-.83l.37-1.23c.09-.31.54-.31.63,0Z"/>
        <circle class="cls-1" cx="45.64" cy="13.32" r=".49"/>
        <circle class="cls-1" cx="54.84" cy="17.37" r=".49"/>
        <circle class="cls-1" cx="38.48" cy="23.89" r=".49"/>
        <circle class="cls-1" cx="50.28" cy="22.9" r=".49"/>
        <circle class="cls-1" cx="53.42" cy="34.79" r=".49"/>
        <circle class="cls-1" cx="57.19" cy="29.92" r=".49"/>
        <circle class="cls-1" cx="54.84" cy="43.35" r=".49"/>
        <path class="cls-2" d="M41.79,37.56c1.4,1.53,3.18,2.07,4.98,1.38s5.61-4.44,9.54.07,9.32,6.69,14.16,2.8,4.67-9.67.38-15.1c-4.29-5.43-12.56-12.13-6.81-16.68,2.35-1.89,4.94-.18,4.94-.18.8-8.91-10.6-12.72-17.15-7.46s-4.03,12.11,2.3,18.71c5.66,5.9,7.28,7.27,8.79,9.24s.37,3.62-.47,4.3-3.02,1.39-4.39-.32l-11.97-14.88c-1.85-2.3-5.55-2.59-8.28-.32s-1.25,5.33-.14,6.71,4.85,1.79,6.32,5.69-2.64,5.56-2.21,6.03Z"/>
      </g>
    </g>
  </g>
</svg>