<svg width="22" height="22" viewBox="0 0 22 22" fill="none" xmlns="http://www.w3.org/2000/svg">
<path d="M7.24291 12.767L11.2843 8.25637C11.8871 7.58308 12.9535 7.62452 13.5032 8.34027L16.4939 12.2362C16.5446 12.3016 16.522 12.3961 16.4487 12.4334L9.63811 15.8868C7.66209 16.8882 5.76346 14.4149 7.24222 12.7656L7.24359 12.767H7.24291Z" stroke="#E34234" stroke-width="0.248447" stroke-miterlimit="10"/>
<path d="M12.3301 15.8935L5.55133 12.3774C5.47804 12.3401 5.45784 12.2442 5.50852 12.1801L8.53523 8.31197C9.09243 7.59999 10.1578 7.56916 10.7551 8.24793L14.7551 12.7945C16.2178 14.4572 14.2965 16.9133 12.3311 15.8931H12.3298L12.3301 15.8935Z" stroke="#E34234" stroke-width="0.248447" stroke-miterlimit="10"/>
<path d="M17.8174 11.72L12.1746 14.5813C11.4944 14.9265 10.6681 14.5679 10.4533 13.836L9.82936 11.6987C9.37593 10.1453 10.4455 8.56276 12.0561 8.40283L16.7146 7.9429C18.9187 7.72543 19.792 10.7189 17.8174 11.7203V11.72Z" stroke="#E34234" stroke-width="0.248447" stroke-miterlimit="10"/>
<path d="M5.4089 7.91587L10.0623 8.41861C11.6702 8.5919 12.7264 10.1854 12.2582 11.7347L11.6154 13.8666C11.3955 14.5974 10.5647 14.9477 9.88732 14.596L4.27122 11.6827C2.30444 10.6628 3.20581 7.67717 5.40855 7.91587H5.4089Z" stroke="#E34234" stroke-width="0.248447" stroke-miterlimit="10"/>
<path d="M11 21C16.5228 21 21 16.5228 21 11C21 5.47715 16.5228 1 11 1C5.47715 1 1 5.47715 1 11C1 16.5228 5.47715 21 11 21Z" stroke="#E34234" stroke-width="0.248447" stroke-miterlimit="10"/>
</svg>
