<svg width="32" height="32" viewBox="0 0 32 32" fill="none" xmlns="http://www.w3.org/2000/svg">
<rect width="32" height="32" fill="white"/>
<path d="M12.2429 17.767L16.2843 13.2564C16.8871 12.5831 17.9535 12.6245 18.5032 13.3403L21.4939 17.2362C21.5446 17.3016 21.522 17.3961 21.4487 17.4334L14.6381 20.8868C12.6621 21.8882 10.7635 19.4149 12.2422 17.7656L12.2436 17.767H12.2429Z" stroke="#A3151B" stroke-width="0.248447" stroke-miterlimit="10"/>
<path d="M17.3301 20.8935L10.5513 17.3774C10.478 17.3401 10.4578 17.2442 10.5085 17.1801L13.5352 13.312C14.0924 12.6 15.1578 12.5692 15.7551 13.2479L19.7551 17.7945C21.2178 19.4572 19.2965 21.9133 17.3311 20.8931H17.3298L17.3301 20.8935Z" stroke="#A3151B" stroke-width="0.248447" stroke-miterlimit="10"/>
<path d="M22.8174 16.72L17.1746 19.5813C16.4944 19.9265 15.6681 19.5679 15.4533 18.836L14.8294 16.6987C14.3759 15.1453 15.4455 13.5628 17.0561 13.4028L21.7146 12.9429C23.9187 12.7254 24.792 15.7189 22.8174 16.7203V16.72Z" stroke="#A3151B" stroke-width="0.248447" stroke-miterlimit="10"/>
<path d="M10.4089 12.9159L15.0623 13.4186C16.6702 13.5919 17.7264 15.1854 17.2582 16.7347L16.6154 18.8666C16.3955 19.5974 15.5647 19.9477 14.8873 19.596L9.27122 16.6827C7.30444 15.6628 8.20581 12.6772 10.4086 12.9159H10.4089Z" stroke="#A3151B" stroke-width="0.248447" stroke-miterlimit="10"/>
<path d="M16 26C21.5228 26 26 21.5228 26 16C26 10.4772 21.5228 6 16 6C10.4772 6 6 10.4772 6 16C6 21.5228 10.4772 26 16 26Z" stroke="#A3151B" stroke-width="0.248447" stroke-miterlimit="10"/>
</svg>
