<?xml version="1.0" encoding="UTF-8"?>
<svg id="Calque_2" data-name="Calque 2" xmlns="http://www.w3.org/2000/svg" viewBox="0 0 79.3 85.21">
  <defs>
    <style>
      .cls-1, .cls-2 {
        fill: #a3191c;
      }

      .cls-3 {
        fill: #fff;
      }

      .cls-4 {
        fill: none;
        stroke: #fff;
        stroke-width: 6px;
      }

      .cls-5 {
        fill: #e6c9c1;
      }

      .cls-6 {
        fill: #4f1b11;
      }

      .cls-2 {
        opacity: .25;
      }
    </style>
  </defs>
  <g id="Calque_2-2" data-name="Calque 2">
    <g>
      <g>
        <path class="cls-4" d="M78.07,35.11c-3.36-.88-13.08-3.04-21.71-1.36-8.91,1.73-14.63,5.51-16.24,6.69-.29.21-.66.21-.95,0-1.62-1.18-7.33-4.96-16.24-6.69-8.63-1.68-18.35.49-21.71,1.36C.5,35.3,0,35.97,0,36.73v43.05c0,1.09,1,1.89,2.03,1.62,3.28-.88,10.21-2.35,18.42-1.83,6.78.43,12.26,2.82,15.6,4.7,2.24,1.26,4.96,1.26,7.2,0,3.34-1.88,8.82-4.27,15.6-4.7,8.21-.52,15.14.95,18.42,1.83,1.03.27,2.03-.53,2.03-1.62v-43.05c0-.76-.5-1.43-1.22-1.62Z"/>
        <path class="cls-4" d="M72.77,37c-2.9-.73-11.27-2.55-18.71-1.14-7.68,1.45-12.6,4.61-14,5.61-.25.18-.57.18-.82,0-1.4-.99-6.32-4.16-14-5.61-7.44-1.4-15.81.41-18.71,1.14-.62.16-1.05.72-1.05,1.36v36.08c0,.91.86,1.59,1.75,1.36,2.83-.74,8.8-1.97,15.88-1.53,8.45.52,14.54,4.47,16.14,5.6.25.18.58.18.82,0,1.59-1.14,7.69-5.08,16.14-5.6,7.07-.44,13.05.8,15.88,1.53.88.23,1.75-.44,1.75-1.36v-36.08c0-.64-.43-1.2-1.05-1.36Z"/>
        <path class="cls-4" d="M46.06,49.91c-.27,0-.54-.12-.72-.36-.3-.4-.22-.96.18-1.25.31-.24,7.82-5.73,19.72-2.59.48.13.77.62.64,1.1-.13.48-.62.77-1.1.64-11.02-2.9-18.11,2.24-18.18,2.3-.16.12-.35.18-.54.18Z"/>
        <path class="cls-4" d="M46.06,56.04c-.27,0-.54-.12-.72-.36-.3-.4-.22-.96.18-1.25.31-.23,7.82-5.73,19.72-2.6.48.13.77.62.64,1.1-.13.48-.62.77-1.1.64-11.02-2.9-18.11,2.24-18.18,2.3-.16.12-.35.18-.54.18Z"/>
        <path class="cls-4" d="M46.06,62.17c-.27,0-.54-.12-.72-.36-.3-.4-.22-.96.18-1.25.31-.24,7.82-5.73,19.72-2.59.48.13.77.62.64,1.1-.13.48-.62.77-1.1.64-11.02-2.9-18.11,2.24-18.18,2.3-.16.12-.35.18-.54.18Z"/>
        <path class="cls-4" d="M46.06,68.3c-.27,0-.54-.12-.72-.36-.3-.4-.22-.96.18-1.25.31-.23,7.82-5.73,19.72-2.59.48.13.77.62.64,1.1-.13.48-.62.77-1.1.64-11.02-2.9-18.11,2.24-18.18,2.3-.16.12-.35.18-.54.18Z"/>
        <path class="cls-4" d="M32.84,49.91c-.19,0-.38-.06-.54-.18h0c-.07-.05-7.16-5.2-18.18-2.3-.48.13-.97-.16-1.1-.64-.13-.48.16-.97.64-1.1,11.9-3.13,19.4,2.36,19.72,2.59.4.3.48.86.18,1.26-.18.24-.45.36-.72.36Z"/>
        <path class="cls-4" d="M32.84,56.04c-.19,0-.38-.06-.54-.18h0c-.07-.05-7.16-5.2-18.18-2.3-.48.13-.97-.16-1.1-.64-.13-.48.16-.97.64-1.1,11.9-3.13,19.4,2.36,19.72,2.6.4.3.48.86.18,1.26-.18.24-.45.36-.72.36Z"/>
        <path class="cls-4" d="M32.84,62.17c-.19,0-.38-.06-.54-.18h0c-.07-.05-7.16-5.2-18.18-2.3-.48.13-.97-.16-1.1-.64-.13-.48.16-.97.64-1.1,11.9-3.13,19.4,2.36,19.72,2.59.4.3.48.86.18,1.26-.18.24-.45.36-.72.36Z"/>
        <path class="cls-4" d="M32.84,68.3c-.19,0-.38-.06-.54-.18h0c-.07-.05-7.16-5.19-18.18-2.3-.48.13-.97-.16-1.1-.64-.13-.48.16-.97.64-1.1,11.9-3.13,19.4,2.36,19.72,2.59.4.3.48.86.18,1.26-.18.23-.45.36-.72.36Z"/>
        <path class="cls-4" d="M11.08,30.38l.61,2.04c.12.4.43.71.83.83l2.04.61c.31.09.31.54,0,.63l-2.04.61c-.4.12-.71.43-.83.83l-.61,2.04c-.09.31-.54.31-.63,0l-.61-2.04c-.12-.4-.43-.71-.83-.83l-2.04-.61c-.31-.09-.31-.54,0-.63l2.04-.61c.4-.12.71-.43.83-.83l.61-2.04c.09-.31.54-.31.63,0Z"/>
        <path class="cls-4" d="M67.52,23.36l.61,2.04c.12.4.43.71.83.83l2.04.61c.31.09.31.54,0,.63l-2.04.61c-.4.12-.71.43-.83.83l-.61,2.04c-.09.31-.54.31-.63,0l-.61-2.04c-.12-.4-.43-.71-.83-.83l-2.04-.61c-.31-.09-.31-.54,0-.63l2.04-.61c.4-.12.71-.43.83-.83l.61-2.04c.09-.31.54-.31.63,0Z"/>
        <path class="cls-4" d="M36.79,22.23l.23.79c.12.4.43.71.83.83l.79.23c.31.09.31.54,0,.63l-.79.23c-.4.12-.71.43-.83.83l-.23.79c-.09.31-.54.31-.63,0l-.23-.79c-.12-.4-.43-.71-.83-.83l-.79-.23c-.31-.09-.31-.54,0-.63l.79-.23c.4-.12.71-.43.83-.83l.23-.79c.09-.31.54-.31.63,0Z"/>
        <circle class="cls-4" cx="25.89" cy="29.31" r="1.36"/>
        <circle class="cls-4" cx="43" cy="32.02" r="2.13"/>
        <circle class="cls-4" cx="55.54" cy="23.08" r="1.44"/>
        <path class="cls-4" d="M38.9,35.33c1.78-.12,3.11-1.02,3.62-2.6s.05-6.16,5.2-6.37c5.14-.2,9.53-2.65,9.53-8s-3.97-8.35-9.93-8.41c-5.96-.05-14.93,1.88-14.87-4.43,0-2.6,2.55-3.41,2.55-3.41-5.55-5.35-14.26.25-14.26,7.49,0,7.23,5.96,9.24,13.8,8.56,7.02-.61,8.81-.97,10.95-.92s2.63,1.7,2.63,2.63-.7,2.78-2.58,2.78-13.91,0-16.45,0-4.74,2.33-4.69,5.39,2.9,3.72,4.43,3.72,3.82-2.29,7.23-1.17,2.31,4.77,2.85,4.74Z"/>
      </g>
      <g>
        <path class="cls-3" d="M78.07,35.11c-3.36-.88-13.08-3.04-21.71-1.36-8.91,1.73-14.63,5.51-16.24,6.69-.29.21-.66.21-.95,0-1.62-1.18-7.33-4.96-16.24-6.69-8.63-1.68-18.35.49-21.71,1.36C.5,35.3,0,35.97,0,36.73v43.05c0,1.09,1,1.89,2.03,1.62,3.28-.88,10.21-2.35,18.42-1.83,6.78.43,12.26,2.82,15.6,4.7,2.24,1.26,4.96,1.26,7.2,0,3.34-1.88,8.82-4.27,15.6-4.7,8.21-.52,15.14.95,18.42,1.83,1.03.27,2.03-.53,2.03-1.62v-43.05c0-.76-.5-1.43-1.22-1.62Z"/>
        <path class="cls-3" d="M72.77,37c-2.9-.73-11.27-2.55-18.71-1.14-7.68,1.45-12.6,4.61-14,5.61-.25.18-.57.18-.82,0-1.4-.99-6.32-4.16-14-5.61-7.44-1.4-15.81.41-18.71,1.14-.62.16-1.05.72-1.05,1.36v36.08c0,.91.86,1.59,1.75,1.36,2.83-.74,8.8-1.97,15.88-1.53,8.45.52,14.54,4.47,16.14,5.6.25.18.58.18.82,0,1.59-1.14,7.69-5.08,16.14-5.6,7.07-.44,13.05.8,15.88,1.53.88.23,1.75-.44,1.75-1.36v-36.08c0-.64-.43-1.2-1.05-1.36Z"/>
        <path class="cls-3" d="M46.06,49.91c-.27,0-.54-.12-.72-.36-.3-.4-.22-.96.18-1.25.31-.24,7.82-5.73,19.72-2.59.48.13.77.62.64,1.1-.13.48-.62.77-1.1.64-11.02-2.9-18.11,2.24-18.18,2.3-.16.12-.35.18-.54.18Z"/>
        <path class="cls-3" d="M46.06,56.04c-.27,0-.54-.12-.72-.36-.3-.4-.22-.96.18-1.25.31-.23,7.82-5.73,19.72-2.6.48.13.77.62.64,1.1-.13.48-.62.77-1.1.64-11.02-2.9-18.11,2.24-18.18,2.3-.16.12-.35.18-.54.18Z"/>
        <path class="cls-3" d="M46.06,62.17c-.27,0-.54-.12-.72-.36-.3-.4-.22-.96.18-1.25.31-.24,7.82-5.73,19.72-2.59.48.13.77.62.64,1.1-.13.48-.62.77-1.1.64-11.02-2.9-18.11,2.24-18.18,2.3-.16.12-.35.18-.54.18Z"/>
        <path class="cls-3" d="M46.06,68.3c-.27,0-.54-.12-.72-.36-.3-.4-.22-.96.18-1.25.31-.23,7.82-5.73,19.72-2.59.48.13.77.62.64,1.1-.13.48-.62.77-1.1.64-11.02-2.9-18.11,2.24-18.18,2.3-.16.12-.35.18-.54.18Z"/>
        <path class="cls-3" d="M32.84,49.91c-.19,0-.38-.06-.54-.18h0c-.07-.05-7.16-5.2-18.18-2.3-.48.13-.97-.16-1.1-.64-.13-.48.16-.97.64-1.1,11.9-3.13,19.4,2.36,19.72,2.59.4.3.48.86.18,1.26-.18.24-.45.36-.72.36Z"/>
        <path class="cls-3" d="M32.84,56.04c-.19,0-.38-.06-.54-.18h0c-.07-.05-7.16-5.2-18.18-2.3-.48.13-.97-.16-1.1-.64-.13-.48.16-.97.64-1.1,11.9-3.13,19.4,2.36,19.72,2.6.4.3.48.86.18,1.26-.18.24-.45.36-.72.36Z"/>
        <path class="cls-3" d="M32.84,62.17c-.19,0-.38-.06-.54-.18h0c-.07-.05-7.16-5.2-18.18-2.3-.48.13-.97-.16-1.1-.64-.13-.48.16-.97.64-1.1,11.9-3.13,19.4,2.36,19.72,2.59.4.3.48.86.18,1.26-.18.24-.45.36-.72.36Z"/>
        <path class="cls-3" d="M32.84,68.3c-.19,0-.38-.06-.54-.18h0c-.07-.05-7.16-5.19-18.18-2.3-.48.13-.97-.16-1.1-.64-.13-.48.16-.97.64-1.1,11.9-3.13,19.4,2.36,19.72,2.59.4.3.48.86.18,1.26-.18.23-.45.36-.72.36Z"/>
        <path class="cls-3" d="M11.08,30.38l.61,2.04c.12.4.43.71.83.83l2.04.61c.31.09.31.54,0,.63l-2.04.61c-.4.12-.71.43-.83.83l-.61,2.04c-.09.31-.54.31-.63,0l-.61-2.04c-.12-.4-.43-.71-.83-.83l-2.04-.61c-.31-.09-.31-.54,0-.63l2.04-.61c.4-.12.71-.43.83-.83l.61-2.04c.09-.31.54-.31.63,0Z"/>
        <path class="cls-3" d="M67.52,23.36l.61,2.04c.12.4.43.71.83.83l2.04.61c.31.09.31.54,0,.63l-2.04.61c-.4.12-.71.43-.83.83l-.61,2.04c-.09.31-.54.31-.63,0l-.61-2.04c-.12-.4-.43-.71-.83-.83l-2.04-.61c-.31-.09-.31-.54,0-.63l2.04-.61c.4-.12.71-.43.83-.83l.61-2.04c.09-.31.54-.31.63,0Z"/>
        <path class="cls-3" d="M36.79,22.23l.23.79c.12.4.43.71.83.83l.79.23c.31.09.31.54,0,.63l-.79.23c-.4.12-.71.43-.83.83l-.23.79c-.09.31-.54.31-.63,0l-.23-.79c-.12-.4-.43-.71-.83-.83l-.79-.23c-.31-.09-.31-.54,0-.63l.79-.23c.4-.12.71-.43.83-.83l.23-.79c.09-.31.54-.31.63,0Z"/>
        <circle class="cls-3" cx="25.89" cy="29.31" r="1.36"/>
        <circle class="cls-3" cx="43" cy="32.02" r="2.13"/>
        <circle class="cls-3" cx="55.54" cy="23.08" r="1.44"/>
        <path class="cls-3" d="M38.9,35.33c1.78-.12,3.11-1.02,3.62-2.6s.05-6.16,5.2-6.37c5.14-.2,9.53-2.65,9.53-8s-3.97-8.35-9.93-8.41c-5.96-.05-14.93,1.88-14.87-4.43,0-2.6,2.55-3.41,2.55-3.41-5.55-5.35-14.26.25-14.26,7.49,0,7.23,5.96,9.24,13.8,8.56,7.02-.61,8.81-.97,10.95-.92s2.63,1.7,2.63,2.63-.7,2.78-2.58,2.78-13.91,0-16.45,0-4.74,2.33-4.69,5.39,2.9,3.72,4.43,3.72,3.82-2.29,7.23-1.17,2.31,4.77,2.85,4.74Z"/>
      </g>
      <g>
        <path class="cls-6" d="M78.07,35.11c-3.36-.88-13.08-3.04-21.71-1.36-8.91,1.73-14.63,5.51-16.24,6.69-.29.21-.66.21-.95,0-1.62-1.18-7.33-4.96-16.24-6.69-8.63-1.68-18.35.49-21.71,1.36C.5,35.3,0,35.97,0,36.73v43.05c0,1.09,1,1.89,2.03,1.62,3.28-.88,10.21-2.35,18.42-1.83,6.78.43,12.26,2.82,15.6,4.7,2.24,1.26,4.96,1.26,7.2,0,3.34-1.88,8.82-4.27,15.6-4.7,8.21-.52,15.14.95,18.42,1.83,1.03.27,2.03-.53,2.03-1.62v-43.05c0-.76-.5-1.43-1.22-1.62Z"/>
        <path class="cls-5" d="M72.77,37c-2.9-.73-11.27-2.55-18.71-1.14-7.68,1.45-12.6,4.61-14,5.61-.25.18-.57.18-.82,0-1.4-.99-6.32-4.16-14-5.61-7.44-1.4-15.81.41-18.71,1.14-.62.16-1.05.72-1.05,1.36v36.08c0,.91.86,1.59,1.75,1.36,2.83-.74,8.8-1.97,15.88-1.53,8.45.52,14.54,4.47,16.14,5.6.25.18.58.18.82,0,1.59-1.14,7.69-5.08,16.14-5.6,7.07-.44,13.05.8,15.88,1.53.88.23,1.75-.44,1.75-1.36v-36.08c0-.64-.43-1.2-1.05-1.36Z"/>
        <path class="cls-6" d="M46.06,49.91c-.27,0-.54-.12-.72-.36-.3-.4-.22-.96.18-1.25.31-.24,7.82-5.73,19.72-2.59.48.13.77.62.64,1.1-.13.48-.62.77-1.1.64-11.02-2.9-18.11,2.24-18.18,2.3-.16.12-.35.18-.54.18Z"/>
        <path class="cls-6" d="M46.06,56.04c-.27,0-.54-.12-.72-.36-.3-.4-.22-.96.18-1.25.31-.23,7.82-5.73,19.72-2.6.48.13.77.62.64,1.1-.13.48-.62.77-1.1.64-11.02-2.9-18.11,2.24-18.18,2.3-.16.12-.35.18-.54.18Z"/>
        <path class="cls-6" d="M46.06,62.17c-.27,0-.54-.12-.72-.36-.3-.4-.22-.96.18-1.25.31-.24,7.82-5.73,19.72-2.59.48.13.77.62.64,1.1-.13.48-.62.77-1.1.64-11.02-2.9-18.11,2.24-18.18,2.3-.16.12-.35.18-.54.18Z"/>
        <path class="cls-6" d="M46.06,68.3c-.27,0-.54-.12-.72-.36-.3-.4-.22-.96.18-1.25.31-.23,7.82-5.73,19.72-2.59.48.13.77.62.64,1.1-.13.48-.62.77-1.1.64-11.02-2.9-18.11,2.24-18.18,2.3-.16.12-.35.18-.54.18Z"/>
        <path class="cls-6" d="M32.84,49.91c-.19,0-.38-.06-.54-.18h0c-.07-.05-7.16-5.2-18.18-2.3-.48.13-.97-.16-1.1-.64-.13-.48.16-.97.64-1.1,11.9-3.13,19.4,2.36,19.72,2.59.4.3.48.86.18,1.26-.18.24-.45.36-.72.36Z"/>
        <path class="cls-6" d="M32.84,56.04c-.19,0-.38-.06-.54-.18h0c-.07-.05-7.16-5.2-18.18-2.3-.48.13-.97-.16-1.1-.64-.13-.48.16-.97.64-1.1,11.9-3.13,19.4,2.36,19.72,2.6.4.3.48.86.18,1.26-.18.24-.45.36-.72.36Z"/>
        <path class="cls-6" d="M32.84,62.17c-.19,0-.38-.06-.54-.18h0c-.07-.05-7.16-5.2-18.18-2.3-.48.13-.97-.16-1.1-.64-.13-.48.16-.97.64-1.1,11.9-3.13,19.4,2.36,19.72,2.59.4.3.48.86.18,1.26-.18.24-.45.36-.72.36Z"/>
        <path class="cls-6" d="M32.84,68.3c-.19,0-.38-.06-.54-.18h0c-.07-.05-7.16-5.19-18.18-2.3-.48.13-.97-.16-1.1-.64-.13-.48.16-.97.64-1.1,11.9-3.13,19.4,2.36,19.72,2.59.4.3.48.86.18,1.26-.18.23-.45.36-.72.36Z"/>
        <path class="cls-1" d="M11.08,30.38l.61,2.04c.12.4.43.71.83.83l2.04.61c.31.09.31.54,0,.63l-2.04.61c-.4.12-.71.43-.83.83l-.61,2.04c-.09.31-.54.31-.63,0l-.61-2.04c-.12-.4-.43-.71-.83-.83l-2.04-.61c-.31-.09-.31-.54,0-.63l2.04-.61c.4-.12.71-.43.83-.83l.61-2.04c.09-.31.54-.31.63,0Z"/>
        <path class="cls-1" d="M67.52,23.36l.61,2.04c.12.4.43.71.83.83l2.04.61c.31.09.31.54,0,.63l-2.04.61c-.4.12-.71.43-.83.83l-.61,2.04c-.09.31-.54.31-.63,0l-.61-2.04c-.12-.4-.43-.71-.83-.83l-2.04-.61c-.31-.09-.31-.54,0-.63l2.04-.61c.4-.12.71-.43.83-.83l.61-2.04c.09-.31.54-.31.63,0Z"/>
        <path class="cls-1" d="M36.79,22.23l.23.79c.12.4.43.71.83.83l.79.23c.31.09.31.54,0,.63l-.79.23c-.4.12-.71.43-.83.83l-.23.79c-.09.31-.54.31-.63,0l-.23-.79c-.12-.4-.43-.71-.83-.83l-.79-.23c-.31-.09-.31-.54,0-.63l.79-.23c.4-.12.71-.43.83-.83l.23-.79c.09-.31.54-.31.63,0Z"/>
        <circle class="cls-1" cx="25.89" cy="29.31" r="1.36"/>
        <circle class="cls-1" cx="43" cy="32.02" r="2.13"/>
        <circle class="cls-1" cx="55.54" cy="23.08" r="1.44"/>
        <path class="cls-2" d="M38.9,35.33c1.78-.12,3.11-1.02,3.62-2.6s.05-6.16,5.2-6.37c5.14-.2,9.53-2.65,9.53-8s-3.97-8.35-9.93-8.41c-5.96-.05-14.93,1.88-14.87-4.43,0-2.6,2.55-3.41,2.55-3.41-5.55-5.35-14.26.25-14.26,7.49,0,7.23,5.96,9.24,13.8,8.56,7.02-.61,8.81-.97,10.95-.92s2.63,1.7,2.63,2.63-.7,2.78-2.58,2.78-13.91,0-16.45,0-4.74,2.33-4.69,5.39,2.9,3.72,4.43,3.72,3.82-2.29,7.23-1.17,2.31,4.77,2.85,4.74Z"/>
      </g>
    </g>
  </g>
</svg>