<?xml version="1.0" encoding="UTF-8"?>
<svg id="Calque_2" data-name="Calque 2" xmlns="http://www.w3.org/2000/svg" viewBox="0 0 61.18 54.3">
  <defs>
    <style>
      .cls-1 {
        fill: #a3191c;
      }

      .cls-2 {
        fill: #fff;
      }

      .cls-3 {
        fill: none;
        stroke: #fff;
        stroke-width: 6px;
      }

      .cls-4 {
        fill: #e6c9c1;
      }

      .cls-5 {
        fill: #4f1b11;
      }
    </style>
  </defs>
  <g id="Calque_2-2" data-name="Calque 2">
    <g>
      <g>
        <g>
          <path class="cls-3" d="M56.89,28.81c-.53-3.99-4.26-7.27-7.72-7.36-3.46-.09-16.14,0-16.14,0,0,0-12.68-.09-16.14,0s-7.18,3.37-7.72,7.36-3.1,18-3.1,19.33,2.31,5.76,6.03,6.12c3.72.35,6.83-2.04,7.27-4.35.15-.79.31-1.8.44-2.78.29-2.07,2.06-3.61,4.15-3.61h18.14c2.09,0,3.86,1.54,4.15,3.61.13.98.29,1.98.44,2.78.44,2.31,3.55,4.7,7.27,4.35,3.72-.35,6.03-4.79,6.03-6.12s-2.57-15.34-3.1-19.33Z"/>
          <circle class="cls-3" cx="17.86" cy="32.4" r="5.33"/>
          <circle class="cls-3" cx="44.12" cy="35.93" r="2.7"/>
          <circle class="cls-3" cx="48.8" cy="28.29" r="2.7"/>
          <rect class="cls-3" x="28.48" y="32.4" width="8.12" height="4.7" rx="2.3" ry="2.3"/>
          <path class="cls-3" d="M17.74,33.05h0c-1.33,0-2.42-1.08-2.42-2.42v-12.34h4.83v12.34c0,1.33-1.08,2.42-2.42,2.42Z"/>
          <circle class="cls-3" cx="17.86" cy="16.96" r="6.5"/>
        </g>
        <path class="cls-3" d="M57.47,11.59l.61,2.04c.12.4.43.71.83.83l2.04.61c.31.09.31.54,0,.63l-2.04.61c-.4.12-.71.43-.83.83l-.61,2.04c-.09.31-.54.31-.63,0l-.61-2.04c-.12-.4-.43-.71-.83-.83l-2.04-.61c-.31-.09-.31-.54,0-.63l2.04-.61c.4-.12.71-.43.83-.83l.61-2.04c.09-.31.54-.31.63,0Z"/>
        <path class="cls-3" d="M4.35,8.39l.61,2.04c.12.4.43.71.83.83l2.04.61c.31.09.31.54,0,.63l-2.04.61c-.4.12-.71.43-.83.83l-.61,2.04c-.09.31-.54.31-.63,0l-.61-2.04c-.12-.4-.43-.71-.83-.83l-2.04-.61c-.31-.09-.31-.54,0-.63l2.04-.61c.4-.12.71-.43.83-.83l.61-2.04c.09-.31.54-.31.63,0Z"/>
        <path class="cls-3" d="M29.06,6.86l.23.77c.12.4.43.71.83.83l.77.23c.31.09.31.54,0,.63l-.77.23c-.4.12-.71.43-.83.83l-.23.77c-.09.31-.54.31-.63,0l-.23-.77c-.12-.4-.43-.71-.83-.83l-.77-.23c-.31-.09-.31-.54,0-.63l.77-.23c.4-.12.71-.43.83-.83l.23-.77c.09-.31.54-.31.63,0Z"/>
        <path class="cls-3" d="M43.21.24l.23.77c.12.4.43.71.83.83l.77.23c.31.09.31.54,0,.63l-.77.23c-.4.12-.71.43-.83.83l-.23.77c-.09.31-.54.31-.63,0l-.23-.77c-.12-.4-.43-.71-.83-.83l-.77-.23c-.31-.09-.31-.54,0-.63l.77-.23c.4-.12.71-.43.83-.83l.23-.77c.09-.31.54-.31.63,0Z"/>
        <path class="cls-3" d="M7.4,15.78l.23.77c.12.4.43.71.83.83l.77.23c.31.09.31.54,0,.63l-.77.23c-.4.12-.71.43-.83.83l-.23.77c-.09.31-.54.31-.63,0l-.23-.77c-.12-.4-.43-.71-.83-.83l-.77-.23c-.31-.09-.31-.54,0-.63l.77-.23c.4-.12.71-.43.83-.83l.23-.77c.09-.31.54-.31.63,0Z"/>
        <circle class="cls-3" cx="48.15" cy="10.86" r="1.33"/>
        <circle class="cls-3" cx="31.95" cy="11.95" r=".89"/>
        <circle class="cls-3" cx="40.88" cy="17.3" r=".62"/>
        <circle class="cls-3" cx="7.7" cy="9" r=".62"/>
      </g>
      <g>
        <g>
          <path class="cls-2" d="M56.89,28.81c-.53-3.99-4.26-7.27-7.72-7.36-3.46-.09-16.14,0-16.14,0,0,0-12.68-.09-16.14,0s-7.18,3.37-7.72,7.36-3.1,18-3.1,19.33,2.31,5.76,6.03,6.12c3.72.35,6.83-2.04,7.27-4.35.15-.79.31-1.8.44-2.78.29-2.07,2.06-3.61,4.15-3.61h18.14c2.09,0,3.86,1.54,4.15,3.61.13.98.29,1.98.44,2.78.44,2.31,3.55,4.7,7.27,4.35,3.72-.35,6.03-4.79,6.03-6.12s-2.57-15.34-3.1-19.33Z"/>
          <circle class="cls-2" cx="17.86" cy="32.4" r="5.33"/>
          <circle class="cls-2" cx="44.12" cy="35.93" r="2.7"/>
          <circle class="cls-2" cx="48.8" cy="28.29" r="2.7"/>
          <rect class="cls-2" x="28.48" y="32.4" width="8.12" height="4.7" rx="2.3" ry="2.3"/>
          <path class="cls-2" d="M17.74,33.05h0c-1.33,0-2.42-1.08-2.42-2.42v-12.34h4.83v12.34c0,1.33-1.08,2.42-2.42,2.42Z"/>
          <circle class="cls-2" cx="17.86" cy="16.96" r="6.5"/>
        </g>
        <path class="cls-2" d="M57.47,11.59l.61,2.04c.12.4.43.71.83.83l2.04.61c.31.09.31.54,0,.63l-2.04.61c-.4.12-.71.43-.83.83l-.61,2.04c-.09.31-.54.31-.63,0l-.61-2.04c-.12-.4-.43-.71-.83-.83l-2.04-.61c-.31-.09-.31-.54,0-.63l2.04-.61c.4-.12.71-.43.83-.83l.61-2.04c.09-.31.54-.31.63,0Z"/>
        <path class="cls-2" d="M4.35,8.39l.61,2.04c.12.4.43.71.83.83l2.04.61c.31.09.31.54,0,.63l-2.04.61c-.4.12-.71.43-.83.83l-.61,2.04c-.09.31-.54.31-.63,0l-.61-2.04c-.12-.4-.43-.71-.83-.83l-2.04-.61c-.31-.09-.31-.54,0-.63l2.04-.61c.4-.12.71-.43.83-.83l.61-2.04c.09-.31.54-.31.63,0Z"/>
        <path class="cls-2" d="M29.06,6.86l.23.77c.12.4.43.71.83.83l.77.23c.31.09.31.54,0,.63l-.77.23c-.4.12-.71.43-.83.83l-.23.77c-.09.31-.54.31-.63,0l-.23-.77c-.12-.4-.43-.71-.83-.83l-.77-.23c-.31-.09-.31-.54,0-.63l.77-.23c.4-.12.71-.43.83-.83l.23-.77c.09-.31.54-.31.63,0Z"/>
        <path class="cls-2" d="M43.21.24l.23.77c.12.4.43.71.83.83l.77.23c.31.09.31.54,0,.63l-.77.23c-.4.12-.71.43-.83.83l-.23.77c-.09.31-.54.31-.63,0l-.23-.77c-.12-.4-.43-.71-.83-.83l-.77-.23c-.31-.09-.31-.54,0-.63l.77-.23c.4-.12.71-.43.83-.83l.23-.77c.09-.31.54-.31.63,0Z"/>
        <path class="cls-2" d="M7.4,15.78l.23.77c.12.4.43.71.83.83l.77.23c.31.09.31.54,0,.63l-.77.23c-.4.12-.71.43-.83.83l-.23.77c-.09.31-.54.31-.63,0l-.23-.77c-.12-.4-.43-.71-.83-.83l-.77-.23c-.31-.09-.31-.54,0-.63l.77-.23c.4-.12.71-.43.83-.83l.23-.77c.09-.31.54-.31.63,0Z"/>
        <circle class="cls-2" cx="48.15" cy="10.86" r="1.33"/>
        <circle class="cls-2" cx="31.95" cy="11.95" r=".89"/>
        <circle class="cls-2" cx="40.88" cy="17.3" r=".62"/>
        <circle class="cls-2" cx="7.7" cy="9" r=".62"/>
      </g>
      <g>
        <g>
          <path class="cls-5" d="M56.89,28.81c-.53-3.99-4.26-7.27-7.72-7.36-3.46-.09-16.14,0-16.14,0,0,0-12.68-.09-16.14,0s-7.18,3.37-7.72,7.36-3.1,18-3.1,19.33,2.31,5.76,6.03,6.12c3.72.35,6.83-2.04,7.27-4.35.15-.79.31-1.8.44-2.78.29-2.07,2.06-3.61,4.15-3.61h18.14c2.09,0,3.86,1.54,4.15,3.61.13.98.29,1.98.44,2.78.44,2.31,3.55,4.7,7.27,4.35,3.72-.35,6.03-4.79,6.03-6.12s-2.57-15.34-3.1-19.33Z"/>
          <circle class="cls-1" cx="17.86" cy="32.4" r="5.33"/>
          <circle class="cls-1" cx="44.12" cy="35.93" r="2.7"/>
          <circle class="cls-4" cx="48.8" cy="28.29" r="2.7"/>
          <rect class="cls-4" x="28.48" y="32.4" width="8.12" height="4.7" rx="2.3" ry="2.3"/>
          <path class="cls-2" d="M17.74,33.05h0c-1.33,0-2.42-1.08-2.42-2.42v-12.34h4.83v12.34c0,1.33-1.08,2.42-2.42,2.42Z"/>
          <circle class="cls-1" cx="17.86" cy="16.96" r="6.5"/>
        </g>
        <path class="cls-1" d="M57.47,11.59l.61,2.04c.12.4.43.71.83.83l2.04.61c.31.09.31.54,0,.63l-2.04.61c-.4.12-.71.43-.83.83l-.61,2.04c-.09.31-.54.31-.63,0l-.61-2.04c-.12-.4-.43-.71-.83-.83l-2.04-.61c-.31-.09-.31-.54,0-.63l2.04-.61c.4-.12.71-.43.83-.83l.61-2.04c.09-.31.54-.31.63,0Z"/>
        <path class="cls-1" d="M4.35,8.39l.61,2.04c.12.4.43.71.83.83l2.04.61c.31.09.31.54,0,.63l-2.04.61c-.4.12-.71.43-.83.83l-.61,2.04c-.09.31-.54.31-.63,0l-.61-2.04c-.12-.4-.43-.71-.83-.83l-2.04-.61c-.31-.09-.31-.54,0-.63l2.04-.61c.4-.12.71-.43.83-.83l.61-2.04c.09-.31.54-.31.63,0Z"/>
        <path class="cls-1" d="M29.06,6.86l.23.77c.12.4.43.71.83.83l.77.23c.31.09.31.54,0,.63l-.77.23c-.4.12-.71.43-.83.83l-.23.77c-.09.31-.54.31-.63,0l-.23-.77c-.12-.4-.43-.71-.83-.83l-.77-.23c-.31-.09-.31-.54,0-.63l.77-.23c.4-.12.71-.43.83-.83l.23-.77c.09-.31.54-.31.63,0Z"/>
        <path class="cls-1" d="M43.21.24l.23.77c.12.4.43.71.83.83l.77.23c.31.09.31.54,0,.63l-.77.23c-.4.12-.71.43-.83.83l-.23.77c-.09.31-.54.31-.63,0l-.23-.77c-.12-.4-.43-.71-.83-.83l-.77-.23c-.31-.09-.31-.54,0-.63l.77-.23c.4-.12.71-.43.83-.83l.23-.77c.09-.31.54-.31.63,0Z"/>
        <path class="cls-1" d="M7.4,15.78l.23.77c.12.4.43.71.83.83l.77.23c.31.09.31.54,0,.63l-.77.23c-.4.12-.71.43-.83.83l-.23.77c-.09.31-.54.31-.63,0l-.23-.77c-.12-.4-.43-.71-.83-.83l-.77-.23c-.31-.09-.31-.54,0-.63l.77-.23c.4-.12.71-.43.83-.83l.23-.77c.09-.31.54-.31.63,0Z"/>
        <circle class="cls-1" cx="48.15" cy="10.86" r="1.33"/>
        <circle class="cls-1" cx="31.95" cy="11.95" r=".89"/>
        <circle class="cls-1" cx="40.88" cy="17.3" r=".62"/>
        <circle class="cls-1" cx="7.7" cy="9" r=".62"/>
      </g>
    </g>
  </g>
</svg>