<svg width="295" height="484" viewBox="0 0 295 484" fill="none" xmlns="http://www.w3.org/2000/svg">
<g clip-path="url(#clip0_1412_8221)">
<g clip-path="url(#clip1_1412_8221)">
<path d="M229.043 282.984C229.512 282.805 229.994 282.612 230.463 282.433C238.5 279.308 244.938 273.333 247.584 265.76C254.946 244.655 228.726 231.507 227.347 210.236C225.707 184.973 225.61 128.967 225.61 128.967H147.501H69.3923C69.3923 128.967 69.2958 184.973 67.6553 210.236C66.2768 231.521 40.0429 244.655 47.4181 265.76C50.065 273.333 56.5028 279.294 64.5398 282.433C65.0223 282.612 65.491 282.805 65.9597 282.984C118.083 303.057 176.906 303.057 229.029 282.984H229.043Z" fill="#362824"/>
<path d="M111.52 96.1859C111.52 96.1859 130.861 49.4453 149.058 49.4453C167.255 49.4453 180.916 96.1859 180.916 96.1859H111.52Z" fill="#362824"/>
<path d="M217.364 359.005L214.883 357.367L228.269 337.143L230.75 338.781C234.858 341.493 235.988 347 233.273 351.089L229.689 356.5C226.987 360.589 221.459 361.718 217.35 359.005H217.364Z" fill="#E6C9C1"/>
<path d="M228.27 337.143L214.884 357.368L204.131 350.277L189.849 340.86L186.582 338.699L101.194 282.362L97.486 279.912L76.2148 265.883L82.7216 256.053L83.0938 255.474L89.6006 245.658L117.861 264.299L120.232 265.869L175.071 302.05L178.076 304.032L217.517 330.053L228.27 337.143Z" fill="#A3191C"/>
<path d="M65.3516 244.186L76.2008 265.883L89.6004 245.645L65.3516 244.186Z" fill="#E6C9C1"/>
<path d="M65.3516 244.186L68.536 250.56L72.4649 244.612L65.3516 244.186Z" fill="#A3191C"/>
<path d="M217.499 330.037L204.117 350.266L214.872 357.361L228.253 337.132L217.499 330.037Z" fill="#3D3D3C"/>
<path d="M83.0752 255.474L82.6953 256.049L210.611 340.443L210.991 339.869L83.0752 255.474Z" fill="#3D3D3C"/>
<g style="mix-blend-mode:multiply">
<path d="M189.849 340.861L186.582 338.7C183.991 333.578 180.889 325.648 178.573 319.288C178.449 318.93 178.311 318.586 178.187 318.228C176.56 313.684 175.388 310.119 175.195 309.292C174.796 307.558 174.933 304.116 175.071 302.051L178.077 304.033C177.966 304.598 178.242 305.383 178.614 306.401C179.166 307.957 180.006 309.403 180.999 310.724C183.977 314.731 185.383 319.398 186.844 323.927C186.954 324.271 187.065 324.616 187.161 324.946C189.105 331.376 189.684 337.433 189.849 340.848V340.861Z" fill="#A3191C"/>
</g>
<g style="mix-blend-mode:multiply">
<path d="M120.232 265.87C118.744 267.467 115.408 270.909 111.672 274.337C111.492 274.489 111.327 274.654 111.148 274.805C107.77 277.876 104.103 280.849 101.195 282.364L97.4863 279.913C99.1268 278.591 102.849 275.618 107.233 272.231C107.426 272.093 107.619 271.942 107.812 271.79C111.024 269.326 114.539 266.683 117.861 264.301L120.232 265.87Z" fill="#A3191C"/>
</g>
<path d="M103.662 284.234C103.662 284.234 80.723 308.217 75.9669 310.117C71.2109 312.017 59.9206 309.319 57.2186 310.117C54.5166 310.916 53.4 324.091 57.8527 327.588C62.3055 331.085 73.4304 332.035 79.951 326.156C87.9052 323.458 112.705 310.599 118.592 299.158C112.071 291.063 103.648 284.234 103.648 284.234H103.662Z" fill="#F5D5CB"/>
<path d="M71.8576 324.312C69.0315 324.628 65.916 324.188 63.7241 322.136C62.056 319.851 60.6913 317.676 57.8652 316.685C60.8153 316.629 63.09 319.066 64.6064 321.255C66.495 323.059 69.321 323.692 71.8576 324.298V324.312Z" fill="#1D1D1B"/>
<path d="M189.849 282.32C189.849 282.32 204.324 292.164 208.611 294.394C212.899 296.611 224.189 297.258 225.623 295.344C227.056 293.431 235.479 285.817 237.23 285.817C238.981 285.817 242.482 289.149 241.848 291.063C241.214 292.976 233.108 301.54 233.26 303.453C233.411 305.367 238.664 308.217 236.596 309.965C234.528 311.714 222.921 309.8 219.585 309.965C216.248 310.131 201.291 312.567 197.638 310.709C193.985 308.85 176.174 299.488 176.174 299.488L189.849 282.334V282.32Z" fill="#F5D5CB"/>
<path d="M160.914 243.414H137.699V267.769H160.914V243.414Z" fill="#F5D5CB"/>
<path d="M150.423 263.805C156.461 263.805 160.913 258.725 160.913 258.725C160.913 258.725 167.062 259.991 171.197 262.222C175.333 264.438 189.325 279.692 195.998 281.592C185.19 292.386 176.918 302.877 176.918 302.877C174.699 301.61 175.499 307.875 178.931 311.468C169.709 311.784 147.348 311.454 147.348 311.454C147.348 311.454 124.685 311.908 115.462 311.592C119.777 308.081 119.998 301.61 117.778 302.877C117.778 302.877 109.507 292.4 98.6992 281.592C105.371 279.692 119.378 264.438 123.499 262.222C127.635 260.005 136.858 258.725 136.858 258.725C136.858 258.725 144.385 263.805 150.423 263.805Z" fill="#A3191C"/>
<path d="M80.64 422.35C80.64 422.35 75.9805 437.067 75.9805 441.886C75.9805 446.704 77.6761 467.879 92.7299 468.939C107.784 469.999 106.515 450.518 107.15 443.111C107.784 435.704 108.445 428.407 108.445 428.407L80.64 422.35Z" fill="#282726"/>
<path d="M147.637 435.264C147.003 436.117 142.551 450.298 137.671 456.645C132.79 462.991 129.827 476.965 137.671 481.633C145.515 486.286 161.423 484.386 168.412 473.166C175.415 461.945 179.013 437.384 179.013 437.384L147.637 435.264Z" fill="#282726"/>
<path d="M117.777 308.783C117.777 308.783 106.391 320.541 105.108 333.455C103.84 346.369 108.293 366.276 108.293 366.276C101.717 366.703 83.2722 390.631 80.3083 410.952C79.6741 418.359 77.9785 425.132 77.9785 425.132C84.1269 426.399 107.659 431.479 107.659 431.479C109.561 423.012 113.683 413.898 117.777 410.098C121.872 406.298 144.976 377.483 144.976 374.95C145.183 385.33 149.002 398.024 149.636 399.084C150.27 400.144 147.085 430.639 144.122 438.046C154.089 439.533 178.682 441.86 178.682 441.86C185.037 430.212 187.587 400.351 182.707 379.603C188.015 372.403 194.701 331.94 177.042 308.77H117.764L117.777 308.783Z" fill="#3D3D3C"/>
<path d="M144.783 376.286C147.499 370.201 150.022 363.716 150.132 357.025C150.063 350.252 150.132 343.478 150.339 336.704V336.319H150.697C153.413 336.319 156.019 334.749 158.114 332.877C157.19 333.965 156.088 334.901 154.861 335.686C153.634 336.457 152.214 337.021 150.697 337.062L151.07 336.691C151.276 343.464 151.345 350.252 151.276 357.025C151.083 363.936 148.244 370.435 144.756 376.272L144.783 376.286Z" fill="white"/>
<path d="M149.622 251.359C149.622 251.359 168.867 250.409 177.138 246.912C185.41 243.415 211.492 230.391 224.519 185.289C237.561 140.187 226.422 79.8438 149.457 79.8438C72.4923 79.8438 61.3673 140.187 74.3947 185.289C87.422 230.391 113.518 243.415 121.776 246.912C130.033 250.409 149.292 251.359 149.292 251.359" fill="#F5D5CB"/>
<path d="M152.174 79.8435C149.182 77.3654 118.151 75.6995 103.869 85.3918C89.5872 95.0841 84.0317 108.026 82.9702 110.504C81.9087 112.982 44.3431 147.676 78.9999 200.529C84.0317 190.341 114.415 129.943 150.051 125.469C184.404 129.943 216.787 190.341 221.625 200.529C255.041 147.662 218.813 112.982 217.793 110.504C216.773 108.026 211.41 95.0841 197.638 85.3918C183.867 75.6995 155.041 77.3654 152.16 79.8435H152.174Z" fill="#362824"/>
<path d="M80.3649 184.971C80.3649 184.971 62.5539 189.734 60.9686 201.175C59.3832 212.616 69.557 244.694 99.127 224.676C91.1727 205.305 80.3649 184.971 80.3649 184.971Z" fill="#F5D5CB"/>
<path d="M218.551 184.971C218.551 184.971 236.362 189.734 237.947 201.175C239.533 212.616 229.359 244.694 199.789 224.676C207.743 205.305 218.551 184.971 218.551 184.971Z" fill="#F5D5CB"/>
<path d="M172.301 121.174C172.301 121.174 200.299 155.166 208.005 177.827C215.725 200.475 216.318 250.464 181.206 252.075C197.005 253.163 203.994 246.306 208.005 242.355C208.336 244.723 205.331 248.482 202.353 250.423C215.725 246.83 227.926 233.42 228.808 211.282C229.69 189.144 224.617 121.972 172.287 121.174H172.301Z" fill="#362824"/>
<path d="M127.8 122.246C127.8 122.246 99.8014 154.076 92.0953 176.724C84.3754 199.372 83.7826 249.361 118.894 250.972C103.096 252.06 96.1069 245.203 92.0953 241.252C91.7645 243.62 94.7697 247.379 97.7474 249.32C84.3754 245.727 72.1752 232.317 71.2929 210.179C70.3969 188.041 75.4837 123.031 127.814 122.246H127.8Z" fill="#362824"/>
<path d="M100.064 226.37C106.33 226.37 111.41 221.297 111.41 215.04C111.41 208.782 106.33 203.709 100.064 203.709C93.7983 203.709 88.7188 208.782 88.7188 215.04C88.7188 221.297 93.7983 226.37 100.064 226.37Z" fill="#DDA19C"/>
<path d="M198.549 226.37C204.815 226.37 209.894 221.297 209.894 215.04C209.894 208.782 204.815 203.709 198.549 203.709C192.283 203.709 187.203 208.782 187.203 215.04C187.203 221.297 192.283 226.37 198.549 226.37Z" fill="#DDA19C"/>
<path d="M150.051 224.457C144.854 224.457 140.318 223.81 137.699 222.832C138.664 224.512 143.806 225.806 150.051 225.806C156.296 225.806 161.438 224.525 162.403 222.832C159.784 223.81 155.248 224.457 150.051 224.457Z" fill="#1D1D1B"/>
<path d="M118.936 214.998C125.385 214.998 130.612 208.39 130.612 200.239C130.612 192.088 125.385 185.48 118.936 185.48C112.487 185.48 107.26 192.088 107.26 200.239C107.26 208.39 112.487 214.998 118.936 214.998Z" fill="#201510"/>
<path d="M122.921 197.776C124.405 197.776 125.609 196.259 125.609 194.389C125.609 192.518 124.405 191.002 122.921 191.002C121.436 191.002 120.232 192.518 120.232 194.389C120.232 196.259 121.436 197.776 122.921 197.776Z" fill="white"/>
<path d="M106.695 192.434C108.363 191.126 110.017 189.776 111.879 188.978C114.484 187.863 117.434 187.119 120.246 187.739C125.912 188.978 134.556 195.49 136.72 199.18C136.72 199.18 129.179 185.715 120.246 184.972C113.712 184.421 109.976 186.224 107.247 188.179C105.372 189.529 102.601 192.296 101.071 194.223C99.2785 196.467 97.6242 198.822 95.005 202.387C94.7293 202.759 94.6466 203.324 94.8396 203.75C96.4663 207.357 100.574 211.061 100.574 211.061C98.1205 207.674 97.1142 204.563 97.5553 202.594C97.9965 200.625 104.159 194.389 106.695 192.42V192.434Z" fill="#1D1D1B"/>
<path d="M180.583 215.301C187.031 215.301 192.259 208.693 192.259 200.542C192.259 192.391 187.031 185.783 180.583 185.783C174.134 185.783 168.906 192.391 168.906 200.542C168.906 208.693 174.134 215.301 180.583 215.301Z" fill="#201510"/>
<path d="M184.567 198.078C186.052 198.078 187.255 196.562 187.255 194.691C187.255 192.821 186.052 191.305 184.567 191.305C183.082 191.305 181.879 192.821 181.879 194.691C181.879 196.562 183.082 198.078 184.567 198.078Z" fill="white"/>
<path d="M192.826 192.736C191.158 191.428 189.503 190.079 187.642 189.281C185.037 188.165 182.087 187.422 179.275 188.042C173.609 189.281 164.965 195.793 162.801 199.482C162.801 199.482 170.341 186.018 179.275 185.274C185.809 184.724 189.545 186.527 192.274 188.482C194.149 189.831 196.92 192.599 198.45 194.526C200.242 196.77 201.897 199.124 204.516 202.69C204.792 203.062 204.874 203.626 204.681 204.053C203.055 207.66 198.947 211.364 198.947 211.364C201.4 207.977 202.407 204.865 201.966 202.897C201.524 200.928 195.362 194.691 192.826 192.722V192.736Z" fill="#1D1D1B"/>
<path d="M132.997 176.863C123.884 178.006 115.172 177.882 106.239 179.616C101.028 180.979 96.1479 183.458 91.7779 186.665L91.4746 186.349C99.1945 177.951 110.774 173.944 122.01 173.531C125.828 173.669 129.73 174.44 133.079 176.422L132.983 176.849L132.997 176.863Z" fill="#1D1D1B"/>
<path d="M167.104 176.863C176.216 178.006 184.929 177.882 193.862 179.616C199.073 180.979 203.953 183.458 208.323 186.665L208.626 186.349C200.906 177.951 189.327 173.944 178.091 173.531C174.273 173.669 170.371 174.44 167.021 176.422L167.118 176.849L167.104 176.863Z" fill="#1D1D1B"/>
<path d="M139.807 250.561C146.258 250.891 152.682 251.166 159.12 250.561C152.82 252.103 146.134 251.827 139.807 250.561Z" fill="#1D1D1B"/>
</g>
</g>
<defs>
<clipPath id="clip0_1412_8221">
<rect width="295" height="484" fill="white"/>
</clipPath>
<clipPath id="clip1_1412_8221">
<rect width="295" height="484" fill="white"/>
</clipPath>
</defs>
</svg>
