<?xml version="1.0" encoding="UTF-8"?>
<svg xmlns="http://www.w3.org/2000/svg" viewBox="0 0 147.08 315.64">
  <defs>
    <style>
      .cls-1 {
        fill: #201510;
      }

      .cls-2, .cls-3 {
        fill: #a3191c;
      }

      .cls-4 {
        fill: #1d1d1b;
      }

      .cls-5 {
        fill: #3d3d3c;
      }

      .cls-6 {
        fill: #fff;
      }

      .cls-7 {
        fill: #e6c9c1;
      }

      .cls-8 {
        fill: #362824;
      }

      .cls-9 {
        isolation: isolate;
      }

      .cls-10 {
        fill: #282726;
      }

      .cls-3 {
        mix-blend-mode: multiply;
      }

      .cls-11 {
        fill: #dda19c;
      }

      .cls-12 {
        fill: #f5d5cb;
      }
    </style>
  </defs>
  <g class="cls-9">
    <g id="Calque_2" data-name="Calque 2">
      <g id="Calque_2-2" data-name="Calque 2">
        <g id="illustration">
          <g>
            <path class="cls-8" d="M132.69,169.63c.34-.13.69-.27,1.03-.4,5.83-2.27,10.5-6.61,12.42-12.11,5.34-15.33-13.68-24.88-14.68-40.33-1.19-18.35-1.26-59.03-1.26-59.03h-56.66s-56.66,0-56.66,0c0,0-.07,40.68-1.26,59.03-1,15.46-20.03,25-14.68,40.33,1.92,5.5,6.59,9.83,12.42,12.11.35.13.69.27,1.03.4,37.81,14.58,80.48,14.58,118.29,0Z"/>
            <path class="cls-8" d="M47.44,33.95S61.47,0,74.67,0s23.11,33.95,23.11,33.95h-50.34Z"/>
          </g>
          <g>
            <path class="cls-7" d="M124.22,224.85l-1.8-1.19,9.71-14.69,1.8,1.19c2.98,1.97,3.8,5.97,1.83,8.94l-2.6,3.93c-1.96,2.97-5.97,3.79-8.95,1.82Z"/>
            <polygon class="cls-2" points="132.13 208.97 122.42 223.66 114.62 218.51 104.26 211.67 101.89 210.1 39.95 169.18 37.26 167.4 21.83 157.21 26.55 150.07 26.82 149.65 31.54 142.52 52.04 156.06 53.76 157.2 93.54 183.48 95.72 184.92 124.33 203.82 132.13 208.97"/>
            <polygon class="cls-7" points="13.95 141.45 21.82 157.21 31.54 142.51 13.95 141.45"/>
            <polygon class="cls-2" points="13.95 141.45 16.26 146.08 19.11 141.76 13.95 141.45"/>
            <rect class="cls-5" x="114.56" y="209.06" width="17.61" height="9.35" transform="translate(-122.97 198.85) rotate(-56.55)"/>
            <rect class="cls-5" x="72.82" y="124.9" width=".5" height="111.21" transform="translate(-117.82 141.98) rotate(-56.55)"/>
          </g>
          <path class="cls-3" d="M104.26,211.67l-2.37-1.57c-1.88-3.72-4.13-9.48-5.81-14.1-.09-.26-.19-.51-.28-.77-1.18-3.3-2.03-5.89-2.17-6.49-.29-1.26-.19-3.76-.09-5.26l2.18,1.44c-.08.41.12.98.39,1.72.4,1.13,1.01,2.18,1.73,3.14,2.16,2.91,3.18,6.3,4.24,9.59.08.25.16.5.23.74,1.41,4.67,1.83,9.07,1.95,11.55Z"/>
          <path class="cls-3" d="M53.76,157.2c-1.08,1.16-3.5,3.66-6.21,6.15-.13.11-.25.23-.38.34-2.45,2.23-5.11,4.39-7.22,5.49l-2.69-1.78c1.19-.96,3.89-3.12,7.07-5.58.14-.1.28-.21.42-.32,2.33-1.79,4.88-3.71,7.29-5.44l1.72,1.14Z"/>
          <g>
            <g>
              <path class="cls-12" d="M41.74,170.54s-16.64,17.42-20.09,18.8-11.64-.58-13.6,0-2.77,10.15.46,12.69c3.23,2.54,11.3,3.23,16.03-1.04,5.77-1.96,23.76-11.3,28.03-19.61-4.73-5.88-10.84-10.84-10.84-10.84Z"/>
              <path class="cls-4" d="M18.67,199.65c-2.05.23-4.31-.09-5.9-1.58-1.21-1.66-2.2-3.24-4.25-3.96,2.14-.04,3.79,1.73,4.89,3.32,1.37,1.31,3.42,1.77,5.26,2.21h0Z"/>
            </g>
            <path class="cls-12" d="M104.26,169.15s10.5,7.15,13.61,8.77c3.11,1.61,11.3,2.08,12.34.69s7.15-6.92,8.42-6.92,3.81,2.42,3.35,3.81-6.34,7.61-6.23,9,3.92,3.46,2.42,4.73-9.92-.12-12.34,0-13.27,1.89-15.92.54-15.57-8.15-15.57-8.15l9.92-12.46Z"/>
            <rect class="cls-12" x="66.43" y="140.89" width="16.84" height="17.69"/>
            <path class="cls-2" d="M75.66,155.7c4.38,0,7.61-3.69,7.61-3.69,0,0,4.46.92,7.46,2.54,3,1.61,13.15,12.69,17.99,14.07-7.84,7.84-13.84,15.46-13.84,15.46-1.61-.92-1.03,3.63,1.46,6.24-6.69.23-22.91-.01-22.91-.01,0,0-16.44.33-23.13.1,3.13-2.55,3.29-7.25,1.68-6.33,0,0-6-7.61-13.84-15.46,4.84-1.38,15-12.46,17.99-14.07,3-1.61,9.69-2.54,9.69-2.54,0,0,5.46,3.69,9.84,3.69Z"/>
            <path class="cls-10" d="M25.04,270.86s-3.38,10.69-3.38,14.19,1.23,18.88,12.15,19.65,10-13.38,10.46-18.76.94-10.68.94-10.68l-20.17-4.4Z"/>
            <path class="cls-10" d="M73.64,280.24c-.46.62-3.69,10.92-7.23,15.53-3.54,4.61-5.69,14.76,0,18.15,5.69,3.38,17.23,2,22.3-6.15,5.08-8.15,7.69-25.99,7.69-25.99l-22.76-1.54Z"/>
            <g>
              <path class="cls-5" d="M51.98,188.37s-8.26,8.54-9.19,17.92c-.92,9.38,2.31,23.84,2.31,23.84-4.77.31-18.15,17.69-20.3,32.45-.46,5.38-1.69,10.3-1.69,10.3,4.46.92,21.53,4.61,21.53,4.61,1.38-6.15,4.37-12.77,7.34-15.53s19.73-23.69,19.73-25.53c.15,7.54,2.92,16.76,3.38,17.53s-1.85,22.92-4,28.3c7.23,1.08,25.07,2.77,25.07,2.77,4.61-8.46,6.46-30.15,2.92-45.22,3.85-5.23,8.7-34.62-4.11-51.45h-43Z"/>
              <path class="cls-6" d="M71.57,237.4c1.97-4.42,3.8-9.13,3.88-13.99-.05-4.92,0-9.84.15-14.76,0,0,0-.28,0-.28,0,0,.26,0,.26,0,1.97,0,3.86-1.14,5.38-2.5-.67.79-1.47,1.47-2.36,2.04-.89.56-1.92.97-3.02,1l.27-.27c.15,4.92.2,9.85.15,14.77-.14,5.02-2.2,9.74-4.73,13.98h0Z"/>
            </g>
            <path class="cls-12" d="M75.08,146.66s13.96-.69,19.96-3.23c6-2.54,24.92-12,34.37-44.76,9.46-32.76,1.38-76.59-54.45-76.59-55.83,0-63.9,43.83-54.45,76.59s28.38,42.22,34.37,44.76,19.96,3.23,19.96,3.23"/>
            <path class="cls-8" d="M76.93,22.08c-2.17-1.8-24.68-3.01-35.04,4.03-10.36,7.04-14.39,16.44-15.16,18.24-.77,1.8-28.02,27-2.88,65.39,3.65-7.4,25.69-51.27,51.54-54.52,24.92,3.25,48.41,47.12,51.92,54.52,24.24-38.4-2.04-63.59-2.78-65.39s-4.63-11.2-14.62-18.24c-9.99-7.04-30.9-5.83-32.99-4.03Z"/>
            <path class="cls-12" d="M24.84,98.44s-12.92,3.46-14.07,11.77c-1.15,8.31,6.23,31.61,27.68,17.07-5.77-14.07-13.61-28.84-13.61-28.84Z"/>
            <path class="cls-12" d="M125.08,98.44s12.92,3.46,14.07,11.77c1.15,8.31-6.23,31.61-27.68,17.07,5.77-14.07,13.61-28.84,13.61-28.84Z"/>
            <path class="cls-8" d="M91.53,52.1s20.31,24.69,25.9,41.15c5.6,16.45,6.03,52.76-19.44,53.93,11.46.79,16.53-4.19,19.44-7.06.24,1.72-1.94,4.45-4.1,5.86,9.7-2.61,18.55-12.35,19.19-28.43s-3.04-64.87-41-65.45Z"/>
            <path class="cls-8" d="M59.25,52.88s-20.31,23.12-25.9,39.57c-5.6,16.45-6.03,52.76,19.44,53.93-11.46.79-16.53-4.19-19.44-7.06-.24,1.72,1.94,4.45,4.1,5.86-9.7-2.61-18.55-12.35-19.19-28.43-.65-16.08,3.04-63.3,41-63.87Z"/>
            <circle class="cls-11" cx="39.13" cy="120.28" r="8.23"/>
            <circle class="cls-11" cx="110.57" cy="120.28" r="8.23"/>
            <path class="cls-4" d="M75.39,127.12c-3.77,0-7.06-.47-8.96-1.18.7,1.22,4.43,2.16,8.96,2.16s8.26-.93,8.96-2.16c-1.9.71-5.19,1.18-8.96,1.18Z"/>
            <g>
              <ellipse class="cls-1" cx="52.82" cy="109.53" rx="8.47" ry="10.72"/>
              <ellipse class="cls-6" cx="55.71" cy="105.28" rx="1.95" ry="2.46"/>
              <path class="cls-4" d="M43.94,103.86c1.21-.95,2.41-1.93,3.76-2.51,1.89-.81,4.03-1.35,6.07-.9,4.11.9,10.38,5.63,11.95,8.31,0,0-5.47-9.78-11.95-10.32-4.74-.4-7.45.91-9.43,2.33-1.36.98-3.37,2.99-4.48,4.39-1.3,1.63-2.5,3.34-4.4,5.93-.2.27-.26.68-.12.99,1.18,2.62,4.16,5.31,4.16,5.31-1.78-2.46-2.51-4.72-2.19-6.15s4.79-5.96,6.63-7.39Z"/>
            </g>
            <g>
              <ellipse class="cls-1" cx="97.54" cy="109.75" rx="8.47" ry="10.72"/>
              <ellipse class="cls-6" cx="100.43" cy="105.5" rx="1.95" ry="2.46"/>
              <path class="cls-4" d="M106.42,104.08c-1.21-.95-2.41-1.93-3.76-2.51-1.89-.81-4.03-1.35-6.07-.9-4.11.9-10.38,5.63-11.95,8.31,0,0,5.47-9.78,11.95-10.32,4.74-.4,7.45.91,9.43,2.33,1.36.98,3.37,2.99,4.48,4.39,1.3,1.63,2.5,3.34,4.4,5.93.2.27.26.68.12.99-1.18,2.62-4.16,5.31-4.16,5.31,1.78-2.46,2.51-4.72,2.19-6.15s-4.79-5.96-6.63-7.39Z"/>
            </g>
            <path class="cls-4" d="M63.02,92.55c-6.61.83-12.93.74-19.41,2-3.78.99-7.32,2.79-10.49,5.12,0,0-.22-.23-.22-.23,5.6-6.1,14-9.01,22.15-9.31,2.77.1,5.6.66,8.03,2.1l-.07.31h0Z"/>
            <path class="cls-4" d="M87.76,92.55c6.61.83,12.93.74,19.41,2,3.78.99,7.32,2.79,10.49,5.12,0,0,.22-.23.22-.23-5.6-6.1-14-9.01-22.15-9.31-2.77.1-5.6.66-8.03,2.1l.07.31h0Z"/>
            <path class="cls-4" d="M67.96,146.08c4.68.24,9.34.44,14.01,0-4.57,1.12-9.42.92-14.01,0h0Z"/>
          </g>
        </g>
      </g>
    </g>
  </g>
</svg>