<?xml version="1.0" encoding="UTF-8"?>
<svg id="Calque_2" data-name="Calque 2" xmlns="http://www.w3.org/2000/svg" viewBox="0 0 79.01 79.01">
  <defs>
    <style>
      .cls-1 {
        fill: #a3191c;
      }

      .cls-2 {
        fill: #fff6f1;
      }

      .cls-3 {
        fill: #fff;
      }

      .cls-4 {
        fill: #e6c9c1;
      }

      .cls-5 {
        fill: #4f1b11;
      }

      .cls-6 {
        fill: #352723;
      }
    </style>
  </defs>
  <g id="Calque_2-2" data-name="Calque 2">
    <g id="illustration">
      <rect class="cls-2" width="79.01" height="79.01"/>
      <g>
        <g>
          <path class="cls-5" d="M67.51,41.4H31.2c-.4,0-.72-.32-.72-.72V12.29c0-.4.32-.72.72-.72h36.32c.4,0,.72.32.72.72v28.38c0,.4-.32.72-.72.72ZM31.2,12.12c-.09,0-.17.08-.17.17v28.38c0,.09.08.17.17.17h36.32c.09,0,.17-.08.17-.17V12.29c0-.09-.08-.17-.17-.17H31.2Z"/>
          <circle class="cls-1" cx="32.78" cy="14.07" r=".58"/>
          <circle class="cls-4" cx="34.47" cy="14.07" r=".58"/>
          <circle class="cls-4" cx="36.16" cy="14.07" r=".58"/>
        </g>
        <path class="cls-5" d="M50.18,48.19h-24.74c-.39,0-.71-.32-.71-.71v-30.29c0-.39.32-.71.71-.71h24.74c.39,0,.71.32.71.71v30.29c0,.39-.32.71-.71.71ZM25.44,17.04c-.08,0-.15.07-.15.15v30.29c0,.08.07.15.15.15h24.74c.08,0,.15-.07.15-.15v-30.29c0-.08-.07-.15-.15-.15h-24.74Z"/>
        <g>
          <g>
            <path class="cls-1" d="M36.98,44.09s.11,0,.13,0c.02,0-.09,0-.04.01.05.01.07.02.1.03.04.01.04-.02.07,0,.04.02-.07.01,0,.03.07.02,0-.02.07,0,.07.03.02.04.13.07.04.02.12.04.16.06.04.01,0-.01.04,0,.04.01.11.06.15.07.03.02.11.05.13.06.02,0,.05,0,.05,0,0,0,0,.03.05.05.05.02.01-.01.04,0,.02.01.05.02.06.03.01,0-.03,0,0,.01.04,0,.07.03.09.04.05.03,0,0,0,0,0,0,.03.02.05.03.02,0,.08.04.1.05,0,0-.03-.02.02,0,.05.03.09.05.13.07.03.02.07.02.1.04.04.03.15.09.21.13,0,0,.04.02.06.04.05.03.04.02.08.05.02.01.02.01.04.03.01,0,.02.01.03.02h-.02s-.07-.06-.09-.07c-.01,0-.03-.02-.05-.03-.06-.04-.1-.06-.16-.1-.02-.01-.03-.02-.05-.03-.04-.02-.07-.05-.11-.07,0,0-.01-.02-.06-.04-.05-.03-.02,0-.07-.03-.05-.03.02,0-.04-.03-.05-.03-.18-.11-.21-.11,0-.02-.05-.04-.09-.07,0,0,.01.03-.04,0-.04-.02-.12-.06-.17-.09-.05-.02-.04-.03-.08-.05-.01,0-.05-.01-.09-.03-.05-.02-.1-.04-.14-.06-.06-.04-.12-.05-.19-.08-.03-.01-.07-.03-.1-.05-.03-.02-.07-.03-.11-.04-.04-.02-.09-.04-.12-.06-.06-.02-.1-.04-.12-.05l-.04.11s.05.03.09.04Z"/>
            <path class="cls-1" d="M36.87,43.93c-.07-.03-.08-.05-.16-.07-.06-.01-.12-.03-.19-.04.06-.02-.1-.04-.14-.04-.1-.08-.25-.1-.38-.12-.01-.07-.27-.06-.31-.07-.04,0,.02-.03-.04-.05-.06-.02-.08.02-.13.01-.05,0,.05-.03.02-.03-.03,0-.16-.05-.18-.05-.02,0,.05.05.02.03-.03-.02-.11-.07-.15-.05-.04.02-.11-.07-.13-.04-.04.04-.05,0-.11-.02-.05-.01.01.06-.05.03-.07-.03-.17-.06-.26-.07h0c-.11,0-.15-.01-.26-.02-.07,0-.11-.03-.19-.03-.04,0-.02.02-.06.02h-.13s-.01-.06-.07-.06c-.05,0-.02.04-.08.04-.06,0,.02-.04-.04-.06-.06-.02-.21-.02-.24.04,0-.05-.06-.05-.11-.08,0,0,.02.07-.04.05-.03-.01-.14,0-.19,0-.05,0-.05-.03-.09-.03,0,.03-.05.04-.1.04-.05,0-.11,0-.15.02-.07-.03-.14,0-.21,0-.04,0-.07,0-.11,0-.04,0-.08,0-.11.02-.05,0-.09-.02-.14-.02-.06,0-.1,0-.13,0l.02.27s.06.02.1.02c-.01-.04.09-.09.12-.09.02,0-.08.08-.03.05.05-.02.07,0,.11-.01.04,0,.02-.07.07-.06.04.01-.06.09.02.08.08-.02,0-.04.06-.05.07,0,.04.07.15.04.04,0,.13,0,.17-.01.04,0,0-.04.03-.04.04,0,.12.02.16.02.04,0,.12.02.14.02.02,0,.04-.09.04-.1,0,.02.01.09.06.09.05,0,0-.06.03-.05.03,0,.06,0,.07.01.01,0-.03.06,0,.03.04-.03.07-.02.1-.01.06.02,0,.02,0,.04,0,.02.04.02.06.02.02,0,.1-.01.11-.01,0,0-.04-.03.02-.03.06,0,.1.02.14.04.04.01.07-.06.11-.06.04.05.17.05.24.07,0,0,.02-.06.04-.04.05.04.09.04.14.05,0,0,.02-.01.04-.02.08-.03,0,.01.07.02,0,0,0,.02.02.02.07.02.17-.03.23-.02.06.01.03.05.07.05.04,0,.05-.06.08-.03.03.03.13.03.18.03.05,0,0,.01.02,0,.02,0,.04.04.08.04.04,0,.02-.04.05-.03.03,0,.03.02.06.03.03,0,.05,0,.07,0,.02,0,0,.01,0,0,.13-.02.15.04.28.07-.03,0-.03.01,0,0,.03,0,.07-.05.11-.04.04,0,.02.04.03.04.01,0-.08-.03-.05,0,.03.02.11.06.18.05.04.01.05.02.09.03.05.02.05.02.1.04.03.01.09.01.12.03.04.02.06,0,.09,0,.03,0,.14.06.13.05,0-.01.02-.02.05.02.05,0,.09.04.13.04.05,0,0-.04.05-.03.02.03.05.06.1.09l.04-.11c-.1-.04-.03,0-.06,0Z"/>
            <path class="cls-1" d="M32.16,43.31c-.08,0-.1-.03-.18-.02-.06.01-.13.03-.19.06.04-.08-.11,0-.14.02-.13-.06-.27-.01-.4.04-.05-.12-.27.06-.31.07-.04.01,0-.06-.06-.06-.07,0-.07.07-.11.09-.05.02.03-.07,0-.06-.03,0-.17.02-.19.03-.02.01.07.05.04.04-.04,0-.14-.05-.16,0-.02.05-.13-.04-.14,0-.01.08-.05.02-.1.03-.05,0,.04.08-.03.08-.07,0-.19,0-.27.02h0c-.1.05-.14.05-.25.09-.07.03-.12.02-.19.05-.04.01,0,.04-.05.05l-.12.06s-.05-.07-.1-.05c-.05.02,0,.07-.05.1-.05.03,0-.06-.07-.06-.07,0-.2.07-.19.17-.04-.06-.08-.04-.15-.05-.01,0,.06.08,0,.08-.04,0-.12.07-.17.09-.05.02-.06-.01-.1,0,.01.05-.02.07-.07.09-.05.02-.1.04-.13.09-.08,0-.12.06-.19.1-.03.02-.07.02-.11.04-.04.02-.07.04-.09.08-.05.01-.09.03-.13.05-.06.03-.09.05-.12.07l.19.29s.06,0,.1-.02c-.04-.04.02-.15.04-.16.02-.01-.02.12.01.07.03-.05.06-.04.09-.06s-.03-.1.02-.1c.05,0,.01.14.07.08.06-.05-.03-.05.03-.09.06-.04.08.07.16-.01.03-.03.11-.06.14-.09.03-.03-.03-.04,0-.07.04-.03.12-.03.16-.04.04-.02.12-.03.14-.04.02-.02-.02-.13-.02-.15,0,.03.07.11.11.09.04-.02-.03-.07,0-.08.03,0,.06-.01.07-.01.02,0,0,.09.03.04.02-.05.06-.06.08-.06.07,0,0,.03.02.06.01.02.04,0,.06,0,.02,0,.08-.05.09-.06,0-.01-.05-.03,0-.05.06-.03.1-.01.15-.02.04,0,.03-.11.06-.13.07.05.18,0,.26,0,.01,0-.02-.09,0-.08.06.03.11.02.15,0,0-.02.01-.03.02-.04.06-.07,0,.02.08,0,0,.01.02.03.03.03.07,0,.14-.12.19-.13.06,0,.06.06.09.05.03,0,0-.12.06-.08.05.04.13-.02.17-.04.04-.03,0,.02.02,0,.02-.02.06.04.1.03.04-.02,0-.08.03-.08.03,0,.04.02.07,0,.03-.01.05-.02.06-.03.02-.01,0,.02.01.01.11-.09.16-.02.29-.03-.03,0-.02.04,0,.02.02-.02.04-.12.07-.13.04-.01.03.05.05.05.01,0-.09,0-.05.02.04.02.13.03.18-.02.04,0,.06,0,.1,0,.06,0,.06,0,.11.01.03,0,.09-.04.12-.03.05.01.05-.05.08-.05.03,0,.15.02.14,0,0-.02,0-.06.05.01.05-.03.1.02.14,0,.04-.03-.02-.08.03-.11.04.05.08.08.13.09l-.02-.27c-.1.01-.02.04-.05.04Z"/>
            <path class="cls-1" d="M27.62,44.75c-.07.04-.11.01-.17.07-.05.05-.09.1-.13.16-.02-.11-.11.05-.11.09-.16,0-.24.13-.32.25-.13-.09-.19.21-.21.25-.03.04-.04-.06-.1-.02-.06.04,0,.11-.03.15-.02.05-.03-.08-.05-.06-.02.02-.13.11-.14.14,0,.02.1,0,.06.02-.04.01-.15.04-.13.1.02.06-.15.04-.11.09.05.08-.03.05-.06.09-.04.04.1.05.03.09-.06.04-.16.11-.21.19h0c-.05.1-.07.14-.13.24-.04.07-.08.09-.11.16-.02.04.02.04,0,.07l-.05.13s-.09-.02-.11.03c-.02.05.06.05.04.11-.02.06-.05-.04-.1,0-.05.05-.09.2,0,.26-.08-.02-.1.03-.16.06,0,0,.12.02.07.07-.03.03-.03.14-.06.19-.02.05-.06.04-.07.08.05.02.04.07.02.12-.02.05-.03.11-.01.16-.06.07-.03.13-.05.21,0,.04-.02.07-.04.11-.01.04-.02.08,0,.12-.02.05-.04.09-.05.14-.01.07-.02.11-.02.14l.37.02s.04-.05.05-.09c-.06,0-.11-.11-.11-.13,0-.02.09.09.07.04-.02-.05,0-.07,0-.11,0-.04-.1-.04-.07-.08.03-.04.12.08.11,0,0-.08-.06,0-.06-.08,0-.07.11-.01.1-.13,0-.04.03-.12.02-.17,0-.04-.06,0-.05-.05,0-.04.07-.1.08-.14,0-.04.07-.11.07-.12,0-.02-.12-.08-.14-.09.03.01.14.03.16-.01.01-.05-.08-.03-.07-.06.01-.02.03-.05.04-.06.01-.01.08.06.05.01-.03-.05,0-.08.01-.1.05-.05.03.02.06.03.03,0,.04-.03.05-.04.01-.01.02-.1.01-.11,0-.01-.06.02-.04-.04.03-.06.07-.08.1-.11.03-.03-.06-.11-.06-.14.1,0,.14-.12.2-.16,0,0-.09-.06-.06-.07.07-.01.1-.05.13-.09,0-.02-.02-.03-.02-.05,0-.1.01.02.07-.05.02,0,.03.01.04,0,.06-.04,0-.19.05-.23.04-.04.09.01.11-.01.02-.03-.08-.11-.02-.11.07,0,.09-.09.11-.14.01-.05.02.01.02-.01,0-.03.08,0,.1-.03.02-.04-.06-.07-.04-.09.02-.02.05,0,.06-.03.01-.03.02-.05.03-.07,0-.02.02.01.02,0,.02-.15.12-.1.22-.19-.02.02.01.05.02.01,0-.04-.05-.14-.03-.17.02-.03.07.03.08.03.01,0-.08.03-.03.04.05,0,.13-.03.14-.12.03-.02.05-.04.08-.05.05-.02.05-.02.1-.04.03-.01.05-.08.08-.09.05,0,.01-.07.04-.09.02-.02.14-.05.12-.07-.02-.01-.03-.07.05-.01.02-.05.1-.02.12-.07.02-.05-.07-.08-.05-.14.06.04.12.05.18.05l-.19-.29c-.08.06.01.05-.02.07Z"/>
            <path class="cls-1" d="M25.17,48.79c0,.08-.06.1-.05.18,0,.07.03.13.05.2-.11-.05-.03.12,0,.15-.1.13-.04.27.01.41-.15.05.06.27.07.32,0,.05-.07,0-.08.07,0,.07.09.07.11.11.02.05-.08-.03-.08,0,0,.03,0,.17.02.19.01.02.07-.07.05-.04-.01.04-.06.14,0,.16.06.02-.06.14,0,.14.09,0,.02.05.03.1,0,.05.1-.04.09.03-.01.07-.02.19,0,.27h0c.04.1.05.14.08.25.02.07,0,.12.03.19.01.04.04.01.05.05l.05.12s-.08.04-.07.09c.02.05.08,0,.1.05.02.05-.07,0-.07.07,0,.06.05.2.15.2-.08.03-.06.08-.09.14,0,.01.1-.05.09.02,0,.03.05.13.06.18,0,.05-.03.06-.02.1.05,0,.06.04.08.08.01.05.02.1.06.14-.02.08.03.13.04.2,0,.03,0,.07,0,.11,0,.04.01.07.04.1,0,.05-.01.09,0,.14,0,.06,0,.1.01.13l.34-.05s.02-.06.02-.1c-.05.02-.12-.08-.13-.1,0-.02.11.07.07.02-.03-.05-.02-.07-.03-.11-.01-.04-.1,0-.09-.05.01-.05.13.04.1-.04-.03-.07-.05.02-.08-.05-.02-.07.1-.06.04-.16-.02-.04-.03-.13-.05-.17-.02-.04-.05.02-.07-.02-.02-.04,0-.13,0-.17-.01-.04,0-.13,0-.14-.01-.02-.14,0-.16,0,.03,0,.13-.05.12-.1-.01-.05-.08.02-.09-.01,0-.03,0-.06,0-.07,0-.02.1,0,.05-.02-.05-.02-.05-.06-.05-.09,0-.07.04,0,.06-.01.03,0,.01-.04.02-.07,0-.02-.04-.09-.06-.1-.01,0-.04.05-.05,0-.02-.06,0-.11,0-.15,0-.04-.11-.04-.14-.07.06-.07.02-.19.03-.26,0-.01-.11.02-.09-.01.04-.06.04-.11.03-.16-.02,0-.03-.01-.05-.02-.08-.06.02,0,.01-.08.02,0,.03-.02.03-.03.01-.08-.13-.14-.14-.2,0-.06.07-.06.06-.09,0-.04-.14,0-.09-.06.05-.05-.01-.13-.04-.17-.03-.04.02,0,0-.02-.02-.02.06-.06.04-.1-.02-.04-.1,0-.1-.03,0-.03.03-.04.02-.07-.01-.03-.02-.05-.04-.06-.01-.02.02,0,.02-.01-.11-.11-.01-.16-.02-.29,0,.03.05.02.02,0-.03-.02-.15-.04-.16-.07-.01-.04.07-.03.07-.05,0-.01-.02.09.01.05.03-.04.05-.13,0-.18,0-.04,0-.06,0-.1.01-.06.01-.06.03-.11.01-.03-.04-.09-.02-.12.02-.04-.06-.06-.06-.08,0-.03.05-.14.02-.14-.02,0-.08-.02.02-.05-.03-.05.04-.09.02-.13-.03-.04-.12,0-.15-.04.07-.03.12-.06.15-.12l-.37-.02c0,.11.05.03.05.06Z"/>
            <path class="cls-1" d="M26.05,53.47c0,.07-.04.1-.02.17.02.06.04.12.07.18-.1-.04-.01.11.02.14-.09.12-.03.26,0,.39-.14.03.03.26.02.31,0,.04-.06-.01-.08.05-.01.06.06.08.07.13,0,.05-.06-.05-.07-.02,0,.03-.03.15-.02.18,0,.02.07-.05.05-.02-.02.03-.09.1-.05.14.04.04-.09.1-.05.12.07.04,0,.05-.01.1-.02.05.1,0,.06.06-.03.06-.09.15-.11.23h0c0,.1-.03.14-.06.24-.02.07-.05.1-.08.16-.01.04.02.03,0,.07l-.04.12s-.08-.02-.1.02c-.02.04.05.05.02.1-.02.05-.04-.04-.08,0-.04.04-.11.15-.06.23-.06-.03-.08,0-.14.03,0,0,.09.04.03.07-.03.02-.07.11-.11.14-.04.03-.06.01-.09.04.02.03,0,.07-.04.1-.03.03-.08.07-.09.11-.07.02-.1.08-.15.13-.03.02-.06.04-.09.06-.03.02-.06.04-.08.08-.04.02-.08.04-.12.06-.05.03-.09.05-.11.07l.15.22s.06-.02.1-.03c-.03-.03.03-.13.05-.14.02-.02-.03.11,0,.06.03-.05.06-.04.09-.07.03-.03-.02-.08.02-.09.04-.01.01.11.06.06.05-.06-.03-.03.02-.08.05-.05.08.04.15-.05.03-.03.1-.09.13-.13.03-.04-.04-.03,0-.06.03-.03.11-.07.14-.1.03-.03.11-.08.12-.09.01-.02-.05-.1-.07-.11.02.02.1.06.13.02.03-.04-.05-.05-.03-.07.02-.02.04-.04.06-.05.01,0,.05.07.04.02,0-.05.02-.08.04-.09.05-.04.02.02.04.03.02.01.04-.02.06-.04.02-.01.05-.1.04-.11,0-.01-.06.02-.02-.04.03-.06.07-.08.11-.11.03-.03-.04-.1-.03-.14.08-.02.13-.14.18-.2,0,0-.08-.04-.05-.06.06-.03.08-.08.1-.12,0-.01-.02-.03-.02-.05-.03-.09.01.01.05-.07.01,0,.03,0,.04,0,.05-.07-.03-.19-.01-.24.02-.05.08-.03.09-.06,0-.04-.11-.06-.05-.09.06-.03.04-.13.03-.18,0-.05.02,0,.01-.02-.01-.02.07-.04.07-.08,0-.04-.08-.03-.07-.05,0-.03.04-.03.03-.06,0-.03,0-.05-.02-.07,0-.02.02,0,.02,0-.07-.13.02-.16.04-.3,0,.03.04.03.02,0-.02-.03-.12-.06-.13-.1,0-.04.06-.03.07-.04,0-.01-.03.08,0,.05.03-.03.06-.12,0-.19,0-.04,0-.06.01-.1.01-.06.01-.06.03-.11.01-.03-.03-.09-.02-.12.02-.05-.05-.06-.06-.08,0-.03.03-.15,0-.14-.02,0-.08,0,.02-.05-.04-.05.03-.1,0-.14-.03-.04-.11.03-.15-.02.06-.04.1-.09.12-.15l-.34.05c.02.1.05.01.06.05Z"/>
            <path class="cls-1" d="M24.55,57.51c-.06.04-.1.02-.16.07-.05.04-.09.09-.14.14,0-.09-.1.04-.12.08-.14,0-.24.1-.35.19-.08-.07-.22.15-.26.17-.04.02-.01-.05-.07-.02-.06.02-.04.08-.08.11-.04.03.01-.06-.01-.05-.03.01-.15.07-.16.08-.02.02.07.01.04.02-.03,0-.13,0-.14.05-.01.04-.13,0-.13.05,0,.06-.04.03-.09.05-.05.02.05.05-.02.06-.07.02-.17.05-.25.08h0c-.09.06-.13.07-.23.12-.07.03-.11.04-.17.07-.04.02-.01.03-.05.04l-.12.06s-.03-.04-.08-.01c-.05.02,0,.04-.06.07-.05.02,0-.03-.06-.02-.06.01-.19.08-.2.13-.02-.03-.07-.01-.12,0,0,0,.04.04-.02.05-.03,0-.13.06-.17.07-.05.02-.05,0-.09.01,0,.02-.04.04-.09.06-.05.02-.1.03-.14.06-.07.01-.13.05-.19.07-.03,0-.07.02-.11.03-.04.01-.07.02-.1.04-.05.01-.09.02-.13.03-.06.02-.1.03-.13.04l.03.11s.06,0,.1-.01c-.02-.01.09-.06.11-.07.02,0-.07.06-.02.03.05-.02.07-.02.1-.03.04-.01.01-.04.06-.05.04,0-.04.06.03.03.07-.03-.01-.02.06-.04.07-.02.05.03.15-.02.04-.02.12-.04.17-.06.04-.02-.01-.02.03-.04.04-.02.12-.02.16-.04.04-.01.12-.03.14-.04.02-.01.02-.07.02-.08,0,.01.04.05.08.04.05-.02,0-.04.02-.05.03,0,.06-.01.07-.02.02,0-.01.05.02.02.03-.03.06-.04.09-.04.06-.01,0,.02,0,.03,0,.01.04,0,.06,0,.02,0,.09-.04.1-.05,0,0-.05,0,.01-.03.06-.02.1-.03.15-.03.04,0,.05-.07.08-.09.06.02.17-.03.25-.05.01,0-.01-.06.01-.05.06,0,.1,0,.15-.03,0-.01.01-.02.02-.04.06-.06,0,.01.08-.02,0,0,.02.01.03.01.07-.01.13-.12.18-.14.05-.02.06.02.09,0,.03-.02,0-.09.05-.07.05.01.12-.05.16-.08.04-.03,0,.01.02,0,.01-.02.06.02.1,0,.03-.02-.01-.06.01-.07.03,0,.04,0,.06-.01.02-.02.04-.03.06-.05.01-.01,0,.01.01,0,.08-.11.15-.06.27-.12-.03.01,0,.04,0,.01.02-.03,0-.11.04-.13.03-.02.05.03.06.03.01,0-.08.02-.04.03.04,0,.13-.02.17-.08.03-.01.05-.03.09-.04.06-.02.05-.02.11-.03.03,0,.07-.07.1-.07.05,0,.03-.06.06-.07.02-.01.14-.05.13-.06-.01-.01-.02-.06.05-.01.03-.04.1-.03.12-.07.03-.04-.06-.06-.03-.11.05.02.11.03.17.02l-.15-.22c-.08.06,0,.04-.02.06Z"/>
            <path class="cls-1" d="M18.14,60.06s.01,0,.02,0c0,0,.02,0,.02,0,.06,0,.11-.02.14-.02.02,0,.06,0,.08,0,.04,0,.04-.01.08-.01.04,0,.13-.02.18-.03.05,0,0,0,.02,0,.02,0,.05,0,.09,0,.04,0,.01-.01.04-.02.03,0,.03,0,.06,0,.03,0,.05-.01.07-.02.02,0,0,0,0,0,.12-.04.16-.03.29-.05-.03,0-.02.01,0,0,.03,0,.05-.03.09-.04.04,0,.03,0,.04,0,.01,0-.08.01-.05.01.03,0,.12-.01.18-.04.04,0,.05,0,.1-.02.05,0,.05,0,.11-.01.03,0,.09-.03.12-.03.05,0,.06-.03.08-.03.03,0,.15-.02.14-.03,0,0,0-.03.05,0,.05-.02.09-.01.13-.03.04-.02-.02-.03.03-.05.04.01.08.01.13.01l-.03-.11c-.1.03-.02.02-.05.03-.07.02-.1.01-.17.04-.06.02-.12.04-.18.07.04-.04-.11.02-.14.04-.12,0-.25.05-.39.1-.04-.02-.26.07-.31.08-.04.01,0-.01-.05,0-.06.01-.07.03-.12.04-.05.01.04-.02.01-.01-.03,0-.15.03-.18.04-.02,0,.06,0,.03,0-.03,0-.12.02-.15.03-.03.01-.12.02-.13.03-.03.01-.05.01-.1.02-.04,0-.05,0-.11.02-.08.01-.04,0-.12.02,0,0-.05,0-.06.01-.02,0-.03,0-.06.01,0,0-.01,0-.02,0,0,0,0,0,0,0,.03,0,.06,0,.08-.01Z"/>
          </g>
          <path class="cls-5" d="M7.5,53.1l14.38-8.3c.11-.07.27-.02.34.09l2.73,4.73c.07.11.03.26-.09.33l-10.77,6.23-2.7,1.55-.91.53c-.9.51-2.05.2-2.57-.69l-1.09-1.89c-.52-.9-.21-2.05.69-2.57Z"/>
          <polygon class="cls-3" points="24.87 49.96 27.86 44.78 21.88 44.78 24.87 49.96"/>
          <polygon class="cls-1" points="27.31 45.74 27.86 44.78 26.75 44.78 27.31 45.74"/>
          <polygon class="cls-3" points="8.42 52.57 11.11 51.02 14.09 56.17 11.38 57.72 8.42 52.57"/>
          <rect class="cls-6" x="11.83" y="50.46" width="12.45" height=".28" transform="translate(-22.89 15.82) rotate(-30.02)"/>
        </g>
        <g>
          <path class="cls-5" d="M72.01,31.63l-8.02,8.02c-.19-.62-.51-1.2-1.05-1.72-.44-.43-1.06-.77-1.75-.97l8.08-8.08c.58-.58,1.54-.58,2.14,0l.61.61c.58.6.58,1.55,0,2.14Z"/>
          <path class="cls-1" d="M61.93,45.05c-1.87,1.48-4.14,1.68-6.29,1.61-.26-.01-.41-.3-.26-.51.25-.36.3-.83.21-1.66-.18-3.19-.35-4.82,1.4-6.56,1.16-1.16,2.82-1.34,4.19-.97.69.2,1.31.54,1.75.97.54.51.87,1.1,1.05,1.72.54,1.92-.47,4.15-2.06,5.4Z"/>
          <path class="cls-3" d="M65.65,38c-.56-.58-1.12-1.1-1.66-1.61-.41-.38-.8-.75-1.14-1.09l.39-.39c.34.34.72.7,1.13,1.08.55.51,1.11,1.04,1.68,1.63l-.4.39Z"/>
        </g>
        <g>
          <path class="cls-1" d="M55.95,52.24c.47.55.59.75,2.86.91s4.56.5,4.55,1.69c-.01,1.19-.4,1.69-1.31,2.01s-1.38.28-2.71.16-2.02-.27-2.24.84.72,1.57,1.38,1.78,4.37.64,4.65,2.01c.11.59-.59,1.46-1.53,1.66s-2.06-.08-2.63-.98-1.85-2.29-2.11-2.17,1.01,2.12,1.31,3.21.17,2.14-.6,2.57-1.49.15-2.13-1.07-1.19-1.73-1.49-1.68-.56.51-.66,1.15-.48.68-.71.51-1.52-1.18-1.68-1.13-.35.54-.24,1.15.68,2-.23,2.98-2.84,1.94-3.96,1.17-1.25-2.28-.19-3.58,1.88-1.8,2.13-3.07c.11-.23-.58-.7-2.4-.62s-3.33.54-3.28.27.82-1.02,1.34-1.56.68-1.62-.43-1.9-2.4-.46-4.6-.76-2.91-.98-2.25-2.21,2.06-1.9,3.04-1.64,2.44,1.31,3.1,1.22,1.17-.8,1.22-1.1-.8-1.7-1.11-2.96-.01-1.93.13-1.97,1.01-.28,2.28,1.19c1.23,1.18,2.09,1.07,2.48.74s2.08-2.36,3.06-2.32.93.95,1.11.95.79-.54,1.57-1.11,1.43-.16,1.57-.07.63.48.48,1.68-.11,1.66.21,2.04Z"/>
          <path class="cls-1" d="M43.64,64.55c.16-.54-2.17-1.45-3.8-.54s-1.87,2.41-1.57,2.82,1.71,1.27,3.48.14,1.79-2.07,1.89-2.41Z"/>
          <path class="cls-1" d="M36.22,46.06c.81-.2,2.4,1.28,3.64,2.93.06.06-1.8-.1-2.49-.23s-2.32-.66-2.32-1.23.44-1.29,1.17-1.47Z"/>
          <path class="cls-1" d="M62.17,59c-.1-.49,1.59-1.21,2.72-.93s1.85,1.6,1.67,1.84-1.17.62-2.33.27-2.02-1.04-2.05-1.19Z"/>
          <path class="cls-1" d="M60.88,65.24c.17-.02,2.78.41,3.51,1.04s.92,1.8.46,2.52-.68.99-1.2.79-1.22-.98-1.63-1.83-1.27-2.51-1.15-2.52Z"/>
          <path class="cls-1" d="M53.56,67.39c.12-.56,1.11-.82,1.66-.45s.45,1.01.31,1.28-.73.5-1.34.18-.66-.86-.63-1.01Z"/>
          <path class="cls-1" d="M47.66,45.07c.05-.23-.67-.52-.93-.22s-.66,1.75.46,2.04c.1-.3-.15-.56.06-.98s.32-.46.4-.84Z"/>
          <path class="cls-3" d="M43.89,61.46c.34-.25.99-.63,2.51-.64s2.43.71,2.51,1.27c-2.16-1.13-5.01-.63-5.01-.63Z"/>
          <path class="cls-3" d="M38.74,66.62s.99.3,2.07,0,1.61-1.01,1.61-1.01c-.15.3-.49,1.02-1.51,1.29s-2.02-.2-2.17-.28Z"/>
          <path class="cls-3" d="M53.82,67.5s.43,1.06,1.5.53c-1.13.57-1.49-.33-1.5-.53Z"/>
          <path class="cls-3" d="M46.15,67.66c.25.28.71,1.09,2.32.65s1.81-1.62,1.85-1.92c-.09,1.07-.07,1.9-2.08,2.36-1.39.25-2.08-1.09-2.08-1.09Z"/>
          <path class="cls-3" d="M35.48,47.2c-.15-.24,1.13,1.13,3.41,1.29-2.17-.02-3.08-.75-3.41-1.29Z"/>
          <path class="cls-3" d="M62.38,67.22s.82,1.69,1.44,1.7.75-.97.73-1.05c.08.5-.16,1.24-.7,1.3s-1.36-1.51-1.47-1.96Z"/>
          <path class="cls-3" d="M66.08,59.71c-.09.09-.26.32-1.15.25s-1.84-.78-1.84-.78c.8.36,1.25.64,1.86.72s1.13-.19,1.13-.19Z"/>
          <path class="cls-3" d="M57.69,64.65s.1,1.01-.79.97-1.35-1.37-1.92-2.22-1.2-.74-1.42-.58-.57,1.59-.78,1.61-1.35-1.29-2.02-1.05-.48.95-.48.95c-.17-.57-.1-1.2.48-1.27s1.77,1.03,1.97,1.04.13-1.7,1.22-1.7,1.3.87,1.37,1.02.85,2.02,1.59,2.01.78-.76.78-.76Z"/>
          <path class="cls-3" d="M62.55,61.76s.1.53-.35.8-1.35.54-2.04.24-1.78-2.24-2.46-2.68-.92-.34-1.21-.21c.8-.25,1.03-.06,1.31.17s1.86,2.39,2.43,2.57,1.94.22,2.33-.9Z"/>
          <path class="cls-3" d="M37.21,56.49s.91.79,3.15,1.05,3.34.44,4.01.99c-1.57-.97-3.04-1.17-3.89-1.18s-2.59-.39-3.27-.86Z"/>
          <path class="cls-3" d="M56.68,57.36s.21-.62.94-.78,1.57.08,3.07,0,2.19-.38,2.06-1.47c-.74,1.09-.82,1.23-2.29,1.13s-2.17-.36-2.99,0-.79,1.13-.79,1.13Z"/>
        </g>
        <g>
          <path class="cls-1" d="M33.83,29.07l-1.97-1.2,1.2-1.97,1.97,1.2-1.2,1.97ZM32.43,27.72l1.26.77.77-1.26-1.26-.77-.77,1.26Z"/>
          <path class="cls-1" d="M37.81,37.51l-1.97-1.2,1.2-1.97,1.97,1.2-1.2,1.97ZM36.42,36.17l1.26.77.77-1.26-1.26-.77-.77,1.26Z"/>
          <rect class="cls-1" x="20.47" y="26.28" width="1.89" height="1.89" transform="translate(17.37 -7.18) rotate(31.49)"/>
          <rect class="cls-1" x="26.91" y="22.41" width=".42" height="10.29" transform="translate(-1.99 52.99) rotate(-86.61)"/>
          <rect class="cls-1" x="35.48" y="27.68" width=".42" height="7.25" transform="translate(-9.48 16.68) rotate(-23.32)"/>
          <path class="cls-1" d="M9.2,17.08c-.8,0-1.56-.39-2.03-1.04l-.59-.83,8.18-5.85.55.77c.49.69.6,1.56.3,2.35l-.05.13c-.18.46-.48.85-.88,1.13l-4.03,2.88c-.41.29-.9.46-1.4.47-.02,0-.03,0-.05,0ZM7.35,15.33l.27.38c.37.52.96.83,1.61.81.39,0,.77-.13,1.09-.36l4.03-2.88c.31-.22.54-.52.68-.88l.05-.13c.24-.61.15-1.29-.23-1.83l-.23-.32-7.28,5.21Z"/>
          <g>
            <path class="cls-1" d="M21.1,26.79l-.02-10.38s-.01-.04-.03-.05l-6.27-3.05-4.12,2.94.43,7.33,9.95,3.26s.07-.01.07-.05ZM14.47,17.73c.97-.69,2.32-.48,3.01.49s.47,2.33-.5,3.02-2.31.47-3.01-.51-.47-2.31.5-3.01Z"/>
            <path class="cls-1" d="M21.13,27.14l-.18-.04-10.13-3.31-.45-7.67,4.37-3.13,6.42,3.12c.11.05.19.17.19.3l.02,10.52-.25.21ZM11.35,23.38l9.47,3.1-.02-9.93-6-2.92-3.86,2.76.41,6.98ZM15.74,21.92c-.14,0-.27-.01-.41-.03-.64-.11-1.2-.46-1.58-.99-.78-1.09-.53-2.61.56-3.39h0c.53-.38,1.17-.53,1.82-.42.64.1,1.21.45,1.59.98.38.53.53,1.18.42,1.82-.11.64-.46,1.21-.99,1.58-.42.3-.9.45-1.41.45ZM14.63,17.96h0c-.84.6-1.04,1.78-.43,2.62.29.41.73.68,1.23.77.49.08.99-.03,1.4-.32.41-.29.68-.73.76-1.22.08-.5-.03-1-.33-1.41-.29-.41-.73-.68-1.22-.76-.5-.08-1,.04-1.4.33Z"/>
          </g>
          <path class="cls-5" d="M16.81,20.88c1.83,1.9,3.35,4.02,4.55,6.37-1.83-1.9-3.35-4.02-4.55-6.37h0Z"/>
        </g>
      </g>
    </g>
  </g>
</svg>