<svg width="10" height="15" viewBox="0 0 10 15" fill="none" xmlns="http://www.w3.org/2000/svg">
<path d="M2.14286 15C0.959464 15 0 14.0405 0 12.8571C0 11.6737 0.959464 10.7143 2.14286 10.7143H3.67339C4.01143 10.7143 4.28571 10.9886 4.28571 11.3266V12.8571C4.28571 14.0405 3.32625 15 2.14286 15ZM7.5 4.28571H5.96946C5.63143 4.28571 5.35714 4.01143 5.35714 3.67339V0.612321C5.35714 0.274286 5.63143 0 5.96946 0H7.5C8.68339 0 9.64286 0.959464 9.64286 2.14286C9.64286 3.32625 8.68339 4.28571 7.5 4.28571ZM2.14286 0H3.67339C4.01143 0 4.28571 0.274286 4.28571 0.612321V3.67339C4.28571 4.01143 4.01143 4.28571 3.67339 4.28571H2.14286C0.959464 4.28571 0 3.32625 0 2.14286C0 0.959464 0.959464 0 2.14286 0ZM2.14286 5.35714H3.67339C4.01143 5.35714 4.28571 5.63143 4.28571 5.96946V9.03054C4.28571 9.36857 4.01143 9.64286 3.67339 9.64286H2.14286C0.959464 9.64286 0 8.68339 0 7.5C0 6.31661 0.959464 5.35714 2.14286 5.35714ZM7.5 5.35714C6.93168 5.35714 6.38664 5.58291 5.98477 5.98477C5.58291 6.38663 5.35714 6.93168 5.35714 7.5C5.35714 8.06832 5.58291 8.61336 5.98477 9.01523C6.38664 9.41709 6.93168 9.64286 7.5 9.64286C8.06832 9.64286 8.61337 9.41709 9.01523 9.01523C9.41709 8.61336 9.64286 8.06832 9.64286 7.5C9.64286 6.93168 9.41709 6.38663 9.01523 5.98477C8.61337 5.58291 8.06832 5.35714 7.5 5.35714Z" fill="#E34234"/>
</svg>
