<?xml version="1.0" encoding="UTF-8"?>
<svg id="Calque_2" data-name="Calque 2" xmlns="http://www.w3.org/2000/svg" viewBox="0 0 197.5 222.6">
  <defs>
    <style>
      .cls-1 {
        fill: #d7a87f;
      }

      .cls-2 {
        fill: #fff;
      }

      .cls-3 {
        fill: #85b9e1;
      }

      .cls-4 {
        fill: #c7d7f1;
      }
    </style>
  </defs>
  <g id="Logo">
    <g>
      <g>
        <path class="cls-3" d="M174,160.27c-16.15,22.79-42.74,37.66-72.79,37.66-44.09,0-80.7-31.99-87.92-74.01.56.06,1.13.08,1.71.08,5.85,0,11.11-2.51,14.76-6.51,3.26-3.56,5.24-8.29,5.24-13.49,0-5.77-2.44-10.97-6.35-14.61-3.47-3.24-8.09-5.27-13.18-5.38,6.95-24.16,23.83-44.11,45.95-55.15-11.89,15.02-18.98,34.02-18.98,54.67,0,48.69,39.47,88.16,88.15,88.16,15.79,0,30.6-4.14,43.41-11.42Z"/>
        <path class="cls-2" d="M116.5,187c-43.08,0-78.95-28.54-87.23-69.41l.98-.2c8.18,40.4,43.65,68.61,86.25,68.61,17.15,0,36.92-8.84,55.67-24.88l.65.76c-18.93,16.2-38.94,25.12-56.33,25.12Z"/>
        <path class="cls-2" d="M29.15,89.45l-.99-.12c2.84-22.84,14.81-45.35,32.02-60.21l.65.76c-17.02,14.7-28.87,36.97-31.68,59.57Z"/>
        <path class="cls-3" d="M77.5,20.74c3.87-1.55,7.88-2.83,12-3.82v2.14c-4.11.78-8.12,1.85-12,3.19v-1.51Z"/>
        <path class="cls-3" d="M187.18,143.25c-1.91,3.58-4.06,7-6.44,10.25l-1.24-1.02c2.21-3.4,4.18-6.97,5.9-10.68l1.78,1.45Z"/>
        <path class="cls-3" d="M197.5,102c0,13.46-3.04,26.21-8.47,37.6l-1.97-1.61c4.15-10.17,6.44-21.31,6.44-32.99,0-48.32-39.18-87.5-87.5-87.5-4.24,0-8.42.3-12.5.89v-2.33c5.34-1.02,10.86-1.56,16.5-1.56,48.32,0,87.5,39.18,87.5,87.5Z"/>
        <path class="cls-4" d="M30,104c0,2.25-.49,4.38-1.38,6.29-2.38,5.14-7.59,8.71-13.62,8.71-.83,0-1.64-.07-2.43-.2-7.13-1.16-12.57-7.35-12.57-14.8,0-8.01,6.29-14.56,14.19-14.98.27,0,.54-.02.81-.02,5.6,0,10.49,3.08,13.07,7.64,1.23,2.17,1.93,4.68,1.93,7.36Z"/>
      </g>
      <g>
        <g>
          <path class="cls-2" d="M101.88,69.32c3.51-5.84,17.01-1.89,24.56-13.23,7.56-11.34,15.24-7.56,16.12,0,.88,7.56,1.83,68.97,3.72,80.3,2.05,12.32,6.34,20.18,15.29,18.72,5.12-.84,9.28,2.5,9.28,7.69v53.13c0,7.38-10.17,7.74-10.75,0-.58-7.74,1.31-47.42-8.14-47.42s-3.78,28.34-15.12,28.34-1.89-17.01-11.34-17.01-1.89,39.68-13.23,39.68-5.67-35.9-5.67-43.46-7.56-11.34-11.34-3.78-5.67,13.23-11.34,11.34c-5.67-1.89,0-11.34-1.89-15.12-1.89-3.78-5.19-10.21-.71-13.61,4.49-3.4,17.71,2.27,21.49-1.51,3.78-3.78,3.78-5.67,3.78-11.34s-1.89-26.45-1.89-26.45c-3.78,0-11.34,1.89-13.23-5.67-2.29-9.17,7.76-11.74,9.45-15.12,1.89-3.78-1.89-20.78.94-25.51Z"/>
          <path class="cls-1" d="M165.6,222.6c-2.94,0-6.16-2.03-6.5-6.59-.11-1.5-.13-4.12-.16-7.44-.1-11.69-.32-39.05-6.98-39.05-3.66,0-4.65,6.01-5.7,12.37-1.24,7.49-2.64,15.98-9.41,15.98s-7.17-5.56-7.41-10.03c-.24-4.45-.54-6.97-3.93-6.97-3.58,0-4.23,9.33-4.81,17.55-.77,10.88-1.56,22.12-8.42,22.12-1.66,0-3.1-.64-4.26-1.91-5.35-5.82-3.79-24.49-2.86-35.65.26-3.07.46-5.49.46-6.89,0-3.82-2.1-6.31-4.17-6.8-2.01-.47-3.93.79-5.27,3.47-.44.87-.84,1.71-1.24,2.53-3.05,6.29-5.46,11.27-11.31,9.31-4.25-1.42-3.39-6.13-2.69-9.91.41-2.22.82-4.51.23-5.7l-.08-.15c-1.9-3.79-5.43-10.85-.34-14.7,2.52-1.91,7.08-1.37,11.5-.83,4.09.49,8.31,1,9.89-.58,3.49-3.49,3.49-5,3.49-10.63,0-4.87-1.43-21.31-1.8-25.42-.31.02-.64.04-.99.06-3.93.26-10.49.7-12.3-6.52-1.75-7,3.02-10.5,6.5-13.06,1.34-.99,2.61-1.92,3.02-2.74.73-1.46.42-5.99.12-10.36-.42-6.08-.85-12.36.86-15.21h0c1.69-2.82,5.16-3.6,9.16-4.5,5.28-1.18,11.26-2.53,15.42-8.77,3.77-5.65,8.17-8.35,12.05-7.42,3.16.76,5.42,3.77,5.9,7.86.35,3.02.71,14.47,1.13,27.72.64,20.37,1.44,45.73,2.58,52.53,2.24,13.42,6.72,19.11,14.14,17.9,2.84-.46,5.49.21,7.46,1.89,1.92,1.63,2.97,4.04,2.97,6.79v53.13c0,4.42-3.12,6.56-6.01,6.66-.08,0-.16,0-.24,0ZM151.95,167.52c7.98,0,8.81,20.27,8.98,41.03.03,3.28.05,5.87.16,7.31.25,3.39,2.53,4.83,4.67,4.74,2.03-.08,4.09-1.55,4.09-4.67v-53.13c0-2.15-.81-4.02-2.27-5.26-1.52-1.29-3.6-1.81-5.85-1.44-8.63,1.41-14.01-4.99-16.43-19.54-1.16-6.94-1.96-32.37-2.6-52.8-.42-13.21-.78-24.62-1.12-27.55-.38-3.23-2.05-5.59-4.38-6.15-3.03-.73-6.64,1.67-9.92,6.58-4.61,6.91-11.28,8.41-16.65,9.61-3.71.83-6.63,1.49-7.89,3.58-1.39,2.32-.96,8.55-.58,14.05.35,5.07.65,9.44-.33,11.39-.63,1.25-2.02,2.28-3.63,3.46-3.36,2.47-7.17,5.27-5.74,10.96,1.4,5.59,6.29,5.26,10.22,5.01.73-.05,1.42-.09,2.03-.09.52,0,.95.39,1,.91.08.85,1.89,20.89,1.89,26.54s0,7.97-4.07,12.04c-2.27,2.27-6.77,1.73-11.54,1.15-4.02-.48-8.17-.98-10.05.44-3.47,2.63-1.45,7.47.92,12.21l.08.15c.9,1.79.44,4.3-.05,6.96-.77,4.22-1.07,6.85,1.36,7.66,4,1.33,5.7-1.75,8.88-8.29.4-.82.81-1.67,1.25-2.55,1.76-3.53,4.58-5.22,7.52-4.52,3.36.79,5.71,4.39,5.71,8.75,0,1.48-.21,3.94-.46,7.06-.84,10.12-2.42,28.96,2.34,34.13.78.85,1.7,1.27,2.79,1.27,4.99,0,5.75-10.77,6.42-20.26.7-9.98,1.37-19.41,6.81-19.41s5.72,4.92,5.93,8.87c.27,5.04.67,8.14,5.41,8.14,5.08,0,6.28-7.27,7.44-14.3,1.14-6.9,2.32-14.04,7.68-14.04Z"/>
        </g>
        <path class="cls-1" d="M119.83,63.16c-.55,0-1-.45-1-1v-18.34c0-.55.45-1,1-1s1,.45,1,1v18.34c0,.55-.45,1-1,1Z"/>
        <g>
          <path class="cls-2" d="M120.93,1.4c4.07,5.05,19.99,27.22-.64,42.08-.27.19-.65.19-.91-.02-21.01-16.16-6.4-33.95-.14-42.05.43-.55,1.26-.56,1.69-.02Z"/>
          <path class="cls-1" d="M119.85,44.63c-.38,0-.76-.12-1.08-.36-6.6-5.08-10.36-10.82-11.16-17.06-1.37-10.64,5.98-20.12,10.37-25.79l.47-.61c.39-.51.99-.8,1.63-.81h.02c.63,0,1.22.28,1.62.78h0c2.69,3.34,11.35,15.19,9.72,27.26-.86,6.36-4.41,11.83-10.55,16.26-.3.22-.67.33-1.03.33ZM120.09,2h0l-.54.64c-4.2,5.42-11.23,14.49-9.96,24.31.73,5.65,4.18,10.9,10.26,15.62,5.59-4.07,8.82-9.05,9.6-14.8,1.53-11.29-6.73-22.56-9.29-25.74h0s-.02-.03-.06-.03Z"/>
        </g>
      </g>
      <path class="cls-1" d="M164.95,70.24l3.31,2.01-3.31,2.01c-.93.56-1.7,1.34-2.27,2.27l-2.01,3.31-2.01-3.31c-.56-.93-1.34-1.7-2.27-2.27l-3.31-2.01,3.31-2.01c.93-.56,1.7-1.34,2.27-2.27l2.01-3.31,2.01,3.31c.56.93,1.34,1.7,2.27,2.27Z"/>
      <path class="cls-1" d="M92.37,47.5l3.31,2.01-3.31,2.01c-.93.56-1.7,1.34-2.27,2.27l-2.01,3.31-2.01-3.31c-.56-.93-1.34-1.7-2.27-2.27l-3.31-2.01,3.31-2.01c.93-.56,1.7-1.34,2.27-2.27l2.01-3.31,2.01,3.31c.56.93,1.34,1.7,2.27,2.27Z"/>
    </g>
  </g>
</svg>