<svg width="20" height="16" viewBox="0 0 20 16" fill="none" xmlns="http://www.w3.org/2000/svg">
<path d="M10.3961 0.00791199C10.3181 0.000986992 10.2389 0.00107449 10.1594 0.00947449C9.84057 0.0442745 9.5547 0.201281 9.3539 0.450881C8.93911 0.966481 9.0215 1.72358 9.5375 2.13838L10.8578 3.2001H4.06719C3.40559 3.2001 2.86719 3.7385 2.86719 4.4001C2.86719 5.0617 3.40559 5.6001 4.06719 5.6001H7.0414L1.34531 10.204C1.08651 10.4132 0.925042 10.7107 0.889842 11.0415C0.855042 11.3723 0.950173 11.6975 1.15937 11.9563C1.36857 12.2151 1.66607 12.3766 1.99687 12.4118C2.32767 12.4466 2.65292 12.3515 2.91172 12.1423L5.68203 9.90322C5.91363 13.0796 8.86839 15.6001 12.4672 15.6001C16.2168 15.6001 19.2672 12.8637 19.2672 9.5001C19.2672 7.4217 18.1035 5.50864 16.1523 4.37744L11.0414 0.268068C10.8539 0.117468 10.6302 0.028687 10.3961 0.00791199ZM12.4672 6.0001C14.452 6.0001 16.0672 7.3457 16.0672 9.0001C16.0672 10.6545 14.452 12.0001 12.4672 12.0001C10.4824 12.0001 8.86719 10.6545 8.86719 9.0001C8.86719 7.3457 10.4824 6.0001 12.4672 6.0001ZM12.4672 6.8001C11.8307 6.8001 11.2202 7.01081 10.7701 7.38589C10.32 7.76096 10.0672 8.26967 10.0672 8.8001C10.0672 9.33053 10.32 9.83924 10.7701 10.2143C11.2202 10.5894 11.8307 10.8001 12.4672 10.8001C13.1037 10.8001 13.7142 10.5894 14.1642 10.2143C14.6143 9.83924 14.8672 9.33053 14.8672 8.8001C14.8672 8.26967 14.6143 7.76096 14.1642 7.38589C13.7142 7.01081 13.1037 6.8001 12.4672 6.8001Z" fill="#E34234"/>
</svg>
