<svg width="35" height="28" viewBox="0 0 35 28" fill="none" xmlns="http://www.w3.org/2000/svg">
<path d="M31.1908 0.295898H3.99082C2.12082 0.295898 0.59082 1.81465 0.59082 3.6709V23.9209C0.59082 25.7771 2.12082 27.2959 3.99082 27.2959H31.1908C33.0608 27.2959 34.5908 25.7771 34.5908 23.9209V3.6709C34.5908 1.81465 33.0608 0.295898 31.1908 0.295898ZM30.5108 7.46777L19.3928 14.3696C18.2878 15.0615 16.8938 15.0615 15.7888 14.3696L4.67082 7.46777C4.50036 7.37279 4.35108 7.24445 4.23203 7.09054C4.11298 6.93663 4.02663 6.76034 3.9782 6.57234C3.92977 6.38434 3.92028 6.18854 3.95029 5.99679C3.9803 5.80504 4.04919 5.62133 4.1528 5.45678C4.25641 5.29223 4.39257 5.15026 4.55305 5.03945C4.71354 4.92865 4.895 4.85132 5.08646 4.81215C5.27792 4.77298 5.4754 4.77278 5.66694 4.81156C5.85849 4.85034 6.04011 4.9273 6.20082 5.03777L17.5908 12.1084L28.9808 5.03777C29.1415 4.9273 29.3232 4.85034 29.5147 4.81156C29.7062 4.77278 29.9037 4.77298 30.0952 4.81215C30.2866 4.85132 30.4681 4.92865 30.6286 5.03945C30.7891 5.15026 30.9252 5.29223 31.0288 5.45678C31.1325 5.62133 31.2013 5.80504 31.2314 5.99679C31.2614 6.18854 31.2519 6.38434 31.2034 6.57234C31.155 6.76034 31.0687 6.93663 30.9496 7.09054C30.8306 7.24445 30.6813 7.37279 30.5108 7.46777Z" fill="#FBFBFA"/>
</svg>
