<svg width="19" height="20" viewBox="0 0 19 20" fill="none" xmlns="http://www.w3.org/2000/svg">
<path d="M9.33281 0.799805C4.25961 0.799805 0.132812 4.927 0.132812 9.9998C0.132812 15.0726 4.25961 19.1998 9.33281 19.1998C14.406 19.1998 18.5328 15.0726 18.5328 9.9998C18.5328 4.927 14.406 0.799805 9.33281 0.799805ZM9.33281 2.7998C11.0368 2.7998 12.5992 3.3938 13.8316 4.3818C13.4492 4.6362 13.2128 5.0778 13.2128 5.5598C13.2128 6.1998 13.5728 6.7598 13.9728 7.3998C14.2928 7.9198 14.6128 8.5998 14.6128 9.5598C14.6128 10.2398 14.4128 11.0798 14.0128 12.1198L13.2128 14.7598L10.3728 6.2798C10.8528 6.2398 11.2928 6.1998 11.2928 6.1998C11.6928 6.1598 11.6528 5.5598 11.2528 5.5598C11.2528 5.5598 11.2528 5.5598 11.2128 5.5598C11.2128 5.5598 9.93281 5.6798 9.09281 5.6798C8.33281 5.6798 7.01281 5.5598 7.01281 5.5598C7.01281 5.5598 7.01281 5.5598 6.97281 5.5598C6.57281 5.5598 6.53281 6.1998 6.93281 6.1998C6.93281 6.1998 7.33281 6.2398 7.77281 6.2798L9.01281 9.6398L7.29281 14.7998L4.41281 6.2398C4.89281 6.1998 5.33281 6.1598 5.33281 6.1598C5.73281 6.1198 5.69281 5.5198 5.29281 5.5198C5.29281 5.5198 5.29281 5.5198 5.25281 5.5198C5.25281 5.5198 4.39201 5.60061 3.61881 5.62941C4.93401 3.9118 7.00001 2.7998 9.33281 2.7998ZM2.13281 9.9998C2.13281 9.27981 2.24121 8.5858 2.43761 7.9302L5.40721 16.0326C3.43721 14.7482 2.13281 12.529 2.13281 9.9998ZM7.20401 16.8798L9.33281 10.6398L11.6068 16.8282C10.8916 17.0658 10.1284 17.1998 9.33281 17.1998C8.59161 17.1998 7.87681 17.0874 7.20401 16.8798ZM13.4544 15.8998L15.5728 9.7598C15.8872 8.9598 16.0568 8.26301 16.1288 7.63821C16.386 8.3786 16.5328 9.17101 16.5328 9.9998C16.5328 12.4442 15.3144 14.5986 13.4544 15.8998Z" fill="#E34234"/>
</svg>
