<svg width="15" height="16" viewBox="0 0 15 16" fill="none" xmlns="http://www.w3.org/2000/svg">
<path d="M14.1189 0.222C13.9923 0.0806666 13.8116 0 13.6223 0H0.71159C0.522256 0 0.34159 0.0806666 0.214923 0.222C0.0882563 0.363333 0.0282562 0.552 0.0489229 0.74L1.51692 13.9553C1.54626 14.224 1.73626 14.4487 1.99626 14.5227L6.98292 15.9473C7.04292 15.9647 7.10492 15.9733 7.16626 15.9733C7.22759 15.9733 7.28959 15.9647 7.34959 15.9473L12.3363 14.5227C12.5963 14.4487 12.7856 14.224 12.8156 13.9553L14.2843 0.74C14.3056 0.552 14.2456 0.363333 14.1189 0.222ZM10.8443 6.716L10.5469 11.5727L7.18826 12.6707L3.82959 11.5727L3.70226 9.25H5.40226L5.44492 10.306L7.18826 10.8973L8.93159 10.306L9.05892 8.406H5.31759L5.23292 6.71667H9.14426L9.27159 5.02733H3.40426L3.27692 3.33733H11.0569L10.8443 6.716Z" fill="#E34234"/>
</svg>
