<svg width="35" height="34" viewBox="0 0 35 34" fill="none" xmlns="http://www.w3.org/2000/svg">
<path d="M17.4183 11.0296C15.8626 11.0296 14.3706 11.6466 13.2706 12.7448C12.1705 13.843 11.5525 15.3325 11.5525 16.8856C11.5525 18.4387 12.1705 19.9283 13.2706 21.0265C14.3706 22.1247 15.8626 22.7417 17.4183 22.7417C18.974 22.7417 20.466 22.1247 21.5661 21.0265C22.6661 19.9283 23.2841 18.4387 23.2841 16.8856C23.2841 15.3325 22.6661 13.843 21.5661 12.7448C20.466 11.6466 18.974 11.0296 17.4183 11.0296Z" fill="#FBFBFA"/>
<path fill-rule="evenodd" clip-rule="evenodd" d="M7.98033 0.816589C14.2541 0.122335 20.5854 0.122335 26.8592 0.816589C30.2866 1.19858 33.0498 3.89235 33.4523 7.32669C34.1963 13.6776 34.1963 20.0935 33.4523 26.4444C33.0498 29.8787 30.2866 32.5725 26.861 32.9563C20.5866 33.6507 14.2547 33.6507 7.98033 32.9563C4.5529 32.5725 1.78966 29.8787 1.38717 26.4462C0.643078 20.0947 0.643078 13.6782 1.38717 7.32669C1.78966 3.89235 4.5529 1.19858 7.98033 0.816589ZM26.444 6.0744C25.9654 6.0744 25.5063 6.26424 25.1678 6.60215C24.8293 6.94007 24.6392 7.39837 24.6392 7.87626C24.6392 8.35414 24.8293 8.81245 25.1678 9.15036C25.5063 9.48827 25.9654 9.67811 26.444 9.67811C26.9227 9.67811 27.3818 9.48827 27.7203 9.15036C28.0588 8.81245 28.2489 8.35414 28.2489 7.87626C28.2489 7.39837 28.0588 6.94007 27.7203 6.60215C27.3818 6.26424 26.9227 6.0744 26.444 6.0744ZM8.84666 16.8855C8.84666 14.6156 9.74989 12.4386 11.3577 10.8335C12.9654 9.22845 15.146 8.32672 17.4197 8.32672C19.6935 8.32672 21.8741 9.22845 23.4818 10.8335C25.0896 12.4386 25.9928 14.6156 25.9928 16.8855C25.9928 19.1555 25.0896 21.3324 23.4818 22.9375C21.8741 24.5426 19.6935 25.4443 17.4197 25.4443C15.146 25.4443 12.9654 24.5426 11.3577 22.9375C9.74989 21.3324 8.84666 19.1555 8.84666 16.8855Z" fill="#FBFBFA"/>
</svg>
