<svg width="19" height="20" viewBox="0 0 19 20" fill="none" xmlns="http://www.w3.org/2000/svg">
<path d="M9.2498 0.799805C4.177 0.799805 0.0498047 4.927 0.0498047 9.9998C0.0498047 15.0726 4.177 19.1998 9.2498 19.1998C14.3226 19.1998 18.4498 15.0726 18.4498 9.9998C18.4498 4.927 14.3226 0.799805 9.2498 0.799805ZM11.5092 3.60059C13.0383 3.57515 14.2989 4.1317 14.5623 5.16543C14.9395 6.64423 13.6559 8.41264 12.0123 9.04824C10.5447 9.61584 9.33142 9.52669 8.83262 9.36309C8.26582 9.17709 7.93373 8.80279 7.85293 8.59199C7.82133 8.50919 7.76613 8.37124 7.85293 8.32324C7.90613 8.29364 7.92694 8.30042 8.06934 8.45762C8.20494 8.60682 8.74902 9.00799 9.78262 8.89199C12.4958 8.58799 14.1295 6.47952 13.6131 5.34512C13.2515 4.55112 11.1606 4.19352 8.54824 5.49512C5.35904 7.08432 5.18638 8.39439 5.15918 8.89199C5.08438 10.2604 6.84815 10.9802 7.80215 11.9982C7.82455 12.0222 7.84617 12.0465 7.86777 12.0709C8.15657 11.9633 8.55639 11.9028 9.19199 11.892C10.7352 11.8656 11.6069 12.8824 11.5709 13.792C11.5429 14.5084 10.8855 14.8036 10.7631 14.824C10.6743 14.8392 10.6255 14.8421 10.6131 14.7725C10.6043 14.7245 10.6364 14.7021 10.7404 14.6373C10.8444 14.5729 11.1559 14.3601 11.2115 13.9717C11.2671 13.5837 10.9764 12.6558 9.49121 12.4826C8.96481 12.421 8.55032 12.4628 8.19512 12.5568C8.45272 13.1244 8.50236 14.2666 7.90996 15.1506C7.29596 16.0666 6.15325 16.6231 5.03965 16.3131C4.68045 16.2131 4.13687 15.4709 4.60527 14.4357C5.04927 13.4545 6.94569 12.4946 7.20449 12.367V12.3623C6.32569 11.6059 4.1885 10.5864 3.8873 9.02637C3.8017 8.58437 4.0088 7.52556 5.3084 6.30996C6.4016 5.28756 7.92237 4.50485 9.32637 4.00605C10.0637 3.74405 10.8141 3.61215 11.5092 3.60059ZM7.56934 12.8287C7.54334 12.8431 7.51759 12.8573 7.49199 12.8709L7.49277 12.874C7.49277 12.874 6.61028 13.2905 5.99668 13.9389C5.42628 14.5417 5.26774 15.2982 5.58574 15.4826C5.88054 15.6534 6.56718 15.451 7.05918 14.9146C7.22038 14.7386 7.35219 14.5479 7.45059 14.3443C7.47019 14.3035 7.48847 14.2625 7.50527 14.2209C7.52207 14.1793 7.53815 14.1371 7.55215 14.0943C7.67935 13.7095 7.69254 13.2843 7.56934 12.8287Z" fill="#E34234"/>
</svg>
