<svg width="16" height="16" viewBox="0 0 16 16" fill="none" xmlns="http://www.w3.org/2000/svg">
<path d="M13.4643 0.5H2.03571C1.05 0.5 0.25 1.3 0.25 2.28571V13.7143C0.25 14.7 1.05 15.5 2.03571 15.5H13.4643C14.45 15.5 15.25 14.7 15.25 13.7143V2.28571C15.25 1.3 14.45 0.5 13.4643 0.5ZM4.17857 12.4643C4.17857 12.7607 3.93929 13 3.64286 13C3.34643 13 3.10714 12.7607 3.10714 12.4643V7.82143C3.10714 7.525 3.34643 7.28571 3.64286 7.28571C3.93929 7.28571 4.17857 7.525 4.17857 7.82143V12.4643ZM3.64286 6.92857C3.27143 6.92857 2.97143 6.60714 2.97143 6.21429C2.97143 5.82143 3.27143 5.5 3.64286 5.5C4.01429 5.5 4.31429 5.82143 4.31429 6.21429C4.31429 6.60714 4.01429 6.92857 3.64286 6.92857ZM9.35714 11.0357C8.49643 11.0357 7.69643 10.7679 7.03571 10.3143V12.1071C7.03571 12.6 6.63571 13 6.14286 13C5.65 13 5.25 12.6 5.25 12.1071V6.92857C5.25 4.66429 7.09286 2.82143 9.35714 2.82143C11.6214 2.82143 13.4643 4.66429 13.4643 6.92857C13.4643 9.19286 11.6214 11.0357 9.35714 11.0357ZM11.1071 6.57143H12.7321C12.6929 6.21071 12.5964 5.87143 12.4571 5.55357L11.0429 6.36786C11.0679 6.43571 11.0929 6.5 11.1071 6.57143ZM11.0429 7.48929L12.4571 8.30357C12.5964 7.98571 12.6929 7.64643 12.7321 7.28571H11.1071C11.0929 7.35714 11.0679 7.42143 11.0429 7.48929ZM10.6857 5.75L12.0964 4.93571C11.8893 4.65 11.6357 4.39643 11.35 4.18929L10.5357 5.6C10.5893 5.64643 10.6393 5.69643 10.6857 5.75ZM10.5357 8.25714L11.35 9.66786C11.6357 9.46071 11.8893 9.20714 12.0964 8.92143L10.6857 8.10714C10.6393 8.16071 10.5893 8.21071 10.5357 8.25714ZM10.7321 3.82857C10.4143 3.68929 10.075 3.59286 9.71429 3.55357V5.18929C9.78214 5.20357 9.85357 5.22143 9.91786 5.24286L10.7321 3.82857ZM9.71429 8.67857V10.3036C10.075 10.2643 10.4143 10.1679 10.7321 10.0286L9.91786 8.61429C9.85 8.63929 9.78571 8.66429 9.71429 8.67857ZM10.4286 6.92857C10.4286 6.33929 9.94643 5.85714 9.35714 5.85714C8.76786 5.85714 8.28571 6.33929 8.28571 6.92857C8.28571 7.51786 8.76786 8 9.35714 8C9.94643 8 10.4286 7.51786 10.4286 6.92857ZM7.98214 10.0286C8.3 10.1679 8.63929 10.2643 9 10.3036V8.67857C8.92857 8.66429 8.86429 8.63929 8.79643 8.61429L7.98214 10.0286ZM9 5.18929V3.55357C8.63929 3.59286 8.3 3.68929 7.98214 3.82857L8.79643 5.24286C8.86071 5.22143 8.93214 5.20357 9 5.18929ZM8.17857 5.6L7.36429 4.18929C7.07857 4.39643 6.825 4.65 6.61786 4.93571L8.02857 5.75C8.075 5.69643 8.125 5.64643 8.17857 5.6ZM8.02857 8.10714L6.61786 8.92143C6.825 9.20714 7.07857 9.46071 7.36429 9.66786L8.17857 8.25714C8.125 8.21071 8.075 8.16071 8.02857 8.10714ZM7.67143 6.36786L6.25714 5.55357C6.11786 5.87143 6.02143 6.21071 5.98214 6.57143H7.60714C7.62143 6.5 7.64643 6.43571 7.67143 6.36786ZM7.60714 7.28571H5.98214C6.02143 7.64643 6.11786 7.98571 6.25714 8.30357L7.67143 7.48929C7.64643 7.42143 7.62143 7.35714 7.60714 7.28571Z" fill="#E34234"/>
</svg>
