<svg width="15" height="16" viewBox="0 0 15 16" fill="none" xmlns="http://www.w3.org/2000/svg">
<path d="M1.41732 0.666992C0.680651 0.666992 0.0839844 1.26366 0.0839844 2.00033V14.0003C0.0839844 14.737 0.680651 15.3337 1.41732 15.3337H13.4173C14.154 15.3337 14.7506 14.737 14.7506 14.0003V2.00033C14.7506 1.26366 14.154 0.666992 13.4173 0.666992H1.41732ZM2.75065 4.66178H5.40299C6.71566 4.66178 7.61393 5.55974 7.61393 6.88574C7.61393 8.18907 6.68288 9.08236 5.35221 9.08236H3.92643V11.2386H2.75065V4.66178ZM3.92643 5.64616V8.1071H5.08919C5.92786 8.1071 6.41992 7.66974 6.41992 6.88574C6.41992 6.07974 5.94043 5.64616 5.0931 5.64616H3.92643ZM10.222 6.15137C11.4067 6.15137 12.1504 6.67569 12.2324 7.58236H11.1712C11.0892 7.23169 10.7559 7.00814 10.2272 7.00814C9.71255 7.00814 9.32487 7.25491 9.32487 7.61491C9.32487 7.89757 9.56182 8.07058 10.0631 8.18392L10.9421 8.38444C11.8947 8.59844 12.3366 9.00918 12.3366 9.74251C12.3366 10.7005 11.4569 11.3389 10.2129 11.3389C8.96889 11.3389 8.18497 10.8002 8.09831 9.89355H9.21549C9.32483 10.2629 9.6749 10.4821 10.2402 10.4821C10.8096 10.4821 11.2064 10.2316 11.2064 9.8623C11.2064 9.57964 10.9929 9.40123 10.5189 9.2959L9.63476 9.09147C8.67743 8.8728 8.22721 8.43071 8.22721 7.67871C8.22721 6.77604 9.046 6.15137 10.222 6.15137Z" fill="#E34234"/>
</svg>
