<svg width="21" height="20" viewBox="0 0 21 20" fill="none" xmlns="http://www.w3.org/2000/svg">
<path d="M17.7029 2.222C17.5762 2.08067 17.3956 2 17.2062 2H4.29557C4.10624 2 3.92557 2.08067 3.79891 2.222C3.67224 2.36333 3.61224 2.552 3.63291 2.74L5.10091 15.9553C5.13024 16.224 5.32024 16.4487 5.58024 16.5227L10.5669 17.9473C10.6269 17.9647 10.6889 17.9733 10.7502 17.9733C10.8116 17.9733 10.8736 17.9647 10.9336 17.9473L15.9202 16.5227C16.1802 16.4487 16.3696 16.224 16.3996 15.9553L17.8682 2.74C17.8896 2.552 17.8296 2.36333 17.7029 2.222ZM14.5036 6.95333H8.55024L8.69157 8.648H14.3602L13.9349 13.6547L10.7529 14.6667L10.7216 14.6567L7.57491 13.6533L7.40291 11.6133H8.94424L9.01157 12.406L10.7696 12.7933L12.4969 12.4053L12.6802 10.2633H7.28691L6.86957 5.33333H14.6422L14.5036 6.95333Z" fill="#A3151B"/>
</svg>
