<svg width="21" height="20" viewBox="0 0 21 20" fill="none" xmlns="http://www.w3.org/2000/svg">
<path d="M10.3348 0.799805C5.26157 0.799805 1.13477 4.927 1.13477 9.9998C1.13477 15.0726 5.26157 19.1998 10.3348 19.1998C15.408 19.1998 19.5348 15.0726 19.5348 9.9998C19.5348 4.927 15.408 0.799805 10.3348 0.799805ZM10.3348 2.7998C12.0388 2.7998 13.6012 3.3938 14.8336 4.3818C14.4512 4.6362 14.2148 5.0778 14.2148 5.5598C14.2148 6.1998 14.5748 6.7598 14.9748 7.3998C15.2948 7.9198 15.6148 8.5998 15.6148 9.5598C15.6148 10.2398 15.4148 11.0798 15.0148 12.1198L14.2148 14.7598L11.3748 6.2798C11.8548 6.2398 12.2948 6.1998 12.2948 6.1998C12.6948 6.1598 12.6548 5.5598 12.2548 5.5598C12.2548 5.5598 12.2548 5.5598 12.2148 5.5598C12.2148 5.5598 10.9348 5.6798 10.0948 5.6798C9.33477 5.6798 8.01477 5.5598 8.01477 5.5598C8.01477 5.5598 8.01477 5.5598 7.97477 5.5598C7.57477 5.5598 7.53477 6.1998 7.93477 6.1998C7.93477 6.1998 8.33477 6.2398 8.77477 6.2798L10.0148 9.6398L8.29477 14.7998L5.41477 6.2398C5.89477 6.1998 6.33477 6.1598 6.33477 6.1598C6.73477 6.1198 6.69477 5.5198 6.29477 5.5198C6.29477 5.5198 6.29477 5.5198 6.25477 5.5198C6.25477 5.5198 5.39397 5.60061 4.62077 5.62941C5.93597 3.9118 8.00197 2.7998 10.3348 2.7998ZM3.13477 9.9998C3.13477 9.27981 3.24317 8.5858 3.43957 7.9302L6.40917 16.0326C4.43917 14.7482 3.13477 12.529 3.13477 9.9998ZM8.20597 16.8798L10.3348 10.6398L12.6088 16.8282C11.8936 17.0658 11.1304 17.1998 10.3348 17.1998C9.59357 17.1998 8.87877 17.0874 8.20597 16.8798ZM14.4564 15.8998L16.5748 9.7598C16.8892 8.9598 17.0588 8.26301 17.1308 7.63821C17.388 8.3786 17.5348 9.17101 17.5348 9.9998C17.5348 12.4442 16.3164 14.5986 14.4564 15.8998Z" fill="#A3151B"/>
</svg>
