<svg width="21" height="20" viewBox="0 0 21 20" fill="none" xmlns="http://www.w3.org/2000/svg">
<path d="M8.14286 17C6.95946 17 6 16.0405 6 14.8571C6 13.6737 6.95946 12.7143 8.14286 12.7143H9.67339C10.0114 12.7143 10.2857 12.9886 10.2857 13.3266V14.8571C10.2857 16.0405 9.32625 17 8.14286 17ZM13.5 6.28571H11.9695C11.6314 6.28571 11.3571 6.01143 11.3571 5.67339V2.61232C11.3571 2.27429 11.6314 2 11.9695 2H13.5C14.6834 2 15.6429 2.95946 15.6429 4.14286C15.6429 5.32625 14.6834 6.28571 13.5 6.28571ZM8.14286 2H9.67339C10.0114 2 10.2857 2.27429 10.2857 2.61232V5.67339C10.2857 6.01143 10.0114 6.28571 9.67339 6.28571H8.14286C6.95946 6.28571 6 5.32625 6 4.14286C6 2.95946 6.95946 2 8.14286 2ZM8.14286 7.35714H9.67339C10.0114 7.35714 10.2857 7.63143 10.2857 7.96946V11.0305C10.2857 11.3686 10.0114 11.6429 9.67339 11.6429H8.14286C6.95946 11.6429 6 10.6834 6 9.5C6 8.31661 6.95946 7.35714 8.14286 7.35714ZM13.5 7.35714C12.9317 7.35714 12.3866 7.58291 11.9848 7.98477C11.5829 8.38663 11.3571 8.93168 11.3571 9.5C11.3571 10.0683 11.5829 10.6134 11.9848 11.0152C12.3866 11.4171 12.9317 11.6429 13.5 11.6429C14.0683 11.6429 14.6134 11.4171 15.0152 11.0152C15.4171 10.6134 15.6429 10.0683 15.6429 9.5C15.6429 8.93168 15.4171 8.38663 15.0152 7.98477C14.6134 7.58291 14.0683 7.35714 13.5 7.35714Z" fill="#A3151B"/>
</svg>
