<svg width="21" height="20" viewBox="0 0 21 20" fill="none" xmlns="http://www.w3.org/2000/svg">
<g clip-path="url(#clip0_510_264)">
<path d="M10.398 2.00791C10.32 2.00099 10.2408 2.00107 10.1613 2.00947C9.84253 2.04427 9.55666 2.20128 9.35586 2.45088C8.94106 2.96648 9.02345 3.72358 9.53945 4.13838L10.8598 5.2001H4.06914C3.40754 5.2001 2.86914 5.7385 2.86914 6.4001C2.86914 7.0617 3.40754 7.6001 4.06914 7.6001H7.04336L1.34726 12.204C1.08846 12.4132 0.926995 12.7107 0.891795 13.0415C0.856995 13.3723 0.952126 13.6975 1.16133 13.9563C1.37053 14.2151 1.66803 14.3766 1.99883 14.4118C2.32963 14.4466 2.65487 14.3515 2.91367 14.1423L5.68398 11.9032C5.91558 15.0796 8.87034 17.6001 12.4691 17.6001C16.2187 17.6001 19.2691 14.8637 19.2691 11.5001C19.2691 9.4217 18.1055 7.50864 16.1543 6.37744L11.0434 2.26807C10.8559 2.11747 10.6321 2.02869 10.398 2.00791ZM12.4691 8.0001C14.4539 8.0001 16.0691 9.3457 16.0691 11.0001C16.0691 12.6545 14.4539 14.0001 12.4691 14.0001C10.4843 14.0001 8.86914 12.6545 8.86914 11.0001C8.86914 9.3457 10.4843 8.0001 12.4691 8.0001ZM12.4691 8.8001C11.8326 8.8001 11.2222 9.01081 10.7721 9.38589C10.322 9.76096 10.0691 10.2697 10.0691 10.8001C10.0691 11.3305 10.322 11.8392 10.7721 12.2143C11.2222 12.5894 11.8326 12.8001 12.4691 12.8001C13.1057 12.8001 13.7161 12.5894 14.1662 12.2143C14.6163 11.8392 14.8691 11.3305 14.8691 10.8001C14.8691 10.2697 14.6163 9.76096 14.1662 9.38589C13.7161 9.01081 13.1057 8.8001 12.4691 8.8001Z" fill="#A3151B"/>
</g>
<defs>
<clipPath id="clip0_510_264">
<rect width="20" height="20" fill="white" transform="translate(0.0839844)"/>
</clipPath>
</defs>
</svg>
