<svg width="20" height="20" viewBox="0 0 20 20" fill="none" xmlns="http://www.w3.org/2000/svg">
<g clip-path="url(#clip0_848_228)">
<path d="M14.7857 2H6.21429C4.44214 2 3 3.44179 3 5.21429V13.7857C3 15.5582 4.44214 17 6.21429 17H14.7857C16.5579 17 18 15.5582 18 13.7857V5.21429C18 3.44179 16.5579 2 14.7857 2ZM13.99 11.1168C13.6507 11.3829 13.3489 11.5129 13.2464 11.5518L11.3357 12.3389C11.3129 12.3486 11.3032 12.3764 11.3161 12.3989L11.5839 12.8096C11.6796 12.9621 11.7171 13.1068 11.7171 13.2771C11.7171 13.8971 11.1732 14.045 10.8911 14.045C10.425 14.045 10.2386 13.7268 10.0843 13.4818L9.08929 11.9104C8.98393 11.7432 9.05536 11.5225 9.23714 11.4479L12.6575 10.0404C12.875 9.95429 13.5843 9.5875 13.5843 8.48536C13.5843 7.55214 12.7725 6.49679 11.3929 6.49679C10.8654 6.49679 10.1754 6.78071 10.1754 6.78071L8.04893 7.6525C7.41571 7.91393 7.41571 8.15393 7.41571 8.2825C7.41571 8.28893 7.44643 8.85071 8.14607 8.85071C8.2175 8.85071 8.43357 8.81821 8.73036 8.69643L10.8407 7.82321C11.2789 7.64286 11.9607 7.87679 11.9607 8.54571C11.9607 8.9125 11.7482 9.04393 11.4268 9.17536L10.1136 9.7175L9.3475 10.0339C8.91393 10.2125 8.40607 10.3114 8.065 10.3114C6.68536 10.3114 5.7925 9.36036 5.7925 8.2825C5.7925 7.61857 6.07643 6.70964 7.43214 6.15286C7.43214 6.15286 7.43214 6.15286 8.1675 5.85107C8.47429 5.72286 8.90929 5.54429 9.52607 5.28929C9.72571 5.20643 9.92714 5.12357 10.19 5.06036C10.4561 4.99714 10.7825 4.955 11.2304 4.955C13.8275 4.955 15.2075 6.90286 15.2075 8.48571C15.2075 9.86536 14.55 10.6754 13.99 11.1168Z" fill="#A3151B"/>
</g>
<defs>
<clipPath id="clip0_848_228">
<rect width="20" height="20" fill="white"/>
</clipPath>
</defs>
</svg>
