<svg width="20" height="20" viewBox="0 0 20 20" fill="none" xmlns="http://www.w3.org/2000/svg">
<path d="M7.11979 2.78809C6.71246 2.78809 6.33467 2.87927 6 3.07194C4.95409 3.6758 4.55598 5.14736 4.76693 6.97949C3.07513 7.71288 2 8.79277 2 10.0003C2 11.2079 3.07513 12.2878 4.76693 13.0212C4.55609 14.8532 4.95409 16.3249 6 16.9287C6.334 17.1214 6.71179 17.2126 7.11979 17.2126C7.98821 17.2126 8.9919 16.7767 10 16.029C11.0082 16.7767 12.0131 17.2126 12.8815 17.2126C13.2888 17.2126 13.6666 17.1214 14.0013 16.9287C15.0472 16.3249 15.4453 14.8533 15.2344 13.0212C16.9255 12.2878 18 11.2076 18 10.0003C18 8.79277 16.9249 7.71288 15.2331 6.97949C15.4439 5.14743 15.0459 3.6758 14 3.07194C13.666 2.87861 13.2882 2.78809 12.8802 2.78809C12.0118 2.78809 11.0081 3.22393 10 3.97168C8.99184 3.22393 7.98791 2.78809 7.11979 2.78809ZM7.11979 3.95475C7.64088 3.95475 8.32997 4.23182 9.07813 4.74512C8.63825 5.16024 8.20744 5.63228 7.79297 6.15788C7.12072 6.25427 6.4869 6.39479 5.89974 6.57064C5.89659 6.52992 5.88912 6.48719 5.88672 6.44694C5.81539 5.26027 6.076 4.37569 6.58333 4.08236C6.73333 3.99569 6.90846 3.95475 7.11979 3.95475ZM12.8802 3.95475C13.0909 3.95475 13.2667 3.99569 13.4167 4.08236C13.924 4.37502 14.1846 5.26027 14.1133 6.44694C14.1109 6.48719 14.1034 6.52992 14.1003 6.57064C13.5127 6.39468 12.8784 6.25428 12.2057 6.15788C11.7913 5.63235 11.3617 5.16019 10.9219 4.74512C11.67 4.23191 12.3594 3.95475 12.8802 3.95475ZM10 5.486C10.1807 5.65049 10.3602 5.82435 10.5417 6.01465C10.3618 6.00861 10.1829 6.00033 10 6.00033C9.81752 6.00033 9.63907 6.00864 9.45964 6.01465C9.64096 5.82455 9.81945 5.65034 10 5.486ZM10 7.16699C10.5525 7.16699 11.0761 7.19787 11.5729 7.25163C11.8759 7.66346 12.1745 8.09887 12.4544 8.58366C12.7227 9.04835 12.96 9.52398 13.1693 10.0003C12.9599 10.477 12.7229 10.9533 12.4544 11.4183C12.1754 11.9017 11.8775 12.3343 11.5755 12.7451C11.0611 12.8014 10.5335 12.8337 10 12.8337C9.44754 12.8337 8.92391 12.8028 8.42708 12.749C8.12409 12.3372 7.82548 11.9031 7.54557 11.4183C7.27712 10.9533 7.04013 10.477 6.83073 10.0003C7.03998 9.52398 7.27728 9.04835 7.54557 8.58366C7.82472 8.10026 8.12241 7.66636 8.42448 7.25553C8.93886 7.19925 9.46652 7.16699 10 7.16699ZM13.1641 7.52767C13.4286 7.59153 13.6828 7.66046 13.9219 7.7373C13.8677 7.98201 13.8015 8.2314 13.7266 8.4834C13.6408 8.32242 13.5576 8.16093 13.4648 8.00033C13.3694 7.83512 13.2635 7.6867 13.1641 7.52767ZM6.83464 7.52897C6.73554 7.68751 6.63027 7.83565 6.53516 8.00033C6.44244 8.16095 6.3592 8.3224 6.27344 8.4834C6.19834 8.23088 6.13103 7.98119 6.07682 7.736C6.32025 7.65909 6.57389 7.59098 6.83464 7.52897ZM4.97917 8.16439C5.11963 8.75747 5.31449 9.37227 5.5651 9.99902C5.31502 10.6243 5.12098 11.238 4.98047 11.8298C3.81949 11.2691 3.16667 10.5712 3.16667 10.0003C3.16667 9.41433 3.80125 8.7465 4.86458 8.21517C4.90088 8.19701 4.94208 8.18212 4.97917 8.16439ZM15.0195 8.1709C16.1805 8.73152 16.8333 9.42941 16.8333 10.0003C16.8333 10.5863 16.1988 11.2541 15.1354 11.7855C15.0991 11.8036 15.0579 11.8185 15.0208 11.8363C14.8803 11.2428 14.687 10.6275 14.4362 10.0003C14.686 9.3756 14.8791 8.76219 15.0195 8.1709ZM10 8.66699C9.26333 8.66699 8.66667 9.26366 8.66667 10.0003C8.66667 10.737 9.26333 11.3337 10 11.3337C10.7367 11.3337 11.3333 10.737 11.3333 10.0003C11.3333 9.26366 10.7367 8.66699 10 8.66699ZM6.27344 11.5173C6.35925 11.6783 6.44368 11.8397 6.53646 12.0003C6.63177 12.1654 6.73661 12.3141 6.83594 12.473C6.57144 12.4091 6.31716 12.3402 6.07812 12.2633C6.13232 12.0185 6.19845 11.7694 6.27344 11.5173ZM13.7266 11.5186C13.8016 11.7708 13.869 12.0197 13.9232 12.2646C13.6798 12.3416 13.4261 12.4097 13.1654 12.4717C13.2645 12.3131 13.3697 12.165 13.4648 12.0003C13.5574 11.84 13.641 11.6792 13.7266 11.5186ZM5.89974 13.43C6.48727 13.606 7.12155 13.7464 7.79427 13.8428C8.20886 14.3686 8.63806 14.8416 9.07813 15.2568C8.33003 15.77 7.64085 16.0472 7.11979 16.0472C6.90913 16.0472 6.73333 16.005 6.58333 15.9183C6.076 15.6256 5.81539 14.7417 5.88672 13.555C5.88916 13.5143 5.89653 13.4712 5.89974 13.43ZM14.1003 13.43C14.1035 13.4712 14.1109 13.5143 14.1133 13.555C14.1846 14.7417 13.924 15.625 13.4167 15.9183C13.2667 16.005 13.0915 16.0472 12.8802 16.0472C12.3592 16.0472 11.67 15.7701 10.9219 15.2568C11.362 14.8416 11.7924 14.3686 12.207 13.8428C12.8793 13.7464 13.5131 13.6059 14.1003 13.43ZM9.45833 13.986C9.63819 13.992 9.81708 14.0003 10 14.0003C10.1829 14.0003 10.3618 13.992 10.5417 13.986C10.3602 14.1763 10.1807 14.3502 10 14.5146C9.81928 14.3502 9.63982 14.1763 9.45833 13.986Z" fill="#A3151B"/>
</svg>
