<svg width="20" height="20" viewBox="0 0 20 20" fill="none" xmlns="http://www.w3.org/2000/svg">
<path d="M3.99935 2.66699C3.26268 2.66699 2.66602 3.26366 2.66602 4.00033V16.0003C2.66602 16.737 3.26268 17.3337 3.99935 17.3337H15.9993C16.736 17.3337 17.3327 16.737 17.3327 16.0003V4.00033C17.3327 3.26366 16.736 2.66699 15.9993 2.66699H3.99935ZM13.1061 6.16569C13.5208 6.16569 13.804 6.43002 13.804 6.79069C13.804 7.15136 13.5208 7.41569 13.1061 7.41569C12.6961 7.41569 12.4095 7.15136 12.4095 6.79069C12.4095 6.43002 12.6961 6.16569 13.1061 6.16569ZM7.86133 6.63574H9.18294L11.5202 13.2126H10.2585L9.70247 11.5316H7.2832L6.7168 13.2126H5.52799L7.86133 6.63574ZM8.45768 7.88835L7.55664 10.6006H9.42904L8.53581 7.88835H8.45768ZM12.5462 8.22689H13.6712V13.2126H12.5462V8.22689Z" fill="#A3151B"/>
</svg>
