<svg width="15" height="16" viewBox="0 0 15 16" fill="none" xmlns="http://www.w3.org/2000/svg">
<path d="M13.3333 0.5H1.66667C0.75 0.5 0 1.25 0 2.16667V13.8333C0 14.75 0.75 15.5 1.66667 15.5H13.3333C14.25 15.5 15 14.75 15 13.8333V2.16667C15 1.25 14.25 0.5 13.3333 0.5ZM5.65833 5.75167H4.72833V7.845H5.65833C6.27833 7.845 6.43333 7.38 6.43333 6.8375C6.43417 6.29417 6.20167 5.75167 5.65833 5.75167ZM5.65833 8.93H4.72833V11.3333H3.33333V4.66667H5.58167C7.52 4.66667 7.7525 6.45 7.7525 6.8375C7.75167 8.3875 6.66667 8.93 5.65833 8.93ZM11.5292 7.66667C11.4675 7.66 11.135 7.6275 11.07 7.6275C10.5392 7.6275 10.3683 7.9625 10.3033 8.12583V11.3333H8.91667V6.33333H10.22L10.2592 6.905C10.3633 6.69333 10.6417 6.23583 11.1625 6.23583C11.3908 6.23583 11.4975 6.28 11.5433 6.29917L11.5292 7.66667Z" fill="#E34234"/>
</svg>
