<svg width="21" height="20" viewBox="0 0 21 20" fill="none" xmlns="http://www.w3.org/2000/svg">
<path d="M4.49935 2.66699C3.76268 2.66699 3.16602 3.26366 3.16602 4.00033V16.0003C3.16602 16.737 3.76268 17.3337 4.49935 17.3337H16.4993C17.236 17.3337 17.8327 16.737 17.8327 16.0003V4.00033C17.8327 3.26366 17.236 2.66699 16.4993 2.66699H4.49935ZM7.44206 6.75163H8.76367L11.1009 13.3284H9.83919L9.2832 11.6462H6.86263L6.29753 13.3284H5.10872L7.44206 6.75163ZM8.03841 8.00553L7.13607 10.7165H9.00976L8.11654 8.00553H8.03841ZM13.9355 8.24251C15.3575 8.24251 16.2103 9.18547 16.2103 10.7581V11.1227H12.7285V11.1813C12.7558 12.0106 13.2339 12.5303 13.9772 12.5303C14.5372 12.5303 14.9252 12.3254 15.0892 11.9561H16.1595C15.9462 12.8634 15.12 13.4287 13.9447 13.4287C12.4773 13.4287 11.5931 12.4572 11.5931 10.8532C11.5931 9.24919 12.4915 8.24251 13.9355 8.24251ZM13.9316 9.13835C13.257 9.13835 12.7831 9.62192 12.7324 10.3506H15.0801C15.0567 9.61259 14.6096 9.13835 13.9316 9.13835Z" fill="#A3151B"/>
</svg>
