<svg width="216" height="117" viewBox="0 0 216 117" fill="none" xmlns="http://www.w3.org/2000/svg">
<path d="M56.263 69.9698L110.889 9.01872C119.032 -0.0800624 133.445 0.479122 140.866 10.1519L181.276 62.7967C181.961 63.6781 181.654 64.9594 180.665 65.463L88.6401 112.123C61.94 125.655 36.2842 92.2335 56.2667 69.9476V69.9661L56.263 69.9698Z" stroke="#E34234" stroke-width="2.8375" stroke-miterlimit="10"/>
<path d="M125.269 111.694L33.674 64.1854C32.6815 63.6818 32.4112 62.3856 33.0963 61.5191L73.9945 9.2372C81.5268 -0.38374 95.9212 -0.798499 103.99 8.37064L158.039 69.8069C177.803 92.2742 151.84 125.459 125.284 111.675L125.265 111.694H125.269Z" stroke="#E34234" stroke-width="2.8375" stroke-miterlimit="10"/>
<path d="M199.406 55.8245L123.161 94.486C113.973 99.1521 102.805 94.3046 99.9012 84.4133L91.469 55.532C85.3439 34.5422 99.7938 13.1599 121.558 10.9972L184.505 4.78322C214.286 1.84658 226.084 42.293 199.403 55.8245H199.406Z" stroke="#E34234" stroke-width="2.8375" stroke-miterlimit="10"/>
<path d="M31.7494 4.42719L94.6261 11.2189C116.353 13.5593 130.621 35.0898 124.3 56.024L115.616 84.8312C112.642 94.704 101.418 99.4441 92.2672 94.6855L16.3848 55.3204C-10.1746 41.5407 1.98668 1.2017 31.7494 4.42719Z" stroke="#E34234" stroke-width="2.8375" stroke-miterlimit="10"/>
</svg>
