<svg width="21" height="20" viewBox="0 0 21 20" fill="none" xmlns="http://www.w3.org/2000/svg">
<path d="M16.3333 2.5H4.66667C3.75 2.5 3 3.25 3 4.16667V15.8333C3 16.75 3.75 17.5 4.66667 17.5H16.3333C17.25 17.5 18 16.75 18 15.8333V4.16667C18 3.25 17.25 2.5 16.3333 2.5ZM8.65833 7.75167H7.72833V9.845H8.65833C9.27833 9.845 9.43333 9.38 9.43333 8.8375C9.43417 8.29417 9.20167 7.75167 8.65833 7.75167ZM8.65833 10.93H7.72833V13.3333H6.33333V6.66667H8.58167C10.52 6.66667 10.7525 8.45 10.7525 8.8375C10.7517 10.3875 9.66667 10.93 8.65833 10.93ZM14.5292 9.66667C14.4675 9.66 14.135 9.6275 14.07 9.6275C13.5392 9.6275 13.3683 9.9625 13.3033 10.1258V13.3333H11.9167V8.33333H13.22L13.2592 8.905C13.3633 8.69333 13.6417 8.23583 14.1625 8.23583C14.3908 8.23583 14.4975 8.28 14.5433 8.29917L14.5292 9.66667Z" fill="#A3151B"/>
</svg>
