<svg width="21" height="20" viewBox="0 0 21 20" fill="none" xmlns="http://www.w3.org/2000/svg">
<path d="M17.1189 2.222C16.9923 2.08067 16.8116 2 16.6223 2H3.71159C3.52226 2 3.34159 2.08067 3.21492 2.222C3.08826 2.36333 3.02826 2.552 3.04892 2.74L4.51692 15.9553C4.54626 16.224 4.73626 16.4487 4.99626 16.5227L9.98292 17.9473C10.0429 17.9647 10.1049 17.9733 10.1663 17.9733C10.2276 17.9733 10.2896 17.9647 10.3496 17.9473L15.3363 16.5227C15.5963 16.4487 15.7856 16.224 15.8156 15.9553L17.2843 2.74C17.3056 2.552 17.2456 2.36333 17.1189 2.222ZM13.8443 8.716L13.5469 13.5727L10.1883 14.6707L6.82959 13.5727L6.70226 11.25H8.40226L8.44492 12.306L10.1883 12.8973L11.9316 12.306L12.0589 10.406H8.31759L8.23292 8.71667H12.1443L12.2716 7.02733H6.40426L6.27692 5.33733H14.0569L13.8443 8.716Z" fill="#A3151B"/>
</svg>
