<svg width="15" height="16" viewBox="0 0 15 16" fill="none" xmlns="http://www.w3.org/2000/svg">
<path d="M14.7019 0.222C14.5753 0.0806666 14.3946 0 14.2053 0H1.2946C1.10526 0 0.924597 0.0806666 0.797931 0.222C0.671264 0.363333 0.611264 0.552 0.631931 0.74L2.09993 13.9553C2.12926 14.224 2.31926 14.4487 2.57926 14.5227L7.56593 15.9473C7.62593 15.9647 7.68793 15.9733 7.74926 15.9733C7.8106 15.9733 7.8726 15.9647 7.9326 15.9473L12.9193 14.5227C13.1793 14.4487 13.3686 14.224 13.3986 13.9553L14.8673 0.74C14.8886 0.552 14.8286 0.363333 14.7019 0.222ZM11.5026 4.95333H5.54926L5.6906 6.648H11.3593L10.9339 11.6547L7.75193 12.6667L7.7206 12.6567L4.57393 11.6533L4.40193 9.61333H5.94326L6.0106 10.406L7.7686 10.7933L9.49593 10.4053L9.67926 8.26333H4.28593L3.8686 3.33333H11.6413L11.5026 4.95333Z" fill="#E34234"/>
</svg>
