<svg width="227" height="227" viewBox="0 0 227 227" fill="none" xmlns="http://www.w3.org/2000/svg">
<path d="M61.7625 124.969L116.388 64.0183C124.532 54.9195 138.945 55.4787 146.366 65.1515L186.775 117.796C187.46 118.678 187.153 119.959 186.164 120.463L94.1396 167.123C67.4395 180.655 41.7837 147.233 61.7662 124.947V124.966L61.7625 124.969Z" stroke="#A3151B" stroke-width="2.8375" stroke-miterlimit="10"/>
<path d="M130.769 166.693L39.1735 119.185C38.181 118.681 37.9107 117.385 38.5958 116.519L79.494 64.2368C87.0263 54.6158 101.421 54.2011 109.49 63.3702L163.538 124.806C183.302 147.274 157.339 180.458 130.783 166.675L130.765 166.693H130.769Z" stroke="#A3151B" stroke-width="2.8375" stroke-miterlimit="10"/>
<path d="M204.906 110.824L128.661 149.486C119.473 154.152 108.304 149.304 105.401 139.413L96.9685 110.532C90.8434 89.5418 105.293 68.1594 127.057 65.9968L190.004 59.7828C219.785 56.8461 231.584 97.2926 204.902 110.824H204.906Z" stroke="#A3151B" stroke-width="2.8375" stroke-miterlimit="10"/>
<path d="M37.2489 59.4268L100.126 66.2184C121.852 68.5589 136.121 90.0893 129.799 111.024L121.115 139.831C118.142 149.704 106.917 154.444 97.7667 149.685L21.8843 110.32C-4.67514 96.5403 7.48619 56.2013 37.2489 59.4268Z" stroke="#A3151B" stroke-width="2.8375" stroke-miterlimit="10"/>
</svg>
