<svg width="15" height="15" viewBox="0 0 15 15" fill="none" xmlns="http://www.w3.org/2000/svg">
<path d="M11.7857 0H3.21429C1.44214 0 0 1.44179 0 3.21429V11.7857C0 13.5582 1.44214 15 3.21429 15H11.7857C13.5579 15 15 13.5582 15 11.7857V3.21429C15 1.44179 13.5579 0 11.7857 0ZM10.99 9.11679C10.6507 9.38286 10.3489 9.51286 10.2464 9.55179L8.33571 10.3389C8.31286 10.3486 8.30321 10.3764 8.31607 10.3989L8.58393 10.8096C8.67964 10.9621 8.71714 11.1068 8.71714 11.2771C8.71714 11.8971 8.17321 12.045 7.89107 12.045C7.425 12.045 7.23857 11.7268 7.08429 11.4818L6.08929 9.91036C5.98393 9.74321 6.05536 9.5225 6.23714 9.44786L9.6575 8.04036C9.875 7.95429 10.5843 7.5875 10.5843 6.48536C10.5843 5.55214 9.7725 4.49679 8.39286 4.49679C7.86536 4.49679 7.17536 4.78071 7.17536 4.78071L5.04893 5.6525C4.41571 5.91393 4.41571 6.15393 4.41571 6.2825C4.41571 6.28893 4.44643 6.85071 5.14607 6.85071C5.2175 6.85071 5.43357 6.81821 5.73036 6.69643L7.84071 5.82321C8.27893 5.64286 8.96071 5.87679 8.96071 6.54571C8.96071 6.9125 8.74821 7.04393 8.42679 7.17536L7.11357 7.7175L6.3475 8.03393C5.91393 8.2125 5.40607 8.31143 5.065 8.31143C3.68536 8.31143 2.7925 7.36036 2.7925 6.2825C2.7925 5.61857 3.07643 4.70964 4.43214 4.15286C4.43214 4.15286 4.43214 4.15286 5.1675 3.85107C5.47429 3.72286 5.90929 3.54429 6.52607 3.28929C6.72571 3.20643 6.92714 3.12357 7.19 3.06036C7.45607 2.99714 7.7825 2.955 8.23036 2.955C10.8275 2.955 12.2075 4.90286 12.2075 6.48571C12.2075 7.86536 11.55 8.67536 10.99 9.11679Z" fill="#E34234"/>
</svg>
