<svg width="21" height="20" viewBox="0 0 21 20" fill="none" xmlns="http://www.w3.org/2000/svg">
<path d="M12.2771 4.40039C10.752 4.40039 9.3735 5.01635 8.36523 6.01417C8.07137 5.95817 7.77279 5.92766 7.46372 5.92766C4.80879 5.92766 2.65039 8.09639 2.65039 10.764C2.65039 13.4317 4.80879 15.6004 7.46372 15.6004H9.74372H12.2771C15.3525 15.6004 17.8504 13.0906 17.8504 10.0004C17.8504 6.91021 15.3525 4.40039 12.2771 4.40039ZM12.2771 5.41857C14.7901 5.41857 16.8371 7.4753 16.8371 10.0004C16.8371 12.5255 14.7901 14.5822 12.2771 14.5822C11.5475 14.5822 10.909 14.3934 10.3365 14.093C9.54608 13.6806 8.87685 13.045 8.24352 12.3679L7.71211 11.7872C7.42838 11.4766 7.14405 11.1616 6.85018 10.8714C6.65258 10.6729 6.65258 10.3461 6.85018 10.1475C7.04778 9.949 7.373 9.949 7.5706 10.1475C7.86953 10.453 8.1634 10.7743 8.45727 11.1001C9.61246 12.3677 10.7013 13.564 12.2771 13.564C14.2328 13.564 15.8237 11.9655 15.8237 10.0004C15.8237 8.0353 14.2328 6.43675 12.2771 6.43675C11.5829 6.43675 10.9188 6.63574 10.3513 7.01246C10.0676 6.79356 9.75936 6.58984 9.43003 6.42184C10.2356 5.77529 11.2333 5.41857 12.2771 5.41857ZM7.46372 6.94585C8.05652 6.94585 8.59319 7.11937 9.08466 7.39428C9.34813 7.53683 9.5918 7.70407 9.82487 7.89244C10.3315 8.28953 10.7822 8.75829 11.1875 9.19102C11.3345 9.34374 11.4821 9.49591 11.6239 9.63846C11.8215 9.837 11.8215 10.1638 11.6239 10.3623C11.4263 10.5609 11.1011 10.5609 10.9035 10.3623C10.7566 10.2147 10.6103 10.0559 10.4533 9.893C9.59192 8.98682 8.61892 7.96403 7.46372 7.96403C5.92852 7.96403 4.67706 9.22148 4.67706 10.764C4.67706 12.3066 5.92852 13.564 7.46372 13.564C7.62586 13.564 7.78759 13.5488 7.94466 13.5183C8.21826 13.7932 8.51795 14.0681 8.84221 14.3227C8.40648 14.4958 7.93999 14.5822 7.46372 14.5822C5.36612 14.5822 3.66372 12.8717 3.66372 10.764C3.66372 8.65639 5.36612 6.94585 7.46372 6.94585Z" fill="#A3151B"/>
</svg>
