<svg width="21" height="20" viewBox="0 0 21 20" fill="none" xmlns="http://www.w3.org/2000/svg">
<path d="M4.41536 2.66699C3.6787 2.66699 3.08203 3.26366 3.08203 4.00033V16.0003C3.08203 16.737 3.6787 17.3337 4.41536 17.3337H16.4154C17.152 17.3337 17.7487 16.737 17.7487 16.0003V4.00033C17.7487 3.26366 17.152 2.66699 16.4154 2.66699H4.41536ZM5.7487 6.66178H8.40104C9.71371 6.66178 10.612 7.55974 10.612 8.88574C10.612 10.1891 9.68093 11.0824 8.35026 11.0824H6.92448V13.2386H5.7487V6.66178ZM6.92448 7.64616V10.1071H8.08724C8.92591 10.1071 9.41797 9.66974 9.41797 8.88574C9.41797 8.07974 8.93848 7.64616 8.09115 7.64616H6.92448ZM13.2201 8.15137C14.4047 8.15137 15.1485 8.67569 15.2305 9.58236H14.1693C14.0873 9.23169 13.7539 9.00814 13.2253 9.00814C12.7106 9.00814 12.3229 9.25491 12.3229 9.61491C12.3229 9.89757 12.5599 10.0706 13.0612 10.1839L13.9401 10.3844C14.8928 10.5984 15.3346 11.0092 15.3346 11.7425C15.3346 12.7005 14.4549 13.3389 13.2109 13.3389C11.9669 13.3389 11.183 12.8002 11.0964 11.8936H12.2135C12.3229 12.2629 12.6729 12.4821 13.2383 12.4821C13.8076 12.4821 14.2044 12.2316 14.2044 11.8623C14.2044 11.5796 13.9909 11.4012 13.5169 11.2959L12.6328 11.0915C11.6755 10.8728 11.2253 10.4307 11.2253 9.67871C11.2253 8.77604 12.0441 8.15137 13.2201 8.15137Z" fill="#A3151B"/>
</svg>
