<svg width="39" height="23" viewBox="0 0 39 23" fill="none" xmlns="http://www.w3.org/2000/svg">
<path d="M11.2603 0C12.377 0 13.4099 0.0790026 14.3537 0.312851C15.2992 0.469276 16.0734 0.782127 16.7602 1.1724C17.4488 1.56267 17.9644 2.11095 18.3069 2.81408C18.6512 3.5172 18.8242 4.37833 18.8242 5.3153C18.8242 6.41028 18.5656 7.34725 17.9644 8.05038C17.4488 8.75508 16.5889 9.3792 15.5578 9.84848C17.0189 10.2403 18.1356 10.9435 18.8242 11.8804C19.5111 12.819 19.941 13.9914 19.941 15.3202C19.941 16.4152 19.6823 17.3522 19.2524 18.1343C18.8242 18.9164 18.1356 19.6195 17.3614 20.0888C16.5204 20.5918 15.5907 20.9616 14.6123 21.1822C13.5812 21.4176 12.5501 21.5741 11.5189 21.5741H0V0H11.2603ZM10.5717 8.7535C11.5172 8.7535 12.2914 8.51965 12.8926 8.12938C13.4938 7.73911 13.7525 7.0344 13.7525 6.17485C13.7525 5.70558 13.6651 5.2363 13.4938 4.92503C13.3225 4.61218 13.0639 4.37675 12.7213 4.1429C12.3709 3.96536 11.9943 3.83394 11.6028 3.75263C11.1729 3.67363 10.7447 3.67363 10.2274 3.67363H5.24303V8.75508L10.5717 8.7535ZM10.8303 17.9779C11.3459 17.9779 11.8615 17.8989 12.2914 17.8214C12.7213 17.7424 13.1513 17.5876 13.4938 17.3522C13.844 17.1234 14.137 16.8305 14.3537 16.4926C14.5249 16.1023 14.698 15.6331 14.698 15.0864C14.698 13.9914 14.3537 13.2093 13.6668 12.6626C12.9782 12.1933 12.0327 11.9594 10.916 11.9594H5.24303V17.9794L10.8303 17.9779ZM27.4193 17.8989C28.1061 18.5246 29.1373 18.8374 30.5127 18.8374C31.4582 18.8374 32.318 18.6036 33.0049 18.2133C33.6934 17.744 34.1234 17.2747 34.2946 16.8055H38.5065C37.818 18.681 36.7868 20.0098 35.4132 20.8694C34.036 21.6515 32.4037 22.1208 30.427 22.1208C29.1624 22.1243 27.9083 21.912 26.7307 21.4951C25.671 21.1358 24.7261 20.5452 23.9799 19.776C23.1817 19.0564 22.5917 18.1702 22.2619 17.1957C21.832 16.1798 21.6589 15.0864 21.6589 13.835C21.6589 12.6626 21.832 11.5692 22.2619 10.5516C22.6758 9.57199 23.288 8.67071 24.0672 7.89395C24.8397 7.19083 25.7852 6.56671 26.8163 6.17485C27.964 5.75782 29.1901 5.54535 30.427 5.54915C31.8881 5.54915 33.1779 5.78458 34.2946 6.33128C35.4132 6.87798 36.2713 7.50368 36.9581 8.44223C37.6467 9.30178 38.164 10.3178 38.5065 11.4127C38.6778 12.5061 38.7635 13.6011 38.6778 14.8509H26.2151C26.2151 16.1023 26.7307 17.2747 27.4193 17.9004M32.8336 9.69363C32.2324 9.14693 31.2869 8.83408 30.1684 8.83408C29.5126 8.8252 28.864 8.95905 28.2774 9.22436C27.7618 9.45979 27.4193 9.77264 27.075 10.0855C26.7586 10.3877 26.5493 10.7684 26.4738 11.1789C26.3864 11.5707 26.3008 11.882 26.3008 12.1949H34.036C33.8647 11.0225 33.4348 10.2419 32.8336 9.69363ZM25.2696 1.48525H34.8958V3.5962H25.2714L25.2696 1.48525Z" fill="#FBFBFA"/>
</svg>
