<svg width="20" height="20" viewBox="0 0 20 20" fill="none" xmlns="http://www.w3.org/2000/svg">
<g clip-path="url(#clip0_510_254)">
<path d="M19.4953 5.90051C19.0887 5.72801 18.6178 5.89884 18.4203 6.29384C18.2337 6.66717 17.9845 6.89634 17.6587 6.99217C17.1487 7.14467 16.5395 6.94884 16.2545 6.78134C15.8787 6.56051 15.4428 6.22551 14.982 5.87134C13.5112 4.73967 11.6812 3.33301 9.16618 3.33301C7.15451 3.33301 6.12118 4.36551 4.41034 6.07717C4.08451 6.40301 4.08201 6.93301 4.40784 7.25801C4.72451 7.57634 5.23284 7.58634 5.55951 7.28301C5.56784 7.27551 5.57618 7.26717 5.58451 7.25967C6.04451 6.90467 8.94284 7.24967 10.2095 8.25634C12.092 9.75217 13.4512 10.833 14.9995 10.833C17.2153 10.833 19.0653 9.38217 19.9495 6.95134C20.1003 6.53634 19.9012 6.07551 19.4953 5.90051ZM15.3287 11.7338C14.922 11.5613 14.4512 11.7322 14.2537 12.1272C14.067 12.5005 13.8178 12.7297 13.492 12.8255C12.982 12.9755 12.3728 12.7822 12.0878 12.6147C11.712 12.3938 11.2762 12.0588 10.8153 11.7047C9.34451 10.573 7.51451 9.16634 4.99951 9.16634C2.98784 9.16634 1.95451 10.1988 0.243675 11.9105C-0.0821579 12.2363 -0.0846579 12.7663 0.241175 13.0913C0.557842 13.4097 1.06701 13.4205 1.39368 13.1163C1.40201 13.1088 1.41034 13.1005 1.41868 13.093C1.87784 12.738 4.77784 13.083 6.04367 14.0897C7.92534 15.5855 9.28451 16.6663 10.8328 16.6663C13.0487 16.6663 14.8987 15.2155 15.7828 12.7847C15.9337 12.3697 15.7345 11.9088 15.3287 11.7338Z" fill="#A3151B"/>
</g>
<defs>
<clipPath id="clip0_510_254">
<rect width="20" height="20" fill="white"/>
</clipPath>
</defs>
</svg>
