<svg width="16" height="16" viewBox="0 0 16 16" fill="none" xmlns="http://www.w3.org/2000/svg">
<path d="M1.83333 0.666992C1.09667 0.666992 0.5 1.26366 0.5 2.00033V14.0003C0.5 14.737 1.09667 15.3337 1.83333 15.3337H13.8333C14.57 15.3337 15.1667 14.737 15.1667 14.0003V2.00033C15.1667 1.26366 14.57 0.666992 13.8333 0.666992H1.83333ZM10.306 4.50293H11.4362V11.4157H10.3424V10.6279H10.2643C9.98166 11.1746 9.40751 11.4977 8.71484 11.4977C7.45218 11.4977 6.66406 10.5056 6.66406 8.91959C6.66406 7.34293 7.45684 6.34928 8.71484 6.34928C9.39818 6.34928 9.9645 6.67762 10.2292 7.22428H10.306V4.50293ZM4.23047 4.84017H5.40625V11.4157H4.23047V4.84017ZM9.06641 7.31022C8.29641 7.31022 7.82161 7.92084 7.82161 8.9235C7.82161 9.93083 8.29174 10.5368 9.06641 10.5368C9.84574 10.5368 10.319 9.92617 10.319 8.9235C10.319 7.93017 9.84107 7.31022 9.06641 7.31022Z" fill="#E34234"/>
</svg>
