<svg width="21" height="20" viewBox="0 0 21 20" fill="none" xmlns="http://www.w3.org/2000/svg">
<path d="M10.8664 2.40039C9.20285 2.40039 7.62205 2.91799 6.28285 3.89319L3.65885 2.44999C3.49805 2.36079 3.29525 2.39439 3.17045 2.53159C3.04565 2.66879 3.03165 2.87359 3.13645 3.02599L4.76005 5.39879C4.71325 5.42519 4.67125 5.46039 4.63685 5.50599C3.60925 6.86719 3.06645 8.49079 3.06645 10.2004C3.06645 14.5012 6.56565 18.0004 10.8664 18.0004C15.1672 18.0004 18.6664 14.5012 18.6664 10.2004C18.6664 5.89959 15.1672 2.40039 10.8664 2.40039ZM9.48685 6.56799C10.3972 7.06879 11.0684 7.89679 11.3724 8.87839C10.862 9.04439 10.4632 9.46119 10.3216 9.98279C9.33405 9.88239 8.43445 9.35279 7.86725 8.52399L4.74445 3.95959L9.48685 6.56799ZM11.8344 9.60359L12.9168 11.1188C12.7868 11.2148 12.672 11.3292 12.5764 11.4596L11.0572 10.4468C11.0588 10.4308 11.0664 10.4168 11.0664 10.4004C11.0664 9.97039 11.4084 9.62079 11.8344 9.60359ZM12.4168 13.0952C12.5224 13.3216 12.6796 13.5236 12.888 13.6804C13.2224 13.932 13.4184 14.2712 13.4524 14.622C13.0644 14.8856 12.1668 15.2004 11.0664 15.2004C9.17125 15.2004 7.26285 14.2356 6.37805 12.376C7.36045 13.144 8.75405 13.6004 10.0664 13.6004C10.9072 13.6004 11.7088 13.4248 12.4168 13.0952ZM14.1604 14.1C14.0212 13.6956 13.7492 13.3272 13.3688 13.0416C13.1204 12.8544 13.0128 12.534 13.0888 12.2052C13.1616 11.89 13.4528 11.6372 13.7824 11.6048C13.8088 11.602 13.8348 11.6008 13.8596 11.6008C14.3484 11.6008 14.574 12.082 14.678 12.4972C14.8656 13.2468 14.5 13.7824 14.1604 14.1ZM10.8664 17.2004C7.00685 17.2004 3.86645 14.06 3.86645 10.2004C3.86645 8.69919 4.33565 7.27399 5.21885 6.06959L7.20725 8.97559C7.87645 9.95399 8.92165 10.5912 10.0772 10.7552L12.278 12.2224C12.2764 12.2368 12.2724 12.2516 12.2712 12.266C11.6288 12.6064 10.8588 12.8004 10.0664 12.8004C7.86845 12.8004 5.86645 11.4656 5.86645 10.0004C5.86645 9.77919 5.68765 9.60039 5.46645 9.60039C5.24525 9.60039 5.06645 9.77919 5.06645 10.0004C5.06645 13.9396 8.08485 16.0004 11.0664 16.0004C12.2768 16.0004 13.5188 15.6404 14.0828 15.138C14.7404 14.7928 15.8256 13.7876 15.4544 12.3036C15.2 11.2844 14.5488 10.7284 13.704 10.8088C13.696 10.8096 13.6888 10.812 13.6812 10.8128L12.2476 8.80599C12.222 8.77039 12.1892 8.74439 12.1556 8.71999C11.8024 7.50799 10.9896 6.48159 9.87245 5.86719L7.06685 4.32399C8.19805 3.58919 9.50125 3.20039 10.8664 3.20039C14.726 3.20039 17.8664 6.34079 17.8664 10.2004C17.8664 14.06 14.726 17.2004 10.8664 17.2004Z" fill="#A3151B"/>
</svg>
