<svg width="21" height="20" viewBox="0 0 21 20" fill="none" xmlns="http://www.w3.org/2000/svg">
<path d="M10.2508 0.799805C5.17798 0.799805 1.05078 4.927 1.05078 9.9998C1.05078 15.0726 5.17798 19.1998 10.2508 19.1998C15.3236 19.1998 19.4508 15.0726 19.4508 9.9998C19.4508 4.927 15.3236 0.799805 10.2508 0.799805ZM12.5102 3.60059C14.0393 3.57515 15.2998 4.1317 15.5633 5.16543C15.9405 6.64423 14.6569 8.41264 13.0133 9.04824C11.5457 9.61584 10.3324 9.52669 9.83359 9.36309C9.26679 9.17709 8.93471 8.80279 8.85391 8.59199C8.82231 8.50919 8.76711 8.37124 8.85391 8.32324C8.90711 8.29364 8.92791 8.30042 9.07031 8.45762C9.20591 8.60682 9.74999 9.00799 10.7836 8.89199C13.4968 8.58799 15.1305 6.47952 14.6141 5.34512C14.2525 4.55112 12.1616 4.19352 9.54922 5.49512C6.36002 7.08432 6.18736 8.39439 6.16016 8.89199C6.08536 10.2604 7.84912 10.9802 8.80312 11.9982C8.82553 12.0222 8.84715 12.0465 8.86875 12.0709C9.15755 11.9633 9.55737 11.9028 10.193 11.892C11.7362 11.8656 12.6079 12.8824 12.5719 13.792C12.5439 14.5084 11.8865 14.8036 11.7641 14.824C11.6753 14.8392 11.6265 14.8421 11.6141 14.7725C11.6053 14.7245 11.6374 14.7021 11.7414 14.6373C11.8454 14.5729 12.1569 14.3601 12.2125 13.9717C12.2681 13.5837 11.9774 12.6558 10.4922 12.4826C9.96579 12.421 9.55129 12.4628 9.19609 12.5568C9.45369 13.1244 9.50334 14.2666 8.91094 15.1506C8.29694 16.0666 7.15422 16.6231 6.04063 16.3131C5.68143 16.2131 5.13785 15.4709 5.60625 14.4357C6.05025 13.4545 7.94667 12.4946 8.20547 12.367V12.3623C7.32667 11.6059 5.18948 10.5864 4.88828 9.02637C4.80268 8.58437 5.00977 7.52556 6.30938 6.30996C7.40258 5.28756 8.92334 4.50485 10.3273 4.00605C11.0647 3.74405 11.8151 3.61215 12.5102 3.60059ZM8.57031 12.8287C8.54431 12.8431 8.51857 12.8573 8.49297 12.8709L8.49375 12.874C8.49375 12.874 7.61126 13.2905 6.99766 13.9389C6.42726 14.5417 6.26872 15.2982 6.58672 15.4826C6.88152 15.6534 7.56816 15.451 8.06016 14.9146C8.22136 14.7386 8.35316 14.5479 8.45156 14.3443C8.47116 14.3035 8.48945 14.2625 8.50625 14.2209C8.52305 14.1793 8.53912 14.1371 8.55312 14.0943C8.68033 13.7095 8.69351 13.2843 8.57031 12.8287Z" fill="#A3151B"/>
</svg>
