<svg width="21" height="20" viewBox="0 0 21 20" fill="none" xmlns="http://www.w3.org/2000/svg">
<path d="M16.5833 2.66699H4.58333C3.84667 2.66699 3.25 3.26366 3.25 4.00033V16.0003C3.25 16.737 3.84667 17.3337 4.58333 17.3337H16.5833C17.32 17.3337 17.9167 16.737 17.9167 16.0003V4.00033C17.9167 3.26366 17.32 2.66699 16.5833 2.66699ZM10.5833 13.587C10.5833 14.7717 9.85667 15.4357 8.65 15.4357C7.458 15.4357 6.69867 14.739 6.69867 13.6123H7.99C7.99333 14.0303 8.24267 14.2943 8.628 14.2943C9.024 14.2943 9.23667 14.045 9.23667 13.5757V9.99899H10.5833V13.587ZM14.2373 15.4357C12.898 15.4357 12.0553 14.805 12.0327 13.785H13.3167C13.3493 14.1703 13.734 14.4157 14.292 14.4157C14.7947 14.4157 15.14 14.1737 15.14 13.825C15.14 13.5317 14.9087 13.3737 14.3033 13.253L13.6067 13.1137C12.638 12.9303 12.1393 12.4023 12.1393 11.5697C12.1393 10.535 12.9687 9.85632 14.2447 9.85632C15.4847 9.85632 16.3427 10.5277 16.3647 11.507H15.1213C15.092 11.133 14.736 10.8723 14.262 10.8723C13.7893 10.8723 13.478 11.0963 13.478 11.4483C13.478 11.7383 13.7127 11.907 14.27 12.017L14.9513 12.149C15.9973 12.351 16.4667 12.8237 16.4667 13.6637C16.4673 14.7683 15.624 15.4357 14.2373 15.4357Z" fill="#A3151B"/>
</svg>
