<svg width="21" height="20" viewBox="0 0 21 20" fill="none" xmlns="http://www.w3.org/2000/svg">
<path d="M16.4643 2.5H5.03571C4.05 2.5 3.25 3.3 3.25 4.28571V15.7143C3.25 16.7 4.05 17.5 5.03571 17.5H16.4643C17.45 17.5 18.25 16.7 18.25 15.7143V4.28571C18.25 3.3 17.45 2.5 16.4643 2.5ZM7.17857 14.4643C7.17857 14.7607 6.93929 15 6.64286 15C6.34643 15 6.10714 14.7607 6.10714 14.4643V9.82143C6.10714 9.525 6.34643 9.28571 6.64286 9.28571C6.93929 9.28571 7.17857 9.525 7.17857 9.82143V14.4643ZM6.64286 8.92857C6.27143 8.92857 5.97143 8.60714 5.97143 8.21429C5.97143 7.82143 6.27143 7.5 6.64286 7.5C7.01429 7.5 7.31429 7.82143 7.31429 8.21429C7.31429 8.60714 7.01429 8.92857 6.64286 8.92857ZM12.3571 13.0357C11.4964 13.0357 10.6964 12.7679 10.0357 12.3143V14.1071C10.0357 14.6 9.63571 15 9.14286 15C8.65 15 8.25 14.6 8.25 14.1071V8.92857C8.25 6.66429 10.0929 4.82143 12.3571 4.82143C14.6214 4.82143 16.4643 6.66429 16.4643 8.92857C16.4643 11.1929 14.6214 13.0357 12.3571 13.0357ZM14.1071 8.57143H15.7321C15.6929 8.21071 15.5964 7.87143 15.4571 7.55357L14.0429 8.36786C14.0679 8.43571 14.0929 8.5 14.1071 8.57143ZM14.0429 9.48929L15.4571 10.3036C15.5964 9.98571 15.6929 9.64643 15.7321 9.28571H14.1071C14.0929 9.35714 14.0679 9.42143 14.0429 9.48929ZM13.6857 7.75L15.0964 6.93571C14.8893 6.65 14.6357 6.39643 14.35 6.18929L13.5357 7.6C13.5893 7.64643 13.6393 7.69643 13.6857 7.75ZM13.5357 10.2571L14.35 11.6679C14.6357 11.4607 14.8893 11.2071 15.0964 10.9214L13.6857 10.1071C13.6393 10.1607 13.5893 10.2107 13.5357 10.2571ZM13.7321 5.82857C13.4143 5.68929 13.075 5.59286 12.7143 5.55357V7.18929C12.7821 7.20357 12.8536 7.22143 12.9179 7.24286L13.7321 5.82857ZM12.7143 10.6786V12.3036C13.075 12.2643 13.4143 12.1679 13.7321 12.0286L12.9179 10.6143C12.85 10.6393 12.7857 10.6643 12.7143 10.6786ZM13.4286 8.92857C13.4286 8.33929 12.9464 7.85714 12.3571 7.85714C11.7679 7.85714 11.2857 8.33929 11.2857 8.92857C11.2857 9.51786 11.7679 10 12.3571 10C12.9464 10 13.4286 9.51786 13.4286 8.92857ZM10.9821 12.0286C11.3 12.1679 11.6393 12.2643 12 12.3036V10.6786C11.9286 10.6643 11.8643 10.6393 11.7964 10.6143L10.9821 12.0286ZM12 7.18929V5.55357C11.6393 5.59286 11.3 5.68929 10.9821 5.82857L11.7964 7.24286C11.8607 7.22143 11.9321 7.20357 12 7.18929ZM11.1786 7.6L10.3643 6.18929C10.0786 6.39643 9.825 6.65 9.61786 6.93571L11.0286 7.75C11.075 7.69643 11.125 7.64643 11.1786 7.6ZM11.0286 10.1071L9.61786 10.9214C9.825 11.2071 10.0786 11.4607 10.3643 11.6679L11.1786 10.2571C11.125 10.2107 11.075 10.1607 11.0286 10.1071ZM10.6714 8.36786L9.25714 7.55357C9.11786 7.87143 9.02143 8.21071 8.98214 8.57143H10.6071C10.6214 8.5 10.6464 8.43571 10.6714 8.36786ZM10.6071 9.28571H8.98214C9.02143 9.64643 9.11786 9.98571 9.25714 10.3036L10.6714 9.48929C10.6464 9.42143 10.6214 9.35714 10.6071 9.28571Z" fill="#A3151B"/>
</svg>
