<svg width="21" height="20" viewBox="0 0 21 20" fill="none" xmlns="http://www.w3.org/2000/svg">
<path d="M4.83333 2.66699C4.09667 2.66699 3.5 3.26366 3.5 4.00033V16.0003C3.5 16.737 4.09667 17.3337 4.83333 17.3337H16.8333C17.57 17.3337 18.1667 16.737 18.1667 16.0003V4.00033C18.1667 3.26366 17.57 2.66699 16.8333 2.66699H4.83333ZM13.306 6.50293H14.4362V13.4157H13.3424V12.6279H13.2643C12.9817 13.1746 12.4075 13.4977 11.7148 13.4977C10.4522 13.4977 9.66406 12.5056 9.66406 10.9196C9.66406 9.34293 10.4568 8.34928 11.7148 8.34928C12.3982 8.34928 12.9645 8.67762 13.2292 9.22428H13.306V6.50293ZM7.23047 6.84017H8.40625V13.4157H7.23047V6.84017ZM12.0664 9.31022C11.2964 9.31022 10.8216 9.92084 10.8216 10.9235C10.8216 11.9308 11.2917 12.5368 12.0664 12.5368C12.8457 12.5368 13.319 11.9262 13.319 10.9235C13.319 9.93017 12.8411 9.31022 12.0664 9.31022Z" fill="#A3151B"/>
</svg>
