<svg width="16" height="12" viewBox="0 0 16 12" fill="none" xmlns="http://www.w3.org/2000/svg">
<path d="M10.2771 0.400391C8.75199 0.400391 7.3735 1.01635 6.36523 2.01417C6.07137 1.95817 5.77279 1.92766 5.46372 1.92766C2.80879 1.92766 0.650391 4.09639 0.650391 6.76403C0.650391 9.43166 2.80879 11.6004 5.46372 11.6004H7.74372H10.2771C13.3525 11.6004 15.8504 9.09057 15.8504 6.00039C15.8504 2.91021 13.3525 0.400391 10.2771 0.400391ZM10.2771 1.41857C12.7901 1.41857 14.8371 3.4753 14.8371 6.00039C14.8371 8.52548 12.7901 10.5822 10.2771 10.5822C9.54746 10.5822 8.90902 10.3934 8.33648 10.093C7.54608 9.68064 6.87685 9.04495 6.24352 8.36786L5.71211 7.78718C5.42838 7.47663 5.14405 7.16159 4.85018 6.87141C4.65258 6.67287 4.65258 6.3461 4.85018 6.14755C5.04778 5.949 5.373 5.949 5.5706 6.14755C5.86953 6.453 6.1634 6.77429 6.45727 7.10011C7.61246 8.36774 8.70132 9.56403 10.2771 9.56403C12.2328 9.56403 13.8237 7.96548 13.8237 6.00039C13.8237 4.0353 12.2328 2.43675 10.2771 2.43675C9.58292 2.43675 8.91879 2.63574 8.35133 3.01246C8.06759 2.79356 7.75936 2.58984 7.43003 2.42184C8.23563 1.77529 9.23332 1.41857 10.2771 1.41857ZM5.46372 2.94585C6.05652 2.94585 6.59319 3.11937 7.08466 3.39428C7.34813 3.53683 7.5918 3.70407 7.82487 3.89244C8.33154 4.28953 8.78219 4.75829 9.18753 5.19102C9.33446 5.34374 9.48207 5.49591 9.62393 5.63846C9.82153 5.837 9.82153 6.16378 9.62393 6.36232C9.42633 6.56087 9.10112 6.56087 8.90352 6.36232C8.75658 6.21469 8.61032 6.05591 8.45326 5.893C7.59192 4.98682 6.61892 3.96403 5.46372 3.96403C3.92852 3.96403 2.67706 5.22148 2.67706 6.76403C2.67706 8.30657 3.92852 9.56403 5.46372 9.56403C5.62586 9.56403 5.78759 9.54883 5.94466 9.51829C6.21826 9.7932 6.51795 10.0681 6.84221 10.3227C6.40648 10.4958 5.93999 10.5822 5.46372 10.5822C3.36612 10.5822 1.66372 8.87166 1.66372 6.76403C1.66372 4.65639 3.36612 2.94585 5.46372 2.94585Z" fill="#E34234"/>
</svg>
