<?xml version="1.0" encoding="UTF-8"?>
<svg id="Calque_2" data-name="Calque 2" xmlns="http://www.w3.org/2000/svg" xmlns:xlink="http://www.w3.org/1999/xlink" viewBox="0 0 127.72 185.15">
  <defs>
    <style>
      .cls-1 {
        fill: #201510;
      }

      .cls-2 {
        fill: #dda09b;
      }

      .cls-3 {
        fill: #1d1d1b;
      }

      .cls-4 {
        fill: #fff;
      }

      .cls-5 {
        fill: #dfbeb1;
      }

      .cls-6 {
        fill: #362824;
      }

      .cls-7 {
        fill: #e44134;
      }

      .cls-8 {
        fill: #905f61;
      }

      .cls-9 {
        clip-path: url(#clippath);
      }

      .cls-10 {
        fill: #f5d5cb;
      }
    </style>
    <clipPath id="clippath">
      <path class="cls-10" d="M85.82,117.29h-44.22v24.54s1.49,15.47,22.11,15.47,21.93-15.84,21.93-15.84l.18-24.17Z"/>
    </clipPath>
  </defs>
  <g id="Calque_2-2" data-name="Calque 2">
    <g>
      <path class="cls-6" d="M111.18,60.06s2.06,38.5,3.09,55.86,23.91,26.85,7.62,46.95c-30.25,15.51-57.48,8.53-57.48,8.53V54.98l46.78,5.08Z"/>
      <path class="cls-6" d="M14.54,60.06s-.06,38.5-1.09,55.86c-1.02,17.36-23.91,26.85-7.62,46.95,30.25,15.51,57.48,8.53,57.48,8.53V54.98s-48.78,5.08-48.78,5.08Z"/>
      <path class="cls-7" d="M63.71,129.45S6.05,160.65,5.54,162.87c-.51,2.22,18.27,22.28,58.17,22.28s58.68-20.06,58.17-22.28c-.51-2.22-58.17-33.42-58.17-33.42Z"/>
      <g>
        <path class="cls-10" d="M85.82,117.29h-44.22v24.54s1.49,15.47,22.11,15.47,21.93-15.84,21.93-15.84l.18-24.17Z"/>
        <g class="cls-9">
          <path class="cls-5" d="M31,123.99h68.69s-18.53,18.94-35.98,19.28c-17.45.33-32.71-19.28-32.71-19.28Z"/>
        </g>
      </g>
      <path class="cls-10" d="M20.05,75.36s-4.99-7.81-11.52-6.79c-6.53,1.02-4.48,14.85.77,22.28,5.25,7.43,12.42,13.32,18.95,13.06s-8.19-28.55-8.19-28.55Z"/>
      <path class="cls-10" d="M109.17,75.36s4.99-7.81,11.52-6.79c6.53,1.02,4.48,14.85-.77,22.28-5.25,7.43-12.42,13.32-18.95,13.06-6.53-.26,8.19-28.55,8.19-28.55Z"/>
      <path class="cls-10" d="M15.48,57.98c1.13-25.25,22.2-45.43,48.23-45.43s47.1,20.18,48.23,45.43l-.1,5.12c-.72,9.95-2.88,31.74-8.4,40.31-7.26,11.26-18.88,32.87-39.73,32.87s-32.47-21.61-39.73-32.87c-5.53-8.57-7.68-30.38-8.4-40.32l-.1-5.11Z"/>
      <circle class="cls-2" cx="36.15" cy="86.34" r="11"/>
      <circle class="cls-2" cx="91.27" cy="86.06" r="11"/>
      <path class="cls-4" d="M33.44,74.78c1.78-1.77,8.68-7.48,15.41,2.25.44.64.25,1.54-.43,1.93-7.36,4.31-13.52.72-15.19-3.07-.17-.38-.1-.82.2-1.11Z"/>
      <path class="cls-4" d="M91.54,74.79c-1.78-1.77-8.68-7.48-15.41,2.25-.44.64-.25,1.54.43,1.93,7.36,4.31,13.52.72,15.19-3.07.17-.38.1-.82-.2-1.11Z"/>
      <circle class="cls-1" cx="41.06" cy="76.22" r="4.56"/>
      <circle class="cls-1" cx="83.97" cy="76.22" r="4.56"/>
      <path class="cls-3" d="M16.21,78.01c-6.33-5.68-8.22-1.12-6.32,5.36.45,1.68.95,3.36,1.52,5.03-.92-1.51-1.68-3.13-2.27-4.81-.89-2.71-2.17-7.46,1.35-8.88,2.37-.61,4.45,1.59,5.71,3.29h0Z"/>
      <path class="cls-3" d="M113.42,77.43c1.26-1.71,3.34-3.91,5.71-3.29,3.52,1.42,2.24,6.16,1.35,8.88-.59,1.68-1.35,3.29-2.27,4.81.56-1.68,1.07-3.36,1.52-5.03,1.91-6.5,0-11.03-6.32-5.36h0Z"/>
      <path class="cls-3" d="M56.82,74.42c.46,4.99.85,9.99.19,15-.29,2.66-.63,6.53,2.1,7.98,1.37.47,3.03.36,4.48.22.28-.06.64-.09.81-.36-.12.31-.49.41-.77.52-6.86,2.07-8.37-2.7-7.61-8.5.68-4.88.49-9.92.8-14.86h0Z"/>
      <circle class="cls-4" cx="42.62" cy="74.42" r="1.05"/>
      <circle class="cls-4" cx="86.23" cy="74.42" r="1.05"/>
      <path class="cls-6" d="M51.35,64.93c.75-.92-.31-3.89-1.27-4.6-1.07-.78-8.53.33-11.36.65-4.09.46-8.01,1.95-11.57,4.01l-1.85,1.07s25.17-.05,26.05-1.13Z"/>
      <path class="cls-6" d="M73.67,64.93c-.75-.92.31-3.89,1.27-4.6,1.07-.78,8.53.33,11.36.65,4.09.46,8.01,1.95,11.57,4.01l1.85,1.07s-25.17-.05-26.05-1.13Z"/>
      <path class="cls-3" d="M62.51,112.87c-4.82,0-9.03-.6-11.45-1.51.89,1.56,5.66,2.76,11.45,2.76s10.56-1.2,11.45-2.76c-2.43.91-6.64,1.51-11.45,1.51Z"/>
      <path class="cls-8" d="M62.51,115.07c-2.54,0-4.81-.09-6.38-.66-.28-.1-.5.26-.31.5,1.12,1.43,3.68,2.96,6.68,2.96s5.56-1.53,6.68-2.96c.19-.24-.03-.6-.31-.5-1.57.58-3.84.66-6.38.66Z"/>
      <path class="cls-3" d="M41.57,71.51c-3.49-.23-4.93.89-6.12,1.65-1.2.76-3.54,1.55-6,1.26,1.96.36,3.33.31,4.37.11-1.48.73-1.97.77-4.11,1.27,3.34-.15,5.47-1.23,6.57-1.99.63-.44,1.3-.82,2.02-1.07,1.02-.35,2.17-.57,3.27-.38,2.21.38,5.59,2.4,6.43,3.54,0,0-2.95-4.16-6.43-4.39Z"/>
      <path class="cls-3" d="M83.39,71.51c3.49-.23,4.93.89,6.12,1.65,1.2.76,3.54,1.55,6,1.26-1.96.36-3.33.31-4.37.11,1.48.73,1.97.77,4.11,1.27-3.34-.15-5.47-1.23-6.57-1.99-.63-.44-1.3-.82-2.02-1.07-1.02-.35-2.17-.57-3.27-.38-2.21.38-5.59,2.4-6.43,3.54,0,0,2.95-4.16,6.43-4.39Z"/>
      <g>
        <path class="cls-3" d="M34.94,78.29c-.15,0-.84,0-1.49.24.43-.56,1.08-.57,1.15-.57-.02-.02-.05-.05-.05-.05,0,0-.66-.13-1.34.77,1.1-.42,1.86-.28,1.86-.28-.04-.03-.08-.08-.13-.12Z"/>
        <path class="cls-3" d="M35.72,78.94c-.15.02-.76.12-1.37.46.34-.62.95-.71,1.03-.72-.03-.02-.05-.04-.05-.04,0,0-.64-.04-1.18.94,1.03-.58,1.72-.54,1.72-.54-.04-.03-.09-.06-.14-.1Z"/>
        <path class="cls-3" d="M39.26,80.64c-.08.05-.42.27-.69.64.04-.46.35-.69.39-.72-.02,0-.04,0-.04,0,0,0-.37.17-.43.9.45-.62.88-.78.88-.78-.03,0-.08-.02-.12-.03Z"/>
        <path class="cls-3" d="M36.37,79.39s-.58.3-.74.65c.46-.43.97-.51.97-.51l-.23-.14Z"/>
        <path class="cls-3" d="M39.56,80.71s-.35.38-.37.68c.22-.44.58-.64.58-.64l-.21-.04Z"/>
        <path class="cls-3" d="M37.04,79.79s-.56.34-.69.7c.42-.46.93-.58.93-.58l-.24-.12Z"/>
      </g>
      <g>
        <path class="cls-3" d="M90.08,78.27c.15,0,.84,0,1.49.24-.43-.56-1.08-.57-1.15-.57.02-.02.05-.05.05-.05,0,0,.66-.13,1.34.77-1.1-.42-1.86-.28-1.86-.28.04-.03.08-.08.13-.12Z"/>
        <path class="cls-3" d="M89.3,78.93c.15.02.76.12,1.37.46-.34-.62-.95-.71-1.03-.72.03-.02.05-.04.05-.04,0,0,.64-.04,1.18.94-1.03-.58-1.72-.54-1.72-.54.04-.03.09-.06.14-.1Z"/>
        <path class="cls-3" d="M85.76,80.63c.08.05.42.27.69.64-.04-.46-.35-.69-.39-.72.02,0,.04,0,.04,0,0,0,.37.17.43.9-.45-.62-.88-.78-.88-.78.03,0,.08-.02.12-.03Z"/>
        <path class="cls-3" d="M88.65,79.38s.58.3.74.65c-.46-.43-.97-.51-.97-.51l.23-.14Z"/>
        <path class="cls-3" d="M85.46,80.69s.35.38.37.68c-.22-.44-.58-.64-.58-.64l.21-.04Z"/>
        <path class="cls-3" d="M87.98,79.77s.56.34.69.7c-.42-.46-.93-.58-.93-.58l.24-.12Z"/>
      </g>
      <path class="cls-6" d="M58.38,26.48s23.89,19.5,31.73,36.03,2.68,91.7-11.66,107.45c14.81-7.83,18.32-30.91,18.32-30.91-.03,6.47-1.47,19.34-4.87,24.95,5.28-4.09,13.18-21.32,14.74-98.55-2.53-21.4-30.67-39.57-48.26-38.97Z"/>
      <path class="cls-6" d="M66.74,31.48s-23.89,19.5-31.73,36.03-4.56,85.82,11.23,102.86c-14.81-7.83-17.89-26.32-17.89-26.32.03,6.47,1.04,14.74,4.45,20.36-5.28-4.09-12.75-16.73-14.31-93.96,2.53-21.4,30.67-39.57,48.26-38.97Z"/>
      <path class="cls-6" d="M63.32,13.2c1.73-1.49,18.91-1.4,27.19,4.43,8.28,5.82,11.5,13.59,12.11,15.07s22.39,22.31,2.3,54.04c-2.91-6.11-20.95-44.21-41.6-46.89.66-17.23,0-26.65,0-26.65Z"/>
      <path class="cls-6" d="M64.4,13.2c-1.8-1.49-19.61-1.4-28.2,4.43-8.59,5.82-11.93,13.59-12.56,15.07S.41,55.01,21.25,86.74c3.02-6.11,21.73-44.21,43.15-46.89-.68-17.23,0-26.65,0-26.65Z"/>
      <path class="cls-6" d="M47.27,20.55S55.77,0,63.76,0s13.99,20.55,13.99,20.55h-30.48Z"/>
    </g>
  </g>
</svg>