<?xml version="1.0" encoding="UTF-8"?>
<svg id="Calque_2" data-name="Calque 2" xmlns="http://www.w3.org/2000/svg" xmlns:xlink="http://www.w3.org/1999/xlink" viewBox="0 0 130.38 130.38">
  <defs>
    <style>
      .cls-1 {
        fill: #201510;
      }

      .cls-2 {
        fill: #a3191c;
      }

      .cls-3 {
        fill: #dda09b;
      }

      .cls-4 {
        fill: #1d1d1b;
      }

      .cls-5 {
        fill: #fff;
      }

      .cls-6 {
        fill: #dfbeb1;
      }

      .cls-7 {
        fill: #e6c9c1;
      }

      .cls-8 {
        fill: #362824;
      }

      .cls-9 {
        fill: #905f61;
      }

      .cls-10 {
        clip-path: url(#clippath);
      }

      .cls-11 {
        fill: #f5d5cb;
      }
    </style>
    <clipPath id="clippath">
      <path class="cls-11" d="M79.41,88.66h-28.63v15.89s.96,10.02,14.32,10.02,14.2-10.26,14.2-10.26l.11-15.65Z"/>
    </clipPath>
  </defs>
  <g id="Calque_2-2" data-name="Calque 2">
    <g>
      <path class="cls-7" d="M130.38,65.19c0,22.04-10.94,41.52-27.68,53.31-10.61,7.49-23.55,11.88-37.51,11.88s-27.11-4.46-37.77-12.05C10.83,106.52,0,87.12,0,65.19,0,29.19,29.19,0,65.19,0s65.19,29.19,65.19,65.19Z"/>
      <g>
        <path class="cls-8" d="M95.83,51.6s1.34,24.93,2,36.17,15.49,17.38,4.93,30.41c-19.59,10.05-37.22,5.53-37.22,5.53V48.31l30.29,3.29Z"/>
        <path class="cls-8" d="M33.25,51.6s-.04,24.93-.7,36.17-15.49,17.38-4.93,30.41c19.59,10.05,37.22,5.53,37.22,5.53V48.31s-31.59,3.29-31.59,3.29Z"/>
        <path class="cls-2" d="M102.76,118.18c.02.08,0,.19-.06.33-10.61,7.49-23.55,11.88-37.51,11.88s-27.11-4.46-37.77-12.05c0-.06,0-.12,0-.16,0-.03.04-.08.09-.14.76-.85,6.29-4.12,12.89-7.86.63-.36,1.28-.73,1.93-1.09.19-.11.38-.22.58-.32,1.31-.75,2.66-1.5,4-2.25,4.35-2.43,8.66-4.8,11.99-6.62,3.02-1.64,5.23-2.85,5.94-3.24.17-.09.25-.14.25-.14,0,0,.16.08.45.24.87.47,2.97,1.61,5.75,3.13,2.82,1.55,6.35,3.48,10.01,5.51,1.33.74,2.68,1.49,4.01,2.24.28.16.56.32.85.47.63.36,1.25.71,1.87,1.06,7.78,4.38,14.59,8.38,14.73,8.98Z"/>
        <g>
          <path class="cls-11" d="M79.41,88.66h-28.63v15.89s.96,10.02,14.32,10.02,14.2-10.26,14.2-10.26l.11-15.65Z"/>
          <g class="cls-10">
            <path class="cls-6" d="M43.91,93h44.48s-12,12.27-23.3,12.48c-11.3.22-21.18-12.48-21.18-12.48Z"/>
          </g>
        </g>
        <path class="cls-11" d="M37.65,61.51s-2.81-5.06-6.49-4.39c-3.68.66-2.53,9.62.43,14.43,2.96,4.81,7,8.62,10.68,8.46,3.68-.17-4.62-18.49-4.62-18.49Z"/>
        <path class="cls-11" d="M93.2,61.51s2.56-5.06,5.9-4.39c3.34.66,2.29,9.62-.39,14.43-2.69,4.81-6.36,8.62-9.7,8.46-3.34-.17,4.2-18.49,4.2-18.49Z"/>
        <path class="cls-11" d="M33.86,50.25c.73-16.35,14.38-29.42,31.23-29.42s30.5,13.07,31.23,29.42l-.07,3.32c-.47,6.45-1.86,20.55-5.44,26.1-4.7,7.29-12.22,21.29-25.73,21.29s-21.03-14-25.73-21.29c-3.58-5.55-4.98-19.67-5.44-26.11l-.07-3.31Z"/>
        <circle class="cls-3" cx="47.25" cy="68.62" r="7.13"/>
        <circle class="cls-3" cx="82.94" cy="68.44" r="7.13"/>
        <path class="cls-4" d="M36.28,63.22c-4.17-3.38-5.02-.62-3.96,3.43.26,1.09.56,2.18.85,3.3-1.31-1.96-2.27-4.14-2.26-6.57.44-3.82,3.94-2.74,5.37-.16h0Z"/>
        <path class="cls-4" d="M94.04,62.85c1.43-2.58,4.94-3.66,5.37.16,0,2.43-.96,4.62-2.26,6.57.29-1.12.59-2.21.85-3.3,1.06-4.06.21-6.8-3.96-3.43h0Z"/>
        <path class="cls-4" d="M60.63,60.9c.44,3.24.72,6.47.3,9.74-.18,1.43-.28,3.14.49,4.37.7,1.1,2.42.92,3.6.88.18-.03.42-.03.53-.2-.07.21-.31.28-.49.36-4.45,1.57-5.65-1.79-5.11-5.56.44-3.14.35-6.41.69-9.6h0Z"/>
        <path class="cls-8" d="M57.09,54.75c.49-.6-.2-2.52-.82-2.98-.69-.51-5.53.21-7.36.42-2.65.3-5.19,1.26-7.49,2.6l-1.2.69s16.3-.03,16.87-.73Z"/>
        <path class="cls-8" d="M71.54,54.75c-.49-.6.2-2.52.82-2.98.69-.51,5.53.21,7.36.42,2.65.3,5.19,1.26,7.49,2.6l1.2.69s-16.3-.03-16.87-.73Z"/>
        <path class="cls-4" d="M64.32,85.8c-3.12,0-5.85-.39-7.42-.98.58,1.01,3.67,1.78,7.42,1.78s6.84-.77,7.42-1.78c-1.57.59-4.3.98-7.42.98Z"/>
        <path class="cls-9" d="M64.32,87.23c-1.64,0-3.11-.06-4.13-.43-.18-.07-.32.17-.2.32.73.93,2.39,1.92,4.33,1.92s3.6-.99,4.33-1.92c.12-.16-.02-.39-.2-.32-1.01.37-2.48.43-4.13.43Z"/>
        <g>
          <path class="cls-5" d="M45.49,61.14c1.15-1.15,5.62-4.84,9.98,1.46.29.42.16,1-.28,1.25-4.77,2.79-8.75.47-9.83-1.99-.11-.25-.06-.53.13-.72Z"/>
          <circle class="cls-1" cx="50.42" cy="62.07" r="2.95"/>
          <circle class="cls-5" cx="51.43" cy="60.9" r=".68"/>
          <path class="cls-4" d="M50.75,59.01c-2.26-.15-3.19.58-3.96,1.07-.77.49-2.29,1-3.89.82,1.27.23,2.16.2,2.83.07-.96.47-1.28.5-2.66.82,2.16-.1,3.54-.79,4.25-1.29.41-.28.84-.53,1.31-.69.66-.22,1.4-.37,2.11-.25,1.43.25,3.62,1.55,4.17,2.29,0,0-1.91-2.7-4.17-2.84Z"/>
          <g>
            <path class="cls-4" d="M46.46,63.41c-.09,0-.54,0-.97.16.28-.36.7-.37.75-.37-.02-.02-.03-.03-.03-.03,0,0-.43-.08-.87.5.71-.27,1.2-.18,1.2-.18-.02-.02-.05-.05-.08-.08Z"/>
            <path class="cls-4" d="M46.97,63.83c-.09.01-.49.08-.88.3.22-.4.62-.46.66-.46-.02-.01-.03-.02-.03-.02,0,0-.41-.03-.77.61.67-.37,1.11-.35,1.11-.35-.03-.02-.06-.04-.09-.07Z"/>
            <path class="cls-4" d="M49.26,64.93c-.05.03-.27.18-.44.41.02-.3.23-.45.26-.47-.01,0-.03,0-.03,0,0,0-.24.11-.28.58.29-.4.57-.5.57-.5-.02,0-.05-.01-.08-.02Z"/>
            <path class="cls-4" d="M47.39,64.12s-.38.19-.48.42c.3-.28.63-.33.63-.33l-.15-.09Z"/>
            <path class="cls-4" d="M49.45,64.97s-.22.25-.24.44c.14-.29.37-.42.37-.42l-.14-.03Z"/>
            <path class="cls-4" d="M47.82,64.38s-.36.22-.45.46c.27-.3.6-.38.6-.38l-.16-.08Z"/>
          </g>
        </g>
        <g>
          <path class="cls-5" d="M83.11,61.14c-1.15-1.15-5.62-4.84-9.98,1.46-.29.42-.16,1,.28,1.25,4.77,2.79,8.75.47,9.83-1.99.11-.25.06-.53-.13-.72Z"/>
          <circle class="cls-1" cx="78.21" cy="62.07" r="2.95"/>
          <circle class="cls-5" cx="79.68" cy="60.9" r=".68"/>
          <path class="cls-4" d="M77.84,59.01c2.26-.15,3.19.58,3.96,1.07.77.49,2.29,1,3.89.82-1.27.23-2.16.2-2.83.07.96.47,1.28.5,2.66.82-2.16-.1-3.54-.79-4.25-1.29-.41-.28-.84-.53-1.31-.69-.66-.22-1.4-.37-2.11-.25-1.43.25-3.62,1.55-4.17,2.29,0,0,1.91-2.7,4.17-2.84Z"/>
          <g>
            <path class="cls-4" d="M82.17,63.39c.09,0,.54,0,.97.16-.28-.36-.7-.37-.75-.37.02-.02.03-.03.03-.03,0,0,.43-.08.87.5-.71-.27-1.2-.18-1.2-.18.02-.02.05-.05.08-.08Z"/>
            <path class="cls-4" d="M81.67,63.82c.09.01.49.08.88.3-.22-.4-.62-.46-.66-.46.02-.01.03-.02.03-.02,0,0,.41-.03.77.61-.67-.37-1.11-.35-1.11-.35.03-.02.06-.04.09-.07Z"/>
            <path class="cls-4" d="M79.37,64.92c.05.03.27.18.44.41-.02-.3-.23-.45-.26-.47.01,0,.03,0,.03,0,0,0,.24.11.28.58-.29-.4-.57-.5-.57-.5.02,0,.05-.01.08-.02Z"/>
            <path class="cls-4" d="M81.25,64.11s.38.19.48.42c-.3-.28-.63-.33-.63-.33l.15-.09Z"/>
            <path class="cls-4" d="M79.18,64.96s.22.25.24.44c-.14-.29-.37-.42-.37-.42l.14-.03Z"/>
            <path class="cls-4" d="M80.81,64.37s.36.22.45.46c-.27-.3-.6-.38-.6-.38l.16-.08Z"/>
          </g>
        </g>
        <path class="cls-8" d="M61.64,29.86s15.47,12.63,20.55,23.33,1.73,59.38-7.55,69.58c9.59-5.07,11.86-20.02,11.86-20.02-.02,4.19-.95,12.52-3.15,16.16,3.42-2.65,8.53-13.81,9.54-63.82-1.64-13.86-19.86-25.62-31.25-25.24Z"/>
        <path class="cls-8" d="M67.06,33.09s-15.47,12.63-20.55,23.33-2.95,55.58,7.27,66.61c-9.59-5.07-11.59-17.04-11.59-17.04.02,4.19.68,9.55,2.88,13.19-3.42-2.65-8.26-10.83-9.27-60.85,1.64-13.86,19.86-25.62,31.25-25.24Z"/>
        <path class="cls-8" d="M64.84,21.26c1.12-.96,12.89-.9,18.25,2.87,5.36,3.77,7.45,8.8,7.85,9.76s14.5,14.45,1.49,34.99c-1.89-3.96-14.21-28.63-27.59-30.37.43-11.16,0-17.26,0-17.26Z"/>
        <path class="cls-8" d="M65.54,21.26c-1.16-.96-12.7-.9-18.26,2.87-5.56,3.77-7.72,8.8-8.14,9.76s-15.04,14.45-1.54,34.99c1.96-3.96,14.07-28.63,27.94-30.37-.44-11.16,0-17.26,0-17.26Z"/>
        <path class="cls-8" d="M54.45,26.02s5.5-13.31,10.68-13.31,9.06,13.31,9.06,13.31h-19.73Z"/>
      </g>
    </g>
  </g>
</svg>