<?xml version="1.0" encoding="UTF-8"?>
<svg id="Calque_2" data-name="Calque 2" xmlns="http://www.w3.org/2000/svg" xmlns:xlink="http://www.w3.org/1999/xlink" viewBox="0 0 201.34 201.34">
  <defs>
    <style>
      .cls-1 {
        fill: #201510;
      }

      .cls-2 {
        fill: #dda09b;
      }

      .cls-3 {
        fill: #1d1d1b;
      }

      .cls-4 {
        fill: #fff;
      }

      .cls-5 {
        fill: #dfbeb1;
      }

      .cls-6 {
        fill: #362824;
      }

      .cls-7 {
        fill: #e44134;
      }

      .cls-8 {
        fill: #bea6a1;
      }

      .cls-9 {
        fill: #905f61;
      }

      .cls-10 {
        clip-path: url(#clippath);
      }

      .cls-11 {
        fill: #f5d5cb;
      }
    </style>
    <clipPath id="clippath">
      <path class="cls-11" d="M122.63,136.91h-44.22v24.54s1.49,15.47,22.11,15.47,21.93-15.84,21.93-15.84l.18-24.17Z"/>
    </clipPath>
  </defs>
  <g id="Calque_2-2" data-name="Calque 2">
    <g>
      <path class="cls-8" d="M201.34,100.67c0,34.03-16.89,64.12-42.74,82.33-16.38,11.56-36.36,18.34-57.93,18.34s-41.87-6.89-58.32-18.61C16.72,164.49,0,134.53,0,100.67,0,45.07,45.07,0,100.67,0s100.67,45.07,100.67,100.67Z"/>
      <g>
        <path class="cls-6" d="M147.99,79.68s2.06,38.5,3.09,55.86c1.02,17.36,23.91,26.85,7.62,46.95-30.25,15.51-57.48,8.53-57.48,8.53v-116.43l46.78,5.08Z"/>
        <path class="cls-6" d="M51.35,79.68s-.06,38.5-1.09,55.86-23.91,26.85-7.62,46.95c30.25,15.51,57.48,8.53,57.48,8.53v-116.43s-48.78,5.08-48.78,5.08Z"/>
        <path class="cls-7" d="M158.69,182.49c.03.12,0,.29-.09.51-16.38,11.56-36.36,18.34-57.93,18.34s-41.87-6.89-58.32-18.61c-.01-.1-.01-.18,0-.24.01-.05.06-.12.14-.21,1.18-1.32,9.72-6.36,19.9-12.13.98-.55,1.97-1.12,2.98-1.68.29-.17.59-.34.89-.49,2.03-1.16,4.11-2.32,6.18-3.47,6.72-3.75,13.37-7.41,18.51-10.22,4.66-2.54,8.07-4.4,9.18-5,.26-.14.39-.21.39-.21,0,0,.24.13.69.37,1.34.73,4.58,2.49,8.88,4.84,4.36,2.39,9.8,5.38,15.45,8.51,2.06,1.14,4.14,2.3,6.2,3.46.44.24.87.49,1.31.73.97.55,1.93,1.09,2.89,1.63,12.02,6.77,22.53,12.94,22.75,13.87Z"/>
        <g>
          <path class="cls-11" d="M122.63,136.91h-44.22v24.54s1.49,15.47,22.11,15.47,21.93-15.84,21.93-15.84l.18-24.17Z"/>
          <g class="cls-10">
            <path class="cls-5" d="M67.81,143.61h68.69s-18.53,18.94-35.98,19.28c-17.45.33-32.71-19.28-32.71-19.28Z"/>
          </g>
        </g>
        <path class="cls-11" d="M56.86,94.98s-4.99-7.81-11.52-6.79c-6.53,1.02-4.48,14.85.77,22.28,5.25,7.43,12.42,13.32,18.95,13.06s-8.19-28.55-8.19-28.55Z"/>
        <path class="cls-11" d="M145.98,94.98s4.99-7.81,11.52-6.79c6.53,1.02,4.48,14.85-.77,22.28-5.25,7.43-12.42,13.32-18.95,13.06-6.53-.26,8.19-28.55,8.19-28.55Z"/>
        <path class="cls-11" d="M52.29,77.6c1.13-25.25,22.2-45.43,48.23-45.43s47.1,20.18,48.23,45.43l-.1,5.12c-.72,9.95-2.88,31.74-8.4,40.31-7.26,11.26-18.88,32.87-39.73,32.87s-32.47-21.61-39.73-32.87c-5.53-8.57-7.68-30.38-8.4-40.32l-.1-5.11Z"/>
        <circle class="cls-2" cx="72.96" cy="105.96" r="11"/>
        <circle class="cls-2" cx="128.08" cy="105.68" r="11"/>
        <path class="cls-4" d="M70.24,94.41c1.78-1.77,8.68-7.48,15.41,2.25.44.64.25,1.54-.43,1.93-7.36,4.31-13.52.72-15.19-3.07-.17-.38-.1-.82.2-1.11Z"/>
        <path class="cls-4" d="M128.34,94.41c-1.78-1.77-8.68-7.48-15.41,2.25-.44.64-.25,1.54.43,1.93,7.36,4.31,13.52.72,15.19-3.07.17-.38.1-.82-.2-1.11Z"/>
        <circle class="cls-1" cx="77.87" cy="95.85" r="4.56"/>
        <circle class="cls-1" cx="120.78" cy="95.85" r="4.56"/>
        <path class="cls-3" d="M53.02,97.63c-6.33-5.68-8.22-1.12-6.32,5.36.45,1.68.95,3.36,1.52,5.03-.92-1.51-1.68-3.13-2.27-4.81-.89-2.71-2.17-7.46,1.35-8.88,2.37-.61,4.45,1.59,5.71,3.29h0Z"/>
        <path class="cls-3" d="M150.23,97.05c1.26-1.71,3.34-3.91,5.71-3.29,3.52,1.42,2.24,6.16,1.35,8.88-.59,1.68-1.35,3.29-2.27,4.81.56-1.68,1.07-3.36,1.52-5.03,1.91-6.5,0-11.03-6.32-5.36h0Z"/>
        <path class="cls-3" d="M93.63,94.04c.46,4.99.85,9.99.19,15-.29,2.66-.63,6.53,2.1,7.98,1.37.47,3.03.36,4.48.22.28-.06.64-.09.81-.36-.12.31-.49.41-.77.52-6.86,2.07-8.37-2.7-7.61-8.5.68-4.88.49-9.92.8-14.86h0Z"/>
        <circle class="cls-4" cx="79.42" cy="94.04" r="1.05"/>
        <circle class="cls-4" cx="123.04" cy="94.04" r="1.05"/>
        <path class="cls-6" d="M88.16,84.55c.75-.92-.31-3.89-1.27-4.6-1.07-.78-8.53.33-11.36.65-4.09.46-8.01,1.95-11.57,4.01l-1.85,1.07s25.17-.05,26.05-1.13Z"/>
        <path class="cls-6" d="M110.48,84.55c-.75-.92.31-3.89,1.27-4.6,1.07-.78,8.53.33,11.36.65,4.09.46,8.01,1.95,11.57,4.01l1.85,1.07s-25.17-.05-26.05-1.13Z"/>
        <path class="cls-3" d="M99.32,132.49c-4.82,0-9.03-.6-11.45-1.51.89,1.56,5.66,2.76,11.45,2.76s10.56-1.2,11.45-2.76c-2.43.91-6.64,1.51-11.45,1.51Z"/>
        <path class="cls-9" d="M99.32,134.7c-2.54,0-4.81-.09-6.38-.66-.28-.1-.5.26-.31.5,1.12,1.43,3.68,2.96,6.68,2.96s5.56-1.53,6.68-2.96c.19-.24-.03-.6-.31-.5-1.57.58-3.84.66-6.38.66Z"/>
        <path class="cls-3" d="M78.38,91.13c-3.49-.23-4.93.89-6.12,1.65-1.2.76-3.54,1.55-6,1.26,1.96.36,3.33.31,4.37.11-1.48.73-1.97.77-4.11,1.27,3.34-.15,5.47-1.23,6.57-1.99.63-.44,1.3-.82,2.02-1.07,1.02-.35,2.17-.57,3.27-.38,2.21.38,5.59,2.4,6.43,3.54,0,0-2.95-4.16-6.43-4.39Z"/>
        <path class="cls-3" d="M120.2,91.13c3.49-.23,4.93.89,6.12,1.65,1.2.76,3.54,1.55,6,1.26-1.96.36-3.33.31-4.37.11,1.48.73,1.97.77,4.11,1.27-3.34-.15-5.47-1.23-6.57-1.99-.63-.44-1.3-.82-2.02-1.07-1.02-.35-2.17-.57-3.27-.38-2.21.38-5.59,2.4-6.43,3.54,0,0,2.95-4.16,6.43-4.39Z"/>
        <g>
          <path class="cls-3" d="M71.75,97.91c-.15,0-.84,0-1.49.24.43-.56,1.08-.57,1.15-.57-.02-.02-.05-.05-.05-.05,0,0-.66-.13-1.34.77,1.1-.42,1.86-.28,1.86-.28-.04-.03-.08-.08-.13-.12Z"/>
          <path class="cls-3" d="M72.53,98.57c-.15.02-.76.12-1.37.46.34-.62.95-.71,1.03-.72-.03-.02-.05-.04-.05-.04,0,0-.64-.04-1.18.94,1.03-.58,1.72-.54,1.72-.54-.04-.03-.09-.06-.14-.1Z"/>
          <path class="cls-3" d="M76.07,100.27c-.08.05-.42.27-.69.64.04-.46.35-.69.39-.72-.02,0-.04,0-.04,0,0,0-.37.17-.43.9.45-.62.88-.78.88-.78-.03,0-.08-.02-.12-.03Z"/>
          <path class="cls-3" d="M73.18,99.02s-.58.3-.74.65c.46-.43.97-.51.97-.51l-.23-.14Z"/>
          <path class="cls-3" d="M76.37,100.33s-.35.38-.37.68c.22-.44.58-.64.58-.64l-.21-.04Z"/>
          <path class="cls-3" d="M73.85,99.41s-.56.34-.69.7c.42-.46.93-.58.93-.58l-.24-.12Z"/>
        </g>
        <g>
          <path class="cls-3" d="M126.89,97.9c.15,0,.84,0,1.49.24-.43-.56-1.08-.57-1.15-.57.02-.02.05-.05.05-.05,0,0,.66-.13,1.34.77-1.1-.42-1.86-.28-1.86-.28.04-.03.08-.08.13-.12Z"/>
          <path class="cls-3" d="M126.11,98.55c.15.02.76.12,1.37.46-.34-.62-.95-.71-1.03-.72.03-.02.05-.04.05-.04,0,0,.64-.04,1.18.94-1.03-.58-1.72-.54-1.72-.54.04-.03.09-.06.14-.1Z"/>
          <path class="cls-3" d="M122.57,100.25c.08.05.42.27.69.64-.04-.46-.35-.69-.39-.72.02,0,.04,0,.04,0,0,0,.37.17.43.9-.45-.62-.88-.78-.88-.78.03,0,.08-.02.12-.03Z"/>
          <path class="cls-3" d="M125.46,99s.58.3.74.65c-.46-.43-.97-.51-.97-.51l.23-.14Z"/>
          <path class="cls-3" d="M122.27,100.31s.35.38.37.68c-.22-.44-.58-.64-.58-.64l.21-.04Z"/>
          <path class="cls-3" d="M124.79,99.4s.56.34.69.7c-.42-.46-.93-.58-.93-.58l.24-.12Z"/>
        </g>
        <path class="cls-6" d="M95.19,46.11s23.89,19.5,31.73,36.03,2.68,91.7-11.66,107.45c14.81-7.83,18.32-30.91,18.32-30.91-.03,6.47-1.47,19.34-4.87,24.95,5.28-4.09,13.18-21.32,14.74-98.55-2.53-21.4-30.67-39.57-48.26-38.97Z"/>
        <path class="cls-6" d="M103.55,51.1s-23.89,19.5-31.73,36.03-4.56,85.82,11.23,102.86c-14.81-7.83-17.89-26.32-17.89-26.32.03,6.47,1.04,14.74,4.45,20.36-5.28-4.09-12.75-16.73-14.31-93.96,2.53-21.4,30.67-39.57,48.26-38.97Z"/>
        <path class="cls-6" d="M100.13,32.83c1.73-1.49,19.91-1.4,28.19,4.43,8.28,5.82,11.5,13.59,12.11,15.07s22.39,22.31,2.3,54.04c-2.91-6.11-21.95-44.21-42.6-46.89.66-17.23,0-26.65,0-26.65Z"/>
        <path class="cls-6" d="M101.21,32.83c-1.8-1.49-19.61-1.4-28.2,4.43-8.59,5.82-11.93,13.59-12.56,15.07s-23.22,22.31-2.39,54.04c3.02-6.11,21.73-44.21,43.15-46.89-.68-17.23,0-26.65,0-26.65Z"/>
        <path class="cls-6" d="M84.08,40.18s8.49-20.55,16.49-20.55,13.99,20.55,13.99,20.55h-30.48Z"/>
      </g>
    </g>
  </g>
</svg>