<?xml version="1.0" encoding="UTF-8"?>
<svg id="Calque_2" data-name="Calque 2" xmlns="http://www.w3.org/2000/svg" viewBox="0 0 79.01 79.01">
  <defs>
    <style>
      .cls-1 {
        fill: #a3191c;
      }

      .cls-2 {
        fill: #fff6f1;
      }

      .cls-3 {
        fill: #e6c9c1;
      }

      .cls-4 {
        fill: #4f1b11;
      }
    </style>
  </defs>
  <g id="Calque_2-2" data-name="Calque 2">
    <g>
      <rect class="cls-2" width="79.01" height="79.01"/>
      <g>
        <path class="cls-4" d="M23.5,56.33c-.02-.28-.56-6.93-7.63-6.93s-7.22,6.62-7.23,6.91h-.85c0-.09.18-7.76,8.08-7.76s8.47,7.65,8.48,7.72l-.85.06Z"/>
        <path class="cls-1" d="M19.43,65.03h-7.24v-.73c0-.62.31-1.19.82-1.53l.08-.05c.3-.2.65-.3,1-.3h3.5c.37,0,.73.11,1.03.32.5.34.79.9.79,1.5v.78ZM12.71,64.52h6.21v-.27c0-.43-.21-.83-.57-1.08-.22-.15-.48-.23-.74-.23h-3.5c-.26,0-.51.07-.72.22l-.08.05c-.37.24-.59.65-.59,1.1v.21Z"/>
        <g>
          <path class="cls-1" d="M15.78,52.33l-4.26,5.98s0,.03,0,.04l2.35,4.34h3.58l2.77-4.39-4.38-5.97s-.05-.02-.06,0ZM15.87,60.89c-1.18,0-2.15-.96-2.15-2.14s.97-2.15,2.15-2.15,2.14.96,2.14,2.15-.96,2.14-2.14,2.14Z"/>
          <path class="cls-1" d="M17.6,62.94h-3.88l-2.5-4.61.09-.17,4.34-6.09.29-.02.11.12,4.49,6.11-2.94,4.66ZM14.03,62.42h3.28l2.6-4.12-4.1-5.58-4,5.62,2.22,4.08ZM15.87,61.15c-1.33,0-2.41-1.08-2.41-2.4s1.08-2.41,2.41-2.41,2.4,1.08,2.4,2.41-1.08,2.4-2.4,2.4ZM15.87,56.85c-1.05,0-1.9.85-1.9,1.9s.85,1.88,1.9,1.88,1.88-.85,1.88-1.88-.85-1.9-1.88-1.9Z"/>
        </g>
        <path class="cls-4" d="M15.81,56.95c-.19-1.64-.19-3.29,0-4.93.19,1.64.19,3.29,0,4.93h0Z"/>
        <path class="cls-1" d="M8.22,59.9c-1.06,0-1.93-.86-1.93-1.93s.86-1.93,1.93-1.93,1.93.86,1.93,1.93-.86,1.93-1.93,1.93ZM8.22,56.56c-.78,0-1.41.63-1.41,1.41s.63,1.41,1.41,1.41,1.41-.63,1.41-1.41-.63-1.41-1.41-1.41Z"/>
        <path class="cls-1" d="M23.92,59.9c-1.06,0-1.93-.86-1.93-1.93s.86-1.93,1.93-1.93,1.93.86,1.93,1.93-.86,1.93-1.93,1.93ZM23.92,56.56c-.78,0-1.41.63-1.41,1.41s.63,1.41,1.41,1.41,1.41-.63,1.41-1.41-.63-1.41-1.41-1.41Z"/>
        <path class="cls-4" d="M24.32,49c-.01.38-.33.67-.7.66-.24-.01-.44-.13-.56-.31h-14.26c-.14.19-.35.32-.6.31-.38-.01-.67-.33-.66-.7.01-.39.33-.68.7-.67.24.01.44.14.56.32h14.26c.12-.2.35-.33.6-.32.38.01.67.33.66.72Z"/>
        <g>
          <circle class="cls-1" cx="15.87" cy="48.98" r="1.67"/>
          <path class="cls-1" d="M15.87,50.9c-1.06,0-1.93-.86-1.93-1.93s.86-1.93,1.93-1.93,1.93.86,1.93,1.93-.86,1.93-1.93,1.93ZM15.87,47.57c-.78,0-1.41.63-1.41,1.41s.63,1.41,1.41,1.41,1.41-.63,1.41-1.41-.63-1.41-1.41-1.41Z"/>
        </g>
        <circle class="cls-1" cx="53.49" cy="22.11" r="1.69"/>
        <circle class="cls-1" cx="65.91" cy="22.11" r="1.69"/>
        <circle class="cls-1" cx="53.49" cy="34.07" r="1.69"/>
        <circle class="cls-1" cx="65.91" cy="34.07" r="1.69"/>
        <path class="cls-1" d="M55.73,22.3h-.83c-.11,0-.19-.09-.19-.19s.09-.19.19-.19h.83c.11,0,.19.09.19.19s-.09.19-.19.19Z"/>
        <path class="cls-1" d="M62.17,22.3h-.97c-.11,0-.19-.09-.19-.19s.09-.19.19-.19h.97c.11,0,.19.09.19.19s-.09.19-.19.19ZM60.22,22.3h-.98c-.11,0-.19-.09-.19-.19s.09-.19.19-.19h.98c.11,0,.19.09.19.19s-.09.19-.19.19ZM58.27,22.3h-.98c-.11,0-.19-.09-.19-.19s.09-.19.19-.19h.98c.11,0,.19.09.19.19s-.09.19-.19.19Z"/>
        <path class="cls-1" d="M64.4,22.3h-.83c-.11,0-.19-.09-.19-.19s.09-.19.19-.19h.83c.11,0,.19.09.19.19s-.09.19-.19.19Z"/>
        <path class="cls-1" d="M55.73,34.27h-.83c-.11,0-.19-.09-.19-.19s.09-.19.19-.19h.83c.11,0,.19.09.19.19s-.09.19-.19.19Z"/>
        <path class="cls-1" d="M62.17,34.27h-.97c-.11,0-.19-.09-.19-.19s.09-.19.19-.19h.97c.11,0,.19.09.19.19s-.09.19-.19.19ZM60.22,34.27h-.98c-.11,0-.19-.09-.19-.19s.09-.19.19-.19h.98c.11,0,.19.09.19.19s-.09.19-.19.19ZM58.27,34.27h-.98c-.11,0-.19-.09-.19-.19s.09-.19.19-.19h.98c.11,0,.19.09.19.19s-.09.19-.19.19Z"/>
        <path class="cls-1" d="M64.4,34.27h-.83c-.11,0-.19-.09-.19-.19s.09-.19.19-.19h.83c.11,0,.19.09.19.19s-.09.19-.19.19Z"/>
        <path class="cls-1" d="M53.49,33.04c-.11,0-.19-.09-.19-.19v-.83c0-.11.09-.19.19-.19s.19.09.19.19v.83c0,.11-.09.19-.19.19Z"/>
        <path class="cls-1" d="M53.49,30.64c-.11,0-.19-.09-.19-.19v-.98c0-.11.09-.19.19-.19s.19.09.19.19v.98c0,.11-.09.19-.19.19ZM53.49,28.69c-.11,0-.19-.09-.19-.19v-.97c0-.11.09-.19.19-.19s.19.09.19.19v.97c0,.11-.09.19-.19.19ZM53.49,26.74c-.11,0-.19-.09-.19-.19v-.98c0-.11.09-.19.19-.19s.19.09.19.19v.98c0,.11-.09.19-.19.19Z"/>
        <path class="cls-1" d="M53.49,24.36c-.11,0-.19-.09-.19-.19v-.83c0-.11.09-.19.19-.19s.19.09.19.19v.83c0,.11-.09.19-.19.19Z"/>
        <path class="cls-1" d="M65.91,33.27c-.11,0-.19-.09-.19-.19v-.83c0-.11.09-.19.19-.19s.19.09.19.19v.83c0,.11-.09.19-.19.19Z"/>
        <path class="cls-1" d="M65.91,30.88c-.11,0-.19-.09-.19-.19v-.98c0-.11.09-.19.19-.19s.19.09.19.19v.98c0,.11-.09.19-.19.19ZM65.91,28.93c-.11,0-.19-.09-.19-.19v-.97c0-.11.09-.19.19-.19s.19.09.19.19v.97c0,.11-.09.19-.19.19ZM65.91,26.98c-.11,0-.19-.09-.19-.19v-.98c0-.11.09-.19.19-.19s.19.09.19.19v.98c0,.11-.09.19-.19.19Z"/>
        <path class="cls-1" d="M65.91,24.6c-.11,0-.19-.09-.19-.19v-.83c0-.11.09-.19.19-.19s.19.09.19.19v.83c0,.11-.09.19-.19.19Z"/>
        <path class="cls-4" d="M60.74,32.21h-2.09c-.32,0-.56-.22-.56-.51,0-.19.08-.3.15-.4.12-.17.28-.39.28-1.23v-5.06h-.77c-.8,0-1.07.48-1.33,1.1-.09.22-.32.34-.56.28-.25-.08-.4-.33-.34-.58l.37-1.38c.06-.22.25-.36.47-.36h6.66c.22,0,.41.15.47.36h0s.37,1.38.37,1.38c.06.25-.09.5-.34.58-.24.06-.48-.06-.57-.28-.26-.62-.52-1.09-1.33-1.09h-.77v5.06c0,.83.16,1.06.28,1.23.07.1.15.21.15.4,0,.29-.24.51-.56.51ZM57.76,24.76h1.02v5.31c0,.91-.19,1.18-.33,1.38-.07.09-.1.14-.1.25,0,.14.13.25.3.25h2.09c.18,0,.3-.1.3-.25,0-.11-.04-.16-.1-.25-.14-.19-.33-.46-.33-1.38v-5.31h1.02c.96,0,1.29.59,1.56,1.25.04.1.15.16.26.13.11-.03.18-.15.15-.27l-.37-1.38c-.03-.1-.12-.17-.22-.17h-6.66c-.1,0-.19.07-.22.17l-.37,1.38c-.03.11.04.23.16.26.1.03.21-.03.25-.13.28-.66.6-1.26,1.56-1.26Z"/>
        <path class="cls-4" d="M69.16,44.11c-.26,0-.51-.14-.63-.39l-1.45-2.92-1.65.82c-.21.1-.46.08-.65-.06-.19-.14-.28-.37-.25-.6l1.03-6.62c.03-.21.16-.38.35-.47.18-.09.39-.08.57.02l5.91,3.16c.21.11.33.32.33.56,0,.24-.13.45-.35.55l-1.65.82,1.45,2.92c.08.17.1.36.04.53-.06.18-.19.33-.35.41l-2.38,1.19c-.1.05-.21.07-.31.07ZM67.31,40.11l1.68,3.38c.05.09.16.13.26.09l2.38-1.19c.06-.03.09-.08.09-.11.02-.05.01-.1,0-.14l-1.68-3.38,2.11-1.05c.05-.03.06-.07.06-.1,0-.02,0-.07-.06-.1l-5.91-3.16s-.08-.01-.1,0c-.02,0-.05.03-.06.09l-1.03,6.62c0,.06.02.09.04.11.02.01.06.04.11.01l2.11-1.05Z"/>
        <path class="cls-4" d="M41.56,40.81H7.8c-.37,0-.67-.3-.67-.67V13.75c0-.37.3-.67.67-.67h33.76c.37,0,.67.3.67.67v26.39c0,.37-.3.67-.67.67ZM7.8,13.6c-.09,0-.16.07-.16.16v26.39c0,.09.07.16.16.16h33.76c.09,0,.16-.07.16-.16V13.75c0-.09-.07-.16-.16-.16H7.8Z"/>
        <circle class="cls-1" cx="9.27" cy="15.41" r=".54"/>
        <circle class="cls-3" cx="10.84" cy="15.41" r=".54"/>
        <circle class="cls-3" cx="12.41" cy="15.41" r=".54"/>
        <path class="cls-4" d="M46.8,44.09H13.04c-.37,0-.67-.3-.67-.67v-26.39c0-.37.3-.67.67-.67h33.76c.37,0,.67.3.67.67v26.39c0,.37-.3.67-.67.67ZM13.04,16.87c-.09,0-.16.07-.16.16v26.39c0,.09.07.16.16.16h33.76c.09,0,.16-.07.16-.16v-26.39c0-.09-.07-.16-.16-.16H13.04Z"/>
        <circle class="cls-1" cx="14.5" cy="18.45" r=".54"/>
        <circle class="cls-3" cx="16.07" cy="18.45" r=".54"/>
        <circle class="cls-3" cx="17.64" cy="18.45" r=".54"/>
        <path class="cls-1" d="M22.93,42.24l-2.66-1.5.21-.38c.14-.25.4-.41.68-.43.2-.01.37.02.51.1l1.15.65c.15.08.27.21.35.37.12.25.11.55-.02.79l-.22.4ZM20.98,40.55l1.75.99c.03-.08.02-.18-.02-.26-.03-.06-.08-.11-.14-.14l-1.15-.65c-.06-.03-.13-.05-.19-.04-.11,0-.2.05-.26.11Z"/>
        <g>
          <path class="cls-1" d="M24.02,37.16l-2.51,1.18s0,0,0,.01l-.03,1.86,1.18.66,1.73-.93-.34-2.78s-.01-.02-.02-.01ZM22.58,39.79c-.28-.16-.38-.51-.22-.79s.51-.38.79-.22.38.51.22.79-.51.38-.78.22Z"/>
          <path class="cls-1" d="M22.65,41.18l-1.44-.81.03-2.18.16-.08,2.62-1.24.25.13.02.14.36,2.95-2.01,1.08ZM21.74,40.07l.92.52,1.45-.78-.28-2.27-2.07.97-.02,1.56ZM22.86,40.13c-.14,0-.28-.04-.41-.11h0c-.19-.11-.34-.29-.4-.5-.06-.21-.03-.44.08-.63.11-.2.29-.34.5-.4.21-.06.44-.03.63.08.19.11.33.29.39.5.06.22.03.44-.08.64-.11.19-.29.33-.5.39-.07.02-.15.03-.23.03ZM22.86,38.97s-.06,0-.09.01c-.08.02-.15.08-.19.15-.04.07-.05.16-.03.24.02.08.08.15.15.19h0c.07.04.16.05.24.03.08-.02.15-.08.19-.15.04-.08.05-.16.03-.25-.02-.08-.08-.15-.15-.19-.05-.03-.1-.04-.16-.04Z"/>
        </g>
        <path class="cls-4" d="M23.08,38.87c.25-.66.6-1.27,1.03-1.82-.25.66-.6,1.27-1.03,1.82h0Z"/>
        <path class="cls-1" d="M51.16,51.02l1.23.3c.43.1.7.51.64.95l-.18,1.26c-.13.89.83,1.53,1.61,1.07l1.09-.66c.37-.23.86-.13,1.12.22l.76,1.02c.54.72,1.68.49,1.89-.39l.3-1.23c.11-.43.51-.7.95-.64l1.25.18c.89.13,1.53-.84,1.06-1.61l-.66-1.09c-.23-.37-.13-.86.22-1.12l1.02-.76c.72-.54.49-1.68-.39-1.89l-1.23-.3c-.43-.1-.7-.51-.64-.95l.18-1.26c.13-.89-.84-1.53-1.61-1.06l-1.08.66c-.38.23-.86.13-1.13-.22l-.76-1.02c-.54-.72-1.68-.49-1.89.39l-.3,1.23c-.1.43-.51.7-.95.64l-1.26-.18c-.89-.13-1.53.84-1.06,1.61l.66,1.09c.23.37.13.86-.22,1.12l-1.02.76c-.72.54-.49,1.68.39,1.89ZM56.51,45.84c1.64-.34,3.25.72,3.59,2.37s-.72,3.25-2.37,3.58-3.26-.72-3.59-2.36.72-3.25,2.37-3.59Z"/>
        <path class="cls-4" d="M41.95,52.82l.39,1.2c.14.42-.07.87-.47,1.04l-1.16.51c-.83.35-.87,1.51-.07,1.93l1.13.58c.39.2.56.66.4,1.07l-.47,1.18c-.33.84.46,1.69,1.32,1.41l1.21-.39c.42-.13.87.07,1.05.48l.5,1.16c.36.83,1.52.87,1.93.06l.58-1.13c.2-.39.66-.56,1.07-.4l1.18.47c.84.33,1.68-.46,1.41-1.32l-.39-1.2c-.14-.42.07-.87.47-1.04l1.17-.5c.83-.36.87-1.52.06-1.93l-1.13-.57c-.39-.2-.56-.66-.41-1.08l.47-1.18c.33-.84-.46-1.68-1.32-1.41l-1.2.39c-.42.14-.87-.07-1.04-.47l-.5-1.17c-.36-.83-1.52-.87-1.93-.06l-.58,1.13c-.2.39-.66.56-1.07.4l-1.18-.47c-.84-.33-1.68.46-1.41,1.32ZM49.17,54.67c1.15,1.23,1.08,3.15-.15,4.3s-3.15,1.08-4.29-.14-1.09-3.15.14-4.3,3.15-1.09,4.3.14Z"/>
        <path class="cls-4" d="M59.95,54.7l.27,1.24c.1.43-.15.86-.57.99l-1.21.39c-.86.27-1.01,1.42-.25,1.91l1.07.68c.37.23.5.72.3,1.1l-.58,1.13c-.41.81.3,1.72,1.18,1.53l1.24-.27c.43-.09.86.15,1,.57l.38,1.21c.28.86,1.43,1.01,1.92.25l.68-1.07c.23-.37.72-.5,1.1-.3l1.13.58c.81.41,1.72-.3,1.53-1.18l-.27-1.24c-.1-.43.15-.86.57-.99l1.21-.39c.86-.28,1.01-1.43.25-1.92l-1.07-.68c-.37-.24-.5-.72-.3-1.11l.58-1.13c.41-.8-.3-1.72-1.18-1.53l-1.24.27c-.43.1-.86-.15-.99-.57l-.39-1.21c-.28-.86-1.43-1.01-1.91-.24l-.69,1.07c-.23.37-.72.5-1.1.3l-1.13-.58c-.81-.41-1.72.3-1.53,1.18ZM66.96,57.23c1.02,1.33.78,3.23-.55,4.26s-3.23.78-4.26-.55-.78-3.24.55-4.27,3.24-.78,4.27.55Z"/>
      </g>
    </g>
  </g>
</svg>