<?xml version="1.0" encoding="UTF-8"?>
<svg id="Calque_2" data-name="Calque 2" xmlns="http://www.w3.org/2000/svg" viewBox="0 0 147.34 316.14">
  <defs>
    <style>
      .cls-1 {
        fill: #201510;
      }

      .cls-2 {
        fill: #a3191c;
      }

      .cls-3 {
        fill: #1d1d1b;
      }

      .cls-4 {
        fill: #3d3d3c;
      }

      .cls-5 {
        fill: #fff;
      }

      .cls-6 {
        fill: #362824;
      }

      .cls-7 {
        stroke-width: .25px;
      }

      .cls-7, .cls-8 {
        fill: none;
        stroke: #1d1d1b;
        stroke-miterlimit: 10;
      }

      .cls-9 {
        fill: #282726;
      }

      .cls-8 {
        stroke-width: .5px;
      }

      .cls-10 {
        fill: #dda19c;
      }

      .cls-11 {
        fill: #f5d5cb;
      }
    </style>
  </defs>
  <g id="Calque_2-2" data-name="Calque 2">
    <g id="ux_ui" data-name="ux/ui">
      <path class="cls-8" d="M134.42,126.78c5.41,10.34,15.85,18.74,11.72,30.59-1.92,5.5-6.6,9.83-12.42,12.11-.35.13-.69.27-1.03.4-6.13,2.36-12.38,4.34-18.72,5.93"/>
      <path class="cls-6" d="M75.15,58.02l-.6,122.78c-20.46.14-40.94-3.51-60.16-10.92-.34-.13-.69-.27-1.03-.4-5.83-2.28-10.5-6.61-12.42-12.11-5.34-15.33,13.68-24.88,14.68-40.33,1.19-18.35,2.85-59.03,2.85-59.03h55.07s1.61,0,1.61,0Z"/>
      <path class="cls-8" d="M92.99,21.21C88.98,11.93,82.73.95,75.39.27v33.92"/>
      <path class="cls-6" d="M75.39.27v33.92h-27.95S61.46.24,74.67.24c.24,0,.48.01.72.03Z"/>
      <g>
        <path class="cls-11" d="M41.74,170.79s-16.64,17.42-20.09,18.8-11.64-.58-13.6,0-2.77,10.15.46,12.69c3.23,2.54,11.3,3.23,16.03-1.04,5.77-1.96,23.76-11.3,28.03-19.61-4.73-5.88-10.84-10.84-10.84-10.84Z"/>
        <path class="cls-3" d="M18.67,199.89c-2.05.23-4.31-.09-5.9-1.58-1.21-1.66-2.2-3.24-4.25-3.96,2.14-.04,3.79,1.73,4.89,3.32,1.37,1.31,3.42,1.77,5.26,2.21h0Z"/>
      </g>
      <path class="cls-8" d="M106.62,171c3.28,2.19,9.07,6.03,11.25,7.16,3.12,1.62,11.31,2.08,12.34.7,1.04-1.39,7.16-6.92,8.42-6.92s3.81,2.42,3.35,3.8c-.46,1.39-6.34,7.61-6.23,9,.12,1.38,3.92,3.46,2.42,4.73s-9.92-.12-12.34,0c-2.42.11-13.26,1.88-15.92.54-2.04-1.04-10.17-5.31-13.8-7.22"/>
      <line class="cls-8" x1="83.27" y1="152.25" x2="83.27" y2="146.18"/>
      <polyline class="cls-8" points="75.39 158.82 75.39 155.93 75.39 146.88 75.39 141.14"/>
      <rect class="cls-11" x="66.42" y="141.14" width="8.97" height="17.68"/>
      <path class="cls-8" d="M96.33,190.56c-5.26.18-16.41.07-20.94.01v-34.64c.09.01.17.01.26.01,4.39,0,7.62-3.69,7.62-3.69,0,0,4.46.92,7.46,2.54,2.99,1.61,13.15,12.68,17.99,14.07-7.84,7.84-13.84,15.46-13.84,15.46-1.62-.93-1.03,3.63,1.45,6.24Z"/>
      <path class="cls-2" d="M75.39,155.93v34.64c-1.23-.01-1.97-.02-1.97-.02,0,0-16.44.32-23.13.09,3.13-2.55,3.29-7.25,1.68-6.32,0,0-6-7.62-13.84-15.46,4.84-1.39,14.99-12.46,17.99-14.07,3-1.62,9.69-2.54,9.69-2.54,0,0,5.25,3.55,9.58,3.68Z"/>
      <path class="cls-9" d="M25.04,271.1s-3.38,10.69-3.38,14.19,1.23,18.88,12.15,19.65,10-13.38,10.46-18.76.94-10.68.94-10.68l-20.17-4.4Z"/>
      <path class="cls-8" d="M95.85,285.26c-1.01,5.53-3.4,16.76-7.14,22.75-5.07,8.15-16.61,9.54-22.3,6.15-5.69-3.38-3.54-13.53,0-18.15,3.54-4.61,6.77-14.91,7.23-15.53l1.75.12"/>
      <path class="cls-8" d="M75.39,188.62v36.2c.04-.39.05-.78.06-1.17-.05-4.92,0-9.84.15-14.76v-.27h.27c1.97.01,3.86-1.14,5.38-2.5-.67.79-1.47,1.48-2.36,2.04-.81.51-1.74.9-2.74.98.14,4.84.19,9.68.14,14.52-.05,1.89-.38,3.75-.9,5.55v53.88c8.31,1.01,20.77,2.2,20.77,2.2,4.61-8.46,6.46-30.15,2.92-45.22,3.7-5.03,8.34-32.46-2.75-49.51,0-.01-.02-.02-.02-.02-.42-.66-.87-1.3-1.34-1.92h-.01"/>
      <path class="cls-4" d="M81.25,206.12c-.67.79-1.47,1.48-2.36,2.04-.81.51-1.74.9-2.74.98.14,4.84.19,9.68.14,14.52-.05,1.89-.38,3.75-.9,5.55v53.88c-1.64-.2-3.11-.4-4.3-.57,2.15-5.39,4.46-27.53,4-28.3-.46-.75-3.07-9.47-3.36-16.87-.01-.03-.01-.06-.01-.08-.01-.2-.02-.4-.02-.59,0,1.85-16.76,22.77-19.73,25.53-2.96,2.77-5.95,9.39-7.34,15.54,0,0-17.07-3.69-21.53-4.62,0,0,1.23-4.92,1.69-10.3,2.16-14.76,15.54-32.14,20.31-32.45,0,0-3.23-14.46-2.31-23.84.92-9.38,9.18-17.92,9.18-17.92h23.42v36.2c.04-.39.05-.78.06-1.17-.05-4.92,0-9.84.15-14.76v-.27h.27c1.97.01,3.86-1.14,5.38-2.5Z"/>
      <path class="cls-8" d="M124.68,44.86s-.05-.08-.07-.11"/>
      <path class="cls-8" d="M75.39,22.32v124.56c2.07-.11,14.16-.89,19.64-3.21,4.4-1.85,15.73-7.43,25.2-23.16"/>
      <path class="cls-11" d="M75.39,22.32v124.56c-.2.01-.31.02-.31.02h-.23s-13.96-.69-19.96-3.23c-6-2.53-24.92-11.99-34.37-44.75-9.46-32.76-1.39-76.6,54.44-76.6h.43Z"/>
      <path class="cls-8" d="M131.83,101.79c.75,6.46.85,12.16.69,15.99-.64,16.08-9.49,25.83-19.19,28.44,2.16-1.41,4.34-4.14,4.1-5.86-2.92,2.87-7.99,7.84-19.44,7.05,25.47-1.17,25.04-37.47,19.44-53.92-.21-.61-.44-1.24-.69-1.87-9.9-15.18-25.33-34.06-41.35-36.15V21.73c.75.18,1.28.38,1.53.59,2.1-1.79,23-3.01,33,4.03,9.99,7.05,13.87,16.45,14.61,18.25.69,1.67,23.31,23.43,7.3,57.19Z"/>
      <path class="cls-6" d="M75.39,21.73v33.74c-25.85,3.25-47.9,47.12-51.55,54.52-25.13-38.4,2.12-63.59,2.88-65.39.77-1.8,4.8-11.2,15.16-18.25,9.15-6.22,27.79-5.99,33.51-4.62Z"/>
      <path class="cls-11" d="M24.84,98.69s-12.92,3.46-14.07,11.77c-1.15,8.31,6.23,31.61,27.68,17.07-5.77-14.07-13.61-28.84-13.61-28.84Z"/>
      <path class="cls-8" d="M118.05,131.01c-1.26-.46-2.58-1.08-3.97-1.86"/>
      <path class="cls-8" d="M131.8,101.53c3.34,1.9,6.78,4.82,7.35,8.92.73,5.22-1.92,16.37-9.32,20.31"/>
      <path class="cls-6" d="M59.25,53.13s-20.31,23.12-25.9,39.57c-5.6,16.45-6.03,52.76,19.44,53.93-11.46.79-16.53-4.19-19.44-7.06-.24,1.72,1.94,4.45,4.1,5.86-9.7-2.61-18.55-12.35-19.19-28.43-.65-16.08,3.04-63.3,41-63.87Z"/>
      <circle class="cls-10" cx="39.13" cy="120.53" r="8.23"/>
      <g>
        <path class="cls-8" d="M105.33,114.18c1.43-1.18,3.24-1.88,5.24-1.88.88,0,1.74.14,2.53.4"/>
        <path class="cls-8" d="M102.57,118.62c-.15.61-.23,1.25-.23,1.91,0,4.54,3.68,8.23,8.23,8.23,2.13,0,4.06-.81,5.52-2.14.01,0,.02-.01.02-.02"/>
        <path class="cls-8" d="M114.6,113.35c2.5,1.41,4.19,4.1,4.19,7.18,0,1.17-.24,2.28-.69,3.29"/>
      </g>
      <path class="cls-3" d="M75.39,127.37c-3.77,0-7.06-.47-8.96-1.18.7,1.22,4.43,2.16,8.96,2.16s8.26-.93,8.96-2.16c-1.9.71-5.19,1.18-8.96,1.18Z"/>
      <g>
        <ellipse class="cls-1" cx="52.82" cy="109.77" rx="8.47" ry="10.72"/>
        <ellipse class="cls-5" cx="55.71" cy="105.53" rx="1.95" ry="2.46"/>
        <path class="cls-3" d="M43.94,104.11c1.21-.95,2.41-1.93,3.76-2.51,1.89-.81,4.03-1.35,6.07-.9,4.11.9,10.38,5.63,11.95,8.31,0,0-5.47-9.78-11.95-10.32-4.74-.4-7.45.91-9.43,2.33-1.36.98-3.37,2.99-4.48,4.39-1.3,1.63-2.5,3.34-4.4,5.93-.2.27-.26.68-.12.99,1.18,2.62,4.16,5.31,4.16,5.31-1.78-2.46-2.51-4.72-2.19-6.15s4.79-5.96,6.63-7.39Z"/>
      </g>
      <g>
        <path class="cls-8" d="M103.28,102.12c1.68,1.96,2.73,4.76,2.73,7.87,0,5.92-3.8,10.72-8.47,10.72s-8.48-4.8-8.48-10.72c0-2.35.6-4.52,1.62-6.29"/>
        <ellipse class="cls-8" cx="100.43" cy="105.75" rx="1.95" ry="2.46"/>
        <path class="cls-8" d="M106.42,104.32c-1.21-.95-2.41-1.93-3.76-2.51-1.89-.81-4.03-1.35-6.07-.9-4.11.9-10.38,5.63-11.95,8.31,0,0,5.47-9.78,11.95-10.32,4.74-.4,7.45.91,9.43,2.33,1.36.98,3.37,2.99,4.48,4.39,1.3,1.63,2.5,3.34,4.4,5.93.2.27.26.68.12.99-1.18,2.62-4.16,5.31-4.16,5.31,1.78-2.46,2.51-4.72,2.19-6.15s-4.79-5.96-6.63-7.39Z"/>
      </g>
      <path class="cls-3" d="M63.02,92.8c-6.61.83-12.93.74-19.41,2-3.78.99-7.32,2.79-10.49,5.12,0,0-.22-.23-.22-.23,5.6-6.1,14-9.01,22.15-9.31,2.77.1,5.6.66,8.03,2.1l-.07.31h0Z"/>
      <path class="cls-8" d="M87.76,92.8c6.61.83,12.93.74,19.41,2,3.78.99,7.32,2.79,10.49,5.12,0,0,.22-.23.22-.23-5.6-6.1-14-9.01-22.15-9.31-2.77.1-5.6.66-8.03,2.1l.07.31h0Z"/>
      <path class="cls-3" d="M67.96,146.29c4.68.24,9.34.44,14.01,0-4.57,1.12-9.42.92-14.01,0h0Z"/>
      <line class="cls-7" x1="75.39" y1="22.32" x2="75.39" y2="18.58"/>
    </g>
  </g>
</svg>