<svg width="295" height="484" viewBox="0 0 295 484" fill="none" xmlns="http://www.w3.org/2000/svg">
<g clip-path="url(#clip0_1412_8901)">
<g clip-path="url(#clip1_1412_8901)">
<g clip-path="url(#clip2_1412_8901)">
<path d="M231.278 223.432C238.723 237.679 253.09 249.254 247.407 265.582C244.764 273.16 238.324 279.127 230.315 282.268C229.834 282.448 229.366 282.64 228.898 282.82C220.462 286.071 211.861 288.8 203.137 290.991" stroke="#1D1D1B" stroke-width="0.264008" stroke-miterlimit="10"/>
<path d="M149.714 128.686L148.888 297.866C120.733 298.058 92.5495 293.029 66.1005 282.819C65.6326 282.64 65.1509 282.447 64.6831 282.268C56.6603 279.126 50.2338 273.16 47.5916 265.581C40.2431 244.458 66.417 231.299 67.7931 210.01C69.4307 184.725 71.7151 128.672 71.7151 128.672H147.498H149.714V128.686Z" fill="#362824"/>
<path d="M174.265 77.9648C168.746 65.1778 160.146 50.0483 150.045 49.1113V95.8501" stroke="#1D1D1B" stroke-width="0.264008" stroke-miterlimit="10"/>
<path d="M150.045 49.1116V95.8504H111.582C111.582 95.8504 130.875 49.0703 149.054 49.0703C149.384 49.0703 149.714 49.0841 150.045 49.1116Z" fill="#362824"/>
<path d="M103.738 284.072C103.738 284.072 80.8394 308.075 76.0918 309.977C71.3442 311.879 60.0737 309.178 57.3765 309.977C54.6793 310.776 53.5647 323.963 58.0095 327.463C62.4544 330.963 73.5597 331.913 80.0688 326.03C88.009 323.329 112.765 310.459 118.642 299.009C112.132 290.907 103.724 284.072 103.724 284.072H103.738Z" fill="#F5D5CB"/>
<path d="M71.9911 324.17C69.17 324.487 66.06 324.046 63.872 321.993C62.2069 319.705 60.8445 317.528 58.0234 316.536C60.9683 316.481 63.2389 318.92 64.7527 321.111C66.638 322.916 69.459 323.55 71.9911 324.156V324.17Z" fill="#1D1D1B"/>
<path d="M193.02 284.363C197.533 287.381 205.501 292.672 208.501 294.229C212.795 296.461 224.065 297.095 225.482 295.194C226.914 293.278 235.335 285.659 237.069 285.659C238.803 285.659 242.312 288.993 241.679 290.895C241.046 292.81 232.955 301.38 233.106 303.296C233.271 305.197 238.501 308.063 236.436 309.813C234.372 311.563 222.785 309.648 219.455 309.813C216.125 309.965 201.208 312.404 197.547 310.557C194.74 309.124 183.552 303.241 178.557 300.609" stroke="#1D1D1B" stroke-width="0.264008" stroke-miterlimit="10"/>
<path d="M160.889 258.526V250.162" stroke="#1D1D1B" stroke-width="0.264008" stroke-miterlimit="10"/>
<path d="M150.045 267.58V263.598V251.128V243.219" stroke="#1D1D1B" stroke-width="0.264008" stroke-miterlimit="10"/>
<path d="M150.045 243.219H137.701V267.58H150.045V243.219Z" fill="#F5D5CB"/>
<path d="M178.861 311.315C171.623 311.563 156.279 311.412 150.045 311.329V263.598C150.169 263.612 150.279 263.612 150.403 263.612C156.444 263.612 160.889 258.527 160.889 258.527C160.889 258.527 167.026 259.795 171.155 262.027C175.269 264.246 189.251 279.499 195.911 281.414C185.122 292.217 176.866 302.717 176.866 302.717C174.636 301.435 175.448 307.719 178.861 311.315Z" stroke="#1D1D1B" stroke-width="0.264008" stroke-miterlimit="10"/>
<path d="M150.044 263.598V311.329C148.351 311.315 147.333 311.301 147.333 311.301C147.333 311.301 124.709 311.742 115.503 311.425C119.81 307.912 120.031 301.435 117.815 302.717C117.815 302.717 109.558 292.217 98.7695 281.414C105.43 279.499 119.398 264.246 123.526 262.027C127.654 259.795 136.861 258.527 136.861 258.527C136.861 258.527 144.085 263.419 150.044 263.598Z" fill="#A3191C"/>
<path d="M80.7568 422.291C80.7568 422.291 76.1055 437.021 76.1055 441.844C76.1055 446.666 77.7981 467.859 92.8254 468.92C107.853 469.981 106.587 450.483 107.22 443.07C107.853 435.657 108.513 428.354 108.513 428.354L80.7568 422.291Z" fill="#282726"/>
<path d="M178.2 441.803C176.811 449.423 173.522 464.897 168.375 473.151C161.398 484.381 145.518 486.296 137.687 481.625C129.857 476.967 132.816 462.982 137.687 456.616C142.559 450.264 147.004 436.071 147.637 435.217L150.045 435.382" stroke="#1D1D1B" stroke-width="0.264008" stroke-miterlimit="10"/>
<path d="M150.045 308.641V358.521C150.1 357.984 150.114 357.446 150.127 356.909C150.059 350.13 150.127 343.35 150.334 336.571V336.199H150.705C153.416 336.213 156.017 334.628 158.109 332.754C157.187 333.843 156.086 334.793 154.861 335.565C153.747 336.268 152.467 336.805 151.091 336.915C151.283 343.584 151.352 350.254 151.283 356.923C151.215 359.527 150.761 362.09 150.045 364.57V438.812C161.481 440.204 178.627 441.843 178.627 441.843C184.971 430.186 187.517 400.299 182.645 379.534C187.737 372.603 194.122 334.807 178.861 311.314C178.861 311.3 178.833 311.286 178.833 311.286C178.255 310.377 177.636 309.495 176.989 308.641H176.976" stroke="#1D1D1B" stroke-width="0.264008" stroke-miterlimit="10"/>
<path d="M158.109 332.754C157.187 333.843 156.087 334.793 154.862 335.565C153.747 336.268 152.467 336.805 151.091 336.915C151.284 343.584 151.353 350.254 151.284 356.923C151.215 359.527 150.761 362.09 150.045 364.57V438.812C147.789 438.536 145.766 438.261 144.128 438.026C147.087 430.599 150.266 400.093 149.633 399.032C148.999 397.998 145.408 385.983 145.009 375.786C144.995 375.745 144.995 375.704 144.995 375.676C144.981 375.4 144.967 375.125 144.967 374.863C144.967 377.412 121.904 406.238 117.817 410.041C113.743 413.858 109.629 422.98 107.716 431.454C107.716 431.454 84.2254 426.369 78.0879 425.088C78.0879 425.088 79.7805 418.309 80.4135 410.895C83.386 390.557 101.798 366.609 108.363 366.182C108.363 366.182 103.918 346.258 105.184 333.333C106.45 320.408 117.817 308.641 117.817 308.641H150.045V358.521C150.1 357.984 150.114 357.446 150.128 356.909C150.059 350.13 150.128 343.35 150.334 336.571V336.199H150.706C153.417 336.213 156.018 334.628 158.109 332.754Z" fill="#3D3D3C"/>
<path d="M217.874 110.552C217.874 110.552 217.805 110.442 217.777 110.4" stroke="#1D1D1B" stroke-width="0.264008" stroke-miterlimit="10"/>
<path d="M150.045 79.4941V251.127C152.893 250.975 169.531 249.9 177.072 246.704C183.127 244.154 198.718 236.466 211.75 214.791" stroke="#1D1D1B" stroke-width="0.264008" stroke-miterlimit="10"/>
<path d="M150.044 79.4941V251.127C149.769 251.141 149.618 251.154 149.618 251.154H149.301C149.301 251.154 130.091 250.204 121.834 246.704C113.577 243.217 87.5408 230.182 74.5364 185.042C61.5183 139.902 72.6236 79.4941 149.453 79.4941H150.044Z" fill="#F5D5CB"/>
<path d="M227.713 188.996C228.745 197.897 228.883 205.752 228.663 211.029C227.782 233.186 215.603 246.62 202.255 250.217C205.227 248.274 208.227 244.512 207.897 242.142C203.879 246.097 196.902 252.945 181.145 251.856C216.195 250.244 215.603 200.226 207.897 177.559C207.608 176.719 207.292 175.851 206.948 174.983C193.324 154.066 172.09 128.051 150.045 125.171V78.6806C151.077 78.9286 151.806 79.2042 152.15 79.4936C155.04 77.0271 183.801 75.346 197.562 85.0465C211.31 94.7608 216.649 107.713 217.668 110.193C218.617 112.495 249.745 142.478 227.713 188.996Z" stroke="#1D1D1B" stroke-width="0.264008" stroke-miterlimit="10"/>
<path d="M150.045 78.6812V125.172C114.472 129.65 84.1287 190.099 79.1058 200.296C44.5238 147.384 82.0232 112.674 83.069 110.194C84.1287 107.714 89.6744 94.7614 103.931 85.0471C116.523 76.4765 142.174 76.7934 150.045 78.6812Z" fill="#362824"/>
<path d="M80.4807 184.725C80.4807 184.725 62.7012 189.492 61.1187 200.943C59.5362 212.393 69.6919 244.498 99.2098 224.464C91.2695 205.076 80.4807 184.725 80.4807 184.725Z" fill="#F5D5CB"/>
<path d="M208.75 229.26C207.016 228.626 205.2 227.772 203.287 226.697" stroke="#1D1D1B" stroke-width="0.264008" stroke-miterlimit="10"/>
<path d="M227.672 188.639C232.268 191.257 237.002 195.28 237.786 200.93C238.791 208.122 235.144 223.486 224.961 228.915" stroke="#1D1D1B" stroke-width="0.264008" stroke-miterlimit="10"/>
<path d="M127.835 121.947C127.835 121.947 99.8857 153.805 92.1932 176.471C84.4869 199.138 83.8952 249.17 118.945 250.782C103.175 251.87 96.1977 245.008 92.1932 241.054C91.8629 243.424 94.8629 247.186 97.8353 249.128C84.4869 245.532 72.3082 232.111 71.4275 209.954C70.533 187.798 75.6109 122.733 127.849 121.947H127.835Z" fill="#362824"/>
<path d="M100.146 226.159C106.401 226.159 111.471 221.082 111.471 214.819C111.471 208.556 106.401 203.479 100.146 203.479C93.8909 203.479 88.8203 208.556 88.8203 214.819C88.8203 221.082 93.8909 226.159 100.146 226.159Z" fill="#DDA19C"/>
<path d="M191.246 206.069C193.214 204.443 195.705 203.479 198.457 203.479C199.668 203.479 200.851 203.671 201.939 204.03" stroke="#1D1D1B" stroke-width="0.264008" stroke-miterlimit="10"/>
<path d="M187.447 212.188C187.241 213.028 187.131 213.91 187.131 214.819C187.131 221.075 192.195 226.16 198.456 226.16C201.387 226.16 204.043 225.043 206.053 223.211C206.066 223.211 206.08 223.197 206.08 223.183" stroke="#1D1D1B" stroke-width="0.264008" stroke-miterlimit="10"/>
<path d="M204.004 204.926C207.444 206.869 209.77 210.575 209.77 214.819C209.77 216.431 209.44 217.961 208.82 219.353" stroke="#1D1D1B" stroke-width="0.264008" stroke-miterlimit="10"/>
<path d="M150.045 224.245C144.857 224.245 140.329 223.597 137.715 222.619C138.678 224.3 143.811 225.595 150.045 225.595C156.279 225.595 161.412 224.314 162.375 222.619C159.76 223.597 155.233 224.245 150.045 224.245Z" fill="#1D1D1B"/>
<path d="M118.986 214.763C125.423 214.763 130.642 208.15 130.642 199.992C130.642 191.834 125.423 185.221 118.986 185.221C112.549 185.221 107.33 191.834 107.33 199.992C107.33 208.15 112.549 214.763 118.986 214.763Z" fill="#201510"/>
<path d="M122.963 197.539C124.445 197.539 125.646 196.021 125.646 194.149C125.646 192.277 124.445 190.76 122.963 190.76C121.481 190.76 120.279 192.277 120.279 194.149C120.279 196.021 121.481 197.539 122.963 197.539Z" fill="white"/>
<path d="M106.766 192.194C108.431 190.885 110.082 189.534 111.94 188.735C114.541 187.619 117.486 186.875 120.293 187.495C125.949 188.735 134.577 195.253 136.738 198.946C136.738 198.946 129.21 185.47 120.293 184.726C113.77 184.174 110.041 185.979 107.316 187.936C105.445 189.286 102.679 192.056 101.151 193.985C99.3623 196.231 97.7109 198.587 95.0963 202.156C94.8211 202.528 94.7385 203.093 94.9312 203.52C96.555 207.13 100.656 210.837 100.656 210.837C98.2063 207.447 97.2018 204.333 97.6421 202.363C98.0825 200.392 104.234 194.15 106.766 192.18V192.194Z" fill="#1D1D1B"/>
<path d="M188.424 189.451C190.736 192.152 192.181 196.01 192.181 200.295C192.181 208.453 186.951 215.067 180.525 215.067C174.099 215.067 168.855 208.453 168.855 200.295C168.855 197.057 169.681 194.067 171.085 191.628" stroke="#1D1D1B" stroke-width="0.264008" stroke-miterlimit="10"/>
<path d="M184.504 197.842C185.986 197.842 187.187 196.324 187.187 194.452C187.187 192.58 185.986 191.062 184.504 191.062C183.022 191.062 181.82 192.58 181.82 194.452C181.82 196.324 183.022 197.842 184.504 197.842Z" stroke="#1D1D1B" stroke-width="0.264008" stroke-miterlimit="10"/>
<path d="M192.745 192.483C191.08 191.174 189.429 189.824 187.571 189.024C184.97 187.908 182.025 187.164 179.218 187.784C173.562 189.024 164.934 195.542 162.773 199.235C162.773 199.235 170.301 185.759 179.218 185.015C185.741 184.463 189.47 186.269 192.195 188.225C194.066 189.575 196.832 192.345 198.36 194.274C200.149 196.52 201.8 198.876 204.415 202.445C204.69 202.817 204.773 203.382 204.58 203.809C202.956 207.419 198.855 211.126 198.855 211.126C201.305 207.736 202.309 204.622 201.869 202.652C201.429 200.681 195.277 194.44 192.745 192.469V192.483Z" stroke="#1D1D1B" stroke-width="0.264008" stroke-miterlimit="10"/>
<path d="M133.021 176.61C123.925 177.754 115.228 177.63 106.311 179.366C101.109 180.73 96.2373 183.21 91.875 186.421L91.5723 186.104C99.2786 177.698 110.838 173.689 122.053 173.275C125.865 173.413 129.76 174.185 133.104 176.169L133.007 176.596L133.021 176.61Z" fill="#1D1D1B"/>
<path d="M167.067 176.61C176.163 177.754 184.86 177.63 193.777 179.366C198.979 180.73 203.851 183.21 208.213 186.421L208.516 186.104C200.809 177.698 189.25 173.689 178.035 173.275C174.223 173.413 170.328 174.185 166.984 176.169L167.081 176.596L167.067 176.61Z" stroke="#1D1D1B" stroke-width="0.264008" stroke-miterlimit="10"/>
<path d="M139.82 250.314C146.261 250.645 152.673 250.921 159.1 250.314C152.811 251.858 146.137 251.582 139.82 250.314Z" fill="#1D1D1B"/>
<path d="M150.045 79.4952V74.3418" stroke="#1D1D1B" stroke-width="0.132004" stroke-miterlimit="10"/>
</g>
</g>
</g>
<defs>
<clipPath id="clip0_1412_8901">
<rect width="295" height="484" fill="white"/>
</clipPath>
<clipPath id="clip1_1412_8901">
<rect width="295" height="484" fill="white"/>
</clipPath>
<clipPath id="clip2_1412_8901">
<rect width="295" height="484" fill="white"/>
</clipPath>
</defs>
</svg>
