<?xml version="1.0" encoding="UTF-8"?>
<svg id="Calque_2" data-name="Calque 2" xmlns="http://www.w3.org/2000/svg" viewBox="0 0 141.7 102.5">
  <defs>
    <style>
      .cls-1, .cls-2, .cls-3, .cls-4, .cls-5 {
        fill: none;
      }

      .cls-1, .cls-6, .cls-3, .cls-5 {
        stroke-miterlimit: 10;
      }

      .cls-1, .cls-5 {
        stroke: #4f1b11;
      }

      .cls-7, .cls-6 {
        fill: #a3191c;
      }

      .cls-2 {
        stroke-dasharray: 1.89 1.89;
      }

      .cls-2, .cls-6, .cls-3, .cls-4 {
        stroke: #a3191c;
      }

      .cls-2, .cls-4 {
        stroke-linecap: round;
        stroke-linejoin: round;
        stroke-width: .75px;
      }

      .cls-8 {
        fill: #e6c9c1;
      }

      .cls-9 {
        fill: #fff6f0;
      }

      .cls-10 {
        fill: #4f1b11;
      }

      .cls-5 {
        stroke-width: .5px;
      }
    </style>
  </defs>
  <g id="Calque_1-2" data-name="Calque 1">
    <g id="UX_UI" data-name="UX/UI">
      <rect class="cls-9" y="3.68" width="141.7" height="91.19" rx="5.53" ry="5.53"/>
      <g>
        <path class="cls-10" d="M42.57,83.89c-.04-.55-1.08-13.44-14.79-13.44s-14.01,12.85-14.02,13.4l-1.65-.02c0-.15.35-15.03,15.67-15.03s16.43,14.83,16.44,14.98l-1.65.11Z"/>
        <g>
          <path class="cls-3" d="M21.15,100.27h13.04v-1.02c0-1-.49-1.94-1.32-2.51h0c-.51-.35-1.11-.54-1.72-.54h-6.79c-.59,0-1.17.17-1.67.5l-.16.11c-.86.56-1.37,1.52-1.37,2.54v.91Z"/>
          <path class="cls-6" d="M27.6,76.12l-8.26,11.6s-.02.05,0,.08l4.57,8.41h6.94l5.37-8.51-8.5-11.57s-.09-.04-.12,0ZM27.77,92.73c-2.29,0-4.18-1.86-4.18-4.16s1.88-4.18,4.18-4.18,4.16,1.86,4.16,4.18-1.86,4.16-4.16,4.16Z"/>
          <path class="cls-10" d="M27.67,85.1c-.37-3.19-.37-6.38,0-9.57.37,3.19.37,6.38,0,9.57h0Z"/>
        </g>
        <circle class="cls-3" cx="12.93" cy="87.07" r="3.24"/>
        <circle class="cls-3" cx="43.39" cy="87.07" r="3.24"/>
        <path class="cls-10" d="M44.16,69.68c-.02.73-.64,1.3-1.37,1.28-.46-.02-.86-.24-1.08-.6H14.05c-.26.37-.68.62-1.17.6-.73-.02-1.3-.64-1.28-1.37.02-.75.64-1.32,1.37-1.3.46.02.86.26,1.08.62h27.66c.24-.4.68-.64,1.17-.62.73.02,1.3.64,1.28,1.39Z"/>
        <circle class="cls-6" cx="27.77" cy="69.63" r="3.24"/>
      </g>
      <g>
        <g>
          <circle class="cls-7" cx="100.75" cy="17.51" r="3.29"/>
          <circle class="cls-7" cx="124.83" cy="17.51" r="3.29"/>
          <circle class="cls-7" cx="100.75" cy="40.72" r="3.29"/>
          <circle class="cls-7" cx="124.83" cy="40.72" r="3.29"/>
          <g>
            <line class="cls-4" x1="103.47" y1="17.51" x2="105.08" y2="17.51"/>
            <line class="cls-2" x1="108.12" y1="17.51" x2="118.77" y2="17.51"/>
            <line class="cls-4" x1="120.29" y1="17.51" x2="121.9" y2="17.51"/>
          </g>
          <g>
            <line class="cls-4" x1="103.47" y1="40.72" x2="105.08" y2="40.72"/>
            <line class="cls-2" x1="108.12" y1="40.72" x2="118.77" y2="40.72"/>
            <line class="cls-4" x1="120.29" y1="40.72" x2="121.9" y2="40.72"/>
          </g>
          <g>
            <line class="cls-4" x1="100.75" y1="38.33" x2="100.75" y2="36.72"/>
            <line class="cls-2" x1="100.75" y1="33.68" x2="100.75" y2="23.03"/>
            <line class="cls-4" x1="100.75" y1="21.51" x2="100.75" y2="19.9"/>
          </g>
          <g>
            <line class="cls-4" x1="124.83" y1="38.79" x2="124.83" y2="37.18"/>
            <line class="cls-2" x1="124.83" y1="34.14" x2="124.83" y2="23.49"/>
            <line class="cls-4" x1="124.83" y1="21.97" x2="124.83" y2="20.36"/>
          </g>
          <path class="cls-5" d="M119.92,22.09l.71,2.68c.08.36-.13.71-.48.82-.33.08-.67-.08-.79-.4-.48-1.15-1.04-2.28-2.8-2.28h-1.74v10.06c0,2.63.84,2.34.84,3.16,0,.4-.33.73-.84.73h-4.06c-.5,0-.84-.33-.84-.73,0-.82.84-.52.84-3.16v-10.06h-1.74c-1.76,0-2.32,1.13-2.8,2.28-.13.31-.46.48-.79.4-.36-.11-.56-.46-.48-.82l.71-2.68c.08-.31.36-.52.67-.52h12.92c.31,0,.58.21.67.52Z"/>
        </g>
        <path class="cls-1" d="M137.14,48.2l-3.64,1.81,3.04,6.1c.21.42.04.95-.39,1.16l-4.62,2.3c-.43.22-.96.03-1.16-.39l-3.04-6.1-3.64,1.81c-.52.26-1.11-.18-1.02-.75l2-12.84c.08-.49.61-.75,1.04-.52l11.46,6.13c.51.27.5,1.01-.02,1.27Z"/>
      </g>
      <g>
        <g>
          <rect class="cls-1" x="11.31" y=".5" width="67.09" height="52.79" rx=".8" ry=".8"/>
          <g>
            <circle class="cls-7" cx="14.97" cy="4.52" r="1.04"/>
            <circle class="cls-8" cx="18.01" cy="4.52" r="1.04"/>
            <circle class="cls-8" cx="21.05" cy="4.52" r="1.04"/>
          </g>
        </g>
        <g>
          <rect class="cls-1" x="21.48" y="6.85" width="67.09" height="52.79" rx=".8" ry=".8"/>
          <g>
            <circle class="cls-7" cx="25.12" cy="10.41" r="1.04"/>
            <circle class="cls-8" cx="28.16" cy="10.41" r="1.04"/>
            <circle class="cls-8" cx="31.2" cy="10.41" r="1.04"/>
          </g>
        </g>
      </g>
      <g>
        <path class="cls-3" d="M36.98,53.47l4.29,2.42.19-.34c.19-.33.2-.73.03-1.07h0c-.1-.21-.27-.38-.47-.5l-2.24-1.26c-.2-.11-.42-.16-.64-.15h-.07c-.39.03-.73.25-.92.59l-.17.3Z"/>
        <path class="cls-6" d="M43.59,46.71l-4.87,2.29s-.02.01-.02.02l-.06,3.62,2.29,1.29,3.35-1.81-.65-5.39s-.02-.03-.04-.02ZM40.79,51.81c-.54-.3-.73-.99-.43-1.52s.99-.73,1.53-.43.73.98.42,1.53-.98.73-1.52.43Z"/>
        <path class="cls-10" d="M41.75,50.02c.49-1.28,1.15-2.46,1.99-3.54-.49,1.28-1.16,2.46-1.99,3.54h0Z"/>
      </g>
      <g>
        <path class="cls-7" d="M96.22,73.6l2.39.58c.82.2,1.37,1,1.24,1.83l-.34,2.44c-.26,1.74,1.62,2.98,3.11,2.07l2.11-1.29c.72-.44,1.67-.26,2.18.42l1.47,1.97c1.06,1.4,3.26.94,3.67-.75l.58-2.39c.21-.83,1-1.37,1.85-1.25l2.43.36c1.73.25,2.97-1.63,2.06-3.13l-1.29-2.11c-.44-.72-.26-1.67.42-2.18l1.97-1.47c1.4-1.06.95-3.25-.75-3.67l-2.39-.58c-.82-.2-1.37-1-1.24-1.83l.35-2.44c.25-1.73-1.63-2.97-3.13-2.06l-2.09,1.28c-.74.45-1.67.26-2.19-.42l-1.47-1.97c-1.04-1.4-3.25-.95-3.67.75l-.58,2.39c-.2.82-1,1.37-1.83,1.24l-2.44-.35c-1.73-.25-2.97,1.63-2.05,3.13l1.27,2.11c.44.72.26,1.67-.42,2.18l-1.97,1.47c-1.4,1.06-.95,3.25.75,3.67ZM106.59,63.54c3.19-.65,6.3,1.4,6.96,4.6.65,3.19-1.4,6.3-4.59,6.95s-6.31-1.4-6.97-4.59,1.4-6.31,4.6-6.97Z"/>
        <path class="cls-10" d="M78.36,77.09l.76,2.34c.26.81-.13,1.69-.91,2.02l-2.26.98c-1.62.68-1.69,2.94-.13,3.74l2.2,1.12c.75.38,1.09,1.29.78,2.08l-.91,2.28c-.64,1.63.9,3.27,2.56,2.74l2.34-.76c.81-.25,1.69.13,2.03.92l.96,2.26c.69,1.61,2.95,1.68,3.75.12l1.12-2.2c.38-.75,1.29-1.09,2.08-.78l2.28.91c1.63.64,3.26-.89,2.74-2.56l-.76-2.34c-.26-.81.13-1.69.91-2.02l2.27-.97c1.61-.69,1.68-2.95.12-3.75l-2.19-1.11c-.76-.39-1.09-1.29-.79-2.09l.91-2.28c.65-1.62-.89-3.26-2.56-2.74l-2.34.76c-.81.26-1.69-.13-2.02-.91l-.97-2.27c-.69-1.61-2.95-1.68-3.74-.11l-1.13,2.19c-.38.75-1.29,1.09-2.08.78l-2.28-.91c-1.63-.64-3.26.89-2.74,2.56ZM92.36,80.67c2.22,2.38,2.1,6.1-.29,8.34s-6.1,2.1-8.33-.28-2.11-6.11.27-8.34c2.39-2.23,6.11-2.11,8.35.28Z"/>
        <path class="cls-10" d="M113.28,80.74l.53,2.4c.19.83-.29,1.67-1.1,1.92l-2.34.77c-1.67.53-1.96,2.76-.49,3.71l2.08,1.33c.71.45.97,1.39.58,2.14l-1.12,2.19c-.79,1.56.59,3.35,2.29,2.97l2.4-.53c.84-.18,1.67.29,1.93,1.11l.75,2.34c.54,1.67,2.77,1.95,3.72.48l1.33-2.08c.45-.71,1.39-.97,2.14-.58l2.19,1.12c1.56.79,3.33-.58,2.97-2.29l-.53-2.4c-.19-.83.29-1.67,1.1-1.92l2.35-.75c1.67-.54,1.95-2.77.48-3.72l-2.07-1.31c-.72-.47-.97-1.39-.58-2.15l1.12-2.19c.8-1.55-.58-3.33-2.29-2.97l-2.4.53c-.83.19-1.67-.29-1.92-1.1l-.75-2.35c-.54-1.67-2.77-1.95-3.71-.47l-1.33,2.07c-.45.71-1.39.97-2.14.58l-2.19-1.12c-1.56-.79-3.33.58-2.97,2.29ZM126.87,85.63c1.99,2.58,1.51,6.27-1.08,8.27s-6.27,1.51-8.26-1.07c-2-2.59-1.52-6.29,1.06-8.27,2.59-2,6.29-1.52,8.28,1.07Z"/>
      </g>
    </g>
  </g>
</svg>