<?xml version="1.0" encoding="UTF-8"?>
<svg id="Calque_2" data-name="Calque 2" xmlns="http://www.w3.org/2000/svg" viewBox="0 0 154.64 113.81">
  <defs>
    <style>
      .cls-1 {
        fill: #56423e;
      }

      .cls-2 {
        fill: #e44134;
      }

      .cls-3 {
        fill: #fff6f0;
      }

      .cls-4 {
        stroke: #e44134;
      }

      .cls-4, .cls-5 {
        fill: none;
        stroke-miterlimit: 10;
      }

      .cls-5 {
        stroke: #56423e;
      }
    </style>
  </defs>
  <g id="Calque_1-2" data-name="Calque 1">
    <g id="Audiovisuel">
      <rect class="cls-3" y="13.98" width="141.7" height="91.19" rx="5.53" ry="5.53"/>
      <g>
        <rect class="cls-5" x="10.36" y="6.34" width="68.4" height="39.78" rx=".78" ry=".78"/>
        <circle class="cls-5" cx="50.07" cy="24.15" r="12.2"/>
        <g>
          <line class="cls-4" x1="67.49" y1="12.67" x2="75.97" y2="12.67"/>
          <line class="cls-4" x1="66.06" y1="9.71" x2="72.05" y2="3.71"/>
          <line class="cls-4" x1="63.01" y1="8.48" x2="63.01"/>
        </g>
      </g>
      <g>
        <rect class="cls-5" x="85.74" y="26.23" width="68.4" height="39.78" rx=".78" ry=".78"/>
        <path class="cls-2" d="M127.62,43.87l-12.11-6.99c-1.73-1-3.9.25-3.9,2.25v13.99c0,2,2.17,3.25,3.9,2.25l12.11-6.99c1.73-1,1.73-3.5,0-4.5Z"/>
      </g>
      <rect class="cls-5" x="13.2" y="73.52" width="68.4" height="39.78" rx=".78" ry=".78"/>
      <circle class="cls-2" cx="28.68" cy="95.77" r="5.87"/>
      <circle class="cls-1" cx="40.43" cy="95.77" r="5.87"/>
      <rect class="cls-1" x="22.81" y="101.66" width="39.72" height="7.02"/>
      <rect class="cls-2" x="46.3" y="89.9" width="11.76" height="11.76"/>
      <rect class="cls-1" x="47.52" y="80.59" width="9.31" height="9.31" rx="2.72" ry="2.72"/>
      <path class="cls-1" d="M34.89,93.62l4.45-7.71c.15-.26-.04-.59-.34-.59h-8.9c-.3,0-.49.33-.34.59l4.45,7.71c.15.26.53.26.68,0Z"/>
      <path class="cls-5" d="M68.41,96.79s9.98.22,18.09,0c11.08-.07,6.59-17.77,16.34-17.77s6.35,17.87,15.69,17.87h18.06"/>
      <path class="cls-2" d="M98.3,96.88c0,1.47-1.19,2.66-2.66,2.66-1.13,0-2.09-.7-2.48-1.69h-3.94v1.46h-4.86v-4.86h4.86v1.46h3.94c.39-.99,1.35-1.69,2.48-1.69,1.47,0,2.66,1.19,2.66,2.66Z"/>
      <path class="cls-2" d="M114.27,79.39c0,1.47-1.19,2.66-2.66,2.66-1.13,0-2.09-.7-2.47-1.69h-4.2v1.46h-4.86v-1.46h-4.62c-.38.99-1.35,1.69-2.47,1.69-1.47,0-2.66-1.19-2.66-2.66s1.19-2.66,2.66-2.66c1.13,0,2.08.7,2.47,1.69h4.62v-1.45h4.86v1.45h4.2c.39-.99,1.35-1.69,2.47-1.69,1.47,0,2.66,1.19,2.66,2.66Z"/>
      <path class="cls-2" d="M121.08,94.37v4.86h-4.86v-1.46h-4.49c-.38.99-1.35,1.69-2.47,1.69-1.47,0-2.66-1.19-2.66-2.66s1.19-2.66,2.66-2.66c1.13,0,2.08.69,2.47,1.69h4.49v-1.46h4.86Z"/>
    </g>
  </g>
</svg>