<?xml version="1.0" encoding="UTF-8"?>
<svg id="Calque_2" data-name="Calque 2" xmlns="http://www.w3.org/2000/svg" viewBox="0 0 141.7 115.77">
  <defs>
    <style>
      .cls-1 {
        fill: #56423e;
      }

      .cls-2 {
        stroke-dasharray: 2.02 2.02;
      }

      .cls-2, .cls-3, .cls-4, .cls-5, .cls-6, .cls-7, .cls-8, .cls-9, .cls-10, .cls-11 {
        stroke-miterlimit: 10;
      }

      .cls-2, .cls-3, .cls-5, .cls-6, .cls-7, .cls-8, .cls-9, .cls-10, .cls-11 {
        fill: none;
      }

      .cls-2, .cls-3, .cls-5, .cls-6, .cls-7, .cls-9 {
        stroke-width: .5px;
      }

      .cls-2, .cls-3, .cls-5, .cls-9, .cls-10 {
        stroke: #56423e;
      }

      .cls-12 {
        fill: #fff;
      }

      .cls-13, .cls-4 {
        fill: #e44134;
      }

      .cls-14 {
        fill: #fff6f0;
      }

      .cls-4, .cls-8 {
        stroke: #e44134;
      }

      .cls-5 {
        stroke-dasharray: 2.02 2.02;
      }

      .cls-6, .cls-11 {
        stroke: #f6f6f6;
      }

      .cls-7 {
        stroke: #352723;
      }

      .cls-9 {
        stroke-dasharray: 2;
      }

      .cls-11 {
        stroke-width: .25px;
      }
    </style>
  </defs>
  <g id="Calque_1-2" data-name="Calque 1">
    <g id="Branding">
      <rect class="cls-14" y="13.08" width="141.7" height="91.19" rx="5.53" ry="5.53"/>
      <rect class="cls-10" x="83.32" y=".5" width="49.85" height="60.67" rx=".78" ry=".78"/>
      <rect class="cls-4" x="79.07" y="8.38" width="44.7" height="54.4" rx=".78" ry=".78"/>
      <g>
        <rect class="cls-3" x="69" y="37.92" width="32.81" height="32.81"/>
        <rect class="cls-9" x="74.18" y="43.11" width="22.44" height="22.44"/>
        <rect class="cls-3" x="77.6" y="46.52" width="15.61" height="15.61" transform="translate(-13.4 76.3) rotate(-45)"/>
        <circle class="cls-3" cx="85.4" cy="54.33" r="16.41"/>
        <g>
          <line class="cls-3" x1="106.85" y1="32.92" x2="106.15" y2="33.62"/>
          <line class="cls-5" x1="104.72" y1="35.05" x2="65.46" y2="74.31"/>
          <line class="cls-3" x1="64.74" y1="75.03" x2="64.04" y2="75.73"/>
        </g>
        <g>
          <line class="cls-3" x1="64.03" y1="32.95" x2="64.74" y2="33.66"/>
          <line class="cls-2" x1="66.16" y1="35.09" x2="105.44" y2="74.37"/>
          <line class="cls-3" x1="106.16" y1="75.08" x2="106.86" y2="75.79"/>
        </g>
      </g>
      <g>
        <rect class="cls-1" x="17.09" y="41.57" width="35.99" height="7.37" rx=".24" ry=".24" transform="translate(-16.08 19.54) rotate(-25.53)"/>
        <line class="cls-6" x1="23.21" y1="55.02" x2="21.97" y2="52.44"/>
        <line class="cls-11" x1="25.85" y1="53.75" x2="25.23" y2="52.47"/>
        <line class="cls-11" x1="27.24" y1="53.09" x2="26.62" y2="51.8"/>
        <line class="cls-11" x1="28.63" y1="52.43" x2="28.01" y2="51.14"/>
        <line class="cls-11" x1="30.02" y1="51.76" x2="29.41" y2="50.47"/>
        <line class="cls-6" x1="32.22" y1="50.71" x2="30.99" y2="48.13"/>
        <line class="cls-6" x1="41.24" y1="46.4" x2="40.01" y2="43.82"/>
        <line class="cls-6" x1="50.26" y1="42.09" x2="49.03" y2="39.52"/>
        <line class="cls-11" x1="34.7" y1="49.53" x2="34.08" y2="48.24"/>
        <line class="cls-11" x1="36.09" y1="48.86" x2="35.47" y2="47.58"/>
        <line class="cls-11" x1="37.48" y1="48.2" x2="36.86" y2="46.91"/>
        <line class="cls-11" x1="38.87" y1="47.54" x2="38.25" y2="46.25"/>
        <line class="cls-11" x1="43.67" y1="45.24" x2="43.05" y2="43.96"/>
        <line class="cls-11" x1="45.06" y1="44.58" x2="44.44" y2="43.29"/>
        <line class="cls-11" x1="46.45" y1="43.92" x2="45.83" y2="42.63"/>
        <line class="cls-11" x1="47.84" y1="43.25" x2="47.23" y2="41.96"/>
      </g>
      <g>
        <path class="cls-1" d="M11.61,22.33l19.23,14.33c.15.11.19.35.07.5l-4.71,6.32c-.11.15-.33.18-.48.07l-14.42-10.73-3.6-2.7-1.22-.9c-1.19-.9-1.44-2.61-.56-3.81l1.88-2.53c.9-1.21,2.6-1.46,3.81-.56Z"/>
        <polygon class="cls-12" points="25.71 43.58 34.29 44.59 30.87 36.65 25.71 43.58"/>
        <polygon class="cls-13" points="32.7 44.4 34.29 44.59 33.65 43.11 32.7 44.4"/>
        <polygon class="cls-12" points="12.84 23.24 16.44 25.93 11.3 32.82 7.69 30.12 12.84 23.24"/>
        <line class="cls-7" x1="28.18" y1="40.26" x2="13.75" y2="29.53"/>
      </g>
      <g>
        <path class="cls-13" d="M22.36,89.74l2.43-.36c.84-.13,1.64.41,1.84,1.23l.6,2.39c.41,1.71,2.62,2.15,3.66.75l1.47-1.98c.5-.68,1.45-.86,2.18-.42l2.1,1.28c1.5.9,3.38-.35,3.12-2.07l-.36-2.43c-.12-.85.41-1.64,1.25-1.85l2.39-.58c1.7-.42,2.15-2.63.74-3.67l-1.98-1.47c-.68-.5-.86-1.45-.42-2.18l1.28-2.1c.9-1.5-.34-3.37-2.07-3.12l-2.43.36c-.84.13-1.64-.41-1.84-1.23l-.58-2.4c-.42-1.7-2.63-2.15-3.67-.74l-1.46,1.97c-.52.69-1.45.86-2.19.43l-2.1-1.28c-1.49-.91-3.37.34-3.12,2.07l.36,2.43c.13.84-.41,1.64-1.23,1.84l-2.4.58c-1.7.42-2.15,2.63-.73,3.67l1.97,1.48c.68.5.86,1.45.42,2.18l-1.28,2.1c-.9,1.5.34,3.37,2.07,3.12ZM28.22,76.53c2.71-1.8,6.37-1.06,8.17,1.66,1.8,2.71,1.06,6.37-1.65,8.17s-6.38,1.07-8.18-1.65c-1.81-2.72-1.07-6.38,1.66-8.18Z"/>
        <path class="cls-1" d="M7.1,99.66l1.58,1.88c.55.65.51,1.61-.09,2.21l-1.73,1.76c-1.24,1.24-.47,3.36,1.27,3.51l2.46.22c.84.07,1.5.79,1.5,1.63v2.46c.03,1.75,2.07,2.7,3.41,1.58l1.88-1.58c.66-.54,1.61-.51,2.23.1l1.74,1.73c1.25,1.23,3.36.46,3.52-1.29l.22-2.46c.07-.84.79-1.5,1.63-1.5h2.46c1.75-.03,2.69-2.06,1.58-3.41l-1.58-1.88c-.55-.65-.51-1.61.09-2.21l1.74-1.75c1.23-1.25.46-3.36-1.29-3.52l-2.45-.21c-.86-.08-1.5-.79-1.51-1.64v-2.46c-.02-1.74-2.06-2.69-3.41-1.58l-1.88,1.58c-.65.55-1.61.51-2.21-.09l-1.75-1.74c-1.25-1.23-3.36-.46-3.51,1.29l-.23,2.45c-.07.84-.79,1.5-1.63,1.5h-2.46c-1.75.03-2.69,2.06-1.58,3.41ZM21.42,97.75c2.95,1.37,4.23,4.87,2.85,7.84-1.37,2.95-4.87,4.23-7.82,2.86-2.96-1.38-4.24-4.88-2.87-7.83,1.38-2.96,4.88-4.24,7.84-2.87Z"/>
        <path class="cls-1" d="M40.85,89.98l1.39,2.03c.48.7.35,1.65-.3,2.2l-1.88,1.59c-1.35,1.12-.79,3.3.93,3.62l2.43.45c.83.15,1.42.93,1.33,1.77l-.22,2.45c-.15,1.74,1.8,2.88,3.23,1.9l2.03-1.39c.71-.48,1.65-.35,2.21.31l1.57,1.89c1.12,1.34,3.3.77,3.63-.95l.45-2.43c.15-.83.93-1.42,1.77-1.33l2.45.22c1.74.15,2.88-1.78,1.9-3.23l-1.39-2.03c-.48-.7-.35-1.65.3-2.2l1.9-1.58c1.34-1.12.77-3.3-.95-3.63l-2.41-.44c-.84-.16-1.42-.93-1.35-1.78l.22-2.45c.16-1.74-1.78-2.88-3.23-1.9l-2.03,1.39c-.7.48-1.65.35-2.2-.3l-1.58-1.9c-1.12-1.34-3.3-.77-3.61.95l-.46,2.42c-.15.83-.93,1.42-1.77,1.33l-2.45-.22c-1.74-.15-2.88,1.78-1.9,3.23ZM55.29,89.43c2.81,1.65,3.75,5.25,2.1,8.07s-5.25,3.75-8.06,2.1-3.76-5.26-2.12-8.07c1.65-2.82,5.26-3.76,8.08-2.11Z"/>
      </g>
      <g>
        <path class="cls-8" d="M113.23,95.16l9.61-6.88-.54-.75c-.53-.74-1.39-1.17-2.29-1.15h0c-.56.01-1.1.19-1.55.51l-5.01,3.58c-.44.31-.77.75-.97,1.25l-.06.16c-.33.87-.21,1.84.33,2.6l.48.67Z"/>
        <path class="cls-4" d="M105.25,73.95l.03,12.91s.01.05.04.06l7.8,3.79,5.12-3.66-.53-9.11-12.37-4.05s-.09.02-.09.06ZM113.5,85.22c-1.2.86-2.89.59-3.75-.61s-.58-2.9.62-3.76c1.2-.86,2.88-.58,3.75.63.86,1.2.58,2.88-.62,3.74Z"/>
        <path class="cls-1" d="M110.59,81.31c-2.27-2.36-4.17-5-5.67-7.92,2.28,2.36,4.17,5.01,5.67,7.92h0Z"/>
      </g>
    </g>
  </g>
</svg>