<svg width="22" height="23" viewBox="0 0 22 23" fill="currentColor" xmlns="http://www.w3.org/2000/svg">
<path fill-rule="evenodd" clip-rule="evenodd" d="M0.292893 0.792893C0.683417 0.402369 1.31658 0.402369 1.70711 0.792893L11 10.0858L20.2929 0.792893C20.6834 0.402369 21.3166 0.402369 21.7071 0.792893C22.0976 1.18342 22.0976 1.81658 21.7071 2.20711L12.4142 11.5L21.7071 20.7929C22.0976 21.1834 22.0976 21.8166 21.7071 22.2071C21.3166 22.5976 20.6834 22.5976 20.2929 22.2071L11 12.9142L1.70711 22.2071C1.31658 22.5976 0.683417 22.5976 0.292893 22.2071C-0.0976311 21.8166 -0.0976311 21.1834 0.292893 20.7929L9.58579 11.5L0.292893 2.20711C-0.0976311 1.81658 -0.0976311 1.18342 0.292893 0.792893Z" fill="#181717"/>
</svg>
