<?xml version="1.0" encoding="UTF-8"?>
<svg id="Calque_2" data-name="Calque 2" xmlns="http://www.w3.org/2000/svg" viewBox="0 0 106.64 98.74">
  <defs>
    <style>
      .cls-1 {
        fill: #56423e;
      }

      .cls-2 {
        fill: #fff;
      }

      .cls-3 {
        fill: none;
        stroke: #fff;
        stroke-width: 6px;
      }

      .cls-4, .cls-5 {
        fill: #e44134;
      }

      .cls-5 {
        opacity: .25;
      }
    </style>
  </defs>
  <g id="Calque_2-2" data-name="Calque 2">
    <g>
      <g>
        <g>
          <path class="cls-2" d="M57.62,54.86l.63.85c.83,1.13.59,2.72-.54,3.55L4.66,98.25c-1.12.82-2.71.58-3.54-.55l-.63-.85c-.83-1.13-.58-2.71.54-3.54l53.04-38.99c1.13-.83,2.72-.59,3.55.53Z"/>
          <path class="cls-2" d="M57.62,54.86l.63.85c.83,1.13.59,2.72-.54,3.55l-6.22,4.57-3.63-4.94,6.22-4.57c1.13-.83,2.72-.59,3.55.53Z"/>
          <path class="cls-2" d="M7.19,88.78l3.63,4.94-6.16,4.53c-1.12.82-2.71.58-3.54-.55l-.63-.85c-.83-1.13-.58-2.71.54-3.54l6.16-4.53Z"/>
        </g>
        <path class="cls-2" d="M62.76,25.35l.65,2.2c.12.4.43.71.83.83l2.2.65c.31.09.31.54,0,.63l-2.2.65c-.4.12-.71.43-.83.83l-.65,2.2c-.09.31-.54.31-.63,0l-.65-2.2c-.12-.4-.43-.71-.83-.83l-2.2-.65c-.31-.09-.31-.54,0-.63l2.2-.65c.4-.12.71-.43.83-.83l.65-2.2c.09-.31.54-.31.63,0Z"/>
        <path class="cls-2" d="M85.21,27.17l.35,1.18c.12.4.43.71.83.83l1.18.35c.31.09.31.54,0,.63l-1.18.35c-.4.12-.71.43-.83.83l-.35,1.18c-.09.31-.54.31-.63,0l-.35-1.18c-.12-.4-.43-.71-.83-.83l-1.18-.35c-.31-.09-.31-.54,0-.63l1.18-.35c.4-.12.71-.43.83-.83l.35-1.18c.09-.31.54-.31.63,0Z"/>
        <path class="cls-2" d="M71,35.45l1.08,3.64c.12.4.43.71.83.83l3.64,1.08c.31.09.31.54,0,.63l-3.64,1.08c-.4.12-.71.43-.83.83l-1.08,3.64c-.09.31-.54.31-.63,0l-1.08-3.64c-.12-.4-.43-.71-.83-.83l-3.64-1.08c-.31-.09-.31-.54,0-.63l3.64-1.08c.4-.12.71-.43.83-.83l1.08-3.64c.09-.31.54-.31.63,0Z"/>
        <path class="cls-2" d="M74.49,54.96l.75,2.52c.12.4.43.71.83.83l2.52.75c.31.09.31.54,0,.63l-2.52.75c-.4.12-.71.43-.83.83l-.75,2.52c-.09.31-.54.31-.63,0l-.75-2.52c-.12-.4-.43-.71-.83-.83l-2.52-.75c-.31-.09-.31-.54,0-.63l2.52-.75c.4-.12.71-.43.83-.83l.75-2.52c.09-.31.54-.31.63,0Z"/>
        <circle class="cls-2" cx="65.7" cy="19.17" r=".71"/>
        <circle class="cls-2" cx="78.94" cy="25" r=".71"/>
        <circle class="cls-2" cx="55.39" cy="34.38" r=".71"/>
        <circle class="cls-2" cx="72.37" cy="32.96" r=".71"/>
        <circle class="cls-2" cx="76.89" cy="50.08" r=".71"/>
        <circle class="cls-2" cx="82.32" cy="43.06" r=".71"/>
        <circle class="cls-2" cx="78.94" cy="62.4" r=".71"/>
        <path class="cls-2" d="M60.16,54.06c2.01,2.2,4.58,2.98,7.17,1.99s8.08-6.39,13.73.1c5.65,6.49,13.42,9.63,20.39,4.03s6.72-13.92.55-21.73c-6.17-7.81-18.08-17.46-9.8-24.01,3.38-2.72,7.11-.26,7.11-.26,1.15-12.83-15.26-18.31-24.68-10.73s-5.79,17.43,3.31,26.93c8.14,8.5,10.48,10.46,12.66,13.3s.54,5.21-.67,6.19-4.35,2-6.32-.46-14.56-18.11-17.22-21.43-7.99-3.73-11.92-.46-1.8,7.67-.2,9.66,6.98,2.58,9.1,8.19-3.8,8-3.18,8.67Z"/>
      </g>
      <g>
        <g>
          <path class="cls-3" d="M57.62,54.86l.63.85c.83,1.13.59,2.72-.54,3.55L4.66,98.25c-1.12.82-2.71.58-3.54-.55l-.63-.85c-.83-1.13-.58-2.71.54-3.54l53.04-38.99c1.13-.83,2.72-.59,3.55.53Z"/>
          <path class="cls-3" d="M57.62,54.86l.63.85c.83,1.13.59,2.72-.54,3.55l-6.22,4.57-3.63-4.94,6.22-4.57c1.13-.83,2.72-.59,3.55.53Z"/>
          <path class="cls-3" d="M7.19,88.78l3.63,4.94-6.16,4.53c-1.12.82-2.71.58-3.54-.55l-.63-.85c-.83-1.13-.58-2.71.54-3.54l6.16-4.53Z"/>
        </g>
        <path class="cls-3" d="M62.76,25.35l.65,2.2c.12.4.43.71.83.83l2.2.65c.31.09.31.54,0,.63l-2.2.65c-.4.12-.71.43-.83.83l-.65,2.2c-.09.31-.54.31-.63,0l-.65-2.2c-.12-.4-.43-.71-.83-.83l-2.2-.65c-.31-.09-.31-.54,0-.63l2.2-.65c.4-.12.71-.43.83-.83l.65-2.2c.09-.31.54-.31.63,0Z"/>
        <path class="cls-3" d="M85.21,27.17l.35,1.18c.12.4.43.71.83.83l1.18.35c.31.09.31.54,0,.63l-1.18.35c-.4.12-.71.43-.83.83l-.35,1.18c-.09.31-.54.31-.63,0l-.35-1.18c-.12-.4-.43-.71-.83-.83l-1.18-.35c-.31-.09-.31-.54,0-.63l1.18-.35c.4-.12.71-.43.83-.83l.35-1.18c.09-.31.54-.31.63,0Z"/>
        <path class="cls-3" d="M71,35.45l1.08,3.64c.12.4.43.71.83.83l3.64,1.08c.31.09.31.54,0,.63l-3.64,1.08c-.4.12-.71.43-.83.83l-1.08,3.64c-.09.31-.54.31-.63,0l-1.08-3.64c-.12-.4-.43-.71-.83-.83l-3.64-1.08c-.31-.09-.31-.54,0-.63l3.64-1.08c.4-.12.71-.43.83-.83l1.08-3.64c.09-.31.54-.31.63,0Z"/>
        <path class="cls-3" d="M74.49,54.96l.75,2.52c.12.4.43.71.83.83l2.52.75c.31.09.31.54,0,.63l-2.52.75c-.4.12-.71.43-.83.83l-.75,2.52c-.09.31-.54.31-.63,0l-.75-2.52c-.12-.4-.43-.71-.83-.83l-2.52-.75c-.31-.09-.31-.54,0-.63l2.52-.75c.4-.12.71-.43.83-.83l.75-2.52c.09-.31.54-.31.63,0Z"/>
        <circle class="cls-3" cx="65.7" cy="19.17" r=".71"/>
        <circle class="cls-3" cx="78.94" cy="25" r=".71"/>
        <circle class="cls-3" cx="55.39" cy="34.38" r=".71"/>
        <circle class="cls-3" cx="72.37" cy="32.96" r=".71"/>
        <circle class="cls-3" cx="76.89" cy="50.08" r=".71"/>
        <circle class="cls-3" cx="82.32" cy="43.06" r=".71"/>
        <circle class="cls-3" cx="78.94" cy="62.4" r=".71"/>
        <path class="cls-3" d="M60.16,54.06c2.01,2.2,4.58,2.98,7.17,1.99s8.08-6.39,13.73.1c5.65,6.49,13.42,9.63,20.39,4.03s6.72-13.92.55-21.73c-6.17-7.81-18.08-17.46-9.8-24.01,3.38-2.72,7.11-.26,7.11-.26,1.15-12.83-15.26-18.31-24.68-10.73s-5.79,17.43,3.31,26.93c8.14,8.5,10.48,10.46,12.66,13.3s.54,5.21-.67,6.19-4.35,2-6.32-.46-14.56-18.11-17.22-21.43-7.99-3.73-11.92-.46-1.8,7.67-.2,9.66,6.98,2.58,9.1,8.19-3.8,8-3.18,8.67Z"/>
      </g>
      <g>
        <g>
          <path class="cls-1" d="M57.62,54.86l.63.85c.83,1.13.59,2.72-.54,3.55L4.66,98.25c-1.12.82-2.71.58-3.54-.55l-.63-.85c-.83-1.13-.58-2.71.54-3.54l53.04-38.99c1.13-.83,2.72-.59,3.55.53Z"/>
          <path class="cls-2" d="M57.62,54.86l.63.85c.83,1.13.59,2.72-.54,3.55l-6.22,4.57-3.63-4.94,6.22-4.57c1.13-.83,2.72-.59,3.55.53Z"/>
          <path class="cls-2" d="M7.19,88.78l3.63,4.94-6.16,4.53c-1.12.82-2.71.58-3.54-.55l-.63-.85c-.83-1.13-.58-2.71.54-3.54l6.16-4.53Z"/>
        </g>
        <path class="cls-4" d="M62.76,25.35l.65,2.2c.12.4.43.71.83.83l2.2.65c.31.09.31.54,0,.63l-2.2.65c-.4.12-.71.43-.83.83l-.65,2.2c-.09.31-.54.31-.63,0l-.65-2.2c-.12-.4-.43-.71-.83-.83l-2.2-.65c-.31-.09-.31-.54,0-.63l2.2-.65c.4-.12.71-.43.83-.83l.65-2.2c.09-.31.54-.31.63,0Z"/>
        <path class="cls-4" d="M85.21,27.17l.35,1.18c.12.4.43.71.83.83l1.18.35c.31.09.31.54,0,.63l-1.18.35c-.4.12-.71.43-.83.83l-.35,1.18c-.09.31-.54.31-.63,0l-.35-1.18c-.12-.4-.43-.71-.83-.83l-1.18-.35c-.31-.09-.31-.54,0-.63l1.18-.35c.4-.12.71-.43.83-.83l.35-1.18c.09-.31.54-.31.63,0Z"/>
        <path class="cls-4" d="M71,35.45l1.08,3.64c.12.4.43.71.83.83l3.64,1.08c.31.09.31.54,0,.63l-3.64,1.08c-.4.12-.71.43-.83.83l-1.08,3.64c-.09.31-.54.31-.63,0l-1.08-3.64c-.12-.4-.43-.71-.83-.83l-3.64-1.08c-.31-.09-.31-.54,0-.63l3.64-1.08c.4-.12.71-.43.83-.83l1.08-3.64c.09-.31.54-.31.63,0Z"/>
        <path class="cls-4" d="M74.49,54.96l.75,2.52c.12.4.43.71.83.83l2.52.75c.31.09.31.54,0,.63l-2.52.75c-.4.12-.71.43-.83.83l-.75,2.52c-.09.31-.54.31-.63,0l-.75-2.52c-.12-.4-.43-.71-.83-.83l-2.52-.75c-.31-.09-.31-.54,0-.63l2.52-.75c.4-.12.71-.43.83-.83l.75-2.52c.09-.31.54-.31.63,0Z"/>
        <circle class="cls-4" cx="65.7" cy="19.17" r=".71"/>
        <circle class="cls-4" cx="78.94" cy="25" r=".71"/>
        <circle class="cls-4" cx="55.39" cy="34.38" r=".71"/>
        <circle class="cls-4" cx="72.37" cy="32.96" r=".71"/>
        <circle class="cls-4" cx="76.89" cy="50.08" r=".71"/>
        <circle class="cls-4" cx="82.32" cy="43.06" r=".71"/>
        <circle class="cls-4" cx="78.94" cy="62.4" r=".71"/>
        <path class="cls-5" d="M60.16,54.06c2.01,2.2,4.58,2.98,7.17,1.99s8.08-6.39,13.73.1c5.65,6.49,13.42,9.63,20.39,4.03s6.72-13.92.55-21.73c-6.17-7.81-18.08-17.46-9.8-24.01,3.38-2.72,7.11-.26,7.11-.26,1.15-12.83-15.26-18.31-24.68-10.73s-5.79,17.43,3.31,26.93c8.14,8.5,10.48,10.46,12.66,13.3s.54,5.21-.67,6.19-4.35,2-6.32-.46-14.56-18.11-17.22-21.43-7.99-3.73-11.92-.46-1.8,7.67-.2,9.66,6.98,2.58,9.1,8.19-3.8,8-3.18,8.67Z"/>
      </g>
    </g>
  </g>
</svg>