<?xml version="1.0" encoding="UTF-8"?>
<svg id="Calque_2" data-name="Calque 2" xmlns="http://www.w3.org/2000/svg" viewBox="0 0 114.14 122.65">
  <defs>
    <style>
      .cls-1 {
        fill: #56423e;
      }

      .cls-2 {
        fill: #fff;
      }

      .cls-3 {
        fill: none;
        stroke: #fff;
        stroke-width: 6px;
      }

      .cls-4, .cls-5 {
        fill: #e44134;
      }

      .cls-6 {
        fill: #bea6a1;
      }

      .cls-5 {
        opacity: .25;
      }
    </style>
  </defs>
  <g id="Calque_2-2" data-name="Calque 2">
    <g>
      <g>
        <path class="cls-3" d="M112.38,50.54c-4.84-1.26-18.83-4.37-31.25-1.96-12.83,2.49-21.05,7.93-23.38,9.63-.41.3-.95.3-1.36,0-2.33-1.7-10.55-7.14-23.38-9.63-12.42-2.41-26.41.7-31.25,1.96C.72,50.81,0,51.77,0,52.87v61.96c0,1.57,1.44,2.73,2.92,2.33,4.72-1.26,14.7-3.38,26.52-2.63,9.76.62,17.64,4.06,22.45,6.76,3.23,1.82,7.13,1.82,10.37,0,4.81-2.7,12.69-6.14,22.45-6.76,11.81-.75,21.8,1.37,26.52,2.63,1.48.4,2.92-.76,2.92-2.33v-61.96c0-1.1-.72-2.06-1.76-2.33Z"/>
        <path class="cls-3" d="M104.75,53.25c-4.17-1.06-16.23-3.67-26.93-1.64-11.05,2.09-18.14,6.64-20.15,8.07-.36.25-.83.25-1.18,0-2.01-1.43-9.1-5.98-20.15-8.07-10.71-2.02-22.76.59-26.94,1.64-.89.23-1.51,1.03-1.51,1.95v51.94c0,1.32,1.24,2.28,2.51,1.95,4.07-1.06,12.67-2.83,22.86-2.2,12.16.75,20.93,6.43,23.23,8.07.36.25.83.25,1.19,0,2.29-1.64,11.07-7.31,23.23-8.07,10.18-.63,18.79,1.15,22.86,2.2,1.27.33,2.51-.64,2.51-1.95v-51.94c0-.92-.62-1.73-1.51-1.95Z"/>
        <path class="cls-3" d="M66.3,71.84c-.39,0-.78-.18-1.04-.52-.43-.57-.31-1.38.26-1.81.45-.34,11.25-8.24,28.38-3.74.69.18,1.1.89.92,1.58-.18.69-.89,1.1-1.58.92-15.86-4.17-26.07,3.23-26.17,3.31-.23.17-.5.26-.77.26Z"/>
        <path class="cls-3" d="M66.3,80.66c-.39,0-.78-.18-1.04-.52-.43-.57-.31-1.38.26-1.81.45-.34,11.26-8.24,28.38-3.74.69.18,1.1.89.92,1.58-.18.69-.89,1.1-1.58.92-15.86-4.17-26.07,3.23-26.17,3.31-.23.17-.5.26-.77.26Z"/>
        <path class="cls-3" d="M66.3,89.48c-.39,0-.78-.18-1.04-.52-.43-.57-.31-1.38.26-1.81.45-.34,11.25-8.24,28.38-3.74.69.18,1.1.89.92,1.58-.18.69-.89,1.1-1.58.92-15.86-4.17-26.07,3.23-26.17,3.31-.23.17-.5.26-.77.26Z"/>
        <path class="cls-3" d="M66.3,98.3c-.39,0-.78-.18-1.04-.52-.43-.57-.31-1.38.26-1.81.45-.34,11.25-8.24,28.38-3.74.69.18,1.1.89.92,1.58-.18.69-.89,1.11-1.58.92-15.86-4.17-26.07,3.23-26.17,3.31-.23.17-.5.25-.77.25Z"/>
        <path class="cls-3" d="M47.26,71.84c-.27,0-.54-.08-.77-.26h0c-.1-.08-10.31-7.48-26.17-3.31-.69.18-1.4-.23-1.58-.92-.18-.69.23-1.4.92-1.58,17.13-4.51,27.93,3.4,28.38,3.74.57.43.69,1.24.26,1.81-.25.34-.64.52-1.03.52Z"/>
        <path class="cls-3" d="M47.26,80.66c-.27,0-.54-.08-.77-.26h0c-.1-.08-10.31-7.48-26.17-3.31-.69.18-1.4-.23-1.58-.92-.18-.69.23-1.4.92-1.58,17.12-4.51,27.93,3.4,28.38,3.74.57.43.69,1.24.26,1.81-.25.34-.64.52-1.03.52Z"/>
        <path class="cls-3" d="M47.26,89.48c-.27,0-.54-.08-.77-.26h0c-.1-.08-10.31-7.48-26.17-3.31-.69.18-1.4-.23-1.58-.92-.18-.69.23-1.4.92-1.58,17.13-4.51,27.93,3.4,28.38,3.74.57.43.69,1.24.26,1.81-.25.34-.64.52-1.03.52Z"/>
        <path class="cls-3" d="M47.26,98.31c-.27,0-.54-.08-.77-.26h0c-.1-.08-10.31-7.48-26.17-3.31-.69.19-1.4-.23-1.58-.92-.18-.69.23-1.4.92-1.58,17.13-4.51,27.93,3.4,28.38,3.74.57.43.69,1.24.26,1.81-.25.34-.64.52-1.03.52Z"/>
        <path class="cls-3" d="M15.8,43.26l1.1,3.69c.12.4.43.71.83.83l3.69,1.1c.31.09.31.54,0,.63l-3.69,1.1c-.4.12-.71.43-.83.83l-1.1,3.69c-.09.31-.54.31-.63,0l-1.1-3.69c-.12-.4-.43-.71-.83-.83l-3.69-1.1c-.31-.09-.31-.54,0-.63l3.69-1.1c.4-.12.71-.43.83-.83l1.1-3.69c.09-.31.54-.31.63,0Z"/>
        <path class="cls-3" d="M97.04,33.16l1.1,3.69c.12.4.43.71.83.83l3.69,1.1c.31.09.31.54,0,.63l-3.69,1.1c-.4.12-.71.43-.83.83l-1.1,3.69c-.09.31-.54.31-.63,0l-1.1-3.69c-.12-.4-.43-.71-.83-.83l-3.69-1.1c-.31-.09-.31-.54,0-.63l3.69-1.1c.4-.12.71-.43.83-.83l1.1-3.69c.09-.31.54-.31.63,0Z"/>
        <path class="cls-3" d="M52.82,31.52l.56,1.89c.12.4.43.71.83.83l1.89.56c.31.09.31.54,0,.63l-1.89.56c-.4.12-.71.43-.83.83l-.56,1.89c-.09.31-.54.31-.63,0l-.56-1.89c-.12-.4-.43-.71-.83-.83l-1.89-.56c-.31-.09-.31-.54,0-.63l1.89-.56c.4-.12.71-.43.83-.83l.56-1.89c.09-.31.54-.31.63,0Z"/>
        <circle class="cls-3" cx="37.26" cy="42.2" r="1.96"/>
        <circle class="cls-3" cx="61.9" cy="46.09" r="3.06"/>
        <circle class="cls-3" cx="79.94" cy="33.22" r="2.07"/>
        <path class="cls-3" d="M56,50.86c2.56-.17,4.47-1.47,5.21-3.74s.07-8.87,7.48-9.17c7.41-.29,13.71-3.81,13.71-11.51,0-7.7-5.72-12.02-14.3-12.1-8.58-.07-21.48,2.71-21.41-6.38,0-3.74,3.67-4.91,3.67-4.91-7.99-7.7-20.53.37-20.53,10.78,0,10.41,8.58,13.3,19.87,12.32,10.1-.88,12.68-1.39,15.76-1.32s3.79,2.45,3.79,3.79-1.01,4-3.72,4-20.02,0-23.68,0c-3.67,0-6.82,3.35-6.75,7.75s4.18,5.35,6.38,5.35,5.5-3.3,10.41-1.69,3.32,6.87,4.11,6.82Z"/>
      </g>
      <g>
        <path class="cls-2" d="M112.38,50.54c-4.84-1.26-18.83-4.37-31.25-1.96-12.83,2.49-21.05,7.93-23.38,9.63-.41.3-.95.3-1.36,0-2.33-1.7-10.55-7.14-23.38-9.63-12.42-2.41-26.41.7-31.25,1.96C.72,50.81,0,51.77,0,52.87v61.96c0,1.57,1.44,2.73,2.92,2.33,4.72-1.26,14.7-3.38,26.52-2.63,9.76.62,17.64,4.06,22.45,6.76,3.23,1.82,7.13,1.82,10.37,0,4.81-2.7,12.69-6.14,22.45-6.76,11.81-.75,21.8,1.37,26.52,2.63,1.48.4,2.92-.76,2.92-2.33v-61.96c0-1.1-.72-2.06-1.76-2.33Z"/>
        <path class="cls-2" d="M104.75,53.25c-4.17-1.06-16.23-3.67-26.93-1.64-11.05,2.09-18.14,6.64-20.15,8.07-.36.25-.83.25-1.18,0-2.01-1.43-9.1-5.98-20.15-8.07-10.71-2.02-22.76.59-26.94,1.64-.89.23-1.51,1.03-1.51,1.95v51.94c0,1.32,1.24,2.28,2.51,1.95,4.07-1.06,12.67-2.83,22.86-2.2,12.16.75,20.93,6.43,23.23,8.07.36.25.83.25,1.19,0,2.29-1.64,11.07-7.31,23.23-8.07,10.18-.63,18.79,1.15,22.86,2.2,1.27.33,2.51-.64,2.51-1.95v-51.94c0-.92-.62-1.73-1.51-1.95Z"/>
        <path class="cls-2" d="M66.3,71.84c-.39,0-.78-.18-1.04-.52-.43-.57-.31-1.38.26-1.81.45-.34,11.25-8.24,28.38-3.74.69.18,1.1.89.92,1.58-.18.69-.89,1.1-1.58.92-15.86-4.17-26.07,3.23-26.17,3.31-.23.17-.5.26-.77.26Z"/>
        <path class="cls-2" d="M66.3,80.66c-.39,0-.78-.18-1.04-.52-.43-.57-.31-1.38.26-1.81.45-.34,11.26-8.24,28.38-3.74.69.18,1.1.89.92,1.58-.18.69-.89,1.1-1.58.92-15.86-4.17-26.07,3.23-26.17,3.31-.23.17-.5.26-.77.26Z"/>
        <path class="cls-2" d="M66.3,89.48c-.39,0-.78-.18-1.04-.52-.43-.57-.31-1.38.26-1.81.45-.34,11.25-8.24,28.38-3.74.69.18,1.1.89.92,1.58-.18.69-.89,1.1-1.58.92-15.86-4.17-26.07,3.23-26.17,3.31-.23.17-.5.26-.77.26Z"/>
        <path class="cls-2" d="M66.3,98.3c-.39,0-.78-.18-1.04-.52-.43-.57-.31-1.38.26-1.81.45-.34,11.25-8.24,28.38-3.74.69.18,1.1.89.92,1.58-.18.69-.89,1.11-1.58.92-15.86-4.17-26.07,3.23-26.17,3.31-.23.17-.5.25-.77.25Z"/>
        <path class="cls-2" d="M47.26,71.84c-.27,0-.54-.08-.77-.26h0c-.1-.08-10.31-7.48-26.17-3.31-.69.18-1.4-.23-1.58-.92-.18-.69.23-1.4.92-1.58,17.13-4.51,27.93,3.4,28.38,3.74.57.43.69,1.24.26,1.81-.25.34-.64.52-1.03.52Z"/>
        <path class="cls-2" d="M47.26,80.66c-.27,0-.54-.08-.77-.26h0c-.1-.08-10.31-7.48-26.17-3.31-.69.18-1.4-.23-1.58-.92-.18-.69.23-1.4.92-1.58,17.12-4.51,27.93,3.4,28.38,3.74.57.43.69,1.24.26,1.81-.25.34-.64.52-1.03.52Z"/>
        <path class="cls-2" d="M47.26,89.48c-.27,0-.54-.08-.77-.26h0c-.1-.08-10.31-7.48-26.17-3.31-.69.18-1.4-.23-1.58-.92-.18-.69.23-1.4.92-1.58,17.13-4.51,27.93,3.4,28.38,3.74.57.43.69,1.24.26,1.81-.25.34-.64.52-1.03.52Z"/>
        <path class="cls-2" d="M47.26,98.31c-.27,0-.54-.08-.77-.26h0c-.1-.08-10.31-7.48-26.17-3.31-.69.19-1.4-.23-1.58-.92-.18-.69.23-1.4.92-1.58,17.13-4.51,27.93,3.4,28.38,3.74.57.43.69,1.24.26,1.81-.25.34-.64.52-1.03.52Z"/>
        <path class="cls-2" d="M15.8,43.26l1.1,3.69c.12.4.43.71.83.83l3.69,1.1c.31.09.31.54,0,.63l-3.69,1.1c-.4.12-.71.43-.83.83l-1.1,3.69c-.09.31-.54.31-.63,0l-1.1-3.69c-.12-.4-.43-.71-.83-.83l-3.69-1.1c-.31-.09-.31-.54,0-.63l3.69-1.1c.4-.12.71-.43.83-.83l1.1-3.69c.09-.31.54-.31.63,0Z"/>
        <path class="cls-2" d="M97.04,33.16l1.1,3.69c.12.4.43.71.83.83l3.69,1.1c.31.09.31.54,0,.63l-3.69,1.1c-.4.12-.71.43-.83.83l-1.1,3.69c-.09.31-.54.31-.63,0l-1.1-3.69c-.12-.4-.43-.71-.83-.83l-3.69-1.1c-.31-.09-.31-.54,0-.63l3.69-1.1c.4-.12.71-.43.83-.83l1.1-3.69c.09-.31.54-.31.63,0Z"/>
        <path class="cls-2" d="M52.82,31.52l.56,1.89c.12.4.43.71.83.83l1.89.56c.31.09.31.54,0,.63l-1.89.56c-.4.12-.71.43-.83.83l-.56,1.89c-.09.31-.54.31-.63,0l-.56-1.89c-.12-.4-.43-.71-.83-.83l-1.89-.56c-.31-.09-.31-.54,0-.63l1.89-.56c.4-.12.71-.43.83-.83l.56-1.89c.09-.31.54-.31.63,0Z"/>
        <circle class="cls-2" cx="37.26" cy="42.2" r="1.96"/>
        <circle class="cls-2" cx="61.9" cy="46.09" r="3.06"/>
        <circle class="cls-2" cx="79.94" cy="33.22" r="2.07"/>
        <path class="cls-2" d="M56,50.86c2.56-.17,4.47-1.47,5.21-3.74s.07-8.87,7.48-9.17c7.41-.29,13.71-3.81,13.71-11.51,0-7.7-5.72-12.02-14.3-12.1-8.58-.07-21.48,2.71-21.41-6.38,0-3.74,3.67-4.91,3.67-4.91-7.99-7.7-20.53.37-20.53,10.78,0,10.41,8.58,13.3,19.87,12.32,10.1-.88,12.68-1.39,15.76-1.32s3.79,2.45,3.79,3.79-1.01,4-3.72,4-20.02,0-23.68,0c-3.67,0-6.82,3.35-6.75,7.75s4.18,5.35,6.38,5.35,5.5-3.3,10.41-1.69,3.32,6.87,4.11,6.82Z"/>
      </g>
      <g>
        <path class="cls-1" d="M112.38,50.54c-4.84-1.26-18.83-4.37-31.25-1.96-12.83,2.49-21.05,7.93-23.38,9.63-.41.3-.95.3-1.36,0-2.33-1.7-10.55-7.14-23.38-9.63-12.42-2.41-26.41.7-31.25,1.96C.72,50.81,0,51.77,0,52.87v61.96c0,1.57,1.44,2.73,2.92,2.33,4.72-1.26,14.7-3.38,26.52-2.63,9.76.62,17.64,4.06,22.45,6.76,3.23,1.82,7.13,1.82,10.37,0,4.81-2.7,12.69-6.14,22.45-6.76,11.81-.75,21.8,1.37,26.52,2.63,1.48.4,2.92-.76,2.92-2.33v-61.96c0-1.1-.72-2.06-1.76-2.33Z"/>
        <path class="cls-6" d="M104.75,53.25c-4.17-1.06-16.23-3.67-26.93-1.64-11.05,2.09-18.14,6.64-20.15,8.07-.36.25-.83.25-1.18,0-2.01-1.43-9.1-5.98-20.15-8.07-10.71-2.02-22.76.59-26.94,1.64-.89.23-1.51,1.03-1.51,1.95v51.94c0,1.32,1.24,2.28,2.51,1.95,4.07-1.06,12.67-2.83,22.86-2.2,12.16.75,20.93,6.43,23.23,8.07.36.25.83.25,1.19,0,2.29-1.64,11.07-7.31,23.23-8.07,10.18-.63,18.79,1.15,22.86,2.2,1.27.33,2.51-.64,2.51-1.95v-51.94c0-.92-.62-1.73-1.51-1.95Z"/>
        <path class="cls-1" d="M66.3,71.84c-.39,0-.78-.18-1.04-.52-.43-.57-.31-1.38.26-1.81.45-.34,11.25-8.24,28.38-3.74.69.18,1.1.89.92,1.58-.18.69-.89,1.1-1.58.92-15.86-4.17-26.07,3.23-26.17,3.31-.23.17-.5.26-.77.26Z"/>
        <path class="cls-1" d="M66.3,80.66c-.39,0-.78-.18-1.04-.52-.43-.57-.31-1.38.26-1.81.45-.34,11.26-8.24,28.38-3.74.69.18,1.1.89.92,1.58-.18.69-.89,1.1-1.58.92-15.86-4.17-26.07,3.23-26.17,3.31-.23.17-.5.26-.77.26Z"/>
        <path class="cls-1" d="M66.3,89.48c-.39,0-.78-.18-1.04-.52-.43-.57-.31-1.38.26-1.81.45-.34,11.25-8.24,28.38-3.74.69.18,1.1.89.92,1.58-.18.69-.89,1.1-1.58.92-15.86-4.17-26.07,3.23-26.17,3.31-.23.17-.5.26-.77.26Z"/>
        <path class="cls-1" d="M66.3,98.3c-.39,0-.78-.18-1.04-.52-.43-.57-.31-1.38.26-1.81.45-.34,11.25-8.24,28.38-3.74.69.18,1.1.89.92,1.58-.18.69-.89,1.11-1.58.92-15.86-4.17-26.07,3.23-26.17,3.31-.23.17-.5.25-.77.25Z"/>
        <path class="cls-1" d="M47.26,71.84c-.27,0-.54-.08-.77-.26h0c-.1-.08-10.31-7.48-26.17-3.31-.69.18-1.4-.23-1.58-.92-.18-.69.23-1.4.92-1.58,17.13-4.51,27.93,3.4,28.38,3.74.57.43.69,1.24.26,1.81-.25.34-.64.52-1.03.52Z"/>
        <path class="cls-1" d="M47.26,80.66c-.27,0-.54-.08-.77-.26h0c-.1-.08-10.31-7.48-26.17-3.31-.69.18-1.4-.23-1.58-.92-.18-.69.23-1.4.92-1.58,17.12-4.51,27.93,3.4,28.38,3.74.57.43.69,1.24.26,1.81-.25.34-.64.52-1.03.52Z"/>
        <path class="cls-1" d="M47.26,89.48c-.27,0-.54-.08-.77-.26h0c-.1-.08-10.31-7.48-26.17-3.31-.69.18-1.4-.23-1.58-.92-.18-.69.23-1.4.92-1.58,17.13-4.51,27.93,3.4,28.38,3.74.57.43.69,1.24.26,1.81-.25.34-.64.52-1.03.52Z"/>
        <path class="cls-1" d="M47.26,98.31c-.27,0-.54-.08-.77-.26h0c-.1-.08-10.31-7.48-26.17-3.31-.69.19-1.4-.23-1.58-.92-.18-.69.23-1.4.92-1.58,17.13-4.51,27.93,3.4,28.38,3.74.57.43.69,1.24.26,1.81-.25.34-.64.52-1.03.52Z"/>
        <path class="cls-4" d="M15.8,43.26l1.1,3.69c.12.4.43.71.83.83l3.69,1.1c.31.09.31.54,0,.63l-3.69,1.1c-.4.12-.71.43-.83.83l-1.1,3.69c-.09.31-.54.31-.63,0l-1.1-3.69c-.12-.4-.43-.71-.83-.83l-3.69-1.1c-.31-.09-.31-.54,0-.63l3.69-1.1c.4-.12.71-.43.83-.83l1.1-3.69c.09-.31.54-.31.63,0Z"/>
        <path class="cls-4" d="M97.04,33.16l1.1,3.69c.12.4.43.71.83.83l3.69,1.1c.31.09.31.54,0,.63l-3.69,1.1c-.4.12-.71.43-.83.83l-1.1,3.69c-.09.31-.54.31-.63,0l-1.1-3.69c-.12-.4-.43-.71-.83-.83l-3.69-1.1c-.31-.09-.31-.54,0-.63l3.69-1.1c.4-.12.71-.43.83-.83l1.1-3.69c.09-.31.54-.31.63,0Z"/>
        <path class="cls-4" d="M52.82,31.52l.56,1.89c.12.4.43.71.83.83l1.89.56c.31.09.31.54,0,.63l-1.89.56c-.4.12-.71.43-.83.83l-.56,1.89c-.09.31-.54.31-.63,0l-.56-1.89c-.12-.4-.43-.71-.83-.83l-1.89-.56c-.31-.09-.31-.54,0-.63l1.89-.56c.4-.12.71-.43.83-.83l.56-1.89c.09-.31.54-.31.63,0Z"/>
        <circle class="cls-4" cx="37.26" cy="42.2" r="1.96"/>
        <circle class="cls-4" cx="61.9" cy="46.09" r="3.06"/>
        <circle class="cls-4" cx="79.94" cy="33.22" r="2.07"/>
        <path class="cls-5" d="M56,50.86c2.56-.17,4.47-1.47,5.21-3.74s.07-8.87,7.48-9.17c7.41-.29,13.71-3.81,13.71-11.51,0-7.7-5.72-12.02-14.3-12.1-8.58-.07-21.48,2.71-21.41-6.38,0-3.74,3.67-4.91,3.67-4.91-7.99-7.7-20.53.37-20.53,10.78,0,10.41,8.58,13.3,19.87,12.32,10.1-.88,12.68-1.39,15.76-1.32s3.79,2.45,3.79,3.79-1.01,4-3.72,4-20.02,0-23.68,0c-3.67,0-6.82,3.35-6.75,7.75s4.18,5.35,6.38,5.35,5.5-3.3,10.41-1.69,3.32,6.87,4.11,6.82Z"/>
      </g>
    </g>
  </g>
</svg>