<?xml version="1.0" encoding="UTF-8"?>
<svg id="Calque_2" data-name="Calque 2" xmlns="http://www.w3.org/2000/svg" viewBox="0 0 88.8 78.52">
  <defs>
    <style>
      .cls-1 {
        fill: #56423e;
      }

      .cls-2 {
        fill: #fff;
      }

      .cls-3 {
        fill: none;
        stroke: #fff;
        stroke-width: 6px;
      }

      .cls-4 {
        fill: #e44134;
      }

      .cls-5 {
        fill: #bea6a1;
      }
    </style>
  </defs>
  <g id="Calque_2-2" data-name="Calque 2">
    <g>
      <g>
        <g>
          <path class="cls-3" d="M82.25,41.84c-.77-5.74-6.13-10.47-11.11-10.6-4.98-.13-23.23,0-23.23,0,0,0-18.26-.13-23.23,0s-10.34,4.85-11.11,10.6-4.47,25.91-4.47,27.83,3.32,8.3,8.68,8.81c5.36.51,9.83-2.94,10.47-6.26.22-1.14.44-2.59.63-4,.41-2.98,2.97-5.2,5.97-5.2h26.1c3.01,0,5.56,2.22,5.97,5.2.19,1.41.41,2.85.63,4,.64,3.32,5.11,6.77,10.47,6.26,5.36-.51,8.68-6.89,8.68-8.81s-3.7-22.09-4.47-27.83Z"/>
          <circle class="cls-3" cx="26.08" cy="47" r="7.68"/>
          <circle class="cls-3" cx="63.87" cy="52.08" r="3.89"/>
          <circle class="cls-3" cx="70.61" cy="41.08" r="3.89"/>
          <rect class="cls-3" x="41.35" y="47" width="11.68" height="6.77" rx="2.3" ry="2.3"/>
          <path class="cls-3" d="M25.9,47.94h0c-1.92,0-3.48-1.56-3.48-3.48v-17.76h6.96v17.76c0,1.92-1.56,3.48-3.48,3.48Z"/>
          <circle class="cls-3" cx="26.08" cy="24.77" r="9.36"/>
        </g>
        <path class="cls-3" d="M82.95,16.58l1.1,3.69c.12.4.43.71.83.83l3.69,1.1c.31.09.31.54,0,.63l-3.69,1.1c-.4.12-.71.43-.83.83l-1.1,3.69c-.09.31-.54.31-.63,0l-1.1-3.69c-.12-.4-.43-.71-.83-.83l-3.69-1.1c-.31-.09-.31-.54,0-.63l3.69-1.1c.4-.12.71-.43.83-.83l1.1-3.69c.09-.31.54-.31.63,0Z"/>
        <path class="cls-3" d="M6.48,11.97l1.1,3.69c.12.4.43.71.83.83l3.69,1.1c.31.09.31.54,0,.63l-3.69,1.1c-.4.12-.71.43-.83.83l-1.1,3.69c-.09.31-.54.31-.63,0l-1.1-3.69c-.12-.4-.43-.71-.83-.83l-3.69-1.1c-.31-.09-.31-.54,0-.63l3.69-1.1c.4-.12.71-.43.83-.83l1.1-3.69c.09-.31.54-.31.63,0Z"/>
        <path class="cls-3" d="M42.05,9.77l.55,1.86c.12.4.43.71.83.83l1.86.55c.31.09.31.54,0,.63l-1.86.55c-.4.12-.71.43-.83.83l-.55,1.86c-.09.31-.54.31-.63,0l-.55-1.86c-.12-.4-.43-.71-.83-.83l-1.86-.55c-.31-.09-.31-.54,0-.63l1.86-.55c.4-.12.71-.43.83-.83l.55-1.86c.09-.31.54-.31.63,0Z"/>
        <path class="cls-3" d="M62.42.24l.55,1.86c.12.4.43.71.83.83l1.86.55c.31.09.31.54,0,.63l-1.86.55c-.4.12-.71.43-.83.83l-.55,1.86c-.09.31-.54.31-.63,0l-.55-1.86c-.12-.4-.43-.71-.83-.83l-1.86-.55c-.31-.09-.31-.54,0-.63l1.86-.55c.4-.12.71-.43.83-.83l.55-1.86c.09-.31.54-.31.63,0Z"/>
        <path class="cls-3" d="M10.87,22.6l.55,1.86c.12.4.43.71.83.83l1.86.55c.31.09.31.54,0,.63l-1.86.55c-.4.12-.71.43-.83.83l-.55,1.86c-.09.31-.54.31-.63,0l-.55-1.86c-.12-.4-.43-.71-.83-.83l-1.86-.55c-.31-.09-.31-.54,0-.63l1.86-.55c.4-.12.71-.43.83-.83l.55-1.86c.09-.31.54-.31.63,0Z"/>
        <circle class="cls-3" cx="69.67" cy="15.99" r="1.91"/>
        <circle class="cls-3" cx="46.36" cy="17.57" r="1.28"/>
        <circle class="cls-3" cx="59.2" cy="25.27" r=".89"/>
        <circle class="cls-3" cx="11.45" cy="13.32" r=".89"/>
      </g>
      <g>
        <g>
          <path class="cls-2" d="M82.25,41.84c-.77-5.74-6.13-10.47-11.11-10.6-4.98-.13-23.23,0-23.23,0,0,0-18.26-.13-23.23,0s-10.34,4.85-11.11,10.6-4.47,25.91-4.47,27.83,3.32,8.3,8.68,8.81c5.36.51,9.83-2.94,10.47-6.26.22-1.14.44-2.59.63-4,.41-2.98,2.97-5.2,5.97-5.2h26.1c3.01,0,5.56,2.22,5.97,5.2.19,1.41.41,2.85.63,4,.64,3.32,5.11,6.77,10.47,6.26,5.36-.51,8.68-6.89,8.68-8.81s-3.7-22.09-4.47-27.83Z"/>
          <circle class="cls-2" cx="26.08" cy="47" r="7.68"/>
          <circle class="cls-2" cx="63.87" cy="52.08" r="3.89"/>
          <circle class="cls-2" cx="70.61" cy="41.08" r="3.89"/>
          <rect class="cls-2" x="41.35" y="47" width="11.68" height="6.77" rx="2.3" ry="2.3"/>
          <path class="cls-2" d="M25.9,47.94h0c-1.92,0-3.48-1.56-3.48-3.48v-17.76h6.96v17.76c0,1.92-1.56,3.48-3.48,3.48Z"/>
          <circle class="cls-2" cx="26.08" cy="24.77" r="9.36"/>
        </g>
        <path class="cls-2" d="M82.95,16.58l1.1,3.69c.12.4.43.71.83.83l3.69,1.1c.31.09.31.54,0,.63l-3.69,1.1c-.4.12-.71.43-.83.83l-1.1,3.69c-.09.31-.54.31-.63,0l-1.1-3.69c-.12-.4-.43-.71-.83-.83l-3.69-1.1c-.31-.09-.31-.54,0-.63l3.69-1.1c.4-.12.71-.43.83-.83l1.1-3.69c.09-.31.54-.31.63,0Z"/>
        <path class="cls-2" d="M6.48,11.97l1.1,3.69c.12.4.43.71.83.83l3.69,1.1c.31.09.31.54,0,.63l-3.69,1.1c-.4.12-.71.43-.83.83l-1.1,3.69c-.09.31-.54.31-.63,0l-1.1-3.69c-.12-.4-.43-.71-.83-.83l-3.69-1.1c-.31-.09-.31-.54,0-.63l3.69-1.1c.4-.12.71-.43.83-.83l1.1-3.69c.09-.31.54-.31.63,0Z"/>
        <path class="cls-2" d="M42.05,9.77l.55,1.86c.12.4.43.71.83.83l1.86.55c.31.09.31.54,0,.63l-1.86.55c-.4.12-.71.43-.83.83l-.55,1.86c-.09.31-.54.31-.63,0l-.55-1.86c-.12-.4-.43-.71-.83-.83l-1.86-.55c-.31-.09-.31-.54,0-.63l1.86-.55c.4-.12.71-.43.83-.83l.55-1.86c.09-.31.54-.31.63,0Z"/>
        <path class="cls-2" d="M62.42.24l.55,1.86c.12.4.43.71.83.83l1.86.55c.31.09.31.54,0,.63l-1.86.55c-.4.12-.71.43-.83.83l-.55,1.86c-.09.31-.54.31-.63,0l-.55-1.86c-.12-.4-.43-.71-.83-.83l-1.86-.55c-.31-.09-.31-.54,0-.63l1.86-.55c.4-.12.71-.43.83-.83l.55-1.86c.09-.31.54-.31.63,0Z"/>
        <path class="cls-2" d="M10.87,22.6l.55,1.86c.12.4.43.71.83.83l1.86.55c.31.09.31.54,0,.63l-1.86.55c-.4.12-.71.43-.83.83l-.55,1.86c-.09.31-.54.31-.63,0l-.55-1.86c-.12-.4-.43-.71-.83-.83l-1.86-.55c-.31-.09-.31-.54,0-.63l1.86-.55c.4-.12.71-.43.83-.83l.55-1.86c.09-.31.54-.31.63,0Z"/>
        <circle class="cls-2" cx="69.67" cy="15.99" r="1.91"/>
        <circle class="cls-2" cx="46.36" cy="17.57" r="1.28"/>
        <circle class="cls-2" cx="59.2" cy="25.27" r=".89"/>
        <circle class="cls-2" cx="11.45" cy="13.32" r=".89"/>
      </g>
      <g>
        <g>
          <path class="cls-1" d="M82.25,41.84c-.77-5.74-6.13-10.47-11.11-10.6-4.98-.13-23.23,0-23.23,0,0,0-18.26-.13-23.23,0s-10.34,4.85-11.11,10.6-4.47,25.91-4.47,27.83,3.32,8.3,8.68,8.81c5.36.51,9.83-2.94,10.47-6.26.22-1.14.44-2.59.63-4,.41-2.98,2.97-5.2,5.97-5.2h26.1c3.01,0,5.56,2.22,5.97,5.2.19,1.41.41,2.85.63,4,.64,3.32,5.11,6.77,10.47,6.26,5.36-.51,8.68-6.89,8.68-8.81s-3.7-22.09-4.47-27.83Z"/>
          <circle class="cls-4" cx="26.08" cy="47" r="7.68"/>
          <circle class="cls-4" cx="63.87" cy="52.08" r="3.89"/>
          <circle class="cls-5" cx="70.61" cy="41.08" r="3.89"/>
          <rect class="cls-5" x="41.35" y="47" width="11.68" height="6.77" rx="2.3" ry="2.3"/>
          <path class="cls-2" d="M25.9,47.94h0c-1.92,0-3.48-1.56-3.48-3.48v-17.76h6.96v17.76c0,1.92-1.56,3.48-3.48,3.48Z"/>
          <circle class="cls-4" cx="26.08" cy="24.77" r="9.36"/>
        </g>
        <path class="cls-4" d="M82.95,16.58l1.1,3.69c.12.4.43.71.83.83l3.69,1.1c.31.09.31.54,0,.63l-3.69,1.1c-.4.12-.71.43-.83.83l-1.1,3.69c-.09.31-.54.31-.63,0l-1.1-3.69c-.12-.4-.43-.71-.83-.83l-3.69-1.1c-.31-.09-.31-.54,0-.63l3.69-1.1c.4-.12.71-.43.83-.83l1.1-3.69c.09-.31.54-.31.63,0Z"/>
        <path class="cls-4" d="M6.48,11.97l1.1,3.69c.12.4.43.71.83.83l3.69,1.1c.31.09.31.54,0,.63l-3.69,1.1c-.4.12-.71.43-.83.83l-1.1,3.69c-.09.31-.54.31-.63,0l-1.1-3.69c-.12-.4-.43-.71-.83-.83l-3.69-1.1c-.31-.09-.31-.54,0-.63l3.69-1.1c.4-.12.71-.43.83-.83l1.1-3.69c.09-.31.54-.31.63,0Z"/>
        <path class="cls-4" d="M42.05,9.77l.55,1.86c.12.4.43.71.83.83l1.86.55c.31.09.31.54,0,.63l-1.86.55c-.4.12-.71.43-.83.83l-.55,1.86c-.09.31-.54.31-.63,0l-.55-1.86c-.12-.4-.43-.71-.83-.83l-1.86-.55c-.31-.09-.31-.54,0-.63l1.86-.55c.4-.12.71-.43.83-.83l.55-1.86c.09-.31.54-.31.63,0Z"/>
        <path class="cls-4" d="M62.42.24l.55,1.86c.12.4.43.71.83.83l1.86.55c.31.09.31.54,0,.63l-1.86.55c-.4.12-.71.43-.83.83l-.55,1.86c-.09.31-.54.31-.63,0l-.55-1.86c-.12-.4-.43-.71-.83-.83l-1.86-.55c-.31-.09-.31-.54,0-.63l1.86-.55c.4-.12.71-.43.83-.83l.55-1.86c.09-.31.54-.31.63,0Z"/>
        <path class="cls-4" d="M10.87,22.6l.55,1.86c.12.4.43.71.83.83l1.86.55c.31.09.31.54,0,.63l-1.86.55c-.4.12-.71.43-.83.83l-.55,1.86c-.09.31-.54.31-.63,0l-.55-1.86c-.12-.4-.43-.71-.83-.83l-1.86-.55c-.31-.09-.31-.54,0-.63l1.86-.55c.4-.12.71-.43.83-.83l.55-1.86c.09-.31.54-.31.63,0Z"/>
        <circle class="cls-4" cx="69.67" cy="15.99" r="1.91"/>
        <circle class="cls-4" cx="46.36" cy="17.57" r="1.28"/>
        <circle class="cls-4" cx="59.2" cy="25.27" r=".89"/>
        <circle class="cls-4" cx="11.45" cy="13.32" r=".89"/>
      </g>
    </g>
  </g>
</svg>