<?xml version="1.0" encoding="UTF-8"?>
<svg id="Calque_2" data-name="Calque 2" xmlns="http://www.w3.org/2000/svg" viewBox="0 0 146.64 115.46">
  <defs>
    <style>
      .cls-1 {
        fill: #56423e;
      }

      .cls-2 {
        stroke-width: .75px;
      }

      .cls-2, .cls-3, .cls-4, .cls-5, .cls-6, .cls-7 {
        stroke-miterlimit: 10;
      }

      .cls-2, .cls-3, .cls-5, .cls-6, .cls-7 {
        fill: none;
      }

      .cls-2, .cls-4, .cls-6 {
        stroke: #e44134;
      }

      .cls-8 {
        fill: #fff;
      }

      .cls-3 {
        stroke: #fff;
      }

      .cls-9, .cls-4 {
        fill: #e44134;
      }

      .cls-10 {
        fill: #fff6f0;
      }

      .cls-11 {
        fill: #bea6a1;
      }

      .cls-5 {
        stroke: #352723;
        stroke-width: .5px;
      }

      .cls-7 {
        stroke: #56423e;
      }
    </style>
  </defs>
  <g id="Calque_1-2" data-name="Calque 1">
    <g id="Illustration">
      <rect class="cls-10" x="4.94" y="6.58" width="141.7" height="91.19" rx="5.53" ry="5.53"/>
      <g>
        <rect class="cls-7" x="74.76" y="3.6" width="67.09" height="52.79" rx=".8" ry=".8"/>
        <g>
          <circle class="cls-9" cx="78.42" cy="7.61" r="1.04"/>
          <circle class="cls-11" cx="81.46" cy="7.61" r="1.04"/>
          <circle class="cls-11" cx="84.5" cy="7.61" r="1.04"/>
        </g>
      </g>
      <rect class="cls-7" x="64.41" y="12.46" width="46.16" height="56.18" rx=".78" ry=".78"/>
      <g>
        <g>
          <path class="cls-9" d="M65.04,58.64s.19,0,.23.01c.04.01-.16,0-.07.02.09.02.12.04.19.06.07.02.06-.03.13,0,.07.04-.12.02,0,.06.13.04,0-.03.13.01.13.05.04.07.23.13.08.03.21.08.3.11.07.02,0-.03.07,0,.07.02.2.1.26.13.06.03.2.1.23.11.04.01.08,0,.09-.01-.01,0,0,.05.09.09.08.04.02-.02.07,0,.04.02.08.04.12.06.02.01-.06,0,0,.02.07.02.12.05.16.07.1.06-.01,0-.01.01,0,0,.06.04.09.05.04.02.15.07.18.08.01,0-.06-.04.04,0,.09.05.16.09.23.13.06.03.12.04.18.07.07.05.26.17.37.23.01,0,.07.04.12.06.09.05.08.05.15.08.04.02.04.02.08.05.02.01.03.02.05.03l-.03-.02s-.13-.09-.15-.1c-.03-.02-.06-.04-.09-.06-.11-.07-.17-.11-.28-.19-.04-.02-.06-.03-.09-.06-.07-.04-.13-.08-.2-.12-.01-.01-.02-.03-.11-.08-.08-.05-.04,0-.13-.06-.09-.05.03,0-.06-.06-.09-.06-.32-.19-.38-.19,0-.03-.08-.07-.16-.12-.01,0,.02.05-.07-.01-.07-.04-.22-.11-.31-.15-.08-.04-.07-.05-.14-.09-.02,0-.09-.02-.17-.06-.08-.04-.18-.08-.25-.1-.11-.07-.22-.1-.34-.15-.05-.03-.12-.06-.18-.09-.06-.03-.13-.05-.19-.07-.08-.04-.15-.07-.22-.1-.11-.04-.17-.07-.22-.09l-.07.2s.09.05.16.08Z"/>
          <path class="cls-9" d="M64.85,58.36c-.13-.05-.15-.09-.28-.13-.11-.02-.22-.05-.34-.08.1-.04-.19-.08-.25-.08-.18-.14-.44-.17-.69-.21-.03-.13-.48-.11-.56-.12-.08-.02.03-.05-.08-.09-.11-.04-.15.03-.24.02-.09,0,.09-.05.04-.06-.05-.01-.29-.08-.33-.08-.04,0,.09.09.04.06-.06-.03-.2-.12-.27-.09-.07.04-.2-.12-.24-.07-.06.07-.1,0-.19-.03-.09-.02.02.1-.1.06-.12-.05-.31-.11-.46-.13h0c-.19,0-.27-.02-.47-.04-.13-.01-.2-.05-.34-.06-.07,0-.04.03-.11.03h-.24c-.01-.05-.03-.11-.13-.11-.1,0-.04.08-.15.08-.1,0,.03-.07-.08-.1-.11-.04-.37-.03-.43.08-.02-.09-.1-.09-.2-.15-.02,0,.04.13-.07.09-.06-.02-.25,0-.35,0-.1,0-.09-.05-.17-.06-.02.06-.09.07-.18.07-.09,0-.19,0-.27.03-.13-.05-.24,0-.37,0-.06,0-.13-.01-.2-.01s-.14,0-.2.03c-.08-.01-.17-.03-.25-.03-.12,0-.19,0-.24,0l.04.48c.05.01.11.03.18.04-.03-.07.17-.16.21-.17.04,0-.14.14-.05.1.09-.04.12-.01.19-.02.07,0,.04-.13.12-.11.08.02-.1.17.03.14.14-.03-.02-.07.12-.09.13-.02.07.13.27.08.07-.02.24,0,.31-.02.07-.02-.01-.07.06-.08.08,0,.22.04.29.04.07,0,.22.04.25.03.04,0,.07-.16.08-.18,0,.04.02.17.11.17.09,0,.01-.1.06-.09.05,0,.1.02.13.02.03,0-.06.11,0,.06.07-.05.13-.03.18-.02.11.03-.01.04,0,.07,0,.03.07.03.1.04.04,0,.18-.02.2-.03.01,0-.07-.06.04-.05.12,0,.18.04.26.06.07.02.13-.1.2-.11.08.09.3.09.43.13.02,0,.03-.11.07-.08.08.06.17.08.25.09.02-.01.04-.03.07-.04.14-.05-.02.02.13.04,0,.02,0,.04.03.04.13.04.31-.06.41-.03.1.02.06.09.13.1.06,0,.09-.11.15-.05.06.06.23.05.32.05.08,0,0,.02.04.01.04,0,.07.07.15.08.08,0,.04-.08.09-.06.05.02.05.04.11.05.05,0,.09,0,.13,0,.03,0,0,.02.01.02.23-.03.28.07.51.12-.05-.02-.06.03,0,.02.05,0,.13-.08.19-.07s.03.06.05.08c.02.01-.14-.06-.09-.02.05.04.2.1.32.09.07.02.09.03.17.05.09.04.09.03.18.07.05.02.17.02.21.05.07.04.11,0,.16.01.05.01.24.11.24.09s.04-.04.08.04c.09,0,.15.07.24.08.08,0,0-.07.1-.06.04.06.1.11.19.16l.07-.2c-.17-.06-.05.02-.1,0Z"/>
          <path class="cls-9" d="M56.36,57.23c-.14,0-.18-.06-.32-.03-.11.03-.23.06-.34.1.07-.15-.21-.02-.26.03-.23-.11-.48-.02-.73.07-.09-.21-.48.11-.56.13-.08.02,0-.1-.12-.1-.12,0-.12.13-.2.17-.09.04.05-.12,0-.12-.05,0-.3.03-.34.05-.04.02.13.09.06.07-.07-.02-.24-.08-.28,0-.04.09-.24-.08-.25,0-.02.14-.09.04-.19.05-.09.01.08.15-.06.14-.13,0-.34,0-.49.03h0c-.18.08-.26.1-.44.16-.13.05-.21.03-.34.08-.07.03-.02.06-.08.09l-.22.11c-.04-.06-.08-.13-.18-.09-.09.04,0,.13-.09.17-.09.05-.01-.11-.13-.1-.12,0-.36.13-.34.3-.07-.12-.15-.08-.27-.1-.02,0,.12.15-.01.15-.06,0-.22.13-.31.16-.09.03-.11-.02-.19,0,.02.08-.04.12-.13.16-.08.04-.18.08-.23.16-.15,0-.22.11-.33.17-.06.03-.13.04-.19.07-.06.03-.12.07-.16.14-.08.02-.17.05-.24.08-.11.05-.17.09-.21.12l.35.52c.06,0,.11-.02.18-.04-.07-.07.04-.26.08-.29.03-.03-.04.22.02.13.06-.09.1-.07.16-.11.05-.04-.05-.17.03-.18.08,0,.02.24.12.15.1-.09-.06-.08.05-.16.11-.08.14.13.29-.02.05-.05.2-.11.26-.17.06-.05-.06-.08,0-.12.06-.05.22-.05.29-.08.07-.03.22-.05.24-.07.03-.03-.03-.23-.04-.26.02.05.12.2.2.16.08-.04-.05-.13,0-.14.05-.01.1-.02.13-.02.03,0,.02.17.05.08.03-.09.1-.1.14-.1.12,0,.01.06.04.1.02.04.08,0,.12,0,.04,0,.15-.1.16-.12,0-.02-.1-.05,0-.09.1-.05.19-.03.27-.03.07,0,.06-.19.11-.24.12.09.33,0,.46,0,.02,0-.03-.17.01-.14.11.05.19.04.28.01,0-.03.02-.05.04-.08.1-.13,0,.04.14,0,.01.02.03.05.05.05.13,0,.24-.22.35-.24.1-.01.1.1.17.08.06-.02.02-.21.11-.15.09.06.24-.03.31-.08.07-.05.01.04.04,0,.03-.03.11.08.18.05.07-.03,0-.15.05-.14.05,0,.07.04.12.02.05-.02.08-.04.12-.06.03-.02,0,.03.02.02.19-.17.29-.04.52-.06-.05,0-.04.07,0,.03.04-.04.07-.21.13-.23.06-.02.06.09.09.1.02,0-.16-.02-.09.03.07.04.23.05.33-.04.07,0,.11,0,.18,0,.1,0,.1,0,.2.02.06.01.16-.07.21-.05.08.02.1-.09.14-.09.05,0,.27.04.25,0-.02-.03.02-.11.09.02.08-.05.17.04.25,0,.08-.05-.04-.15.05-.2.06.09.14.14.24.17l-.04-.48c-.18.02-.03.07-.09.08Z"/>
          <path class="cls-9" d="M48.16,59.84c-.12.07-.2.02-.3.12-.08.09-.17.18-.24.28-.04-.2-.19.09-.21.17-.28,0-.44.23-.58.45-.23-.16-.34.38-.38.44-.06.06-.07-.1-.17-.03-.1.07,0,.19-.05.28-.04.09-.05-.15-.08-.11-.04.04-.23.2-.25.25-.01.04.18,0,.11.03-.07.02-.27.07-.23.17.04.11-.26.07-.21.16.09.14-.05.09-.11.16-.07.07.17.08.06.16-.11.07-.28.2-.37.34h0c-.08.18-.13.25-.23.43-.06.12-.14.16-.2.29-.03.07.04.06.01.13l-.09.23c-.08-.02-.16-.04-.21.05-.04.09.11.1.07.2-.04.1-.1-.07-.18.01-.09.08-.16.36-.02.47-.15-.04-.18.05-.28.12-.02.01.21.03.12.12-.05.05-.06.25-.1.34-.04.09-.1.07-.13.14.08.04.07.12.04.21-.03.09-.06.19-.02.28-.1.12-.06.24-.09.37-.01.06-.04.13-.07.2-.02.07-.03.14,0,.21-.04.08-.07.16-.09.24-.03.12-.03.19-.04.25l.67.04s.06-.1.09-.16c-.1.01-.19-.19-.19-.24,0-.04.17.17.13.07-.04-.1,0-.12,0-.19,0-.07-.18-.07-.13-.14.05-.07.22.14.21,0-.01-.14-.11,0-.1-.14,0-.13.2-.02.18-.23,0-.07.05-.22.04-.3,0-.08-.1-.01-.1-.09,0-.08.13-.19.14-.26.01-.07.12-.19.12-.22,0-.04-.21-.14-.24-.16.05.02.26.06.28-.02.02-.08-.15-.06-.12-.11.02-.04.05-.09.08-.11.02-.02.15.11.1.02-.05-.09,0-.14.03-.17.08-.08.06.03.11.05.05.02.06-.05.09-.07.02-.03.03-.17.03-.19-.01-.02-.11.03-.07-.07.05-.1.12-.14.18-.2.05-.05-.11-.19-.1-.26.17,0,.25-.21.36-.29.02-.01-.16-.11-.1-.13.13-.03.18-.09.23-.16-.02-.03-.03-.06-.03-.09-.02-.17.02.03.12-.08.03.01.06.02.08.01.11-.07.02-.34.09-.41.07-.07.16.03.2-.03.04-.05-.15-.2-.03-.19.12,0,.17-.16.19-.25.02-.08.04.02.04-.02,0-.05.15.01.18-.06.04-.07-.11-.13-.07-.16.04-.03.09,0,.11-.05.02-.05.04-.09.05-.12,0-.03.03.03.03.01.03-.27.22-.19.39-.34-.04.03.02.09.03.03,0-.07-.1-.24-.06-.3.04-.05.12.06.14.05.02,0-.15.06-.06.07.09,0,.24-.06.26-.21.06-.03.08-.06.15-.09.1-.04.09-.04.18-.07.06-.02.09-.15.14-.16.09-.01.03-.14.06-.16.04-.03.25-.1.22-.12-.03-.03-.06-.13.1-.02.04-.09.18-.04.21-.12.04-.09-.13-.15-.09-.25.11.06.22.09.33.08l-.35-.52c-.15.11.02.1-.04.13Z"/>
          <path class="cls-9" d="M43.75,67.12c-.01.14-.11.17-.09.32.01.12.05.24.09.36-.19-.09-.05.21.01.27-.17.23-.08.49.02.74-.28.09.11.49.13.57.02.08-.13,0-.14.12,0,.12.16.12.2.2.04.09-.15-.05-.14,0,0,.05.02.3.04.34.03.04.12-.13.09-.07-.03.07-.12.25-.01.29.1.04-.11.25,0,.26.17.02.04.09.05.19.01.1.18-.08.16.05-.02.13-.03.34,0,.49h0c.08.18.09.26.15.45.04.13.02.21.06.34.02.07.07.02.1.09l.09.22c-.07.04-.15.07-.12.17.03.09.14,0,.18.1.04.1-.12,0-.13.12-.01.12.09.36.27.36-.14.06-.11.14-.15.25,0,.02.18-.09.16.03-.01.06.09.23.1.33.02.09-.05.11-.04.18.09,0,.12.06.14.15.02.09.04.19.11.25-.04.14.05.23.07.36,0,.06,0,.13,0,.2,0,.07.02.13.07.19,0,.08-.02.17-.01.24,0,.11.02.18.03.23l.62-.1c.02-.06.03-.11.04-.19-.09.04-.22-.15-.24-.19-.01-.04.19.12.13.03-.06-.09-.03-.12-.05-.19-.02-.07-.18-.01-.16-.1.02-.08.24.07.18-.07-.06-.13-.1.03-.14-.1-.04-.13.17-.1.07-.29-.04-.07-.05-.24-.09-.31-.04-.07-.09.04-.12-.04-.03-.07.01-.23,0-.31-.02-.07,0-.24-.02-.26-.02-.04-.25-.01-.28,0,.05,0,.24-.09.21-.18-.03-.09-.15.03-.15-.02s0-.1,0-.13c0-.03.18,0,.09-.04-.09-.04-.09-.11-.08-.16.02-.12.07,0,.11-.02.05-.02.02-.08.03-.12,0-.04-.08-.17-.1-.18-.02,0-.07.1-.1-.02-.03-.11,0-.19,0-.28,0-.08-.21-.08-.25-.13.12-.12.04-.33.06-.47,0-.02-.19.03-.16-.02.07-.11.06-.2.05-.28-.03,0-.06-.02-.09-.04-.14-.11.04,0,.02-.15.03-.01.06-.03.06-.05.02-.14-.24-.25-.25-.35,0-.1.13-.11.11-.17-.01-.06-.25-.01-.17-.1.08-.09-.02-.24-.07-.31-.05-.07.04-.01,0-.05-.04-.03.11-.11.07-.18-.03-.07-.18,0-.17-.05,0-.05.06-.07.03-.12-.02-.05-.04-.09-.07-.12s.04,0,.03-.02c-.2-.19-.02-.29-.03-.52,0,.05.09.04.04,0-.05-.04-.26-.07-.28-.13-.02-.06.12-.06.13-.08.01-.02-.04.16.03.09.06-.07.1-.23-.01-.33,0-.07,0-.11.01-.18.02-.1.02-.1.06-.19.02-.06-.07-.16-.04-.21.04-.08-.1-.1-.1-.15,0-.05.09-.26.04-.25-.04.01-.15-.03.04-.09-.06-.09.08-.16.03-.24-.05-.08-.21.02-.27-.08.13-.05.22-.12.28-.21l-.67-.04c0,.19.1.05.09.11Z"/>
          <path class="cls-9" d="M45.33,75.56c.01.13-.07.18-.03.31.04.11.08.22.13.33-.18-.07-.02.2.03.25-.16.22-.06.46,0,.71-.25.06.05.47.04.55,0,.08-.12-.03-.14.09-.02.11.11.14.13.23.01.09-.12-.08-.12-.03,0,.05-.05.28-.04.32.01.04.13-.09.1-.03-.04.06-.17.19-.09.25.08.07-.17.18-.08.22.13.07,0,.09-.03.18-.03.09.17,0,.11.11-.06.11-.16.28-.2.42h0c-.02.19-.05.26-.11.43-.04.12-.09.17-.14.29-.03.06.04.05.01.12l-.07.22c-.07-.02-.14-.04-.18.04-.04.08.08.09.04.18-.04.09-.07-.07-.15,0-.07.07-.19.28-.1.41-.11-.06-.14.02-.25.05-.02,0,.15.07.05.13-.05.03-.13.2-.2.26-.07.06-.1.02-.16.07.04.06,0,.12-.07.18-.06.06-.14.12-.16.21-.13.04-.18.15-.27.23-.05.04-.11.07-.17.1-.06.04-.11.08-.14.14-.07.03-.15.07-.22.11-.1.06-.15.1-.19.13l.27.4c.05-.01.11-.03.18-.06-.06-.05.06-.23.09-.26.03-.03-.05.2.01.11.06-.08.1-.08.15-.13.05-.05-.04-.14.04-.16.08-.03.02.21.12.1.1-.1-.06-.06.04-.15.1-.09.14.08.28-.09.05-.06.19-.16.23-.23.05-.07-.07-.05-.01-.11.05-.06.2-.12.25-.18.05-.06.2-.14.21-.17.02-.04-.1-.18-.12-.2.03.03.18.11.23.04.06-.08-.09-.09-.05-.12.04-.04.08-.07.1-.09.03-.02.08.13.07.04-.01-.09.04-.14.08-.17.1-.07.04.04.08.06.04.02.07-.04.1-.07.04-.02.09-.17.08-.2,0-.02-.1.03-.04-.08.06-.11.13-.15.2-.21.06-.05-.07-.19-.06-.25.14-.03.24-.24.32-.35.01-.02-.14-.08-.1-.1.11-.06.15-.14.19-.22-.02-.02-.03-.05-.04-.08-.05-.17.03.02.08-.12.03,0,.06,0,.07-.02.08-.12-.05-.34-.02-.44.04-.1.14-.05.16-.12.01-.07-.19-.11-.09-.16.11-.06.07-.24.05-.32-.02-.09.04,0,.02-.04-.02-.04.12-.07.12-.15,0-.08-.15-.05-.13-.1.02-.05.07-.05.06-.11,0-.05-.02-.1-.03-.13-.01-.03.04,0,.03-.01-.12-.23.04-.29.07-.54-.01.05.07.05.04,0-.04-.05-.22-.11-.23-.17-.01-.07.12-.05.13-.07.01-.02-.05.15.01.09.06-.06.11-.23.02-.34.01-.07,0-.11.02-.18.02-.11.02-.1.05-.2.02-.06-.06-.17-.04-.22.04-.09-.1-.1-.1-.15,0-.05.06-.28.02-.26-.04.02-.14-.01.03-.1-.06-.08.05-.18-.01-.25-.06-.07-.19.05-.26-.04.11-.07.18-.16.22-.26l-.62.1c.04.18.1.02.1.08Z"/>
          <path class="cls-9" d="M42.63,82.85c-.11.07-.18.03-.28.12-.09.08-.17.16-.25.24,0-.16-.18.08-.22.14-.25,0-.43.19-.62.35-.14-.13-.4.27-.47.31-.07.04-.02-.08-.13-.04-.11.04-.08.14-.15.2-.07.06.03-.11-.02-.09-.05.02-.26.12-.3.15-.03.03.13.03.07.03-.06,0-.23.01-.26.09-.03.08-.23.01-.23.08,0,.11-.08.06-.16.09-.09.04.08.08-.04.12-.12.03-.31.09-.45.15h0c-.16.1-.24.14-.41.22-.12.06-.19.07-.31.13-.06.03-.02.05-.08.08l-.21.11s-.06-.06-.15-.02c-.09.04,0,.08-.1.12-.09.04,0-.06-.11-.04-.11.02-.34.14-.36.24-.04-.06-.12-.02-.22-.02-.02,0,.07.07-.04.09-.06,0-.23.1-.32.13-.09.03-.09,0-.16.02,0,.04-.07.07-.15.1-.08.03-.18.06-.25.11-.13.02-.23.08-.35.12-.06.02-.13.03-.19.05-.07.02-.13.04-.19.08-.08.02-.16.04-.23.06-.11.03-.18.05-.23.07l.06.2c.05,0,.11-.01.18-.02-.03-.02.16-.11.19-.13.04-.01-.13.1-.04.06.09-.04.12-.04.19-.06.07-.02.03-.08.1-.09.08,0-.08.11.05.06.13-.05-.02-.03.1-.08.13-.04.08.05.27-.03.08-.03.22-.08.3-.11.07-.03-.03-.03.05-.06.07-.03.22-.04.29-.07.07-.03.22-.05.25-.07.04-.02.03-.12.03-.14,0,.03.07.1.15.07.09-.03-.02-.07.03-.08.05-.01.1-.03.13-.03.03,0-.02.09.03.04.05-.06.12-.07.16-.08.11-.02,0,.03.02.05.01.02.07,0,.11-.01.04,0,.16-.08.17-.09.01-.01-.09-.01.02-.06.11-.04.18-.05.26-.06.07-.01.08-.13.14-.17.11.03.31-.06.44-.09.02,0-.02-.1.02-.1.1.01.19-.01.27-.05,0-.02.02-.04.04-.06.1-.11,0,.02.14-.03.01.01.03.03.05.02.13-.03.23-.21.33-.25.1-.04.11.04.17.01.06-.03,0-.15.09-.13.09.02.22-.09.29-.14.07-.06.02.02.04,0,.03-.03.11.03.17-.01.06-.04-.02-.11.03-.12.05-.02.07,0,.12-.02.04-.03.07-.06.1-.08.02-.02.01.02.02.01.15-.19.27-.12.48-.22-.05.02-.02.07.01.02s.01-.19.07-.23c.05-.04.08.05.1.05.02,0-.15.04-.08.05.07.01.23-.04.3-.15.06-.02.1-.05.16-.07.1-.03.1-.04.19-.06.06-.01.13-.12.18-.13.09-.01.06-.11.1-.14.04-.02.26-.08.23-.1-.03-.02-.03-.1.09-.02.05-.08.17-.05.22-.12.05-.07-.1-.11-.05-.2.1.04.19.05.3.03l-.27-.4c-.14.11,0,.08-.04.11Z"/>
          <path class="cls-9" d="M31.08,87.45s.02,0,.03,0c.01,0,.03,0,.03,0,.11-.02.19-.03.26-.04.04,0,.11,0,.14-.01.07,0,.07-.02.14-.03.07,0,.24-.04.32-.05.08-.02,0,0,.04,0,.04,0,.09,0,.16-.01.07-.01.02-.02.08-.03.05,0,.06,0,.11-.01.05-.01.09-.02.12-.03.03,0,0,0,.01,0,.21-.06.28-.05.52-.09-.05,0-.04.02,0,0,.05-.02.09-.06.16-.08.06-.02.05.01.07.01.02,0-.15.02-.09.02.06,0,.22-.02.33-.07.07-.01.1-.02.17-.03.1-.01.09-.01.19-.03.06,0,.16-.05.21-.06.08,0,.1-.05.15-.06.05-.01.26-.04.25-.05-.01,0,.02-.05.09,0,.08-.04.17-.02.24-.06.07-.04-.04-.05.05-.1.06.02.14.03.24.02l-.06-.2c-.17.06-.03.04-.09.06-.13.04-.17.02-.3.07-.1.04-.21.08-.33.12.07-.07-.19.04-.25.07-.22.02-.46.1-.7.17-.07-.04-.47.13-.55.14-.08.02.02-.03-.1,0-.11.02-.13.05-.22.07-.09.02.07-.04.02-.02-.05.01-.27.06-.33.07-.04.01.11,0,.05,0-.06,0-.21.03-.27.05-.06.02-.21.03-.24.05-.05.02-.09.02-.19.04-.07.01-.08.02-.2.04-.14.03-.07.01-.21.04-.02,0-.08.02-.1.02-.04,0-.05,0-.11.02,0,0-.02,0-.03,0,0,0,0,0,0,0,.06,0,.12-.02.15-.02Z"/>
        </g>
        <g>
          <path class="cls-1" d="M11.89,74.89l25.92-14.97c.21-.12.49-.04.61.16l4.92,8.52c.12.21.05.47-.16.59l-19.42,11.23-4.87,2.8-1.63.96c-1.62.92-3.7.36-4.64-1.24l-1.97-3.41c-.94-1.63-.38-3.7,1.24-4.64Z"/>
          <polygon class="cls-8" points="43.21 69.23 48.6 59.89 37.81 59.89 43.21 69.23"/>
          <polygon class="cls-9" points="47.6 61.61 48.6 59.89 46.6 59.89 47.6 61.61"/>
          <polygon class="cls-8" points="13.54 73.94 18.39 71.14 23.76 80.43 18.89 83.23 13.54 73.94"/>
          <line class="cls-5" x1="40.62" y1="64.75" x2="21.2" y2="75.99"/>
        </g>
      </g>
      <g>
        <g>
          <path class="cls-1" d="M136.94,46.91l-14.46,14.46c-.34-1.12-.93-2.17-1.9-3.1-.8-.78-1.92-1.39-3.16-1.75l14.57-14.57c1.05-1.05,2.78-1.05,3.86,0l1.1,1.1c1.05,1.08,1.05,2.8,0,3.86Z"/>
          <path class="cls-9" d="M118.77,71.11c-3.37,2.68-7.46,3.04-11.34,2.91-.46-.02-.74-.55-.46-.93.44-.65.55-1.5.38-2.99-.32-5.76-.63-8.69,2.53-11.83,2.09-2.09,5.08-2.42,7.55-1.75,1.24.36,2.36.97,3.16,1.75.97.93,1.56,1.98,1.9,3.1.97,3.46-.84,7.48-3.71,9.74Z"/>
          <path class="cls-3" d="M120.78,53.17c1.42,1.43,3.26,3.01,5.06,4.87"/>
        </g>
        <g>
          <path class="cls-9" d="M107.98,84.07c.85.99,1.06,1.35,5.15,1.64s8.22.89,8.2,3.05-.73,3.05-2.37,3.63-2.49.51-4.88.29-3.65-.48-4.04,1.52,1.31,2.83,2.49,3.22,7.88,1.16,8.39,3.63c.19,1.06-1.06,2.64-2.76,3s-3.72-.15-4.74-1.76-3.34-4.13-3.8-3.92,1.81,3.82,2.37,5.79.31,3.85-1.09,4.63-2.68.27-3.84-1.93-2.15-3.12-2.68-3.02-1.02.92-1.18,2.08-.87,1.23-1.28.92-2.73-2.13-3.02-2.03-.63.97-.44,2.08,1.23,3.6-.41,5.37-5.13,3.51-7.13,2.1-2.25-4.11-.34-6.46,3.38-3.24,3.84-5.54c.19-.41-1.04-1.26-4.33-1.11s-6,.97-5.92.48,1.47-1.84,2.42-2.8,1.23-2.93-.77-3.43-4.33-.82-8.29-1.38-5.25-1.76-4.06-3.99,3.72-3.43,5.49-2.95,4.4,2.37,5.58,2.2,2.1-1.45,2.2-1.98-1.45-3.07-2.01-5.34-.02-3.48.24-3.55,1.81-.51,4.11,2.15c2.22,2.13,3.77,1.93,4.47,1.33s3.75-4.26,5.51-4.18,1.67,1.72,2.01,1.72,1.43-.97,2.83-2.01,2.59-.29,2.83-.12,1.14.87.87,3.02-.19,3,.39,3.67Z"/>
          <path class="cls-9" d="M85.79,106.26c.29-.97-3.92-2.61-6.85-.98s-3.37,4.35-2.83,5.08,3.08,2.28,6.27.25,3.23-3.74,3.41-4.35Z"/>
          <path class="cls-9" d="M72.41,72.92c1.47-.36,4.33,2.3,6.56,5.28.11.11-3.25-.18-4.5-.42s-4.18-1.2-4.18-2.21.79-2.32,2.12-2.65Z"/>
          <path class="cls-9" d="M119.2,96.26c-.18-.88,2.86-2.18,4.9-1.67s3.34,2.88,3,3.32-2.11,1.12-4.2.49-3.64-1.87-3.7-2.14Z"/>
          <path class="cls-9" d="M116.88,107.5c.3-.04,5,.74,6.33,1.87s1.65,3.25.83,4.55-1.23,1.78-2.16,1.43-2.19-1.76-2.94-3.3-2.28-4.52-2.07-4.55Z"/>
          <path class="cls-9" d="M103.68,111.38c.22-1.01,1.99-1.49,2.99-.82s.82,1.81.56,2.3-1.32.91-2.41.33-1.2-1.56-1.14-1.81Z"/>
          <path class="cls-9" d="M93.04,71.15c.09-.41-1.21-.94-1.67-.4s-1.2,3.16.83,3.68c.18-.54-.27-1.02.11-1.76s.58-.83.73-1.52Z"/>
          <path class="cls-8" d="M86.24,100.69c.6-.46,1.79-1.14,4.52-1.16s4.38,1.28,4.52,2.3c-3.89-2.03-9.04-1.14-9.04-1.14Z"/>
          <path class="cls-8" d="M76.95,110s1.78.54,3.74,0,2.9-1.81,2.9-1.81c-.27.54-.89,1.83-2.73,2.32s-3.63-.36-3.91-.51Z"/>
          <path class="cls-8" d="M104.14,111.59s.77,1.91,2.7.95c-2.03,1.03-2.68-.59-2.7-.95Z"/>
          <path class="cls-8" d="M90.32,111.87c.46.5,1.28,1.97,4.18,1.17s3.26-2.93,3.34-3.46c-.17,1.93-.12,3.43-3.76,4.26-2.5.46-3.76-1.97-3.76-1.97Z"/>
          <path class="cls-8" d="M71.06,74.97c-.26-.44,2.04,2.04,6.14,2.32-3.92-.04-5.56-1.35-6.14-2.32Z"/>
          <path class="cls-8" d="M119.58,111.08s1.48,3.05,2.59,3.06,1.35-1.75,1.32-1.89c.15.9-.28,2.23-1.27,2.35s-2.46-2.73-2.65-3.53Z"/>
          <path class="cls-8" d="M126.25,97.53c-.17.17-.47.57-2.07.45s-3.32-1.41-3.32-1.41c1.45.64,2.25,1.15,3.35,1.31s2.04-.34,2.04-.34Z"/>
          <path class="cls-8" d="M111.13,106.44s.18,1.81-1.43,1.74-2.43-2.47-3.46-4.01-2.17-1.34-2.56-1.05-1.03,2.86-1.41,2.9-2.43-2.32-3.64-1.89-.87,1.7-.87,1.7c-.31-1.03-.18-2.16.87-2.28s3.19,1.85,3.55,1.87.24-3.06,2.2-3.06,2.34,1.58,2.48,1.83,1.53,3.64,2.87,3.63,1.41-1.38,1.41-1.38Z"/>
          <path class="cls-8" d="M119.88,101.24s.18.95-.63,1.45-2.44.98-3.69.44-3.2-4.04-4.43-4.84-1.66-.6-2.18-.39c1.44-.46,1.85-.11,2.36.31s3.36,4.3,4.38,4.64,3.49.4,4.19-1.62Z"/>
          <path class="cls-8" d="M74.2,91.73s1.64,1.43,5.68,1.89,6.02.8,7.23,1.79c-2.83-1.74-5.49-2.1-7.01-2.13s-4.67-.7-5.9-1.55Z"/>
          <path class="cls-8" d="M109.3,93.3s.39-1.11,1.69-1.4,2.83.15,5.54,0,3.94-.68,3.72-2.66c-1.33,1.96-1.47,2.22-4.13,2.03s-3.92-.65-5.39,0-1.43,2.03-1.43,2.03Z"/>
        </g>
      </g>
      <g>
        <g>
          <rect class="cls-9" x="25.06" y="30.52" width="3.41" height="3.41" transform="translate(20.77 -9.23) rotate(31.49)"/>
          <rect class="cls-2" x="46.75" y="30.98" width="3.41" height="3.41" transform="translate(24.21 -20.5) rotate(31.49)"/>
          <rect class="cls-2" x="53.94" y="46.22" width="3.41" height="3.41" transform="translate(33.22 -22.01) rotate(31.49)"/>
          <line class="cls-2" x1="46.3" y1="33.36" x2="27.78" y2="32.26"/>
          <line class="cls-2" x1="55.08" y1="45.58" x2="49.91" y2="33.57"/>
        </g>
        <g>
          <path class="cls-6" d="M14.63.7L.7,10.67l.78,1.09c.77,1.07,2.01,1.7,3.33,1.67h0c.81-.02,1.59-.28,2.25-.75l7.26-5.19c.63-.45,1.12-1.08,1.4-1.81l.09-.24c.48-1.26.31-2.67-.48-3.76l-.7-.98Z"/>
          <path class="cls-4" d="M26.2,31.45l-.04-18.71s-.02-.07-.05-.09l-11.31-5.5-7.42,5.31.77,13.21,17.93,5.87c.06.02.13-.03.13-.09ZM14.24,15.11c1.74-1.25,4.19-.86,5.44.89,1.26,1.76.84,4.2-.9,5.45-1.74,1.25-4.17.85-5.43-.92-1.25-1.74-.84-4.17.9-5.42Z"/>
          <path class="cls-1" d="M18.46,20.78c3.29,3.42,6.04,7.25,8.21,11.48-3.3-3.42-6.04-7.26-8.21-11.48h0Z"/>
        </g>
      </g>
    </g>
  </g>
</svg>