<svg width="32" height="31" viewBox="0 0 32 31" fill="none" xmlns="http://www.w3.org/2000/svg">
<path fill-rule="evenodd" clip-rule="evenodd" d="M12.2551 10.5985H17.9034V13.412C18.717 11.7938 20.8035 10.34 23.9379 10.34C29.9466 10.34 31.3731 13.561 31.3731 19.4709V30.4161H25.2899V20.8168C25.2899 17.4512 24.4763 15.5533 22.405 15.5533C19.5321 15.5533 18.3383 17.5988 18.3383 20.8153V30.4161H12.2551V10.5985ZM1.82389 30.1576H7.90711V10.34H1.82389V30.1576ZM8.77853 3.87805C8.77876 4.38794 8.67764 4.89279 8.48104 5.36325C8.28445 5.83372 7.99631 6.26042 7.63337 6.61855C6.89791 7.34948 5.9024 7.75862 4.8655 7.75611C3.83043 7.75541 2.83722 7.34731 2.10068 6.62007C1.73905 6.26072 1.45188 5.83354 1.25563 5.36302C1.05938 4.89249 0.957912 4.38787 0.957031 3.87805C0.957031 2.84847 1.36765 1.86299 2.1022 1.13604C2.83809 0.407817 3.83172 -0.000455041 4.86702 3.80604e-07C5.90421 3.80604e-07 6.89882 0.409097 7.63337 1.13604C8.36639 1.86299 8.77853 2.84847 8.77853 3.87805Z" fill="#FBFBFA"/>
</svg>
