<svg width="15" height="16" viewBox="0 0 15 16" fill="none" xmlns="http://www.w3.org/2000/svg">
<path d="M13.5833 0.666992H1.58333C0.846667 0.666992 0.25 1.26366 0.25 2.00033V14.0003C0.25 14.737 0.846667 15.3337 1.58333 15.3337H13.5833C14.32 15.3337 14.9167 14.737 14.9167 14.0003V2.00033C14.9167 1.26366 14.32 0.666992 13.5833 0.666992ZM7.58333 11.587C7.58333 12.7717 6.85667 13.4357 5.65 13.4357C4.458 13.4357 3.69867 12.739 3.69867 11.6123H4.99C4.99333 12.0303 5.24267 12.2943 5.628 12.2943C6.024 12.2943 6.23667 12.045 6.23667 11.5757V7.99899H7.58333V11.587ZM11.2373 13.4357C9.898 13.4357 9.05533 12.805 9.03267 11.785H10.3167C10.3493 12.1703 10.734 12.4157 11.292 12.4157C11.7947 12.4157 12.14 12.1737 12.14 11.825C12.14 11.5317 11.9087 11.3737 11.3033 11.253L10.6067 11.1137C9.638 10.9303 9.13933 10.4023 9.13933 9.56966C9.13933 8.53499 9.96867 7.85632 11.2447 7.85632C12.4847 7.85632 13.3427 8.52766 13.3647 9.50699H12.1213C12.092 9.13299 11.736 8.87232 11.262 8.87232C10.7893 8.87232 10.478 9.09632 10.478 9.44833C10.478 9.73833 10.7127 9.90699 11.27 10.017L11.9513 10.149C12.9973 10.351 13.4667 10.8237 13.4667 11.6637C13.4673 12.7683 12.624 13.4357 11.2373 13.4357Z" fill="#E34234"/>
</svg>
