<svg width="15" height="16" viewBox="0 0 15 16" fill="none" xmlns="http://www.w3.org/2000/svg">
<path d="M1.50033 0.666992C0.763659 0.666992 0.166992 1.26366 0.166992 2.00033V14.0003C0.166992 14.737 0.763659 15.3337 1.50033 15.3337H13.5003C14.237 15.3337 14.8337 14.737 14.8337 14.0003V2.00033C14.8337 1.26366 14.237 0.666992 13.5003 0.666992H1.50033ZM4.44303 4.75163H5.76465L8.10189 11.3284H6.84017L6.28418 9.64616H3.86361L3.2985 11.3284H2.1097L4.44303 4.75163ZM5.03939 6.00553L4.13704 8.71647H6.01074L5.11751 6.00553H5.03939ZM10.9365 6.24251C12.3585 6.24251 13.2113 7.18547 13.2113 8.75814V9.12272H9.72949V9.18131C9.75682 10.0106 10.2349 10.5303 10.9782 10.5303C11.5382 10.5303 11.9262 10.3254 12.0902 9.95605H13.1605C12.9471 10.8634 12.121 11.4287 10.9456 11.4287C9.4783 11.4287 8.59407 10.4572 8.59407 8.85319C8.59407 7.24919 9.49252 6.24251 10.9365 6.24251ZM10.9326 7.13835C10.2579 7.13835 9.78406 7.62192 9.7334 8.35058H12.0811C12.0577 7.61259 11.6106 7.13835 10.9326 7.13835Z" fill="#E34234"/>
</svg>
