<svg width="20" height="14" viewBox="0 0 20 14" fill="none" xmlns="http://www.w3.org/2000/svg">
<path d="M19.4963 2.90051C19.0897 2.72801 18.6188 2.89884 18.4213 3.29384C18.2347 3.66717 17.9855 3.89634 17.6597 3.99217C17.1497 4.14467 16.5405 3.94884 16.2555 3.78134C15.8797 3.56051 15.4438 3.22551 14.983 2.87134C13.5122 1.73967 11.6822 0.333008 9.16715 0.333008C7.15549 0.333008 6.12215 1.36551 4.41132 3.07717C4.08549 3.40301 4.08299 3.93301 4.40882 4.25801C4.72549 4.57634 5.23382 4.58634 5.56049 4.28301C5.56882 4.27551 5.57715 4.26717 5.58549 4.25967C6.04549 3.90467 8.94382 4.24967 10.2105 5.25634C12.093 6.75217 13.4522 7.83301 15.0005 7.83301C17.2163 7.83301 19.0663 6.38217 19.9505 3.95134C20.1013 3.53634 19.9022 3.07551 19.4963 2.90051ZM15.3297 8.73384C14.923 8.56134 14.4522 8.73217 14.2547 9.12717C14.068 9.50051 13.8188 9.72967 13.493 9.82551C12.983 9.97551 12.3738 9.78217 12.0888 9.61467C11.713 9.39384 11.2772 9.05884 10.8163 8.70467C9.34549 7.57301 7.51549 6.16634 5.00049 6.16634C2.98882 6.16634 1.95549 7.19884 0.244652 8.91051C-0.0811813 9.23634 -0.0836813 9.76634 0.242152 10.0913C0.558819 10.4097 1.06799 10.4205 1.39465 10.1163C1.40299 10.1088 1.41132 10.1005 1.41965 10.093C1.87882 9.73801 4.77882 10.083 6.04465 11.0897C7.92632 12.5855 9.28549 13.6663 10.8338 13.6663C13.0497 13.6663 14.8997 12.2155 15.7838 9.78467C15.9347 9.36967 15.7355 8.90884 15.3297 8.73384Z" fill="#E34234"/>
</svg>
