<svg width="16" height="16" viewBox="0 0 16 16" fill="none" xmlns="http://www.w3.org/2000/svg">
<path d="M2.00033 0.666992C1.26366 0.666992 0.666992 1.26366 0.666992 2.00033V14.0003C0.666992 14.737 1.26366 15.3337 2.00033 15.3337H14.0003C14.737 15.3337 15.3337 14.737 15.3337 14.0003V2.00033C15.3337 1.26366 14.737 0.666992 14.0003 0.666992H2.00033ZM11.1071 4.16569C11.5218 4.16569 11.805 4.43002 11.805 4.79069C11.805 5.15136 11.5218 5.41569 11.1071 5.41569C10.6971 5.41569 10.4105 5.15136 10.4105 4.79069C10.4105 4.43002 10.6971 4.16569 11.1071 4.16569ZM5.8623 4.63574H7.18392L9.52116 11.2126H8.25944L7.70345 9.53157H5.28418L4.71777 11.2126H3.52897L5.8623 4.63574ZM6.45866 5.88835L5.55762 8.60058H7.43001L6.53678 5.88835H6.45866ZM10.5472 6.22689H11.6722V11.2126H10.5472V6.22689Z" fill="#E34234"/>
</svg>
