<svg width="16" height="16" viewBox="0 0 16 16" fill="none" xmlns="http://www.w3.org/2000/svg">
<path d="M7.86742 0.400391C6.20382 0.400391 4.62302 0.917991 3.28382 1.89319L0.659822 0.449991C0.499022 0.360791 0.296222 0.394391 0.171422 0.531591C0.0466224 0.668791 0.0326224 0.873591 0.137422 1.02599L1.76102 3.39879C1.71422 3.42519 1.67222 3.46039 1.63782 3.50599C0.610222 4.86719 0.0674224 6.49079 0.0674224 8.20039C0.0674224 12.5012 3.56662 16.0004 7.86742 16.0004C12.1682 16.0004 15.6674 12.5012 15.6674 8.20039C15.6674 3.89959 12.1682 0.400391 7.86742 0.400391ZM6.48782 4.56799C7.39822 5.06879 8.06942 5.89679 8.37342 6.87839C7.86302 7.04439 7.46422 7.46119 7.32262 7.98279C6.33502 7.88239 5.43542 7.35279 4.86822 6.52399L1.74542 1.95959L6.48782 4.56799ZM8.83542 7.60359L9.91782 9.11879C9.78782 9.21479 9.67302 9.32919 9.57742 9.45959L8.05822 8.44679C8.05982 8.43079 8.06742 8.41679 8.06742 8.40039C8.06742 7.97039 8.40942 7.62079 8.83542 7.60359ZM9.41782 11.0952C9.52342 11.3216 9.68062 11.5236 9.88902 11.6804C10.2234 11.932 10.4194 12.2712 10.4534 12.622C10.0654 12.8856 9.16782 13.2004 8.06742 13.2004C6.17222 13.2004 4.26382 12.2356 3.37902 10.376C4.36142 11.144 5.75502 11.6004 7.06742 11.6004C7.90822 11.6004 8.70982 11.4248 9.41782 11.0952ZM11.1614 12.1C11.0222 11.6956 10.7502 11.3272 10.3698 11.0416C10.1214 10.8544 10.0138 10.534 10.0898 10.2052C10.1626 9.88999 10.4538 9.63719 10.7834 9.60479C10.8098 9.60199 10.8358 9.60079 10.8606 9.60079C11.3494 9.60079 11.575 10.082 11.679 10.4972C11.8666 11.2468 11.501 11.7824 11.1614 12.1ZM7.86742 15.2004C4.00782 15.2004 0.867422 12.06 0.867422 8.20039C0.867422 6.69919 1.33662 5.27399 2.21982 4.06959L4.20822 6.97559C4.87742 7.95399 5.92262 8.59119 7.07822 8.75519L9.27902 10.2224C9.27742 10.2368 9.27342 10.2516 9.27222 10.266C8.62982 10.6064 7.85982 10.8004 7.06742 10.8004C4.86942 10.8004 2.86742 9.46559 2.86742 8.00039C2.86742 7.77919 2.68862 7.60039 2.46742 7.60039C2.24622 7.60039 2.06742 7.77919 2.06742 8.00039C2.06742 11.9396 5.08582 14.0004 8.06742 14.0004C9.27782 14.0004 10.5198 13.6404 11.0838 13.138C11.7414 12.7928 12.8266 11.7876 12.4554 10.3036C12.201 9.28439 11.5498 8.72839 10.705 8.80879C10.697 8.80959 10.6898 8.81199 10.6822 8.81279L9.24862 6.80599C9.22302 6.77039 9.19022 6.74439 9.15662 6.71999C8.80342 5.50799 7.99062 4.48159 6.87342 3.86719L4.06782 2.32399C5.19902 1.58919 6.50222 1.20039 7.86742 1.20039C11.727 1.20039 14.8674 4.34079 14.8674 8.20039C14.8674 12.06 11.727 15.2004 7.86742 15.2004Z" fill="#E34234"/>
</svg>
