<svg width="227" height="227" viewBox="0 0 227 227" fill="none" xmlns="http://www.w3.org/2000/svg">
<path d="M61.7635 124.969L116.389 64.0183C124.533 54.9195 138.946 55.4787 146.367 65.1515L186.776 117.796C187.461 118.678 187.154 119.959 186.165 120.463L94.1406 167.123C67.4405 180.655 41.7846 147.233 61.7672 124.947V124.966L61.7635 124.969Z" stroke="currentColor" stroke-width="2.8375" stroke-miterlimit="10"/>
<path d="M130.77 166.693L39.1745 119.185C38.182 118.681 37.9117 117.385 38.5968 116.519L79.495 64.2368C87.0273 54.6158 101.422 54.2011 109.491 63.3702L163.539 124.806C183.303 147.274 157.34 180.458 130.784 166.675L130.766 166.693H130.77Z" stroke="currentColor" stroke-width="2.8375" stroke-miterlimit="10"/>
<path d="M204.907 110.824L128.662 149.486C119.474 154.152 108.305 149.304 105.402 139.413L96.9695 110.532C90.8444 89.5418 105.294 68.1594 127.058 65.9968L190.005 59.7828C219.786 56.8461 231.585 97.2926 204.903 110.824H204.907Z" stroke="currentColor" stroke-width="2.8375" stroke-miterlimit="10"/>
<path d="M37.2499 59.427L100.127 66.2187C121.853 68.5591 136.122 90.0895 129.8 111.024L121.116 139.831C118.143 149.704 106.918 154.444 97.7677 149.685L21.8852 110.32C-4.67416 96.5405 7.48717 56.2015 37.2499 59.427Z" stroke="currentColor" stroke-width="2.8375" stroke-miterlimit="10"/>
</svg>
