<svg width="32" height="23" viewBox="0 0 32 23" fill="currentColor" xmlns="http://www.w3.org/2000/svg">
<path fill-rule="evenodd" clip-rule="evenodd" d="M0 1.5C0 0.947715 0.447715 0.5 1 0.5H31C31.5523 0.5 32 0.947715 32 1.5C32 2.05228 31.5523 2.5 31 2.5H1C0.447715 2.5 0 2.05228 0 1.5ZM0 21.5C0 20.9477 0.447715 20.5 1 20.5H31C31.5523 20.5 32 20.9477 32 21.5C32 22.0523 31.5523 22.5 31 22.5H1C0.447715 22.5 0 22.0523 0 21.5Z" fill="#181717"/>
<path fill-rule="evenodd" clip-rule="evenodd" d="M0.499918 11.5C0.499918 11.2239 0.723776 11 0.999918 11H31.4999C31.7761 11 31.9999 11.2239 31.9999 11.5C31.9999 11.7761 31.7761 12 31.4999 12H0.999918C0.723776 12 0.499918 11.7761 0.499918 11.5Z" fill="#181717"/>
</svg>
