<svg width="26" height="15" viewBox="0 0 26 15" fill="currentColor" xmlns="http://www.w3.org/2000/svg">
<path fill-rule="evenodd" clip-rule="evenodd" d="M19.3431 0.428637L25.7071 6.7926C26.0976 7.18312 26.0976 7.81629 25.7071 8.20681L19.3431 14.5708C18.9526 14.9613 18.3195 14.9613 17.9289 14.5708C17.5384 14.1802 17.5384 13.5471 17.9289 13.1566L22.5858 8.49971L0.999999 8.4997C0.447714 8.4997 -6.9206e-07 8.05199 -6.43778e-07 7.4997C-5.95496e-07 6.94742 0.447715 6.4997 0.999999 6.4997L22.5858 6.49971L17.9289 1.84285C17.5384 1.45233 17.5384 0.819161 17.9289 0.428637C18.3195 0.0381127 18.9526 0.0381127 19.3431 0.428637Z" fill="#181717"/>
</svg>
